<svg width="191" height="170" viewBox="0 0 191 170" fill="none" xmlns="http://www.w3.org/2000/svg">
<path opacity="0.1" d="M190.56 114.76L96.22 169.25L0 113.77L94.6 59.42L190.56 114.76Z" fill="black"/>
<path d="M187.35 49.97L100.95 0L9.64001 52.85L96.04 102.82L187.35 49.97Z" fill="#EACCB4"/>
<path d="M96.04 163.21L187.35 110.37V49.97L96.04 102.82V163.21Z" fill="#DEC5B1"/>
<path d="M96.04 163.21L9.64001 113.25V52.85L96.04 102.82V163.21Z" fill="#BFA692"/>
<path d="M45.91 82.9701L51.83 86.3801V77.2L45.91 73.79V82.9701Z" fill="#37474F"/>
<path d="M51.83 77.2099L143.14 24.3599L137.22 20.9399L45.91 73.7899L51.83 77.2099Z" fill="#455A64"/>
<path d="M48.5901 72.2299L54.5001 75.65L57.8001 73.75L51.8901 70.33L48.5901 72.2299Z" fill="#37474F"/>
<path d="M143.42 32.0601L119.23 45.9901C118.79 46.2501 118.91 46.7201 119.49 47.0601L146.8 62.83C147.077 62.9937 147.387 63.0923 147.708 63.1183C148.028 63.1442 148.351 63.097 148.65 62.98L172.84 49.0401C173.28 48.7901 173.16 48.31 172.58 47.97L145.22 32.2101C144.95 32.052 144.649 31.9565 144.337 31.9306C144.026 31.9046 143.712 31.9489 143.42 32.0601V32.0601Z" fill="#FAFAFA"/>
<path d="M155.59 55.7699C155.677 55.7694 155.763 55.746 155.838 55.7022C155.914 55.6583 155.976 55.5955 156.02 55.5199C156.086 55.4057 156.104 55.2703 156.07 55.1429C156.036 55.0156 155.954 54.9067 155.84 54.8399L133.16 41.7499C133.047 41.699 132.92 41.6916 132.802 41.7294C132.684 41.7671 132.584 41.8473 132.522 41.9543C132.46 42.0613 132.439 42.1875 132.465 42.3087C132.49 42.4298 132.56 42.5371 132.66 42.6099L155.34 55.6999C155.414 55.7485 155.501 55.7729 155.59 55.7699V55.7699Z" fill="#E0E0E0"/>
<path d="M153.07 57.21C153.179 57.2089 153.285 57.1721 153.371 57.1052C153.457 57.0384 153.519 56.9452 153.548 56.8398C153.576 56.7344 153.569 56.6227 153.528 56.5216C153.487 56.4205 153.414 56.3357 153.32 56.28L130.65 43.21C130.534 43.1439 130.397 43.1257 130.268 43.1593C130.139 43.193 130.029 43.2758 129.96 43.39C129.897 43.5074 129.882 43.6445 129.917 43.7729C129.953 43.9012 130.036 44.0111 130.15 44.08L152.82 57.16C152.897 57.2004 152.984 57.2178 153.07 57.21V57.21Z" fill="#E0E0E0"/>
<path d="M150.55 58.65C150.659 58.6488 150.765 58.6121 150.851 58.5452C150.937 58.4784 150.999 58.3852 151.028 58.2798C151.056 58.1744 151.049 58.0627 151.008 57.9616C150.967 57.8605 150.894 57.7756 150.8 57.72L128.13 44.63C128.015 44.5636 127.878 44.5459 127.749 44.5806C127.621 44.6153 127.511 44.6996 127.445 44.8149C127.379 44.9303 127.361 45.0673 127.396 45.1958C127.43 45.3242 127.515 45.4336 127.63 45.4999L150.3 58.59C150.378 58.6287 150.463 58.6493 150.55 58.65V58.65Z" fill="#E0E0E0"/>
<path d="M148.03 60.1C148.119 60.1002 148.206 60.0773 148.283 60.0334C148.36 59.9896 148.425 59.9264 148.47 59.85C148.533 59.7326 148.548 59.5955 148.513 59.4671C148.477 59.3387 148.394 59.2288 148.28 59.16L125.61 46.08C125.553 46.0389 125.489 46.01 125.42 45.9954C125.352 45.9808 125.281 45.9807 125.213 45.9951C125.144 46.0095 125.08 46.0382 125.023 46.0792C124.966 46.1201 124.919 46.1726 124.884 46.2331C124.848 46.2935 124.826 46.3607 124.819 46.4303C124.811 46.4998 124.818 46.5702 124.84 46.6368C124.861 46.7035 124.896 46.7649 124.943 46.8171C124.989 46.8693 125.046 46.9112 125.11 46.94L147.78 60.03C147.855 60.0764 147.942 60.1006 148.03 60.1V60.1Z" fill="#E0E0E0"/>
<path d="M170.51 48.41L169.62 47.9L159.3 53.86L160.18 54.37L170.51 48.41Z" fill="#455A64"/>
<path d="M166.92 46.34L165.39 45.46L155.06 51.43L156.59 52.3L166.92 46.34Z" fill="#455A64"/>
<path d="M163.33 44.26L162.45 43.75L152.12 49.72L153 50.22L163.33 44.26Z" fill="#455A64"/>
<path d="M160.64 42.69L158.86 41.6801L148.53 47.64L150.31 48.6501L160.64 42.69Z" fill="#455A64"/>
<path d="M156.15 40.12L155.27 39.61L144.94 45.57L145.82 46.08L156.15 40.12Z" fill="#455A64"/>
<path d="M153.59 38.61L151.68 37.53L141.35 43.5L143.26 44.58L153.59 38.61Z" fill="#455A64"/>
<path d="M148.98 35.97L148.09 35.46L137.77 41.43L138.65 41.93L148.98 35.97Z" fill="#455A64"/>
<path d="M146.94 34.78L146.5 34.53L136.17 40.49L136.61 40.75L146.94 34.78Z" fill="#455A64"/>
<path d="M150.56 36.95L150.12 36.6899L139.79 42.6499L140.23 42.9099L150.56 36.95Z" fill="#455A64"/>
<path d="M157.83 41.1L157.39 40.84L147.06 46.81L147.5 47.06L157.83 41.1Z" fill="#455A64"/>
<path d="M161.78 43.39L161.34 43.13L151.01 49.1L151.45 49.35L161.78 43.39Z" fill="#455A64"/>
<path d="M164.58 45.0601L164.14 44.8L153.81 50.7701L154.25 51.0201L164.58 45.0601Z" fill="#455A64"/>
<path d="M168.51 47.24L168.07 46.99L157.74 52.95L158.18 53.2L168.51 47.24Z" fill="#455A64"/>
<path d="M145.39 33.9L144.5 33.39L134.18 39.35L135.06 39.86L145.39 33.9Z" fill="#455A64"/>
<path d="M86.999 142C87.2764 142.001 87.5491 141.929 87.789 141.79C88.1315 141.548 88.4042 141.22 88.5797 140.839C88.7552 140.458 88.8274 140.038 88.789 139.62V133.22V132.75L88.4591 132.81L83.4591 129.86V137C83.4692 137.919 83.6986 138.822 84.1282 139.634C84.5578 140.447 85.1752 141.145 85.9291 141.67C86.2509 141.871 86.6197 141.985 86.999 142ZM87.999 133.7V139.62C88.0341 139.895 88.0005 140.174 87.901 140.432C87.8015 140.69 87.6393 140.92 87.4291 141.1C87.2516 141.171 87.0592 141.198 86.869 141.177C86.6788 141.156 86.4968 141.088 86.3391 140.98C85.7097 140.517 85.1955 139.916 84.8365 139.222C84.4775 138.528 84.2833 137.761 84.2691 136.98V136.46H86.129L86.4891 133.95L87.999 133.7ZM85.4291 135.7H84.2691V131.28L87.2691 133.04L85.789 133.31L85.4291 135.7Z" fill="#455A64"/>
<path d="M86.099 147.07C86.2051 147.07 86.3069 147.028 86.3819 146.953C86.4569 146.878 86.499 146.776 86.499 146.67V141.29C86.499 141.184 86.4569 141.082 86.3819 141.007C86.3069 140.932 86.2051 140.89 86.099 140.89C85.9929 140.89 85.8912 140.932 85.8162 141.007C85.7412 141.082 85.699 141.184 85.699 141.29V146.67C85.699 146.776 85.7412 146.878 85.8162 146.953C85.8912 147.028 85.9929 147.07 86.099 147.07V147.07Z" fill="#455A64"/>
<path d="M88.429 148.42C88.5 148.422 88.5702 148.404 88.6318 148.369C88.6935 148.334 88.7444 148.282 88.779 148.22C88.8061 148.175 88.824 148.125 88.8316 148.072C88.8392 148.02 88.8365 147.967 88.8235 147.916C88.8104 147.865 88.7874 147.817 88.7558 147.775C88.7241 147.732 88.6844 147.697 88.639 147.67L83.959 144.97C83.9132 144.943 83.8625 144.926 83.8099 144.919C83.7572 144.912 83.7038 144.916 83.6526 144.93C83.6014 144.944 83.5535 144.968 83.5117 145C83.4699 145.033 83.435 145.074 83.409 145.12C83.3578 145.213 83.3448 145.323 83.3728 145.425C83.4008 145.528 83.4675 145.616 83.559 145.67L88.229 148.37C88.2918 148.4 88.3597 148.417 88.429 148.42Z" fill="#455A64"/>
<path d="M71.7789 139.16C71.9355 139.159 72.0896 139.121 72.2289 139.05C72.3919 138.942 72.5226 138.792 72.6071 138.616C72.6917 138.44 72.7269 138.245 72.709 138.05V137C72.6937 136.904 72.6446 136.816 72.5703 136.752C72.4961 136.689 72.4016 136.654 72.304 136.654C72.2063 136.654 72.1118 136.689 72.0376 136.752C71.9633 136.816 71.9142 136.904 71.899 137V138.1C71.899 138.27 71.8989 138.35 71.8189 138.37C71.7389 138.39 71.6989 138.37 71.5589 138.3C71.3119 138.067 71.1172 137.785 70.9879 137.471C70.8585 137.157 70.7975 136.819 70.8089 136.48V129.33C70.8089 129.224 70.7668 129.122 70.6918 129.047C70.6168 128.972 70.515 128.93 70.4089 128.93C70.3028 128.93 70.2011 128.972 70.1261 129.047C70.0511 129.122 70.0089 129.224 70.0089 129.33V136.48C69.9893 136.958 70.0823 137.435 70.2803 137.871C70.4783 138.307 70.7758 138.69 71.149 138.99C71.3398 139.102 71.5575 139.161 71.7789 139.16Z" fill="#455A64"/>
<path d="M76.019 132.91V132.21C75.9221 130.426 75.4062 128.689 74.5132 127.141C73.6202 125.593 72.3752 124.277 70.879 123.3C70.3448 122.845 69.6828 122.566 68.9839 122.502C68.2849 122.438 67.5832 122.591 66.9751 122.942C66.3671 123.293 65.8824 123.823 65.5876 124.46C65.2929 125.097 65.2026 125.81 65.329 126.5V126.73L76.019 132.91ZM68.469 123.37C69.1794 123.401 69.869 123.619 70.469 124C71.7453 124.839 72.8257 125.943 73.6367 127.238C74.4478 128.532 74.9704 129.986 75.169 131.5L66.169 126.27C66.1376 125.764 66.2348 125.258 66.4516 124.8C66.6684 124.342 66.9978 123.946 67.409 123.65C67.7315 123.465 68.0972 123.368 68.469 123.37V123.37Z" fill="#455A64"/>
<path d="M57.339 130.92C57.4451 130.92 57.5468 130.878 57.6219 130.803C57.6969 130.728 57.739 130.626 57.739 130.52V116.83C57.7238 116.734 57.6747 116.646 57.6004 116.582C57.5262 116.519 57.4317 116.484 57.334 116.484C57.2363 116.484 57.1419 116.519 57.0676 116.582C56.9934 116.646 56.9442 116.734 56.929 116.83V130.52C56.929 130.573 56.9397 130.626 56.9604 130.675C56.9811 130.725 57.0115 130.769 57.0497 130.806C57.0879 130.844 57.1332 130.873 57.1829 130.893C57.2326 130.912 57.2857 130.921 57.339 130.92V130.92Z" fill="#455A64"/>
<path d="M58.509 120C58.5618 120.011 58.6162 120.011 58.669 120C58.7179 119.979 58.7621 119.949 58.7992 119.911C58.8363 119.873 58.8654 119.828 58.885 119.779C58.9045 119.73 58.914 119.677 58.913 119.624C58.912 119.571 58.9004 119.519 58.879 119.47L57.449 116.16L55.849 118.01C55.78 118.091 55.746 118.196 55.7545 118.302C55.7629 118.408 55.8131 118.506 55.894 118.575C55.9749 118.644 56.0798 118.678 56.1858 118.67C56.2918 118.661 56.39 118.611 56.459 118.53L57.219 117.66L58.139 119.79C58.1756 119.856 58.2294 119.91 58.2946 119.947C58.3599 119.984 58.434 120.002 58.509 120Z" fill="#455A64"/>
<path d="M53.609 128.8C53.6624 128.801 53.7155 128.792 53.7652 128.772C53.8149 128.753 53.8602 128.724 53.8984 128.686C53.9366 128.649 53.967 128.605 53.9877 128.555C54.0084 128.506 54.0191 128.453 54.0191 128.4V114.71C54.0283 114.652 54.0247 114.592 54.0086 114.535C53.9925 114.478 53.9642 114.425 53.9257 114.38C53.8872 114.335 53.8394 114.299 53.7856 114.274C53.7318 114.249 53.6733 114.236 53.6141 114.236C53.5548 114.236 53.4963 114.249 53.4425 114.274C53.3886 114.299 53.3409 114.335 53.3024 114.38C53.2639 114.425 53.2356 114.478 53.2195 114.535C53.2034 114.592 53.1998 114.652 53.2091 114.71V128.4C53.2091 128.506 53.2512 128.608 53.3262 128.683C53.4012 128.758 53.503 128.8 53.609 128.8V128.8Z" fill="#455A64"/>
<path d="M54.789 117.83C54.8418 117.84 54.8962 117.84 54.949 117.83C54.9979 117.809 55.0421 117.779 55.0792 117.741C55.1163 117.703 55.1454 117.658 55.165 117.609C55.1845 117.56 55.1941 117.507 55.193 117.454C55.192 117.401 55.1804 117.349 55.159 117.3L53.699 114L52.099 115.84C52.0642 115.88 52.0376 115.927 52.0208 115.977C52.004 116.027 51.9972 116.08 52.0009 116.133C52.0046 116.186 52.0187 116.238 52.0424 116.285C52.0661 116.333 52.0989 116.375 52.139 116.41C52.179 116.445 52.2256 116.471 52.2759 116.488C52.3262 116.505 52.3793 116.512 52.4323 116.508C52.4852 116.504 52.5369 116.49 52.5844 116.467C52.6318 116.443 52.6742 116.41 52.709 116.37L53.469 115.49L54.389 117.63C54.4291 117.698 54.4883 117.754 54.5593 117.789C54.6303 117.825 54.7101 117.839 54.789 117.83V117.83Z" fill="#455A64"/>
<path d="M37.48 109.373V124.523C37.48 125.103 37.07 125.343 36.56 125.053L12.91 111.393C12.6439 111.221 12.4227 110.988 12.2645 110.713C12.1062 110.438 12.0156 110.13 12 109.813V94.6532C12 94.0732 12.41 93.8332 12.91 94.1232L36.56 107.793C36.8279 107.964 37.0511 108.197 37.2111 108.472C37.3711 108.747 37.4633 109.056 37.48 109.373Z" fill="#FAFAFA"/>
<path d="M13.47 96.2932L14.23 96.7332V110.503L13.47 110.063V96.2932Z" fill="#455A64"/>
<path d="M16.58 98.0931L17.9 98.8632V112.633L16.58 111.863V98.0931Z" fill="#455A64"/>
<path d="M19.6899 99.8832L20.45 100.323V114.093L19.6899 113.653V99.8832Z" fill="#455A64"/>
<path d="M22.0301 101.213L23.5601 102.113V115.893L22.0301 114.983V101.213Z" fill="#455A64"/>
<path d="M25.91 103.473L26.67 103.913V117.683L25.91 117.243V103.473Z" fill="#455A64"/>
<path d="M28.14 104.733L29.78 105.703V119.473L28.14 118.503V104.733Z" fill="#455A64"/>
<path d="M32.12 107.053L32.88 107.503V121.273L32.12 120.833V107.053Z" fill="#455A64"/>
<path d="M33.9 108.063L34.28 108.283V122.053L33.9 121.843V108.063Z" fill="#455A64"/>
<path d="M30.7001 106.303L31.0901 106.533V120.303L30.7001 120.083V106.303Z" fill="#455A64"/>
<path d="M24.4401 102.643L24.8201 102.863V116.633L24.4401 116.413V102.643Z" fill="#455A64"/>
<path d="M21.01 100.673L21.4 100.893V114.663L21.01 114.443V100.673Z" fill="#455A64"/>
<path d="M18.55 99.3132L18.9301 99.5332V113.303L18.55 113.083V99.3132Z" fill="#455A64"/>
<path d="M15.2101 97.2832L15.5901 97.5032V111.273L15.2101 111.053V97.2832Z" fill="#455A64"/>
<path d="M35.23 108.853L35.99 109.293V123.063L35.23 122.623V108.853Z" fill="#455A64"/>
<g clip-path="url(#clip0)">
<path fill-rule="evenodd" clip-rule="evenodd" d="M137.684 100.153C137.684 100.153 137.684 100.153 139.399 99.1631C140.024 98.8024 140.338 98.9763 140.338 99.7791C140.338 99.7791 140.338 99.7791 140.338 102.624C140.338 102.624 140.338 102.624 143.697 100.685C143.697 100.685 143.697 100.685 143.697 97.8398C143.697 97.037 144.007 96.5024 144.712 96.0955C144.712 96.0955 144.712 96.0955 146.351 95.149C146.351 95.149 146.351 95.149 146.351 97.0186C146.351 97.0186 146.351 97.0186 145.651 97.4227L145.571 97.5604C145.571 97.5604 145.571 97.5604 145.571 105.567C145.571 105.567 145.571 105.567 143.697 106.649C143.697 106.649 143.697 106.649 143.697 102.646C143.697 102.646 143.697 102.646 140.338 104.585C140.338 104.585 140.338 104.585 140.338 108.588C140.338 108.588 140.338 108.588 138.464 109.671C138.464 109.671 138.464 109.671 138.464 101.664C138.464 101.664 138.464 101.572 138.384 101.619C138.384 101.619 138.384 101.619 137.684 102.023C137.684 102.023 137.684 102.023 137.684 100.153V100.153Z" fill="#ED1C24"/>
<path fill-rule="evenodd" clip-rule="evenodd" d="M151.269 92.1315L151.311 92.1125L151.311 94.1653L151.269 94.1789C149.865 94.9899 148.77 96.958 148.77 98.6498C148.77 100.428 149.864 101.218 151.269 100.407L151.311 100.372L151.311 102.425L151.269 102.455C148.77 103.898 146.741 102.758 146.741 99.8215C146.741 96.9713 148.77 93.5744 151.269 92.1315Z" fill="#ED1C24"/>
<path fill-rule="evenodd" clip-rule="evenodd" d="M151.311 92.1124L152.18 91.7076C154.243 90.9803 155.797 92.0977 155.797 94.5923C155.797 97.1569 154.242 100.151 152.18 101.821L151.311 102.425L151.311 100.372L152.265 99.5845C153.185 98.568 153.848 97.0487 153.848 95.7179C153.848 94.4463 153.186 93.7619 152.265 93.8409L151.311 94.1652L151.311 92.1124V92.1124Z" fill="#ED1C24"/>
<path fill-rule="evenodd" clip-rule="evenodd" d="M156.187 89.4696C156.187 89.4696 156.187 89.4696 158.804 87.9589L160.053 87.2374L160.053 89.107L159.936 89.1748C159.781 89.2643 159.466 89.4461 158.841 89.8068C158.841 89.8068 158.841 89.8068 158.841 91.8542C158.841 91.8542 158.841 91.8542 159.372 91.5477L160.053 91.1544L160.053 92.9325L159.654 93.163C159.456 93.2769 159.193 93.4288 158.841 93.6322C158.841 93.6322 158.841 93.6322 158.841 95.8574C158.841 95.949 158.841 95.949 158.921 95.9029C158.921 95.9029 158.921 95.9029 159.48 95.5802L160.053 95.2493L160.053 97.2051L159.888 97.3C159.607 97.4628 159.038 97.7909 157.906 98.4446C157.281 98.8053 156.971 98.6287 156.971 97.8259L156.972 90.8863C156.972 90.8863 156.972 90.8863 156.187 91.3392C156.187 91.3392 156.187 91.3392 156.187 89.4696V89.4696Z" fill="#ED1C24"/>
<path fill-rule="evenodd" clip-rule="evenodd" d="M160.053 87.2374L160.091 87.2157C161.81 86.223 162.825 86.704 162.825 88.3096C162.825 89.2848 162.435 90.135 162.045 90.8073C162.749 90.756 163.214 91.3765 163.214 92.3517C163.214 94.2214 161.965 96.1012 160.17 97.1373C160.17 97.1373 160.17 97.1373 160.137 97.1563L160.053 97.2051L160.053 95.2493L160.246 95.1381C160.87 94.7774 161.265 94.1023 161.265 93.3911C161.265 92.6799 160.87 92.4605 160.246 92.8213C160.246 92.8213 160.246 92.8213 160.072 92.9216L160.053 92.9325L160.053 91.1545L160.091 91.1328C160.64 90.8154 160.95 90.1892 160.95 89.5696C160.95 88.9446 160.64 88.768 160.091 89.0853C160.091 89.0853 160.091 89.0853 160.072 89.0962L160.053 89.107L160.053 87.2374V87.2374Z" fill="#ED1C24"/>
<path fill-rule="evenodd" clip-rule="evenodd" d="M166.808 83.3372C166.808 83.3372 166.808 83.3372 167.597 82.8816L167.743 82.7975L167.743 85.6477C167.667 85.8689 167.588 86.179 167.588 86.4484C167.588 86.4484 167.588 86.4484 166.963 88.8566C166.963 88.8566 166.963 88.8566 167.625 88.4741L167.743 88.4063L167.742 90.2705L167.32 90.5146C167.08 90.653 166.808 90.8103 166.498 90.9893C166.498 90.9893 166.498 90.9893 165.948 92.9122C165.793 93.6213 165.483 94.0698 164.858 94.4305C164.858 94.4305 164.858 94.4305 163.684 95.1085C163.684 95.1085 163.684 95.1085 163.684 93.1527C163.684 93.1527 163.684 93.1527 164.074 92.9276C164.233 92.8354 164.233 92.8354 164.309 92.7004C164.309 92.7004 164.309 92.7004 166.808 83.3372Z" fill="#ED1C24"/>
<path fill-rule="evenodd" clip-rule="evenodd" d="M167.743 82.7975L168.682 82.255C168.682 82.255 168.682 82.255 171.181 88.7324C171.256 88.7806 171.256 88.7806 171.411 88.6911C171.411 88.6911 171.411 88.6911 171.726 88.5093C171.726 88.5093 171.726 88.5093 171.726 90.4652C171.726 90.4652 171.726 90.4652 170.631 91.0971C170.007 91.4579 169.697 91.3675 169.537 90.7485C169.537 90.7485 169.537 90.7485 168.992 89.5491C168.992 89.5491 168.992 89.5491 167.94 90.1566L167.743 90.2705L167.743 88.4063L168.522 87.9561C168.522 87.9561 168.522 87.9561 167.902 86.2667C167.902 85.9973 167.823 85.7794 167.743 85.6477L167.743 82.7975V82.7975Z" fill="#ED1C24"/>
<path fill-rule="evenodd" clip-rule="evenodd" d="M137.684 112.966C137.684 112.966 137.684 112.966 144.476 109.044C145.101 108.683 145.491 108.813 145.491 109.616C145.491 109.616 145.491 109.616 145.491 116.378C145.491 116.464 145.491 116.464 145.57 116.418C145.57 116.418 145.57 116.418 146.195 116.057C146.195 116.057 146.195 116.057 146.195 118.019C146.195 118.019 146.195 118.019 144.556 118.965C143.851 119.372 143.541 119.195 143.541 118.393C143.541 118.393 143.541 118.393 143.541 111.545C143.541 111.545 143.541 111.453 143.462 111.499C143.462 111.499 143.462 111.499 140.338 113.303C140.338 113.303 140.338 113.303 140.338 121.401C140.338 121.401 140.338 121.401 138.463 122.483C138.463 122.483 138.463 122.483 138.464 114.385C138.464 114.385 138.464 114.385 137.684 114.835C137.684 114.835 137.684 114.835 137.684 112.966V112.966Z" fill="#ED1C24"/>
<path fill-rule="evenodd" clip-rule="evenodd" d="M151.114 105.034L151.151 105.017L151.151 107.07L151.114 107.081C149.704 107.895 148.615 109.86 148.615 111.552C148.614 113.33 149.704 114.123 151.113 113.309L151.151 113.277L151.151 115.33L151.113 115.357C148.614 116.8 146.66 115.611 146.66 112.68C146.661 109.83 148.615 106.476 151.114 105.034V105.034Z" fill="#ED1C24"/>
<path fill-rule="evenodd" clip-rule="evenodd" d="M151.151 105.017L152.048 104.596C154.148 103.847 155.642 105 155.642 107.494C155.642 110.059 154.148 113.017 152.048 114.709L151.151 115.33L151.151 113.277L152.142 112.468C153.077 111.443 153.692 109.951 153.692 108.62C153.692 107.348 153.077 106.637 152.142 106.724L151.151 107.07L151.151 105.017V105.017Z" fill="#ED1C24"/>
<path fill-rule="evenodd" clip-rule="evenodd" d="M156.032 102.372C156.032 102.372 156.032 102.372 157.751 101.379C158.376 101.018 158.686 101.195 158.686 101.998C158.686 101.998 158.686 101.998 158.686 108.759C158.686 108.846 158.686 108.846 158.765 108.8C158.765 108.8 158.765 108.8 161.03 107.492C161.03 107.492 161.03 107.492 161.03 99.4857C161.03 99.4857 161.03 99.4857 162.904 98.4036C162.904 98.4036 162.904 98.4036 162.904 106.41C162.904 106.41 162.904 106.41 165.168 105.103C165.248 105.057 165.248 105.057 165.248 104.97C165.248 104.97 165.248 104.97 165.248 98.2085C165.248 97.4057 165.558 96.8711 166.183 96.5104C166.183 96.5104 166.183 96.5104 167.902 95.5177C167.902 95.5177 167.902 95.5177 167.902 97.3873C167.902 97.3873 167.902 97.3873 167.197 97.7942C167.118 97.8403 167.118 97.9319 167.118 97.9319C167.118 97.9319 167.118 97.9319 167.117 104.78C167.117 105.583 166.807 106.117 166.182 106.478C166.182 106.478 166.182 106.478 157.826 111.303C157.126 111.707 156.811 111.533 156.811 110.731C156.811 110.731 156.811 110.731 156.812 103.883C156.812 103.883 156.812 103.791 156.736 103.834C156.736 103.834 156.736 103.834 156.032 104.241C156.032 104.241 156.032 104.241 156.032 102.372V102.372Z" fill="#ED1C24"/>
<path fill-rule="evenodd" clip-rule="evenodd" d="M169.382 94.6633C169.382 94.6633 169.382 94.6633 175.239 91.2811C175.944 90.8743 176.179 91.0943 176.179 91.8055C176.179 91.8055 176.179 91.8055 176.179 93.4973L174.459 94.49C174.459 94.49 174.459 94.49 174.459 93.6926C174.459 93.601 174.459 93.601 174.38 93.6471C174.38 93.6471 174.38 93.6471 173.29 94.2763C173.29 94.2763 173.29 94.2763 173.29 102.374C173.29 102.374 173.29 102.374 171.411 103.459C171.411 103.459 171.411 103.459 171.411 95.3612C171.411 95.3612 171.411 95.3612 170.321 95.9905C170.241 96.0366 170.241 96.0366 170.241 96.1282C170.241 96.1282 170.241 96.1282 170.241 96.9256C170.241 96.9256 170.241 96.9256 168.522 97.9183C168.522 97.9183 168.522 97.9183 168.522 96.2265C168.522 95.5153 168.757 95.0241 169.382 94.6633V94.6633Z" fill="#ED1C24"/>
<path fill-rule="evenodd" clip-rule="evenodd" d="M178.598 89.342C178.598 89.342 178.598 89.342 179.387 88.8863L179.533 88.8022L179.533 91.6525C179.453 91.8764 179.378 92.1838 179.377 92.4532C179.377 92.4532 179.377 92.4532 178.753 94.8613C178.753 94.8613 178.753 94.8613 179.41 94.4816L179.532 94.4111L179.532 96.2753L179.11 96.5194C178.87 96.6577 178.598 96.815 178.283 96.9968C178.283 96.9968 178.283 96.9968 177.738 98.8254C177.583 99.6261 177.268 100.077 176.643 100.438C176.643 100.438 176.643 100.438 175.474 101.113C175.474 101.113 175.474 101.113 175.474 99.1521C175.474 99.1521 175.474 99.1521 175.864 98.927C176.023 98.8348 176.023 98.8348 176.099 98.7052C176.099 98.7052 176.099 98.7052 178.598 89.342V89.342Z" fill="#ED1C24"/>
<path fill-rule="evenodd" clip-rule="evenodd" d="M179.533 88.8021L180.467 88.2624C180.467 88.2624 180.467 88.2624 182.971 94.737C183.046 94.7798 183.046 94.7798 183.206 94.6876L183.516 94.5086C183.516 94.5086 183.516 94.5086 183.516 96.4698C183.516 96.4698 183.516 96.4698 182.421 97.1018C181.796 97.4625 181.486 97.3721 181.327 96.7531C181.327 96.7531 181.327 96.7531 180.782 95.5537C180.782 95.5537 180.782 95.5537 179.73 96.1613L179.532 96.2752L179.532 94.411L180.312 93.9607C180.312 93.9607 180.312 93.9607 179.687 92.274C179.687 92.0046 179.612 91.784 179.532 91.6523L179.533 88.8021V88.8021Z" fill="#ED1C24"/>
<path fill-rule="evenodd" clip-rule="evenodd" d="M125.65 111.342C125.739 111.258 125.856 111.255 125.974 111.365C125.974 111.365 125.974 111.365 131.282 114.259C131.592 114.436 131.592 114.975 131.281 115.418C131.281 115.418 131.281 115.418 125.973 124.533C125.856 124.779 125.738 124.89 125.649 124.888C125.56 124.885 125.504 124.761 125.504 124.535L125.504 111.814C125.504 111.593 125.56 111.426 125.65 111.342Z" fill="#ED1C24"/>
<path fill-rule="evenodd" clip-rule="evenodd" d="M116.57 106.655L116.946 106.438L117.308 106.402C117.308 106.402 117.308 106.402 122.77 109.476C123.005 109.696 122.925 110.011 122.535 110.236C122.535 110.236 122.535 110.236 120.271 111.544C119.881 111.769 119.571 112.303 119.571 112.751C119.571 112.751 119.571 112.751 119.571 117.373C119.571 117.821 119.256 118.358 118.787 118.629C118.787 118.629 118.787 118.629 114.808 120.927C114.418 121.152 114.103 120.978 114.103 120.531C114.103 120.531 114.103 120.531 114.104 115.908C114.104 115.461 113.794 115.284 113.399 115.512L110.98 116.909C110.59 117.134 110.51 116.91 110.745 116.419C110.745 116.419 110.745 116.419 116.213 107.034L116.57 106.655V106.655Z" fill="#ED1C24"/>
<path fill-rule="evenodd" clip-rule="evenodd" d="M108.011 121.392C108.11 121.389 108.171 121.51 108.171 121.736L108.17 134.721C108.17 134.947 108.109 135.117 108.011 135.218C107.917 135.315 107.78 135.35 107.621 135.308C107.621 135.308 107.621 135.308 102.233 132.19C101.923 132.105 101.923 131.567 102.233 131.032C102.233 131.032 102.233 131.032 107.621 121.784C107.781 121.514 107.917 121.392 108.011 121.392Z" fill="#ED1C24"/>
<path fill-rule="evenodd" clip-rule="evenodd" d="M114.808 127.688C114.808 127.688 114.808 127.688 118.786 125.391C119.256 125.12 119.571 125.294 119.571 125.741C119.571 125.741 119.571 125.741 119.571 130.633C119.571 131.167 119.881 131.343 120.271 131.118L122.38 129.9C122.77 129.675 122.925 129.85 122.615 130.298C122.615 130.298 122.615 130.298 117.306 139.5C117.147 139.77 116.954 139.973 116.757 140.086C116.564 140.198 116.367 140.22 116.212 140.132C116.212 140.132 116.212 140.132 110.904 137.06C110.589 136.972 110.744 136.619 111.134 136.393C111.134 136.393 111.134 136.393 113.398 135.086C113.793 134.858 114.103 134.324 114.103 133.79C114.103 133.79 114.103 133.79 114.103 128.898C114.103 128.451 114.418 127.913 114.808 127.688V127.688Z" fill="#ED1C24"/>
</g>
<defs>
<clipPath id="clip0">
<rect width="94.128" height="33.5399" fill="white" transform="matrix(0.866007 -0.500033 -3.7683e-05 1 102.001 115.067)"/>
</clipPath>
</defs>
</svg>
