<svg width="157" height="116" viewBox="0 0 157 116" fill="none" xmlns="http://www.w3.org/2000/svg">
<path d="M77.8201 102.88C92.2789 102.88 104 91.1588 104 76.7C104 62.2412 92.2789 50.52 77.8201 50.52C63.3613 50.52 51.6401 62.2412 51.6401 76.7C51.6401 91.1588 63.3613 102.88 77.8201 102.88Z" fill="#05C766"/>
<path d="M115.01 66.14C114.23 63.39 110.66 63.66 110.66 63.66L110.75 65.57C112.82 65.21 114.1 67.63 114.1 67.63L115.01 66.14Z" fill="#FF0039"/>
<path d="M39.1698 71.92C38.3998 69.17 34.8198 69.43 34.8198 69.43L34.9198 71.35C36.9898 70.99 38.2698 73.41 38.2698 73.41L39.1698 71.92Z" fill="#E0E0E0"/>
<path d="M80.94 33.87C85.09 35.13 87.67 30.35 87.67 30.35L85.15 28.91C83.91 31.84 79.77 31.5 79.77 31.5L80.94 33.87Z" fill="#E0E0E0"/>
<path d="M57.93 39.02C56 39.23 55.77 41.65 55.77 41.65L57.06 41.8C57.06 40.38 58.83 39.8 58.83 39.8L57.93 39.02Z" fill="#FF725E"/>
<path d="M137.47 56.74C137.75 54.82 135.47 53.99 135.47 53.99L135 55.2C136.38 55.55 136.51 57.41 136.51 57.41L137.47 56.74Z" fill="#E0E0E0"/>
<path d="M69.19 13.75C69.47 11.83 67.19 11 67.19 11L66.72 12.22C68.1 12.57 68.23 14.42 68.23 14.42L69.19 13.75Z" fill="#05C766"/>
<path d="M21.5099 44.72C21.1699 47.72 25.1499 48.46 25.1499 48.46L25.8699 46.46C23.4799 46.24 23.1399 43.46 23.1399 43.46L21.5099 44.72Z" fill="#1A66FF"/>
<path d="M110.27 33.81C112.21 33.92 112.83 31.57 112.83 31.57L111.58 31.21C111.35 32.61 109.51 32.9 109.51 32.9L110.27 33.81Z" fill="#1A66FF"/>
<path d="M120.86 41.71C120.34 41.8558 119.798 41.9066 119.26 41.86C118.722 41.9077 118.18 41.8569 117.66 41.71C118.716 41.4967 119.804 41.4967 120.86 41.71V41.71Z" fill="#E0E0E0"/>
<path d="M122.56 37.36C122.76 38.4307 122.76 39.5293 122.56 40.6C122.347 39.5305 122.347 38.4295 122.56 37.36V37.36Z" fill="#E0E0E0"/>
<path d="M124.36 41.6C124.88 41.4542 125.422 41.4034 125.96 41.45C126.498 41.4023 127.04 41.4531 127.56 41.6C126.504 41.8133 125.416 41.8133 124.36 41.6V41.6Z" fill="#E0E0E0"/>
<path d="M122.67 45.96C122.456 44.8872 122.456 43.7828 122.67 42.71C122.87 43.7841 122.87 44.8859 122.67 45.96Z" fill="#E0E0E0"/>
<path d="M125.25 44.14C125.19 44.19 124.88 43.93 124.56 43.56C124.24 43.19 124.05 42.83 124.11 42.78C124.17 42.73 124.49 42.98 124.8 43.36C125.11 43.74 125.32 44.03 125.25 44.14Z" fill="#E0E0E0"/>
<path d="M125.1 39.14C125.16 39.21 124.95 39.52 124.62 39.85C124.29 40.18 123.98 40.4 123.92 40.34C123.86 40.28 124.07 39.96 124.4 39.63C124.73 39.3 125.04 39.14 125.1 39.14Z" fill="#E0E0E0"/>
<path d="M121.44 40.41C121.38 40.48 121.08 40.32 120.77 40.06C120.46 39.8 120.26 39.54 120.31 39.48C120.36 39.42 120.66 39.57 120.97 39.82C121.28 40.07 121.49 40.35 121.44 40.41Z" fill="#E0E0E0"/>
<path d="M121.29 42.59C121.36 42.64 121.17 42.95 120.87 43.28C120.57 43.61 120.28 43.82 120.22 43.76C120.16 43.7 120.34 43.39 120.64 43.07C120.94 42.75 121.23 42.53 121.29 42.59Z" fill="#E0E0E0"/>
<path d="M33.74 32.79C32.684 33.0033 31.596 33.0033 30.54 32.79C31.06 32.6442 31.602 32.5934 32.14 32.64C32.678 32.5923 33.2203 32.6431 33.74 32.79Z" fill="#FFD036"/>
<path d="M35.4398 28.44C35.6532 29.5128 35.6532 30.6172 35.4398 31.69C35.2264 30.6172 35.2264 29.5128 35.4398 28.44Z" fill="#FFD036"/>
<path d="M37.25 32.69C38.306 32.4767 39.394 32.4767 40.45 32.69C39.394 32.9033 38.306 32.9033 37.25 32.69Z" fill="#FFD036"/>
<path d="M35.5502 37.04C35.3368 35.9705 35.3368 34.8695 35.5502 33.8C35.7635 34.8695 35.7635 35.9705 35.5502 37.04V37.04Z" fill="#FFD036"/>
<path d="M38.1398 35.14C38.0698 35.2 37.7598 34.94 37.4498 34.56C37.1398 34.18 36.9298 33.84 36.9998 33.78C37.0698 33.72 37.3698 33.99 37.6898 34.36C38.0098 34.73 38.1998 35.14 38.1398 35.14Z" fill="#FFD036"/>
<path d="M37.99 30.24C38.05 30.3 37.83 30.62 37.51 30.95C37.19 31.28 36.87 31.49 36.81 31.43C36.75 31.37 36.96 31.06 37.29 30.73C37.62 30.4 37.93 30.14 37.99 30.24Z" fill="#FFD036"/>
<path d="M34.32 31.5C34.27 31.56 33.97 31.41 33.66 31.15C33.35 30.89 33.1399 30.63 33.1999 30.56C33.2599 30.49 33.5499 30.65 33.8599 30.91C34.1699 31.17 34.38 31.43 34.32 31.5Z" fill="#FFD036"/>
<path d="M34.18 33.67C34.24 33.73 34.05 34.04 33.76 34.37C33.47 34.7 33.17 34.91 33.1 34.85C33.03 34.79 33.23 34.48 33.52 34.16C33.81 33.84 34.11 33.61 34.18 33.67Z" fill="#FFD036"/>
<path d="M74.9643 82.3179L69.3738 77.513L67.7367 79.4043L75.2309 85.8453L89.0578 69.7575L87.1675 68.1328L74.9643 82.3179Z" fill="white"/>
</svg>
