<svg fill="none" xmlns="http://www.w3.org/2000/svg" viewBox="0 0 500 300">
  <g clip-path="url(#clip0)">
    <path d="M218.44 65.65a370.84 370.84 0 01-.86-37.61c.13-4.49.38-9.25 1.9-12.8 1.62-3.8 4.33-5.4 6.9-6.6 2.04-.95 4.33-1.74 6.19.1.74.75 1.39 1.9 2.22 2.17.92.3 1.83-.54 2.69-1.24 5.92-4.86 12.83-3.94 19.1-.78 1.74.88 3.53 1.93 5.33 1.55 1.04-.23 2.04-.94 3.1-1 2.83-.2 5.12 4.18 6.5 8.67a90.78 90.78 0 013.42 22.99c.29 7.98-.08 15.99-.47 23.96l-56.01.6z" fill="#FE744F"/>
    <path d="M272.37 52.35c0-18.73 0-33.91-25.43-33.91s-25.43 15.18-25.43 33.9c0 8.52 0 16.3 2.4 22.25v19.48a17.5 17.5 0 0017.44 17.44h10.55a17.49 17.49 0 0017.44-17.44V76c3.02-6.11 3.03-14.46 3.03-23.66z" fill="#FCC490"/>
    <path d="M228.46 54.28c-.22 2.11.61 4.83 3.15 4.92a2.63 2.63 0 002.44-1.59c.42-1.17.47-2.44.13-3.64-.14-.78-1.33-.45-1.2.33.22 1.17.46 4.02-1.58 3.63-1.66-.33-1.85-2.29-1.7-3.65.08-.8-1.16-.79-1.24 0zM259.11 54.32a4.48 4.48 0 00.82 2.92 2.16 2.16 0 002.17.75c2.14-.59 1.88-3.15 1.4-4.78a.62.62 0 00-.75-.43.62.62 0 00-.44.76c.27.92.78 2.58-.35 3.17-1.34.7-1.6-1.64-1.62-2.39-.02-.8-1.26-.8-1.23 0z" fill="#000"/>
    <path d="M266.18 40.39h-10.76a.96.96 0 00-.96.96v1.36c0 .53.43.95.96.95h10.76c.52 0 .95-.42.95-.95v-1.36a.96.96 0 00-.95-.96zM236.37 44.05L226.1 45.2a.96.96 0 00-.85 1.06l.14 1.25c.06.52.53.9 1.06.84l10.29-1.15c.52-.06.9-.53.84-1.06l-.14-1.25a.96.96 0 00-1.06-.84z" fill="#FE744F"/>
    <path d="M233.97 68.17a20.58 20.58 0 0025.43-2.08c.6-.54-.28-1.41-.87-.87a19.34 19.34 0 01-23.93 1.88c-.67-.44-1.29.63-.63 1.07z" fill="#000"/>
    <path d="M227.38 18.81c-.9 4.67-.07 9.5 2.34 13.6 1.18 2 3.17 3.96 5.47 3.63a5.97 5.97 0 003.74-2.78 18.46 18.46 0 003.37-9.82c0 3.32 1.08 6.54 3.1 9.18a6.47 6.47 0 004.1 2.76c2.3.29 4.47-1.52 5.38-3.67.75-2.21 1.02-4.57.79-6.9a14.88 14.88 0 007.66 7.24 4.87 4.87 0 004.22.16c1.6-.92 1.92-3.1 1.76-4.93a17.45 17.45 0 00-6.32-11.94l-35.61 3.47z" fill="#FE744F"/>
    <path d="M236.65 90.14a.63.63 0 00.6-.5.61.61 0 00-.6-.73.61.61 0 00-.62.61.63.63 0 00.62.62z" fill="#000"/>
    <path d="M184.47 134.92c-3.47 11.48-4.3 23.92-1.13 35.49 3.18 11.56 10.61 22.14 21.08 28 7.69 4.3 16.65 5.91 25.45 5.9 17.2-.04 33.8-6.04 50.88-7.99 6.4-.73 13.1-.94 18.8-3.92 8.7-4.52 13.28-14.66 13.81-24.44.53-9.78 11.27-50.46-36.61-74.96-17.24-8.83-38.61-8.68-56.1-.38a67.2 67.2 0 00-36.13 42.05l-.05.25z" fill="#E5A25E"/>
    <path d="M369.97 81.86a158.5 158.5 0 00-2.95-14.3 67.95 67.95 0 00-3.5-11 24.09 24.09 0 00-6.37-9c-3.1-2.58-7.48-4.52-11.5-3a7.9 7.9 0 00-3.37 2.38c-3.25-3.72-6.75-7.4-11.14-9.75a20.44 20.44 0 00-15.16-1.65c-10.32 2.82-16.7 12.2-19.49 22.04a58.67 58.67 0 00-2.05 13.99c-.3 9.23-1.02 18.45-2.05 27.64-.7 6.32-1.57 12.62-2.47 18.91a5.17 5.17 0 001.1 4.61 5.34 5.34 0 005.2 1.28c.93-.22 1.87-1 2.8-.5.9.5 1.57 1.3 2.51 1.73 1.83.83 3.28-.05 4.4-1.49.3-.5.69-.96 1.14-1.36.47-.32.84.04 1.21.4.53.61 1.2 1.1 1.94 1.42.78.22 1.6.13 2.3-.26.95-.47 2.25-2.17 3.4-1.53.54.4 1.03.88 1.43 1.43a5.17 5.17 0 001.76 1.39c1.77.75 3.23-.36 4.64-1.3.57-.47 1.3-.7 2.03-.67.73.15 1.43.43 2.05.84 1.44.8 2.92 1.78 4.63 1.75a7.18 7.18 0 004.27-2.02c.9-.72 2.1-1.98 3.37-1.78 1.3.2 2.15 1.83 3.04 2.66a3.84 3.84 0 004.77.56c.82-.56 1.7-1.03 2.6-1.4.96-.3 1.96-.4 2.95-.29.96.19 1.9.45 2.81.8.9.25 1.86.3 2.79.14a7.17 7.17 0 004.57-2.89 30.67 30.67 0 003.16-5.78 46.98 46.98 0 002.23-6.2c2.54-9.07 2.35-18.57.95-27.8zM368 105a44.87 44.87 0 01-4.02 11.97c-.83 1.62-1.72 3.63-3.26 4.7a4.83 4.83 0 01-4.7.42 9.4 9.4 0 00-5.82-.28c-.93.29-1.82.71-2.63 1.26-.64.4-1.43.98-2.22.68-1.2-.46-1.92-1.94-2.9-2.74a3.97 3.97 0 00-4.1-.73 17.85 17.85 0 00-3.63 2.53 3.5 3.5 0 01-3.7.67c-1.45-.61-2.7-1.66-4.23-2.1a5.16 5.16 0 00-4.56 1.1c-.53.5-1.19.83-1.9.95a2.2 2.2 0 01-1.4-.92c-.98-1.06-1.93-2.31-3.5-2.32-1.62 0-2.52 1.3-3.86 1.93a1.05 1.05 0 01-1.31-.3 6.55 6.55 0 00-1.78-1.41c-1.51-.65-2.77.26-3.66 1.41a7.4 7.4 0 01-1.24 1.48c-.63.48-1.35.03-1.9-.38a8.44 8.44 0 00-2.48-1.57c-1.1-.33-1.88.15-2.9.49-1.51.5-3.44.44-4.23-1.19-.5-1.04-.1-2.34.06-3.43l.54-3.82c.45-3.23.88-6.47 1.27-9.71a381.7 381.7 0 002.58-32.13c.27-8.43 2.07-17.14 6.85-24.22a23.82 23.82 0 0111.15-9.16 18.7 18.7 0 0114.27.13c5.26 2.35 9.21 6.78 12.9 11.06a1.03 1.03 0 001.63-.2c1.9-3.8 6.73-3.55 9.97-1.8a18.46 18.46 0 017.15 7.53A45.13 45.13 0 01364.24 65c1.17 4.28 2.17 8.62 3 12.98 1.68 8.87 2.47 18.1.75 27.03z" fill="#fff"/>
    <path d="M302.66 54.58a22.16 22.16 0 00-2.55 10.6 1.03 1.03 0 001.03 1 1.03 1.03 0 001.03-1c-.06-3.32.72-6.6 2.26-9.56.62-1.17-1.16-2.21-1.77-1.04zM305.94 65.98a42.67 42.67 0 00-1.22 9.38 1.03 1.03 0 001.03 1 1.03 1.03 0 001.03-1c.06-2.98.44-5.94 1.15-8.83.31-1.29-1.67-1.84-1.99-.55zM301.6 82.62l-.82 6.17c-.07.55.53 1.02 1.03 1.02a1.06 1.06 0 001.03-1.02l.83-6.17c.07-.55-.53-1.02-1.03-1.03a1.05 1.05 0 00-1.03 1.03zM313.15 60.17a8.61 8.61 0 015.07-4.78c1.25-.43.71-2.42-.55-1.99a10.6 10.6 0 00-6.3 5.73 1.06 1.06 0 00.37 1.41 1.04 1.04 0 001.41-.37zM309.56 51.38c1.53-1.73 3.51-3 5.73-3.68 1.26-.39.72-2.37-.55-1.99a14.59 14.59 0 00-6.64 4.22c-.88.98.57 2.45 1.46 1.46zM306.42 96.07c-.34 4.1-.49 8.22-.46 12.35a1.03 1.03 0 001.75.7c.19-.18.3-.43.31-.7-.03-4.12.12-8.24.46-12.35.1-1.32-1.96-1.31-2.06 0zM300.91 100.8l-1 11.26c-.12 1.32 1.94 1.31 2.06 0l1-11.27c.12-1.32-1.94-1.31-2.06 0z" fill="#fff"/>
    <path d="M239.56 47.84c3.26-.29 9.85-.81 9.85-.81.25 1.89.79 3.72 1.2 5.58.47 1.85.6 3.78.38 5.67a7 7 0 01-2.81 4.8 4.6 4.6 0 01-5.33-.07c-1.48-1.21-1.81-3.3-2.05-5.2l-1.24-9.97z" fill="#FE744F"/>
    <path d="M206.23 141.19l-1.05 1.74-1.24-2.46c-.35-.7-1.42-.08-1.06.63l1.55 3.09.6 30 .18 8.53a.62.62 0 101.24 0l-.62-30.18-.16-8.04 1.62-2.69a.62.62 0 00-1.06-.62z" fill="#000"/>
    <path d="M274.35 128.52a122.97 122.97 0 00-1.9-11.53c-.18-1.2-.47-2.37-.87-3.52-.93-2.25-3.6-1.33-4.4.5-.42.94-.21 2-.58 2.95a1.32 1.32 0 01-1.82.57c-1.82-.7-2.08-3.37-2.6-4.96a6.02 6.02 0 00-1.6-2.86c-.78-.59-2.2 0-2.92.44-1.88 1.12-2.77 3.11-3.66 5-.73 1.55-1.92 3.81-4 3.58-1.5-.16-1.83-2.17-2.3-3.3-.66-1.58-1.9-2.92-3.78-2.61-2.25.37-3.25 2.61-3.8 4.56a5.44 5.44 0 01-1.35 2.8c-.5.43-1.28.76-1.79.16a3.96 3.96 0 01-.5-2.4c.03-.89-.09-1.78-.34-2.63-.58-1.67-2.13-3.05-3.96-2.23-1.85.82-2.18 3.2-2.47 4.95a80.92 80.92 0 00-.64 23.07c.1.9.23 1.79.36 2.68a1.14 1.14 0 00.17 1.13 1.05 1.05 0 001.25.66.93.93 0 00.65-.63c10.86-3.13 22.2 1 33.2 1.16 3.24.09 6.48-.28 9.62-1.08a1.05 1.05 0 00.75-1c.11-5.16-.13-10.33-.72-15.46zm-34.8 13.17c-2.76.02-5.5.4-8.18 1.1a80.3 80.3 0 01-.55-17.14 52.7 52.7 0 011.23-9.03c.14-.54.51-1.93 1.33-1.75.7.15.93 1.36 1 1.93.24 2.09-.15 4.83 2.32 5.73a3.44 3.44 0 003.28-.73 6.18 6.18 0 001.9-3.2c.36-1.16.58-2.56 1.58-3.38a1.22 1.22 0 011.98.24c1 1.6 1.06 3.66 2.8 4.76 2.45 1.55 5.36-.34 6.69-2.46 1.17-1.87 1.99-5.65 4.52-6.19.65 1.2 1.12 2.49 1.42 3.82a6.74 6.74 0 002.26 3.54 3.93 3.93 0 003.91.4c1.37-.69 1.67-2.11 1.82-3.5a1.95 1.95 0 01.58-1.53c.07-.04.14-.08.21-.1.17.36.28.74.32 1.14a113.96 113.96 0 012.63 16.26c.34 3.85.48 7.7.42 11.57-11.06 2.62-22.33-1.64-33.46-1.48z" fill="#fff"/>
    <path d="M148.3 173.27c-.19-1.73-.41-3.45-.68-5.16a2.82 2.82 0 00-2.4-2.28c-1.42-.17-2.65.9-3.76 1.63a70.25 70.25 0 00-15.16 13.1 9.09 9.09 0 00-6.8-3.13h-.07c-6.9 0-11.23 6.38-13.2 10.2-5.17 10.03-5.3 22.08-5.03 32.6 0 5.12.68 10.22 2.02 15.16 1.2 3.95 3.65 9.2 8.5 11.69a9.56 9.56 0 004.4 1.12c1.22 0 2.43-.25 3.55-.72 2.02-.9 3.82-2.24 5.27-3.91 9.52-6.39 15.08-17.42 18.66-28a100.3 100.3 0 004.7-42.3zm-29.19 72.86a7.72 7.72 0 01-6.73-.34c-4.4-2.27-6.65-7.13-7.77-10.82a56.44 56.44 0 01-1.96-14.78c-.28-10.34-.15-22.17 4.87-31.9 1.82-3.51 5.78-9.4 11.91-9.4h.06c6 .03 8.39 6.28 9.28 10 .36 1.54.7 3.1 1.02 4.65a107.55 107.55 0 012.27 20.11c.04 3.35-.14 6.7-.55 10.01-.33 2.9-.92 5.78-1.77 8.57-1.73 5.3-5.8 11.92-10.62 13.9zm25.2-37.24c-2.96 11.2-7.75 23-16.56 30.92a34.02 34.02 0 003.37-7.13c.88-2.88 1.5-5.84 1.83-8.83.42-3.39.6-6.8.56-10.22a109 109 0 00-2.3-20.38c-.31-1.56-.65-3.13-1.02-4.7a19.16 19.16 0 00-3.07-7 73.2 73.2 0 0116.55-14.02 1.95 1.95 0 011.64-.42 1.61 1.61 0 011.12 1.33 99.3 99.3 0 01-2.12 40.45z" fill="#F798A0"/>
    <path d="M119.11 246.13a7.72 7.72 0 01-6.73-.34c-4.4-2.27-6.65-7.13-7.77-10.82a56.44 56.44 0 01-1.96-14.78c-.28-10.34-.15-22.17 4.87-31.9 1.82-3.51 5.78-9.4 11.91-9.4h.06c6 .03 8.39 6.28 9.28 10 .36 1.54.7 3.1 1.02 4.65a107.55 107.55 0 012.27 20.11c.04 3.35-.14 6.7-.55 10.01-.33 2.9-.92 5.78-1.77 8.57-1.73 5.3-5.8 11.92-10.62 13.9z" fill="#F798A0"/>
    <path d="M396.56 152.13c-.99-4.92-2.33-9.77-4.02-14.5a88.48 88.48 0 00-5.31-12.95c-1.92-3.55-4.64-6.8-8.54-8.18-3.41-1.21-7.6-.9-10.2 1.84-3.2 3.4-2.88 8.38-2.15 12.64.9 5.23 1.9 10.44 2.84 15.66l.7 3.8a43.16 43.16 0 00-10.75-11.6c-4-3.09-7.97-6.32-12.5-8.63a27.8 27.8 0 00-1.72-.82 25.42 25.42 0 00-11.73-4.83c-6.5-.84-13.07 1.12-18.97 3.98a65.04 65.04 0 00-31.83 34.2c-5.88 14.8-2.97 31-.3 46.7a24.24 24.24 0 0017.1 18.72c8.6 2.46 17.8.92 26.54-1 8.83-1.94 17.93-4.42 24.68-10.43 6.14-5.47 9.7-13.39 11.2-21.47.55-3.04.87-6.12.97-9.2a42.42 42.42 0 0010.09 3.18c4.48.96 9.15.43 13.3-1.5a20.49 20.49 0 008.31-8.18c4.72-8.26 4.04-18.43 2.3-27.43zm-7.3 31.8a17.03 17.03 0 01-11.25 4.5c-4.4-.01-8.76-.92-12.8-2.65-.89-.34-1.75-.71-2.61-1.11.05-4.67-.14-9.34-.58-13.99-.81-9.8-2.13-19.8-6.55-28.6a36.9 36.9 0 00-6.58-9.23 85.37 85.37 0 017.47 5.4l2.02 1.56c5.1 3.95 9.59 8.78 12.26 14.7.3.68 1.25.17 1.13-.47l-2.68-14.73-1.35-7.43a26.64 26.64 0 01-.63-7.2 9.14 9.14 0 012.33-5.55 7.2 7.2 0 014.75-2.06 11.74 11.74 0 019.69 4.75c2.65 3.27 4.15 7.36 5.66 11.25a130.5 130.5 0 014.43 13.4 77.22 77.22 0 012.5 14.02 36.8 36.8 0 01-1.23 13.72 22.22 22.22 0 01-5.97 9.72z" fill="#5FC3B7"/>
    <path d="M389.27 183.93a17.03 17.03 0 01-11.26 4.5c-4.4-.01-8.76-.92-12.8-2.65-.89-.34-1.75-.71-2.61-1.11.05-4.67-.14-9.34-.58-13.99-.81-9.8-2.13-19.8-6.55-28.6a36.9 36.9 0 00-6.58-9.23 85.37 85.37 0 017.47 5.4l2.02 1.56c5.1 3.95 9.59 8.78 12.26 14.7.3.68 1.25.17 1.13-.47l-2.68-14.73-1.35-7.43a26.64 26.64 0 01-.63-7.2 9.14 9.14 0 012.33-5.55 7.2 7.2 0 014.75-2.06 11.74 11.74 0 019.69 4.75c2.65 3.27 4.15 7.36 5.66 11.25a130.5 130.5 0 014.43 13.4 77.22 77.22 0 012.5 14.02 36.8 36.8 0 01-1.23 13.72 22.22 22.22 0 01-5.97 9.72z" fill="#5FC3B7"/>
    <path d="M326.88 224.57c.96-7.84-1.65-15.9-5.2-22.96-4.8-9.58-13.81-16.41-23.33-21.34-21.44-11.12-47.56-13.93-70.14-5.36-22.58 8.58-43.36 28.89-44.35 53.02-.38 9.3 22.05 56.26 35.78 72.41h80.18c7.5-9.53 23.4-45.62 27.06-75.77z" fill="#B7E6D4"/>
    <path d="M277.79 144.47a10 10 0 00-4.39-.5v-1.81a17.49 17.49 0 00-17.44-17.44h-7.78a17.49 17.49 0 00-17.44 17.44v3.74l-.02-1.82a11.8 11.8 0 00-5.61.4 4.07 4.07 0 00.44 7.96c1.71.35 3.48.36 5.2.02v1.5c0 3.14.85 6.22 2.48 8.91l-.14 8.03c-.13.95.11 1.9.68 2.67a5.33 5.33 0 002.56 1.23 62.72 62.72 0 0033.19-.26 4.56 4.56 0 002.55-1.4c.38-.72.45-1.57.21-2.35l-1.39-7.87c1.64-2.7 2.5-5.8 2.51-8.95v-1.35c1.32.18 2.65.12 3.95-.18a4.59 4.59 0 003.5-3.6 4.54 4.54 0 00-3.06-4.37z" fill="#FCC490"/>
    <path d="M283.15 172.62a34.47 34.47 0 01-9.99-3.18.65.65 0 00-.75.1 28.8 28.8 0 01-19.08 6.75.7.7 0 00-.59-.19 31.75 31.75 0 01-22.3-4.53.52.52 0 00-.24-.1.5.5 0 00-.32.05 14.9 14.9 0 00-4.38 2.54c-.88.66-1.74 1.35-2.57 2.08a.63.63 0 00-.1.75c1.58 3.19 4.61 5.24 7.75 6.7 1.75.82 3.57 1.46 5.36 2.17.93.36 1.85.73 2.74 1.15.93.44 1.8 1.03 2.74 1.41a5.33 5.33 0 006.54-2.32l2.8-4.6 2.16-3.54a193.6 193.6 0 005.64 5.96 9.18 9.18 0 004.53 2.97c1.76.38 3.6.09 5.15-.83 5.59-3.39 11.07-7.17 15.19-12.3.25-.33.23-.96-.28-1.04z" fill="#fff"/>
    <path d="M355.03 74.6a3.22 3.22 0 00-2.42 1.3V69.8a17.49 17.49 0 00-12.55-16.73 4.45 4.45 0 01-1.84 2.1c-1.28.65-2.64 1.11-4.05 1.36a32.75 32.75 0 00-21.35 17.19v17.27A17.5 17.5 0 00324 107.23c.86 6.5.98 13.09.37 19.62-.22 2.25-.42 4.8 1.11 6.47 1.25 1.35 3.25 1.63 5.09 1.83 2.16.23 4.6.38 6.23-1.07 1.39-1.22 1.72-3.23 1.96-5.06l2.94-21.88a17.5 17.5 0 0010.92-16.16v-1.79a3.23 3.23 0 002.42 1.3c2.44 0 4.42-3.55 4.42-7.94 0-4.4-1.98-7.95-4.42-7.95z" fill="#F9E1CD"/>
    <path d="M316.3 75.92a9.68 9.68 0 015.6-2.2c.8-.05.8-1.28 0-1.23a11.09 11.09 0 00-6.47 2.55c-.62.52.26 1.38.87.88z" fill="#31544B"/>
    <path d="M204.7 290.82c.02-31.64.02-63.48-3.96-94.64-1.12-8.76-2.58-17.54-5.33-25.57-2.76-8.03-6.92-15.34-12.49-19.7a24.57 24.57 0 00-18.08-4.86 27.87 27.87 0 00-17.87 8.8c-9.4 10.15-12.6 27.84-14.04 44.3-2.92 33.44-1.6 68.7 2.03 101.19h68.6c1.07-2.8 1.14-6.27 1.14-9.52z" fill="#F798A0"/>
    <path d="M393.56 264.4c0-36.66-29-66.38-64.8-66.38-35.78 0-64.79 29.72-64.79 66.38a67.2 67.2 0 0010.34 35.94h108.92a67.2 67.2 0 0010.33-35.94z" fill="#FCD456"/>
    <path d="M197.96 151.45c-1.67-17.64-1-58.33-24.5-66.34a35.48 35.48 0 00-12.77-2.22c.9-1.95 2.13-3.72 3.62-5.26.56-.57-.31-1.44-.87-.87a20.17 20.17 0 00-3.74 5.33c-.01-1.35.1-2.7.32-4.03.13-.78-1.06-1.12-1.2-.33-.24 1.44-.36 2.9-.35 4.36a72.4 72.4 0 00-3.15-4.34c-.5-.62-1.36.26-.88.87 1.16 1.47 2.24 3 3.28 4.56-3.16.6-6.21 1.65-9.07 3.12-13.46 6.2-19.1 26.06-18.87 33.93.87 29.03.2 52.73 1.05 81.76.31 2.52.22 5.55 1.58 6.54 2.44 1.8 3.88-3 4.62-3.93a1.13 1.13 0 011.54-.2c.16.1.28.25.37.42a2.97 2.97 0 002.82 1.75c1.29-.04 1.47-1.12 1.72-2.56a1.17 1.17 0 012.05-.56 3.03 3.03 0 002.2 1.31 4 4 0 003.2-2.84c.4-1.46.53-2.98.37-4.49a254.59 254.59 0 011.5-39.5c.58-5.07 2.16-11.2 8.02-11.54a8.62 8.62 0 016.93 3.23c6.39 7.48 8.18 17.44 8.7 27.06.48 8.96 0 18.01 1.8 26.83a2.98 2.98 0 002.38 2.4c2.12.3 2.51-2.4 4.19-2.68 2.24-.38 3.4 3.9 5.57 3.22 2.2-.66 1.34-5.38 3.64-5.25 1.02.06 1.54 1.21 2 2.12.47.92 1.55 1.85 2.4 1.27.74-17.71 1.2-35.49-.47-53.14z" fill="#FFE354"/>
    <path d="M339.7 71.13a9.2 9.2 0 018.18 2.22c.59.54 1.46-.33.88-.87a10.5 10.5 0 00-9.38-2.54c-.77.17-.45 1.36.33 1.2z" fill="#31544B"/>
    <path d="M320.27 86.39a1.95 1.95 0 100-3.9 1.95 1.95 0 000 3.9zM345.15 86.39a1.95 1.95 0 100-3.9 1.95 1.95 0 000 3.9z" fill="#000"/>
    <path d="M337.4 84.8l-.74-6.52a12.7 12.7 0 00-.3-3.01c-.36-.81-1.02-.72-1.9-.58-1.28.1-2.55.29-3.8.58-1.2.4-.73 1.25-.64 2.47l.58 7.4c-.02.7.18 1.38.55 1.96.7.87 2 .87 3.12.8 1.16-.09 2.54-.31 3.02-1.38.2-.55.23-1.14.11-1.72z" fill="#F798A0"/>
    <path d="M327.44 93.84c.7 1.82 1.89 3.4 3.43 4.58a5.38 5.38 0 005.47.56 5.5 5.5 0 002.28-2.58c.45-1.08.76-2.2.93-3.36l-12.14.71" fill="#FE744F"/>
    <path d="M280.98 40.57l-.33.03a34.78 34.78 0 00-7.11-18.02 28.14 28.14 0 00-7.26-6.4c-3-1.71-6.22-2.98-9.58-3.76a32.98 32.98 0 00-11.37-1.14c-3.29.33-6.53.96-9.7 1.88-6.18 1.75-12.3 4.46-16.66 9.33a34.19 34.19 0 00-7.93 18.17 5.95 5.95 0 00-5.04 5.86v14.4a5.96 5.96 0 004.7 5.81.58.58 0 00-.02.35 27.96 27.96 0 0020.03 20.53v1.04a1.24 1.24 0 001.23 1.23h5.29a1.24 1.24 0 001.23-1.23v-1.12a1.24 1.24 0 00-1.23-1.23h-5.3c-.2.01-.41.07-.6.19a26.45 26.45 0 01-19.44-19.62h.05a5.96 5.96 0 005.94-5.95v-14.4a5.95 5.95 0 00-5.6-5.91 33.66 33.66 0 016.27-15.68 24.38 24.38 0 016.47-5.96 39.93 39.93 0 018.6-3.9c6.37-2.11 13.17-3.36 19.84-2.12 3.45.6 6.81 1.64 10 3.1a26.2 26.2 0 017.46 5.44c5.03 5.2 7.73 12.19 8.5 19.31a5.95 5.95 0 00-4.4 5.72v14.4a5.94 5.94 0 1011.9 0v-14.4a5.97 5.97 0 00-5.94-5.95z" fill="#000"/>
    <path d="M378.61 127.48a4.28 4.28 0 01-6.28-.57c-2.52-3.24-5.34-7.92-7.13-10.72-1.8-2.8-5.43-7.41-6.56-10.5a1.13 1.13 0 011.69-1.3l4.67 4.46a1.08 1.08 0 001.3.09 1.08 1.08 0 00.42-1.25c-1.77-5.08-3.77-10.77-5.38-15.43a4.29 4.29 0 01-.34-1.88 1.47 1.47 0 011.18-1.33c.75-.06 1.31.63 1.74 1.25l3.62 5.31c-.58-1.81-1.28-3.36-2.4-6.57a1.63 1.63 0 012.95-1.4 47.72 47.72 0 013.86 6.72 15.5 15.5 0 01-.87-5.5 1.23 1.23 0 012.41-.2l6.5 22.45c1.02 3.52 2.05 7.18 1.47 10.8a10.1 10.1 0 01-2.85 5.57z" fill="#FFB5A4"/>
    <path d="M187.59 119.08a5.28 5.28 0 00-6.28-3.7c-.2.04-.38.1-.56.19-2.45-11.19-10.2-19.38-19.41-19.38-9.9 0-18.1 9.43-19.85 21.88a4.44 4.44 0 00-4.63-1.26 6.42 6.42 0 00-4.45 5.7 7.86 7.86 0 003.55 6.55c1.4 1 3.1 1.45 4.8 1.29.36-.05.72-.15 1.07-.28 2.33 11.43 10.17 19.85 19.51 19.85 9.88 0 18.09-9.4 19.87-21.83a6.6 6.6 0 005.18-3.02 7.46 7.46 0 001.2-5.99z" fill="#FFDDBE"/>
    <path d="M145.55 116.1a9.7 9.7 0 015.6-2.2c.8-.05.8-1.29 0-1.24a11.1 11.1 0 00-6.48 2.56c-.61.5.27 1.38.88.87v.01zM149.52 126.57a1.95 1.95 0 100-3.9 1.95 1.95 0 000 3.9zM174.4 126.57a1.95 1.95 0 100-3.9 1.95 1.95 0 000 3.9zM170 115.16a7.91 7.91 0 016.94.91c.66.44 1.28-.63.62-1.06a9.12 9.12 0 00-7.88-1.04c-.75.25-.43 1.44.33 1.2z" fill="#000"/>
    <path d="M158.35 124.34c1.77-.24 3.6-.21 5.37-.46.48 1.15.72 2.39.7 3.63a3.15 3.15 0 01-2.02 2.86 2.82 2.82 0 01-2.62-.73 4.58 4.58 0 01-1.27-2.47c-.16-.94-.2-1.88-.16-2.83z" fill="#FE744F"/>
    <path d="M131.9 166.84l-2.51-6.93-5.08-14c-.8-2.21-1.53-4.49-2.44-6.66a3.57 3.57 0 00-1.6-1.94 4.17 4.17 0 00-2.74-.14 60 60 0 00-12.72 4.45 67.5 67.5 0 00-3.19 1.6.53.53 0 00-.1.09l-.04.04a.49.49 0 00-.07.51c1.64 4.3 3.44 8.56 5.23 12.8a275.1 275.1 0 007.22 16.07c1.03 2.05 2.34 5.71 5.22 4.96a17.7 17.7 0 003.12-1.41l3.17-1.55a27.37 27.37 0 005.56-2.97 3.99 3.99 0 001.32-1.88c.22-1.02.1-2.1-.34-3.04zm-1.1 3.25c-.95 1.47-3.16 2.17-4.66 2.9l-6.1 2.97c-.88.43-1.9.99-2.76.2a6.49 6.49 0 01-1.08-1.63c-.46-.84-.9-1.69-1.33-2.54a269.58 269.58 0 01-6.7-14.86A387.9 387.9 0 01102.8 144a67.25 67.25 0 0114.36-5.47c1-.25 2.27-.62 3.07.27.52.78.9 1.64 1.13 2.55l1.18 3.26 4.74 13.05 2.36 6.52 1.1 2.99a3.18 3.18 0 01.08 2.92z" fill="#000"/>
    <path d="M112.7 147.66v.12a1.03 1.03 0 001.74.7c.2-.18.3-.43.31-.7v-.12a1.03 1.03 0 00-1.03-1 1.03 1.03 0 00-1.03 1z" fill="#000"/>
    <path d="M110.87 190.03a29.6 29.6 0 00-1.39-17.74c-1.12-2.74-2.68-5.5-2.38-8.44a9 9 0 013.4-5.82c1.83-1.4 3.88-2.5 6.07-3.22.7-.32 1.47-.47 2.24-.44a1.8 1.8 0 011.65 1.37c.01.62-.2 1.23-.6 1.7a29.06 29.06 0 01-3.07 3.88 9.55 9.55 0 013.58-1.62 3.26 3.26 0 013.4 1.46 3.24 3.24 0 01-.77 3.55 9.54 9.54 0 01-3.28 1.98c1.94-.63 4.27-1.21 5.88.06a3.28 3.28 0 01.07 4.85c-1.13.95-2.8 1-4.02 1.84-1.83 1.27-2.08 3.88-1.71 6.07.37 2.2 1.18 4.39.83 6.58a6.31 6.31 0 01-3.87 4.86 6.32 6.32 0 01-6.16-.8l.13-.12z" fill="#FFDDBE"/>
    <path d="M307.13 180.75a1.66 1.66 0 01-1.61.03 1.7 1.7 0 01-.9-1.35l-1.48-17.14c-.1-1.26.02-2.89 1.22-3.27 1.12-.35 2.15.74 2.68 1.78.52 1.04 1 2.3 2.11 2.67a2.8 2.8 0 002.9-1.15c.6-.91 1.16-1.87 1.66-2.85a3.46 3.46 0 012.6-1.84c1.42-.04 2.49 1.25 3.24 2.46.74 1.2 1.56 2.59 2.95 2.9 1.8.42 3.38-1.16 4.5-2.61 1.13-1.46 2.55-3.12 4.38-2.95a3.64 3.64 0 012.55 1.7c.54.9.97 1.87 1.27 2.88a2.4 2.4 0 001.23 1.62c.95.32 1.86-.57 2.34-1.44a21.86 21.86 0 011.68-3.11 2.94 2.94 0 013.08-1.22 3.05 3.05 0 011.7 1.95c.3.84.42 1.73.76 2.56.3.76.94 1.53 1.75 1.47 1.81-.12 1.53-3.6 3.3-3.94a1.74 1.74 0 011.78 1.1c.26.7.35 1.45.28 2.2l-.34 16.09c-.04 1.93-.33 4.27-2.1 5.06a3.77 3.77 0 01-3.55-.58 29.96 29.96 0 01-2.8-2.52 18.07 18.07 0 00-7.79-3.63c-9.7-2.35-20.73-1.78-29.39 3.13z" fill="#A8815E"/>
    <path d="M353.46 185.4c-.33 0-.65.04-.97.1-1.19-8.75-11.97-15.6-25.1-15.6-13.32 0-24.2 7.04-25.13 15.96a5.18 5.18 0 101.9 7.95c3.83 6.17 12.79 10.5 23.23 10.5 10.03 0 18.67-4.01 22.74-9.8a5.17 5.17 0 103.33-9.1z" fill="#FCC490"/>
    <path d="M314.1 192.96a1.95 1.95 0 100-3.9 1.95 1.95 0 000 3.9z" fill="#000"/>
    <path d="M231.38 191.39c-1.21-1.5-3.1-2.9-5.03-2.72a15.9 15.9 0 00-5.42-16.3 14.81 14.81 0 00-22.96 5.77 15.35 15.35 0 00-13.04-5.68 14.41 14.41 0 00-12.32 9.78 14.85 14.85 0 00-.77 6.71 9.06 9.06 0 00-5.51-1.46 11.67 11.67 0 00-7.92 4.17c-4.38 5-5.58 12.66-2.36 18.57a14.57 14.57 0 005.5 5.64 9.7 9.7 0 00-5.6 7.76c-.42 4.13 2.45 7.69 6.24 8.99 1.35.45 2.8.58 4.2.36-1.47 3.36.32 7.7 3.45 9.6 4.24 2.58 10.38 1.96 14.55-.49a8.86 8.86 0 002.9-2.61c.72-1.06.8-2.62 2.13-3.16 6.44-2.17 11.87 3.5 17.23 6 2.74 1.28 5.86 2.1 8.85 1.31a8.92 8.92 0 006.35-11.02 11.8 11.8 0 004.86 1.95 6.64 6.64 0 006.34-2.52c2.85-3.81 1.84-9.67.3-13.78a24.39 24.39 0 00-3.17-5.9 7.01 7.01 0 003.8-1.33 8.19 8.19 0 003.24-5.78c.64-5.27-2.7-9.97-5.84-13.86zm2.3 17.75a5.2 5.2 0 01-5.2 1.35c-.83-.28-1.3.8-.8 1.38a22.3 22.3 0 015.4 12.45c.36 3.8-.8 8.82-5.54 8.66-2.8-.09-5.17-1.92-7.31-3.54-.66-.5-1.6.47-1.13 1.12a7.34 7.34 0 01-4.9 11.66c-6.08.85-10.95-4.33-16.08-6.62a12.65 12.65 0 00-9.14-.87 4.1 4.1 0 00-2.29 2.11c-.31.92-.79 1.77-1.41 2.51a11.36 11.36 0 01-5.66 2.82c-4.06.9-9.7.37-11.57-3.98a5.32 5.32 0 01.83-5.96c.72-.7-.2-1.65-1-1.3a7.83 7.83 0 01-8.7-2.2 7.1 7.1 0 01.07-9.05 7.4 7.4 0 014.75-2.84c.9-.13.67-1.33 0-1.58a13.25 13.25 0 01-8.14-12.82c.16-5.4 3.48-11.68 9.06-13.09a7.33 7.33 0 017.52 2.32c.52.69 1.81.34 1.5-.63a13.6 13.6 0 013.69-13.66 12.75 12.75 0 0113.57-2.3 12.92 12.92 0 016.3 5.23.83.83 0 00.81.38.84.84 0 00.69-.58 13.2 13.2 0 0112.14-9.38 13.8 13.8 0 0113.25 9.21 14.79 14.79 0 01-.08 9.8.84.84 0 00.3.86.83.83 0 00.9.07c1.8-1.16 3.63.55 4.7 1.89a37.78 37.78 0 013.65 5.27c1.86 3.36 2.95 8.31-.18 11.31z" fill="#7F161A"/>
    <path d="M340.34 192.96a1.95 1.95 0 100-3.9 1.95 1.95 0 000 3.9zM337.62 183.05a7.5 7.5 0 015.18 2.38c.55.58 1.42-.3.88-.87a8.77 8.77 0 00-6.06-2.75c-.8-.03-.8 1.2 0 1.24z" fill="#000"/>
    <path d="M219.63 216.74c0-13.09-9.29-23.2-21.69-23.2-11.85 0-19.03 8.38-19.65 20.54a4.37 4.37 0 00-2.25-.66c-2.71 0-4.9 2.47-4.9 5.51 0 3.04 2.19 5.51 4.9 5.51a4.55 4.55 0 003.23-1.4 24.19 24.19 0 008.82 12.9c-2.14 6.37-5.17 16.8-2.66 20.27 1.54 2.14 4.7 1.24 6.53 1.17 2.32-.08 5.32.2 7.5-1.3 3.15-2.16 4.35-10.38 3.83-16.39 10.46-1.56 16.34-11 16.34-22.95z" fill="#C17E48"/>
    <path d="M310.1 185.55c1.87-.76 3.9-1.06 5.9-.86.8.07.79-1.17 0-1.24-2.12-.2-4.25.11-6.23.9-.72.3-.4 1.5.33 1.2z" fill="#000"/>
    <path d="M334.2 194.41c-.63 2.2-1.8 4.22-3.37 5.88a4.43 4.43 0 01-2.16 1.3 4.55 4.55 0 01-3.43-1.16 13.8 13.8 0 01-4.49-5.68 14.8 14.8 0 0013.45-.34z" fill="#fff"/>
    <path d="M244.95 300.34a3.2 3.2 0 00.66-2.16c-2.95-8.46-6.5-16.83-11.77-24.29a51.34 51.34 0 00-21.22-17.8c-9.08-3.91-19.46-4.71-29.46-3.82-15.13 1.33-29.92 6.47-41.83 15.09-11.54 8.36-20.27 20.01-24.13 32.98h127.75z" fill="#FEF795"/>
    <path d="M205.88 203.96a43.3 43.3 0 00-10.3 1.05l-.13.09c.21 2.32.25 4.65.1 6.97 0 2.34.37 4.87 1.67 6.37.78.84 1.8 1.4 2.92 1.6 1.06.32 2.2.3 3.24-.08 2.1-.9 3.4-4 3.61-7.01.07-3.01-.28-6.02-1.06-8.93l-.06-.06z" fill="#7F161A"/>
    <path d="M191.72 203.13a9.61 9.61 0 00-6.23 2.12 1.45 1.45 0 000 2.04 1.47 1.47 0 002.04 0 6.55 6.55 0 014.19-1.28 1.44 1.44 0 000-2.88zM216.33 202.52c-1.47-2.54-6.39-3.78-8.56-1.5-1.28 1.34.75 3.38 2.04 2.03l.1-.1.08-.05.3-.1.2-.03c.44-.05.88-.02 1.31.09a4.43 4.43 0 011.66.68l.02.02.1.08.14.15.13.18a1.44 1.44 0 002.48-1.45zM185.3 211.36c.13 1.55.54 3.06 1.2 4.47.54 1.14 1.42 2.55 2.9 2.34 1.2-.17 1.7-1.39 1.9-2.44.3-1.6.24-3.23-.17-4.8a.62.62 0 00-.76-.43.62.62 0 00-.44.76c.28 1.06.39 2.16.3 3.25-.05.63-.14 2.2-.94 2.43-1.03.29-1.76-1.75-2.02-2.43a11.84 11.84 0 01-.74-3.15c-.07-.79-1.3-.8-1.23 0zM208.7 210.06c.28 1.47.78 2.89 1.48 4.2.5.92 1.4 2.08 2.6 1.6 1.04-.43 1.18-1.73 1.19-2.7 0-1.54-.28-3.07-.84-4.5-.29-.74-1.48-.42-1.2.33.4 1 .66 2.05.76 3.12.05.55.28 2.1-.26 2.5-1.05.77-2.4-4.19-2.54-4.87-.15-.78-1.34-.45-1.19.33z" fill="#000"/>
    <path d="M190.7 221.76a28.71 28.71 0 005.33 5.14 9.68 9.68 0 007.02 1.78 9.48 9.48 0 005.46-3.54 24.65 24.65 0 003.22-5.8l.05.18a31.25 31.25 0 01-21.01 2.04l-.07.2zM392.69 260.23a58.16 58.16 0 00-12.23-29.49 53.96 53.96 0 00-5.47-5.92c-1.89-1.76-4.23-3.65-6.98-3.13a5.13 5.13 0 00-3.07 1.94l-.06.06a24.98 24.98 0 00-4.04 8.1 33.75 33.75 0 00-1.13 9c-.03 6.36.42 13.4 4.46 18.63a14.05 14.05 0 005.99 4.6 103.59 103.59 0 01-16.74 4.96c-4.22.86-10.86 1.31-11.78 6.67-.46 2.7.79 5.41 2.35 7.53a24.58 24.58 0 005.68 5.47c4.59 3.14 10 4.85 15.56 4.91 6.04.12 12-1.37 17.27-4.31a19.52 19.52 0 006.1-5.27 21.08 21.08 0 003.36-7.46 46.11 46.11 0 00.73-16.3zm-1.17 11.8c-.59 5.2-2.33 10.36-6.37 13.87-4.12 3.58-9.85 5.48-15.19 6.17a28.62 28.62 0 01-16.03-2.36 24.84 24.84 0 01-6.16-4.16 16.49 16.49 0 01-4.52-6.29c-.84-2.35-.55-4.92 1.58-6.47a14.76 14.76 0 016.13-2.09 107.53 107.53 0 0021.25-6.14c.51-.2.66-1.05 0-1.2-5.74-1.22-9.13-6.66-10.36-12.03a45.67 45.67 0 01-.9-9.8 34.6 34.6 0 01.85-8.55c.78-3.1 2.17-6.02 4.08-8.59a3.99 3.99 0 013.14-1.56c1.36.13 2.64.69 3.65 1.6a40.95 40.95 0 015.37 5.32c3.32 3.84 6.1 8.1 8.27 12.68a55.17 55.17 0 015.2 29.6z" fill="#fff"/>
    <path d="M360.26 256.4a135.73 135.73 0 00-8.22-27.95c-1.29-3.08-2.88-6-5.87-7.7-3.16-1.8-6.61-1.74-10.13-1.6-3.78.13-7.55.45-11.3.84-7.83.8-15.63 1.8-23.48 2.34-4.06.28-8.14.51-12.2.92-1.94.19-3.87.4-5.8.7-1.46.22-3.2.58-4.06 1.91a5.4 5.4 0 00-.64 3.72l5.35 24.34c.73 3.34 1.28 6.84 2.67 10a10.56 10.56 0 006.63 6.1c3.46 1.07 7.34.95 10.92 1 4.09.05 8.17-.05 12.25-.29 8.14-.47 16.25-1.46 24.3-2.7 4.06-.63 8.1-1.33 12.14-2.05 2.9-.53 7.15-.78 7.85-4.37.19-1.74.05-3.51-.4-5.2zm-1.08 5.8c-.7 1.37-2.36 1.76-3.74 2.04-3.79.75-7.6 1.38-11.4 2a283.87 283.87 0 01-23.1 2.94c-7.64.7-15.32.83-22.98.38-3.2-.22-6.5-.9-8.65-3.47-1.95-2.32-2.65-5.45-3.3-8.33A6325.1 6325.1 0 01281 234.9l-1.25-5.66a3.18 3.18 0 011.51-3.53c1.7-.59 3.47-.91 5.26-.97 3.82-.44 7.65-.71 11.48-.96 7.5-.5 14.94-1.28 22.4-2.1 3.62-.4 7.24-.78 10.86-1.05 1.76-.13 3.53-.23 5.3-.28 1.66-.13 3.34-.1 5.01.08a10.78 10.78 0 017.93 5.5c1.6 3.1 2.92 6.33 3.97 9.66 2.5 7.05 4.4 14.3 5.7 21.67.27 1.54.77 3.44.01 4.93z" fill="#000"/>
    <path d="M316.72 240.23c-1.46 1.87-4.17 5.62-3.34 8.2a6.06 6.06 0 005.63 4.11 5.87 5.87 0 005.5-4.22c.36-1.6.19-3.3-.48-4.8-.92-2.33-2.76-4.5-5.7-4.18a2.37 2.37 0 00-1.61.9z" fill="#000"/>
    <path d="M336.32 272.63c-2.3-2.54-3.87-4.97-6.73-11.18a7.56 7.56 0 01-.84-4.2 3.1 3.1 0 012.83-2.78 3.86 3.86 0 012.95 2.27c.5 1.2 1.2 2.3 2.03 3.3a10.96 10.96 0 01-1.35-4.2 3.74 3.74 0 012.01-3.66c1.56-.64 3.4.33 4.32 1.75a11.97 11.97 0 012.07 4.81c-.2-1.6-.3-3.22-.3-4.83.16-1.64 1.4-3.5 3.02-3.16 1.05.22 1.69 1.27 2.2 2.22l4.33 8.11c.73 1.38 1.66 2.92 3.4 2.89a3.28 3.28 0 002.95-2.58c.73-2.64-.64-5.06-.94-7.63-.17-1.43.38-3.3 1.82-3.4 1.34-.1 2.16 1.42 2.57 2.7 1.39 4.25 2.3 8.77 1.6 13.18-.69 4.41-3.2 8.72-7.2 10.69-3.12 1.53-7.1 3.1-10.46 2.25-3.03-.76-6.17-2-10.28-6.55z" fill="#FCC490"/>
    <path d="M325.92 232.92a1.56 1.56 0 00-1.35-1.15c-.21-.03-.43 0-.63.05a4.5 4.5 0 00-2.36 1.8v-.42a2.08 2.08 0 00-1.86-1.87 2.83 2.83 0 00-2.49 1.15 3.9 3.9 0 00-.64 1.52c-.2-.34-.36-.69-.56-1.02-.41-.68-.87-1.54-1.68-1.81a1.37 1.37 0 00-1.66.68 3.96 3.96 0 00-.15 2.23c.32 3.28 1.1 6.97 4.61 8.13a6.4 6.4 0 005.5-.5c1.76-1.2 2.62-3.74 3.06-5.71.31-1 .39-2.05.2-3.08zm-1.23 1.83a14.1 14.1 0 01-.61 2.47c-.47 1.35-1.16 3.1-2.57 3.7a5.54 5.54 0 01-4.02.1c-2.52-.83-3.23-3.43-3.57-5.8-.1-.58-.15-1.17-.2-1.76-.03-.49-.06-1.56.62-.8a17.38 17.38 0 012.12 3.68c.3.57 1.14.26 1.16-.32-.06-.91.11-1.83.5-2.66a1.5 1.5 0 011.77-.72c.67.33.49 1.3.41 1.9-.13.71-.1 1.44.06 2.15a.63.63 0 00.96.32c.11-.08.19-.2.23-.32a5.3 5.3 0 012.33-3.51c1.14-.66.91.92.81 1.57zM239.2 151.97a1.58 1.58 0 100-3.15 1.58 1.58 0 000 3.15zM265.6 150.83a1.58 1.58 0 100-3.15 1.58 1.58 0 000 3.15z" fill="#000"/>
    <path d="M253.84 146.03c-1.82-.04-3.63.17-5.4.6l-.07.06c.1 1.34.12 2.68.05 4.02-.1 1.28.21 2.56.87 3.67.4.47.94.8 1.54.92.55.19 1.16.17 1.7-.04 1.1-.52 1.78-2.3 1.9-4.04.03-1.74-.15-3.47-.56-5.15l-.03-.04z" fill="#FE744F"/>
    <path d="M240.33 144.4a9.63 9.63 0 00-6.55.63 1.45 1.45 0 00-.47 1.99 1.47 1.47 0 001.99.47 6.54 6.54 0 014.37-.28 1.45 1.45 0 001.53-2.15c-.2-.32-.5-.56-.87-.66zM267.47 140.49c-2.23-.4-4.52 0-6.48 1.13a1.45 1.45 0 00-.31 2.02 1.47 1.47 0 002.01.31 6.56 6.56 0 014.34-.61 1.44 1.44 0 001.36-2.27c-.22-.3-.55-.52-.92-.58z" fill="#fff"/>
    <path d="M247.66 149.92a10.4 10.4 0 11-8.34-10.2 10.51 10.51 0 018.34 10.2c0 .1.04.21.12.29a.41.41 0 00.7-.3 11.23 11.23 0 10-9.03 11.02 11.35 11.35 0 009.03-11.01c0-.11-.05-.21-.12-.3a.4.4 0 00-.7.3zM156.41 137.1c.83.9 1.86 1.61 3.01 2.1a9 9 0 003.66.7c2.62-.11 4.26-2.04 5.66-3.93.5-.68-.66-1.31-1.16-.65-1.14 1.56-2.5 3.28-4.68 3.3a7.67 7.67 0 01-5.54-2.43c-.57-.62-1.52.29-.95.9zM276.36 148.45a10.41 10.41 0 11-8.34-10.2 10.51 10.51 0 018.34 10.2.4.4 0 00.4.41.4.4 0 00.42-.4 11.23 11.23 0 10-9.04 11 11.36 11.36 0 009.04-11 .4.4 0 00-.82-.01zM244.63 160.76c3.05 4.14 10.99 4.28 13.54-.47.63-1.17-1.14-2.21-1.77-1.04a5.17 5.17 0 01-4.7 2.51c-1.82.01-4.15-.5-5.3-2.05a1.06 1.06 0 00-1.4-.37 1.04 1.04 0 00-.37 1.41z" fill="#000"/>
    <path d="M279.5 254.1l-.9 1.45a42.97 42.97 0 00-1.96-4.29c-.37-.7-1.44-.08-1.06.63a41.1 41.1 0 012.27 5.07.56.56 0 00-.13.26 119.28 119.28 0 00-.21 41.78c.13.78 1.32.45 1.19-.33a118.16 118.16 0 01.21-41.12.61.61 0 000-.23c.04-.03.08-.05.11-.1l1.55-2.5c.41-.68-.66-1.3-1.07-.63z" fill="#fff"/>
    <path d="M156.22 284.97a28.49 28.49 0 00-3.59 6.9l-.96-5.2c-.14-.78-1.33-.45-1.19.33l1.15 6.21.15.81c-.03.17 0 .34.09.48l.34 1.82.26 1.41.15.85c.02.07.02.23.03.36a.67.67 0 00-.04.88.62.62 0 00.54.3c1.18-.15.77-1.32.61-2.15l-.68-3.67-.03-.2c1.15-2.8 2.18-5.85 4.04-8.25.48-.63-.39-1.5-.87-.88zM228.33 286.12l-1.75 3.77c-.24-.96-.5-1.91-.81-2.85-.25-.75-1.44-.43-1.2.33a39.24 39.24 0 011.94 11.8.62.62 0 00.62.61.62.62 0 00.62-.61 40.68 40.68 0 00-.76-7.26l2.41-5.16c.34-.72-.73-1.35-1.07-.63z" fill="#000"/>
    <path d="M252.44 192.48c.6 2.82.76 5.71.5 8.58-.06.8 1.17.79 1.24 0 .26-2.98.07-5.99-.55-8.91-.17-.78-1.36-.45-1.2.33zM252.78 220.83c.32 2.36.51 4.74.58 7.12a.62.62 0 001.23 0c-.07-2.5-.28-4.98-.62-7.45-.11-.78-1.3-.45-1.2.33zM252.96 246.3c.4 1.72.52 3.5.37 5.27-.07.79 1.17.78 1.24 0 .15-1.88 0-3.77-.41-5.6-.18-.78-1.37-.45-1.2.32zM253.71 266.83c-.1 3.03.04 6.06.42 9.07.1.78 1.34.79 1.24 0-.38-3-.53-6.04-.42-9.07.02-.8-1.21-.8-1.24 0z" fill="#fff"/>
    <path d="M269.66 91.94c-4.64 2.75-8.97 5.99-12.92 9.66a57.26 57.26 0 01-5.86-7.34.64.64 0 00-.45-.3.63.63 0 00-.52.18 17.46 17.46 0 00-4.68 7.08c-8.5-2.21-17.02-4.35-25.56-6.42-.77-.18-1.1 1-.33 1.2 8.72 2.1 17.42 4.29 26.1 6.55a.63.63 0 00.76-.44c.8-2.49 2.2-4.74 4.07-6.58 1.8 2.62 3.8 5.08 5.99 7.37a.63.63 0 00.87 0c4-3.78 8.42-7.1 13.15-9.9a.62.62 0 00-.62-1.06zM353.48 80.8v4.73c0 .34.08.68.27.97-.18 3.85-.7 7.67-1.6 11.42-.58 2.48-1.5 4.87-2.7 7.1a10.15 10.15 0 01-4.85 4.8c-1.46.46-2.96.78-4.47.96l-4.92.86c-.78.14-.45 1.33.33 1.2l4.5-.8c1.47-.2 2.93-.48 4.37-.86a10.3 10.3 0 005.4-4.38c2.93-4.4 4.09-9.9 4.7-15.06.18-1.49.3-2.97.41-4.46a1.8 1.8 0 002.26-1.75v-4.72a1.85 1.85 0 00-3.7 0z" fill="#000"/>
    <path d="M335.18 110.96l8.7-1.87c.78-.17.45-1.36-.32-1.2l-8.71 1.88c-.78.16-.45 1.35.33 1.19zM209.2 237.64a119.84 119.84 0 01-15.91 36.47 118.48 118.48 0 01-5.94 8.26.7.7 0 00-.1-.02c-5.1-15.86-6.53-32.56-8.66-49.01-.55-4.18-1.16-8.36-1.86-12.52a1.66 1.66 0 00.97-1.59v-.36a1.85 1.85 0 00-3.7 0v.36a1.71 1.71 0 001.51 1.77c2.78 16.3 3.73 32.89 7.2 49.08 1 4.68 2.24 9.3 3.75 13.84l.02.02c-.46 5.4-.76 10.79-.9 16.2a.62.62 0 001.05.43.62.62 0 00.18-.44c.13-5.41.44-10.82.9-16.22a121.23 121.23 0 0022.69-45.94.62.62 0 10-1.2-.33z" fill="#000"/>
  </g>
  <defs>
    <clipPath id="clip0">
      <path fill="#fff" d="M0 0h500v300H0z"/>
    </clipPath>
  </defs>
</svg>
