<svg fill="none" xmlns="http://www.w3.org/2000/svg" viewBox="0 0 265 190">
  <g clip-path="url(#clip0)">
    <path fill-rule="evenodd" clip-rule="evenodd" d="M176.3 92.3s-16.8-33-55.2-38.4c-10.2-1.5-17.8 1.8-26 8.8A309 309 0 0070 94c-3.2 5.3-3.9 8.8-2.4 13.4.3 1 4.9 4.6 4.6 4.8C68.6 115 53 140 54.4 140.6c30.2 15 70.3 14 70.3 14a135 135 0 003.3-24.8c5 .5 10.2 0 15-1.6l16.3 20.4 4.3-.9s-3.8-29.1-3.6-29.3c5.6 2.9 11.9 4.1 18.2 3.6 4.7-.3 9.3-4 11.2-7.9 5.7-11 8.6-20 12-31.1 1.7-5.4 4.1-17.8 4.1-17.8l-12-4.2c-1.1-.5-17.4 30.1-17.2 31.3z" fill="#FB7B7B"/>
    <path fill-rule="evenodd" clip-rule="evenodd" d="M193.6 60.6a454.8 454.8 0 0112.3 4.7c-1.6 9-3.8 18-6.8 26.6-2.5 7.8-5.6 15.3-9.3 22.6-1.7 3-4.3 5.4-7.4 7-1.5.7-3.1 1-4.8 1-5.9.4-11.7-.7-17-3.2l3 23.8c.6 5 .6 4.6.5 4.9-.2.3-.1.2-3.4.9-1.4.3-1.3.3-1.6.2-.2 0 .9 1.2-16.3-20.2-4.6 1.5-9.5 2-14.3 1.5-.2 3.6-.4 6-.8 9.5-.7 7-2.2 14.5-2.6 15-.2.2-.3.2-.7.2-3.8 0-9.5 0-16.2-.6-17.5-1.5-36-5-51.9-12.3-2-1-2.3-1-2.5-1.5-.8-2.4 14.9-26.3 17.7-28.6-1-1-4-3.5-4.4-4.5l-.4-1.7c-1.5-6.8 2.5-11.8 6.6-17.4 4.4-5.9 12-16 16.5-21 2-2.5 4.4-4.9 7-6.8 11-8.6 19.9-8.9 32.4-5.6 12 3.2 23 9.3 32 17.7a81 81 0 0115 18.9l.1-.4a267.1 267.1 0 0117-30.6h.3zm-34 57.5c.4-.5.7 0 2.7.8 4.8 2 10 3 15 2.7 1.5 0 3-.3 4.3-.9 3-1.3 5.6-3.6 7.3-6.6a149.7 149.7 0 009.3-22.3c3.6-10.6 4.1-12.6 7-26.3l-11.7-4.2a259 259 0 00-17 31l-.1.2c0-.1-.2-.4 0 0h-.2c-.6-.2-8-17-29-29.2-12-7-25.2-9.7-32.2-9.3a29 29 0 00-15 5.4 53.8 53.8 0 00-5.2 4c-6.4 6.1-23.1 28.9-24.6 31.4-2.6 4.4-3.6 7.6-2 12.4 0 .4 3.4 3.5 4.2 4.4.3.2.5.5.3.8l-3 3.4A149.3 149.3 0 0055 140.2c10.4 5 23.3 9.3 41.4 11.8a197 197 0 0028 2c2.6-10.5 3-24 3.1-24.5.3-.4.6-.3 1.1-.3 4 .4 8.1.2 12-.8 2.5-.6 2.5-1 3-.5l16 20 1.2-.1 2.3-.5c-3.9-30-3.6-29-3.4-29.2z" fill="#212121"/>
    <path fill-rule="evenodd" clip-rule="evenodd" d="M175.3 92.4l.8-1.5h.2l.2.1-.1.3v-.1h.1l-.2.7c-.5 2.6-1.3 5.2-2.4 7.7l-.3.2-.2-.3a22 22 0 012-7.1zM158.7 87.6c.3 8.7 1.3 25 2.7 33.5l.2 1.4c0-.2-.2-.2-.3-.2l.3.2-.1.3h-.2c-.4-1-.7-2.2-.9-3.3-2-9.7-2.5-21.7-2.2-31.8l.2-.3.3.2z" fill="#fff"/>
    <path fill-rule="evenodd" clip-rule="evenodd" d="M107.1 132.8c4 1.1 3.8 1 4 1.3v.7a216 216 0 01-8.8 22.2c-.5 1.2-4.5 10-5.4 11-2 1.9-22.5-2.8-25.2-3.4-4.5-1-27.2-6.5-27.7-11.2-.4-3.8 18.1-30.7 19.1-31.8h.2c0-.1 0-.1 0 0 2 .2 37.2 9.4 43.8 11.2zM45 153.3c1.6 6.1 43.2 13.9 49.4 14 .6 0 1.2 0 1.7-.2 2.3-3.6 13-27.8 14-32.3 0-.2-43.2-12-46.7-12.8-1.9 2.5-18.4 27.5-18.4 31.3z" fill="#212121"/>
    <path fill-rule="evenodd" clip-rule="evenodd" d="M104.4 132.6l6.2 1.8a233 233 0 01-14.1 33.2c-.7.4-3.4.3-7.3-.2 1.9-5.6 4-11.1 6.5-16.5.9-2 5.1-11.2 8.7-18.3z" fill="#fff"/>
    <path fill-rule="evenodd" clip-rule="evenodd" d="M104.5 132.4c0 .1 0 .1 0 0l4.3 1.1 2.1.7v.7c-.6 4.2-11 27.8-13.2 31.9-.7 1.3-1 1.5-2 1.6-1.6 0-3.1 0-4.7-.2l-2.2-.4a.6.6 0 010-.8c1.5-4.5 2.5-7.3 4.5-12a371.6 371.6 0 0111.2-22.6zm-12 27.7c-.9 2.2-.8 1.8-2.5 6.8 1 .1 5 .6 6 .3.9-.3 14.3-30.4 14.3-32.6l-5.8-1.7c-3.7 7.9-9.2 19.8-12 27.2z" fill="#212121"/>
    <path fill-rule="evenodd" clip-rule="evenodd" d="M121 53.9s8.4 6.3 5 19.5a319 319 0 01-22.8 64.2l5.7 1.3s5.5-12.3 7.2-16.5c1.4-3.8 10.6-28.3 15.3-50a20.5 20.5 0 00-4.8-18s-4-1.3-5.7-.5z" fill="#fff"/>
    <path fill-rule="evenodd" clip-rule="evenodd" d="M129 57.2c2.8 4.3 3.8 9.5 3 14.6-1 6.4-8 31.6-15.7 51.4-3.7 9.2-7 16-6.9 16-.3.4 0 .3-6.4-1a.6.6 0 01-.4-.6c0-.8 8.2-14.2 19.7-52.8 2-6.7 3.5-12 4-14.9.5-3.7-.1-7.6-1.8-11-.9-1.8-2.2-3.5-3.7-4.8l-.1-.1v-.2l.1-.1.8-.2c1.7-.1 3.5.1 5.1.7 1 1 1.7 2 2.4 3zm-7.6-3.2c5.6 5 6.6 12.2 4.9 19.4 0 .2-9.8 39.7-22.3 63.8l3.8.8.8.2c4.6-10.5 5.8-13 8.5-20.2 5.5-14.9 10.2-30.1 13.9-45.6a20 20 0 00-4.6-17.7c-1.3-.5-3.6-1-5-.7zM67.7 109.3c.4-.5.9-1.2 1.2-.8 0 0 .1.2 0 .2l-.1.3c-.3-.3.2.3-4.5 7.5-1 1.6-2.2 2.9-2.4 3.2l-.3.1v-.3c.4-1 1.1-3.3 6.1-10.2zm.8-.5h.1v.1h.1-.1v-.1z" fill="#212121"/>
    <path fill-rule="evenodd" clip-rule="evenodd" d="M95.1 152.1a91 91 0 01-44.6-12.6c-1-1.4 10-19.6 11.2-20 2.2-1 44.3 10 44.8 10.5.6.7-8 22.1-11.4 22.1z" fill="#fff"/>
    <path fill-rule="evenodd" clip-rule="evenodd" d="M62.2 118.9c5.4 0 43.1 9.9 44.5 10.7.5.4.2 1.1 0 2a95 95 0 01-8 17.1c-.7 1-2.3 3.6-3.6 3.6a94.3 94.3 0 01-44.4-11.9c-.4-.3-.7-.5-.8-1 0-.8.3-1.7.7-2.4 2.8-5.9 6-11.5 9.7-16.8.7-1 1-1.3 1.9-1.3zm-.3 1.1a94.7 94.7 0 00-11 19.2c0 1.5 23.7 12.5 44.2 12.7 2.9 0 10.4-18.5 11-21.6A443.6 443.6 0 0061.9 120z" fill="#212121"/>
    <path fill-rule="evenodd" clip-rule="evenodd" d="M73.3 144.3a26 26 0 00-3.6 5.9c0 .3 4.4 1.7 5 1.5a61 61 0 003.5-5.9c-.1-.3-3.8-1.8-4.9-1.5z" fill="#fff"/>
    <path fill-rule="evenodd" clip-rule="evenodd" d="M78.7 145.9A44 44 0 0175 152l-.4.2c-1.7-.2-3.4-.7-4.9-1.4-.9-.5-.5-1 0-2a32.8 32.8 0 013.7-4.8c1-.3 3.9.6 4.8 1.1.3.2.5.3.5.7zm-8.4 4c1.3.6 2.7 1 4 1.2.8-1 2.6-4 3.3-5.1-1-.5-3.2-1.6-4.2-1.4a39.8 39.8 0 00-3 5.4zm7.5-3.8zm-4.4-1.5zm0-.5c-.1 0-.1 0 0 0z" fill="#212121"/>
    <path fill-rule="evenodd" clip-rule="evenodd" d="M117.5 79.2a87.4 87.4 0 01-5.8 12c-5 8.5-7.7 10.2-8.2 10.7v-.2.3h-.4c-.3-.4.3-.4 2.7-3.7 1.8-2.5 4-6.2 5.5-8.9l5.8-10.5h.3v.3z" fill="#fff"/>
    <path fill-rule="evenodd" clip-rule="evenodd" d="M146.8 133v.3l-1.3 1a28 28 0 01-18 3.2l-.3-.3.3-.2c5.6 0 12.6-1 17.6-3.3 1.7-.8 1.1-.8 1.7-.7z" fill="#212121"/>
    <path fill-rule="evenodd" clip-rule="evenodd" d="M130.6 60c1 .8 5.3 4.5 6 4.9 1 .4 4.5 1 4.8-1 3.5 4.3 5.1 9.9 6.4 15.6 2.7 11.8.4 23.8-1.8 35.6-.9 4.5-1.5 9.1-2.7 13.5l-.3-.3c-4.8 1.5-9.9 2-14.9 1.5-.4-9.9 4.5-21 6.6-42.2.6-6 1.8-12.4 1-18.3-.3-2.1-1.7-3.7-5.1-9.2z" fill="#fff"/>
    <path fill-rule="evenodd" clip-rule="evenodd" d="M130.7 59.9c.8.5 4.7 4 6 4.6.7.5 3.2.7 4 0l.3-.3c.1-.3 0-.6.3-.7.3 0 .4.1.6.4a42 42 0 016.7 17.1c2.2 10.6.1 22.8-1.9 33.1-1.1 6.4-1.7 10.7-2.8 14.5 0 .3-.1.5-.4.6a.6.6 0 01-.6-.2c-.3-.3-5.3 2.3-14.8 1.3a.6.6 0 01-.5-.4v-4c.6-7.9 4.1-17.9 6.5-37 .8-7.5 2-13.2 1.3-18.8 0-1-.2-1.9-.7-2.8-1.2-2.3-4.3-7-4.3-7.3V60H130.7zm1 1.5c1.4 2 2.7 4 3.8 6.3 1.2 2.5.8 9.1.5 12.2-1 11.8-2.8 23.5-5.4 35-1 4.6-2 9.7-2 14.4 4.9.5 9.8 0 14.4-1.6.9-3.7 1.1-5.3 2-10.2 1.6-9.4 4-19.6 3.4-30.2a55 55 0 00-5-19.8l-1.9-3c-.5 1-2 1.2-3.1 1-1.9-.1-2.2-.5-4.6-2.5-2.5-2-2.3-2-2-1.6z" fill="#212121"/>
    <path fill-rule="evenodd" clip-rule="evenodd" d="M129.7 59c1.3 1.4 5.7 8.2 6 10.3.8 5.9-.4 12.3-1 18.3-.6 6.2-1.6 12.4-2.8 18.5-1-6-3.1-15.2-4-19.7l1-3.4c1.7-1.3 4.3-3.2 4.2-3.4 0-.2-1.6-1.2-2.9-2.1l1.2-5c1-4.6.4-9.4-1.7-13.6z" fill="#fff"/>
    <path fill-rule="evenodd" clip-rule="evenodd" d="M130 58.9c1.5 1.7 5.6 7.9 6 10.2.9 6 .1 10.4-.7 17.7a186.9 186.9 0 01-3.3 19.8h-.3c-.5-.2-.3 0-1.4-5.7-3.3-16.7-3.2-13.6-2.6-15.9l.7-2.3c.1-.2 0 0 1.4-1l2.6-2-2.3-1.8c-.2-.1-.4-.2-.3-.5 1.5-6.3 2.9-10.2.3-17-.7-1.5-.8-1.4-.6-1.6.2-.2.3-.1.4 0zm1.9 44c1.5-8.3 1.9-12 2.4-16.8.5-4 1.5-10.4 1.1-15.1 0-2-.2-2.5-1.6-5.2-1-1.9-2.3-3.9-3-5a21.4 21.4 0 011.3 9.6c-.2 2-1.3 6.8-1.3 6.9l2.5 1.8a.6.6 0 01.3.4.6.6 0 01-.1.5 50.6 50.6 0 01-4.2 3.3v.3c-.3.7-.7 2.2-.8 2.9l3.4 16.5zM147.3 109.6c-.3 2.1 0 4.3 1 6.3 2 4.7 6.9 10.2 8 11.7a46.1 46.1 0 017.4 19.8l-.1.3h-.3v-.4.2c-.9-3.7-2-7.3-3.5-10.8-2.6-6.2-3.3-7-5.7-10-3.5-4.4-8.5-10.7-7.4-16.7.2-.7.1-.5.4-.7l.2.3z" fill="#212121"/>
    <path fill-rule="evenodd" clip-rule="evenodd" d="M147 133.1c8.9 11.2 4 5.2 6.8 8.7 22.1 28.6 31.2 39.3 40.3 58.4 4.7 10 .5 26.7-2.5 39.3a261 261 0 01-7 23.5c-.4.2-16-.2-17.2-2-2.2-2.9-.7-42-.7-42L146 197s2 20.6-4 29c-18.8 26-48.2 33.6-48.2 33.6s-10.2-9.6-11.4-10.9c-.6-.7 24-34.3 30.1-40.8-4-9.3-11.5-20.2-16.8-40 .3 0 .6 0 .9-.2.5-.3 3.6-7 6.8-14.2 7 .8 14.2 1.2 21.4 1.1 1.3-5.6 2.3-11.4 2.7-17.2 8.5.4 15.3-1.6 19.5-4.2z" fill="#fff"/>
    <path fill-rule="evenodd" clip-rule="evenodd" d="M178.1 180c4.2 6.2 5.5 12.7 8.8 19.4 1.5 3 7 5.5 7.1 8.9.3 3.8 2.7 7.5 2.1 11.3a240.7 240.7 0 01-10.5 42c-.6 1.8-.5 1.9-1.2 2-2.1.1-16.3-.2-17.5-2.3-2.2-3.2-.9-38-.7-41.8 0-.3 1.2 1-11-11.8l-8.6-9.2a61 61 0 01-2.7 25 35 35 0 01-5.2 7.3 96.4 96.4 0 01-44 29c-1 .3-1.1.4-1.4.1l-8.2-7.8c-3.4-3.2-3.3-3.1-3.3-3.5 0-2.2 24.2-34.4 30-40.9-3-6.7-6.7-12.4-11.3-23.7-2-5.3-3.8-10.7-5.3-16.1 0-.6.6-.4 1-.6.6-.3 6.7-14 6.8-14.1.3-.3.2 0 9.2.6 5 .3 9.3.4 12.2.4 1-4.2 1.8-8.4 2.3-12.6.5-4.6.4-4.4.6-4.6.4-.1 8.1.8 16.3-2.4 3.1-1.3 3.2-1.9 3.5-1.6-.2.2-.2.2 0 0 5 6.2 24.2 36.9 31 47zm-43.4-42.7c-2.3.3-4.7.4-7 .3-.5 5.6-1.3 11.2-2.6 16.7 0 .3 0 .4-.3.5-3.2.2-6.3.1-9.5-.1-9.5-.4-11.8-1-11.8-.8-2 4.7-3.7 8.2-5.2 11.4-1.3 2.5-1.4 2.7-2.2 2.9 1.4 5 3 10 5 14.7 5 12.2 1.9 7.9 1.9 9.1 0 .5 9.8 15.5.4 28A456 456 0 0083 248.4c.5.7 10.7 10.3 10.8 10.4 8-2.2 21-8.4 30.6-15.9a84 84 0 0017-17.5c4-5.4 4.4-17 4.2-23.8 0-4.9-.4-4.7-.1-5.1a.6.6 0 01.6-.2c.3 0-.5-.7 10 10.6 12 12.6 11.1 11.7 11.2 12 0 .1-1.5 39.3.5 41.7l1 .5c3.3 1 12.9 1.4 15.3 1.3a244 244 0 008.7-30.3c2-8.8-2-22-5.8-30.5l-3.7-7.4c-1.5-7.3-6-14.4-11-21.1-5.7-8-19.7-32.6-25.4-39.8a31.1 31.1 0 01-12.2 3.9z" fill="#212121"/>
    <path fill-rule="evenodd" clip-rule="evenodd" d="M144.5 167.7c2 12 1.8 30.6 1.8 29.8v.2h-.2c-.3 0-.3-.1-.3-.3-1.2-13.9-1.7-29.5-1.7-29.7l.2-.2.2.2z" fill="#212121"/>
    <path fill-rule="evenodd" clip-rule="evenodd" d="M133.2 108.1v.3c-.2.4-3.6 18.4-3.3 19.3.7 2.8 8.9 4 10 2 .6-1 6.9-19.1 6.7-19.3a384 384 0 00-13.1-2.6" fill="#fff"/>
    <path fill-rule="evenodd" clip-rule="evenodd" d="M133 108.1v-.1h.3v-.1-.2c.2-.2 8.7 1.3 9 1.4 4.7.8 4.6.8 4.8 1.2a.7.7 0 01-.1.6c0 1.2-5.6 16.6-6.2 18.3-.4 1-.6 1.4-1.7 1.8-2.6.9-8.5-.2-9.6-2.9-.2-.4-.2-.5 0-2a352.5 352.5 0 013.5-18zm.5 0l-.2.4c0 .1-2.9 17.2-2.9 19.1.5 2 6 3 8.3 2.3.3 0 .6-.2.7-.5.3-.1 6.6-18.3 6.6-18.6-3.6-1-12.7-2.7-12.5-2.7zm13.4 2.8zm0 0zm-.5 0zm-13-2.4z" fill="#212121"/>
    <path fill-rule="evenodd" clip-rule="evenodd" d="M134.7 104.7a9.8 9.8 0 00-2.4 4c0 .3 12.4 3.1 14.9 3.3.5 0 .3-3.6 0-4.1-.4-.6-12.5-3.2-12.5-3.2z" fill="#fff"/>
    <path fill-rule="evenodd" clip-rule="evenodd" d="M147.4 107.4c.2.2.4.4.4.7.2 1 .3 1.8.2 2.7 0 .7 0 1.5-.6 1.8a93 93 0 01-15.5-3.7.4.4 0 010-.3c.5-1.5 1.4-3 2.6-4 .5-.3 12 2 13 2.8zm-14.6 1.1l14 3v-2l-.1-1.3a261 261 0 00-12-3.3 10 10 0 00-2 3.6z" fill="#212121"/>
    <path fill-rule="evenodd" clip-rule="evenodd" d="M126.3 116.6l2.4.5c.1 0 1.5-4.3 2.4-3.8 0 0 .7 0 .7 1.3 0 .2-.8 3.3-.5 3.4 5.2 1.1 5.7 0 6.1 1.4.8 2.2-6 1.9-6 1.9 1.1.3 5.4-.3 6.4.4.6.4.2 1.2-.3 1.8-.8 1-6.4.7-6.4.7s4.8.2 5.8 1c.5.4-.5 1.4-1.1 1.5-4 .1-8-.6-11.6-2.1" fill="#fff"/>
    <path fill-rule="evenodd" clip-rule="evenodd" d="M131 123.6c1.1 0 5.2.2 6-.4.3-.3.5-.6.5-1-.7-.5-4.2-.1-5.7-.3-.5 0-.7 0-.8-.4a.6.6 0 01.2-.7 14 14 0 012.4 0c.8-.1 2.8-.3 3.3-1v-.1l-.1-.5c-.4-.2-1.7.1-5-.6-1-.2-1.2-.2-1-1.3a48 48 0 01.5-3.3v-.1l-.2-.1h-.1c.1 0-.2-.5-1.6 2.6-.6 1.4-.1 1.2-3 .4h-.3l.1-.4 2.4.4c.4-1 1.1-3.2 2-3.7l.4-.1a1.2 1.2 0 011 .4l.2.7c.1.6 0 .9-.4 2.9v.6c1.2.3 2.5.4 3.8.5 1 0 1.9 0 2.3.8a1.5 1.5 0 010 1.5l-.5.5c.4.1.8.3 1.1.7a1.3 1.3 0 01.2 1c-.1.5-.4 1-.8 1.4l-.5.4c-.7.3-.7.1-.4.3l.4.3c.7.7-.6 2-1.5 2.2-4 0-8-.7-11.6-2.3l-.2-.3c.3-.2.2-.2.4-.1a30.2 30.2 0 0011.3 1.7h.2l.6-.6c-1.6-.5-3.3-.7-5-.8-.4 0-1 0-1-.6a.6.6 0 01.4-.5h.1zm5.5 1.9zm-4.8-7.7zm0 0zm-3-1zm2.2-3.1zm0 0zm0 0zM204 51.7v-.1-.7-.1-.1a5.6 5.6 0 00-3.8-1.3 4.1 4.1 0 00-3.4 1.8c-.5.9-.3 4-.5 3.9l-.2.6-1.8 5.4v.2h-.4a.4.4 0 010-.4c0-.7 1.3-5.3 1.5-6 .2-.5-.2-2.9.4-4.2.7-1 1.7-1.8 2.8-2.2 1-.3 2-.4 2.9-.2 1 .2 2 .6 2.9 1.2a2.2 2.2 0 01.8 2 1.2 1.2 0 01-.4 1l-.2.2c-1.3.5-2.7.7-4 .5l.7 1.9c.3 1.2.1 2.5-.5 3.6h-.3v-.2c.8-1.7 0-4-1.1-5.4l-.1-.3a.5.5 0 01.2-.5h.2c1.5 0 3-.1 4.3-.6zM207.6 59.9c0 .7-.3 1.4-.5 2a6.4 6.4 0 01-2.3 3h-.3c0-.4 0-.2.2-.7.4-1.1.6-1.3 1.4-2.7l1.1-1.8.3-.1.1.3z" fill="#212121"/>
    <path fill-rule="evenodd" clip-rule="evenodd" d="M199.8 52.3c1 0 3.8.1 4.5-.6l-.1-1.1-.3-.3a6.4 6.4 0 00-4-1.3c-.8.1-.8.5 3.7-14 .2-.4.2-.7.8-.8 2.3-.2 10.4 1.1 13.3 3.3.6.5.7.7.7 1a429 429 0 01-7.3 21.2c-.4.7-.3 1.1-2.3.8-2.5-.5-5-1.2-7.4-2-.6-.2-1-.3-1-.8.6-1.4-.1-3.6-1-4.7a.4.4 0 01.1-.7h.3zm3-3.3l1.5.7.4.5a2 2 0 01.1 2c-.5.9-3.2 1-4.3 1a6.4 6.4 0 011 4.3c1.7.5 6.7 2 8.4 2a306.4 306.4 0 007.3-21 28.4 28.4 0 00-12.6-3.4v.2L200 48.6c1-.1 1.9 0 2.7.4z" fill="#212121"/>
    <path fill-rule="evenodd" clip-rule="evenodd" d="M213.1 37.4c1 .4 2 1 2.9 1.7.3.4.2.6-.2 1.7-1.4 4.6-5 14.3-6 16.8-.1.5-.2.7-.7.8a29.6 29.6 0 01-8.4-2.2l-.1-.3-.2-1c-.6-1.6-.8-1.3-.6-1.8.2-.9.2-.8 1-.8 1 0 2.1 0 3.1-.3.2 0 .3-.2.4-.3v-.5a1.3 1.3 0 00-.6-1.2 9 9 0 00-2-.8l-.3-.1V49v-.1l3.7-12.2a.7.7 0 01.5-.3h2.7a.6.6 0 01.4.6c0 .6-.2.6 0 .6l3.5 1c0-.6.2-1.3.9-1.2zm-7.2-.1l-4 11.4 1 .4c1.3.5 2.2 1 2 2.5a1 1 0 01-.2.7 5 5 0 01-2.6.8c-1.7.1-1.4 0-1.5.2.4.7.7 1.4.9 2.2 2.3.9 4.8 1.5 7.3 1.8 0 0 5-13.7 6.2-17.5l-.1-.1a7 7 0 00-1.6-1c0 .4-.2.7-.5 1-.4.2-.4 0-3.6-.9-1.5-.3-2-.1-1.6-1.5h-1.7z" fill="#212121"/>
    <path fill-rule="evenodd" clip-rule="evenodd" d="M215.4 49.2c0-.1.2-1.4-.5-1.8-1-.3-2.1-.5-3.2-.5-1.3 0-1.9.2-2.3 1.6-.4 1.4 2.2 1.8 3.6 2.2 1.5.4 2 0 2.4-1.5z" fill="#fff"/>
    <path fill-rule="evenodd" clip-rule="evenodd" d="M215.6 49.2c-.2 1.7-1 2.1-2 2a18 18 0 01-2.3-.4c-1.2-.3-2.6-.9-2.5-2.2.1-.6.4-1.1.7-1.6a2 2 0 011.5-.6c1 0 2 0 3.1.3 1.3.4 1.6.8 1.6 2v.5zm-4.8-1.7a1 1 0 00-.3.2c-.3.3-.5.7-.6 1v.2c.4.4.9.6 1.3.7a51.7 51.7 0 003.3.7c.3-.3.6-.7.7-1.2 0-.3-.1-1-.4-1.3-1.3-.3-2.6-.4-4-.3z" fill="#212121"/>
    <path fill-rule="evenodd" clip-rule="evenodd" d="M213.4 56.2s.1-1.2-.5-1.5c-.9-.4-1.8-.5-2.8-.5-1.1 0-1.6.2-2 1.5-.3 1.2 2 1.6 3.1 1.9 1.3.3 1.8.1 2.2-1.4z" fill="#fff"/>
    <path fill-rule="evenodd" clip-rule="evenodd" d="M213.6 56.3c-.2 1.5-.6 1.4-.6 1.5a2 2 0 01-1.7.3c-1.8-.3-4-.8-3.7-2.5.2-1 .6-1.7 1.6-1.9 1 0 2.2 0 3.3.4.7.2 1 .4 1.2 1.2l-.1 1zm-3.7-1.5c-.7 0-.8.1-.9.2l-.3 1a63.3 63.3 0 003.8 1.2c.3-.1.6-.9.7-1v-.4l-.3-.7-.3-.1c-.9-.2-1.8-.3-2.7-.2z" fill="#212121"/>
    <path fill-rule="evenodd" clip-rule="evenodd" d="M214.5 52.7s.1-1.3-.7-1.7c-1.1-.4-2.3-.6-3.6-.5-1.4 0-2 .1-2.5 1.5-.4 1.4 2.6 1.9 4 2.2 1.7.4 2.4.2 2.8-1.5z" fill="#fff"/>
    <path fill-rule="evenodd" clip-rule="evenodd" d="M213.7 54.6c-.4.2-1 .3-1.4.2-1.4-.2-2.8-.5-4.2-1a1.7 1.7 0 01-1-1.7c.1-.6.4-1.2.8-1.6.7-.7 1.9-.6 2.8-.5 1 0 2.8.2 3.6.9a2.1 2.1 0 01.4 1.8 2.3 2.3 0 01-1 1.9zm-4-3.6a1.3 1.3 0 00-1.1.5l-.4.7c.2.3.4.5.7.6 1.2.5 2.5.8 3.8 1.1h.7c.4-.2.7-.8.9-1.2 0-.5-.1-1-.4-1.3-.6-.4-3.4-.4-4.2-.4z" fill="#212121"/>
    <path fill-rule="evenodd" clip-rule="evenodd" d="M132 39.9s-3.5-6.1-7.7-1.9c-.4.5-.6 1-.7 1.6a4 4 0 00-.2 1.8 5.2 5.2 0 003.7 3.8l1.5.3h.7s-2.6 9-3 9.4c-.1 0 6.6 8.3 10.3 10 1.2.5 4 .8 4.6-.5.8-2-2-6-2.1-6.3.2-1.5.6-3 1.2-4.6h1c.8-.3 1.6-.3 2.6-.4 1.2-.2 2.4-.9 3.7-1 1.9-.2 3.9-.3 5.4-1.5 2-1.6 1.7-4 1.7-6.3v-1.9c-.1-.2-.5-.5-.3-.7.2-.2.6-.2.9-.3.7-.4 2-1.8 1.5-2.7-.4-1-1-2-1.6-2.8-.6-.6-1.6-1.4-1.4-2.4.5-2.5.5-5.1 1-7.6 0-.5.6-2 0-2.5-1.4-1.1-4.2-.7-5.8-.5-4.4.5-8.4 1.2-12.3 3.3a9.2 9.2 0 00-3 2c-1.6 2.2-2 12-1.7 11.7z" fill="#fff"/>
    <path fill-rule="evenodd" clip-rule="evenodd" d="M125.9 54.6a90.9 90.9 0 002.6-8.7c-1.6-.4-2.6-.4-4-1.9a5.3 5.3 0 01-1.4-2.5v-1c0-.5.1-1 .3-1.4.1-.5.4-1 .8-1.4 2.6-2.5 5.3-1.6 7.5 1.3 0-2.4.3-7.3 1.1-9.5.3-1 1-2 1.9-2.6a24 24 0 016.8-3 45 45 0 0111.3-1.7c.9 0 1.8.3 2.5.9.6.7.2 2 0 2.7-.4 1.8-.5 6-1 7.9 0 .6 1.4 1.8 1.7 2.2a13 13 0 011.5 3.1c0 .4 0 .7-.2 1a4 4 0 01-2 2c-.4 0-.2 0-.1.3V45c.2 1.5 0 3-.5 4.5-.6 1.1-1.5 2-2.6 2.4-2.1 1-3.9.6-5.7 1.2-1 .4-2.2.7-3.3.8-.6 0-1 0-1.6.2h-.8c-.4 1.3-.8 2.6-1 3.9-.1.3 0 0 1.3 2.4.5 1 .8 2.1 1 3.3 0 2.2-2.1 2.6-4.3 2.2-1.4-.4-2.8-1-3.9-2.1a57.5 57.5 0 01-6.9-7.1c-1-1.3-1.3-1.6-1-2zm5.8-14.7a9 9 0 00-1.8-2 3.5 3.5 0 00-4.9-.1c-1 .7-.8 1-1 2-.6 1.6.2 3 1.5 4.2.7.5 1.6.8 2.5 1h1c.5 0 .5.2.6.3.1.2 0 .4-.1 1-.5 1.9-2 6.8-2.7 8.6 0 .1 5.6 6.7 9 9a5 5 0 002.4.8c.7.1 1.9.2 2.4-.3v-.1a3 3 0 000-2l-1-2.2c-1.2-2-1.2-1.6-1-2.7.2-1.4.7-2.8 1.2-4.1.4-.6 1-.4 1.3-.4 0-.1 2.4-.2 3.4-.5l2.5-.8c1.5-.3 4.3 0 6-1.8 1.2-1.3 1.1-3 1.1-4.9v-2.3l-.4-.7c0-.7.8-.9 1.3-1 .5-.3.9-.7 1.1-1.2l.2-.6a71.3 71.3 0 00-1.5-2.9c-.7-.6-1.5-1.4-1.5-2.4l.4-3.7.4-3.5.5-2.6v-.1c-1.3-.9-3-.8-4.7-.6-5.2.5-10.8 1.4-15 4.4-.6.4-1 1-1.3 1.6-1 3.4-1.5 6.9-1.4 10.4v.1c.2.3-.4.5-.5.1zM126 54.6z" fill="#212121"/>
    <path fill-rule="evenodd" clip-rule="evenodd" d="M123.5 31.2l-.8 1.5a5 5 0 00-1 1.8c-.1.9.5.9 1 1.3.2.2-.2 1.2-.3 1.4 0 .8.4 1.5.8 2.1l1.1-1.3a5 5 0 012.6-1.4c2.6-.6 3.4 1.7 4.8 3l.7 1.8 1 1.7c.2.5-.4 1.2-.2 1.8.2.8.9 1.4 1 2.1.2.4-.2.7 0 1.2.2.8 1 1.5 1.4 2.3.4.6.2 1.5.7 2.1a9.5 9.5 0 008.1 3.6L151 55c1.7-.2 3.9-.3 5-1.8l1-1.9c.4-.5.7-1 .9-1.7 0-.7 0-1.4-.3-2.1-.1-1 .1-1.2-2.3-3.7-.3-.3-.1-1-.4-1.3-.8-.8-3-.3-4-.2-1.1 0-2.2.2-3.2.6a3.1 3.1 0 00-1.6 2.3c-.2.7 0 2.4-.5 2.9-.1.1-2.3-.3-3 .3-.7.2-1.5 0-2.2-.2-.6-.4-.8-1.2-1.4-1.6-.4-.3-.7-.4-.9-.8l-.4-1.2c-.3-.4-.7-.4-1-.8-.2-.5 0-1.1 0-1.7-.1-.4-.6-.8-.6-1.3-.3-1.3-.5-2.7-.6-4 0-.7-.4-4.6 0-5h1.3c1 0 2-.4 2.8-.9.9-.5 1.6-1.5 2.3-1.9.8-.4 1.8 0 2.6 0 1.3-.5 2.4-1 3.5-1.8.7-.3 2 .4 2.6.6.4.2 1.8-.7 2-.5.4.4.9.7 1.4.8 1.4.4 3.7-.7 3.1-2.4-.1-.5-.9-.7-1.2-1-.5-.2-1.3 0-1.8.2l-3 .4c-.5.2-1 .2-1.6.3-1.4.3-2.8.3-4.2.4-2.1.3-4.3.8-6.5 1-2.2 0-4.5 0-6.6.3l-3 .9-1.6.5c-1.5.6-2.8 1.4-4 2.5z" fill="#212121"/>
    <path fill-rule="evenodd" clip-rule="evenodd" d="M155.4 42.3c.2.3.2.6.2.9 0 .4 0 0 1.7 2 1 1.2.7 1 1 3 .5 2.2-.5 2.6-1 3.8-.4 1-1 1.8-1.8 2.4-1.7 1-2.8.9-6.6 1.5l-4.9.9a10.2 10.2 0 01-8-3.8c-.4-.7-.6-1.4-.7-2.2-.3-.7-1.4-1.6-1.5-2.4-.2-.4-.1-.8 0-1.1v-.1l-.2-.7-.7-1.3c-.4-.8 0-1.4 0-1.8a17.5 17.5 0 01-1.5-3.6c-1.4-1.5-2-2.7-3.4-3-1 0-2 .4-2.8 1-.3 0-.5.2-.7.4l-.9 1.2c-.5.5-.8 0-1-.7-.7-1.4-.5-1.4-.3-2.2.2-.7.2-.5-.4-1-1.2-.8.3-2.5.8-3.4l.5-1c.2-.1.2-.1 0 0 .7-.9 3-2 3.8-2.3l1.5-.7c2.7-.8 2.3-1 5.3-1.3 2.6-.2 4.3 0 6.9-.4l4-.7c2-.2 3.3-.2 6-.7l1.2-.3c.7 0 1.2 0 1.8-.2.9-.2 1.7-.6 2.5 0 .4.1 1.3.4 1.4 1 .6 1.9-1.6 3.5-3.5 3.2-.6-.1-1.2-.4-1.7-.9-.8.3-1.4.7-2.1.5-.5-.2-1.6-.8-2-.6l-1.4.8c-2.6 1.5-3.1.9-4.3 1-.6 0-.9.4-1.7 1.2l-1.3.9c-.8.4-1.7.6-2.5.8H136v3c0 2 .6 5.3.6 5.4.2.5.7.6.6 1.8v.9c.3.3.7.2 1.1 1l.3 1v.2h.1l.6.4c.7.5.9 1.2 1.4 1.6.6.2 1.2.2 1.7.1 1-.3 2-.4 2.9-.3.3-.8-.7-4 2.8-5.4l2.7-.4c1.3-.1 3.8-.6 4.6.6zM131.7 39c.4.5.3.2 1.1 2.4.6 1 1 1.4 1 2l-.2 1.3.5 1c1 1.5.7 1.6.5 2.2v.1c.4 1.1 1.1 1.4 1.5 2.4l.5 1.9c.6 1.1 3.1 3 6 3.4 2 .2 2.8-.4 8.4-1.2 1.3 0 2.6-.4 3.8-.9 1.2-.7 1-1.5 2-3a2.3 2.3 0 00.4-2.5l-.2-1.3-.1-.3-1.1-1.4c-1-1.1-1.1-1-1.2-1.6l-.1-.6c-.6-.5-3 0-3.8 0-.7 0-1.4.1-2 .3-.6.1-1 .4-1.4.8-1.1 1.1-.4 2.4-.9 3.9-.3 1-1 .8-1.6.7-2.5 0-1.1.4-2.6.4-2.8.2-2.6-1.3-3.5-2l-.8-.5-.6-1.5v-.1l-.2-.1c-.4-.1-.7-.4-.8-.7a4 4 0 01-.2-1.9 8 8 0 01-.5-1 56.2 56.2 0 01-.7-9.1c.3-1.2.7-.9 1.8-.8.8 0 1.6-.3 2.4-.6l1-.8c.3-.1 1-1.4 2.3-1.6 1 0 1.5.3 2.5 0 1.1-.4 2.6-1.5 3.2-1.7.9 0 1.8.2 2.6.7.3.1 1.3-.5 1.9-.5.4 0 .4.2 1 .6 1.3.8 3.2 0 3.2-1.2V26v-.2l-.7-.4c-.8-.4-.3-.4-2 0-.8.1-1.7 0-2.5.2-2 .4-4.1.7-6.2.8-2.4.3-4.3.7-6.5.9-3.3.1-6-.1-8 .6-3.8 1.3-1.8.4-4.4 1.6-1 .4-2 1-2.7 1.8-.2 0-.6 1-.8 1.3-.2.4-1 1.2-1 2.1v.1l.1.1c.3.4 1 .4 1 1.1l-.3 1.2c0 .5.2 1 .5 1.5.6-1 1.4-1.7 2.4-2.1 3.1-1.3 4 0 6 2.3z" fill="#212121"/>
    <path fill-rule="evenodd" clip-rule="evenodd" d="M122.4 34.4c-.4.2-4-2.3-5.2-7.4-1-4.7 3.2-9.1 7-11.5 3-1.8 6.1-2.3 9.4-3 6.7-1.6 7-2.4 14-1.8 2.3.2 5.9.2 7.6 2 1.4 1.5 2 3.4 2 5.4l-.2 2.1v.6c.4.2 8.2-.4 9 .7 1.3 2.2-14.9 3.9-17.8 4.4-4.3.6-8.5 1.8-12.5 3.6H134c-5 .7-7.8 3-11.5 5z" fill="#fff"/>
    <path fill-rule="evenodd" clip-rule="evenodd" d="M165.5 20.6c.6.2 1 .6 1 1.2 0 .8-.9 1.3-1.6 1.6-3 1.2-9.2 2-12.4 2.4-3.8.4-7.5 1-11.2 2-2 .5-3.8 1.2-5.6 2-.8.3-1-.1-4.1.6-1.7.4-3.3 1-4.9 2l-4.3 2.3s.1 0 0 0c-.6-.1-1-.4-1.4-.8-2.4-2-4-5-4.3-8-.2-4.9 4.7-9.7 8.8-11.6a33 33 0 017.4-2.2c4.5-1 6.5-1.8 8.5-2 3.3-.2 6.6 0 9.8.4 3.6.5 5 1.8 6 4 .4 1.3.6 2.6.6 4l-.3 1.8c1.6 0 6.3-.3 8 .3zm-43.2 13.6zm17.5-22.7c-10 2.6-12.2 2.3-16 4.8-4 2.8-7.5 7-6 11.5.8 3.1 3.3 6 4.5 6.4l5-2.8c2.3-1.3 4.8-2 7.4-2.2.8 0 .8 0 1.1-.2 6.9-3.4 15.5-4 22.6-5.2 1.3-.2 6-1 7-2-1.3-.6-5.9-.4-7.8-.4-.6 0-1 0-1.2-.5v-.3c0-1.8.3-1.4.2-3.3-.1-1-.4-1.9-.8-2.7-1.3-3.2-5.1-3.1-8.7-3.4a24 24 0 00-7.3.3zM151.3 28.7c2 0 4.4 1.5 5 3.4 0 .2 1 3.3 0 5.3-1.7 3.2-6.4 3.3-8.2 1.3a9.3 9.3 0 01-1-6.8 4.4 4.4 0 014.2-3.2zm.2 1a3.5 3.5 0 00-3.4 2.7c-.3 1.6 0 4.5 1 5.7.6.4 1.4.7 2.1.8a4.4 4.4 0 004.3-2c.6-1.5.7-3 .3-4.6l-.2-.3a5 5 0 00-4.1-2.3z" fill="#212121"/>
    <path d="M151.9 35.2a.6.6 0 01-.6-.6l-.1-1.3.5-.1.4-.5c.2.2.2.4.3.8v1.1a.6.6 0 01-.5.6z" fill="#212121"/>
    <path fill-rule="evenodd" clip-rule="evenodd" d="M151.5 30.4l.2.2c-.3.3.2.1-2.5.7l-2 .6-1.4.4h-.5c.1-.4 0-.4.3-.5a6 6 0 012.7-1.5c1-.3 2.2-.3 3.2 0z" fill="#212121"/>
    <path d="M135.5 35.7a59.8 59.8 0 0112.3-1.3.6.6 0 01.2.4.6.6 0 01-.4.6h-.2a59 59 0 00-12.1 1.3.6.6 0 01-.2-.8l.4-.2z" fill="#212121"/>
    <path fill-rule="evenodd" clip-rule="evenodd" d="M154 46.2l-.1.3c-.2.4-.5.7-.8.9a2.8 2.8 0 01-2.2.2l-.6-.3-.2-.4c.3-.2.1-.1.8-.2h.4c.5 0 1-.1 1.3-.3 1.3-.3.8-.3 1.3-.2zM139.7 59.1l5.6 2.7c2.7 5.2 5 10.6 7 16.1 0 0-4 2.1-3.8 2.2l3.8 3.4s-1.6 15.3-4.5 22.6c.9-7.3-.3-18.6-2-25.8-1.2-5.7-5.3-19.8-6.1-21.2z" fill="#fff"/>
    <path fill-rule="evenodd" clip-rule="evenodd" d="M145.5 61.6l3 6c1.5 3 2.8 6.3 4 9.5.6 1.4.7.8-3.2 3l3 2.6c.4.4.5.5.5.8l-.4 3.5a94 94 0 01-4 19l-.3.6a.6.6 0 01-.8-.1c-.3-.5 0-.2.2-4.7 0-4.9-.2-9.8-1-14.6a179.3 179.3 0 00-6.9-28.3h.2c-.1.2 0 .1 0 0l5.7 2.7zm.3 16.4c2 7.6 2.9 15.4 2.9 23.2 0 .4-.1.5.2-.7 1.3-5.5 2.2-11.2 2.8-16.8-3.8-3.4-3.7-3.2-3.8-3.5 0-.6 0-.5 3.8-2.5-1.9-5.4-4.1-10.6-6.7-15.6-1.3-.8-2.9-1.6-4.9-2.5 1.4 3 4.5 13.9 5.7 18.4z" fill="#212121"/>
    <path fill-rule="evenodd" clip-rule="evenodd" d="M72.5 112c17.8 10.5 51.1 14 51.1 14s3.3-10.6 2.9-11A64.5 64.5 0 0090 99.3" fill="#FB7B7B"/>
    <path fill-rule="evenodd" clip-rule="evenodd" d="M78.1 114.6c13 5.5 32 9.3 45.1 10.8 0-.1 2.7-9 2.7-10.2a52.7 52.7 0 00-15.5-10 70.4 70.4 0 00-20.2-5.6h-.3v-.3c.1-.4 5.7.5 8.9 1.2a59.6 59.6 0 0126.8 13c1.5 1.2 1.5 1.1 1.4 2a114.8 114.8 0 01-3 11c-.2 0-.3.1-.4 0-14.5-1.5-38.3-6.4-51-14.2-.2 0-.2 0-.3-.4.8-.2-.5-.1 5.8 2.7z" fill="#212121"/>
    <path fill-rule="evenodd" clip-rule="evenodd" d="M70.6 111.5c3.6 2 7.4 3.6 11.3 5a221 221 0 0041.3 8.9c.3-.6 2.5-8.4 2.7-10l-.2-.4A65 65 0 0090 99.6H90v-.3l.4-.1a65 65 0 0134.6 13.5l2 1.9c.3.4.1 1 0 1.7a152 152 0 01-3 10.2h-.3c-15.4-1.7-40.1-6.7-53.4-14.7l-.1-.4h.5z" fill="#fff"/>
    <path fill-rule="evenodd" clip-rule="evenodd" d="M154 20v.7h-.5c-.3-.3-2 0-2.2 0-5.7.6-19 4.8-27.6 9.6l-.8.2-.5-.4v-.7l.5-.6c10-5.6 28.9-10.3 31-8.7z" fill="#212121"/>
  </g>
  <defs>
    <clipPath id="clip0">
      <path fill="#fff" d="M0 0h265v190H0z"/>
    </clipPath>
  </defs>
</svg>
