<svg fill="none" xmlns="http://www.w3.org/2000/svg" viewBox="0 0 265 190">
  <path fill-rule="evenodd" clip-rule="evenodd" d="M93.17 138.84a78 78 0 01-5.68 5.18c-1.94 1.63-3.8 3.38-5.86 4.86-.48.34-.98-.4-.6-.79 1.76-1.85 3.78-3.47 5.67-5.19a73.6 73.6 0 015.87-4.86c.47-.35.99.4.6.8zm-16.56-25.8c-3.61 1.32-7.29 2.51-11.01 3.49-3.75.98-7.62 1.45-11.27 2.43a.49.49 0 00-.16.83c.09.07.2.11.31.11 3.86.11 7.87-.88 11.58-1.84a63.35 63.35 0 0011.02-3.97c.6-.28.14-1.26-.47-1.04zm3.3-24.37a79.23 79.23 0 00-7.9-3.91c-2.79-1.26-5.47-2.22-8.25-3.37-.48-.2-.86.6-.4.83 2.67 1.32 5.14 2.7 7.88 3.95a79.98 79.98 0 008.23 3.41.51.51 0 00.43-.91zm18.86 7.74c.17-.71-.84-1-1.18-.41-1.3 2.3-1.75 5.1-1.85 7.72-.1 2.54.05 5.5 1.35 7.75.28.47 1.11.2 1-.32-.6-2.42-.85-4.9-.73-7.39.09-2.54.78-4.91 1.4-7.35zm3.92-9.57c-1.3.87-3.22 3.75-3.52 5.45a.65.65 0 001.22.45 24.64 24.64 0 012.94-4.95c.57-.7-.15-1.28-.64-.95zm-.95 42.04a31.22 31.22 0 01-11.14-24.6 31.99 31.99 0 0112.53-24.41.55.55 0 00-.24-.97.55.55 0 00-.4.07 32.24 32.24 0 00-13.47 26.55c.16 11.85 6.06 20.6 15.3 27.25 5.08 3.65 10.88 7.5 12.18 14.08.1.58 1 .54.94-.07-.83-8.6-9.82-12.97-15.7-17.9zm72.72-33.98c-.26-.52-1.18-.12-.96.43a25.59 25.59 0 01-.39 20.44c-3.65 7.73-10.44 10.59-15.64 16.62-2.61 3.03-4.78 6.87-4.4 11a.5.5 0 00.5.47.5.5 0 00.49-.48c.25-4.94 2.93-8.6 6.24-11.83 5.24-5.09 10.87-8.2 14.12-15.2 3.13-6.73 3.36-14.75.04-21.45zm5.15 44.96c-2.39-1.4-5.5-3.37-8.01-4.38-.57-.23-.8.56-.41.89 2.08 1.71 5.32 3.5 7.7 4.94 2.61 1.56 5.22 3.15 7.96 4.52a.63.63 0 00.85-.21.63.63 0 00-.18-.86c-2.55-1.77-5.23-3.33-7.9-4.9zm28.5-31.92a85.3 85.3 0 00-9.42-.4c-3.19-.06-6.37-.09-9.56 0-.55.02-.6.94-.03.98 3.13.23 6.28.34 9.42.43 3.18.18 6.38.19 9.56.01a.52.52 0 00.04-1.02zm-16.6-25.57c2.66-.74 5.24-1.7 7.74-2.85a39.47 39.47 0 007.18-4.08c.56-.43-.08-1.26-.68-.98-2.45 1.13-4.77 2.53-7.2 3.69-2.34 1.1-4.98 2.4-7.34 3.37a.46.46 0 00-.2.55.46.46 0 00.5.3zm-35.88-25.15c-7.1-5.35-12.96-7.49-21.68-9.36-.5-.1-.35-.89.14-.87 3.27.18 6.5.85 9.56 2-2.16-4.86-6.3-8.4-9.83-9.26-3.95 1.62-9.65 6.36-11.37 8.43 2.2 6.45-4.38 11.8-12.16 8.69a44.06 44.06 0 00-12.58 7.84c3.3 1.5 6.75 7.33 7.82 12.26 4.7-1.76 10.14-3.64 15.26-3.12 5.12.52 20.95 8.43 27.95 9.99-3.43-5.43-.9-18.32 6.89-26.6z" fill="#F97D7D"/>
  <path fill-rule="evenodd" clip-rule="evenodd" d="M114.87 148.97c5.44 7.87 2.57 19.64 8.81 27.23 7.17 8.71 21.92 5.19 26.13-3.02 4.2-8.2 1.41-13.93 5.35-27.32-12.4 7.34-32.03 5.96-40.3 3.1zm32.5 19.65c-2.27 2.88-5.93 4.83-9.35 5.96a20.89 20.89 0 01-10.98.84.46.46 0 01-.34-.51.47.47 0 01.46-.4c3.55.22 7.11-.27 10.47-1.45a27.12 27.12 0 009.13-5.22c.48-.39.92.38.6.78zm1.45-7.56c-2.4 3.3-5.99 5.27-9.87 6.35-2.73.77-10.92 1.97-13.82 1.15-.47-.13-.42-.88.02-.88 4.4-.09 8.79-.66 13.07-1.7a21.79 21.79 0 009.77-5.56c.42-.43 1.18.15.83.64zm.02-8.04c.43-.27 1.05.28.65.7-2.7 2.88-8.26 5.27-12.04 6.27a31.48 31.48 0 01-13.59.7c-.6-.1-.42-.97.17-.93 4.39.38 8.8-.01 13.06-1.16 5.02-1.41 7.7-3.06 11.75-5.58zm-1.69-57c-3.43-1.46-4.95-.18-5.87 3.13a85.43 85.43 0 00-3 19.09c-3.7.65-7.47.81-11.22.47-.75-3.37-3.3-14.18-5.2-16.88-1.24-1.77-3.22-2-4.91-.73-1.83 1.37-4.84 6.85-5.9 9.13-1.49 3.23-.63 4.93 2.49 6.34 3.9 1.76 8.05 2.91 12.3 3.4.9 4.12 1.62 8.2 2.14 12.4.56 4.47.91 9.13 1.26 13.64.01.12.06.23.15.3a.46.46 0 00.63-.01c.08-.08.13-.2.13-.31.1-4.67-.16-9.33-.78-13.96-.5-3.99-1.17-7.97-2-11.9a44 44 0 0010.87-.43 85.17 85.17 0 002.67 23.78c.22.82 1.46.45 1.25-.37a88.37 88.37 0 01-2.53-23.65c4.6-.92 12.8-3.68 15.9-7.51 2.78-3.46 1.3-7.6-1.33-10.7a19.27 19.27 0 00-7.05-5.24zm-31.77 19.87c-3.55-1.45-4.7-1.96-2.7-5.84 1.07-2.06 3.12-5.9 4.7-7.46.88-.87 2.07-1.32 3.02-.3 1.67 1.81 4.5 13.52 5.12 16.23a40.55 40.55 0 01-10.14-2.63zm39.1-4.9c-2.58 3.47-10.53 6.08-14.8 6.98.26-5.3 1.35-14.23 3.24-19.43.6-1.63 1.47-1.94 3.1-1.4 3.46 1.13 7.53 4.61 9 7.88a5.7 5.7 0 01-.54 5.97zM117.8 32.62c-1.74.65-1.98 2.62-1.57 4.27a2 2 0 00-1.65.6c-.81-1.65-2.68-3.07-4.49-2.05-1.52.87-1.6 3.16-1.17 4.65-.71.29-1.6.44-2.35.74a.43.43 0 00-.04.75c.08.05.19.08.29.06.75-.14 1.68-.42 2.45-.63.8 1.76 2.44 3.42 4.51 2.37 2.06-1.05 1.85-3.1 1.2-4.95a1.46 1.46 0 011.56-.57c.63 1.58 2.12 3.7 4.08 2.76 1.95-.95 1.6-3.53 1.04-5.2-.55-1.65-1.94-3.51-3.86-2.8zm-4.39 9.88c-1.7.9-2.96-.89-3.44-2.27-.4-1.14-.6-3.18.56-3.94 1.51-.99 2.97.95 3.44 2.18.53 1.38 1.01 3.2-.56 4.03zm6.83-2.75c-1.63.69-2.52-1.24-3-2.45-.5-1.25-.64-3.3.88-3.8 1.5-.51 2.42 1.36 2.77 2.5.37 1.2.61 3.22-.66 3.75zm-7.91.55c.22.48.2.84-.09 1.07-.38.32-.75.06-1-.35-.16-.28-.33-.94.1-1.21.38-.23.84.16.99.49zm7.23-2.5a.97.97 0 01-.24.97c-.38.26-.8-.18-.92-.55-.14-.44-.11-.93.18-1.13.47-.3.88.33.98.7zm-1.9 4.55c.24-.23.32-.4.1-.67a7.04 7.04 0 00-1.4-1.2c-.4-.27.04-.93.46-.7.47.25.9.57 1.3.95 1.03.98.9 1.88-.25 2.69-.46.36-1.02.57-1.6.61a.47.47 0 01-.35-.36.46.46 0 01.17-.47c.37-.3 1.04-.36 1.56-.85zm-3.31 3.74c.8.08 1.6-.1 2.31-.48.55-.31.83.39.44.7-.85.5-1.82.75-2.8.7a4.6 4.6 0 01-2.7-.9c-.37-.31-.02-1 .44-.76.69.44 1.49.7 2.3.74zm-2 3.74c2.52.26 5.4.55 7.53-1.12 2.6-2.03 1.6-4.68.67-6.82-.25-.58.55-.8.78-.35 1.32 2.67 1.86 5.6-.7 7.74-2.36 1.97-5.53 1.8-8.4 1.39-.47-.07-.35-.89.12-.84zm23.86-11.44c2.33-1.68 4.79-3.24 6.17-5.86 1.51-2.87 1.63-6.2 1.72-9.38a4.1 4.1 0 01-4.48-3.6.43.43 0 01.85-.2 3.21 3.21 0 003.34 2.8c.97-.06 1.32.04 1.3.84-.1 3.39-.24 6.9-1.82 9.97-1.41 2.73-4.01 4.6-6.58 6.17-.43.26-.92-.45-.5-.74zm8.69-28.81c-.35-.36.18-.96.58-.66 1.08.87 1.93 2 2.45 3.28.47 1.09.9 2.92.65 4.09a.52.52 0 01-1-.07c-.15-1.46-.01-2.15-.6-3.62a9.39 9.39 0 00-2.08-3.02zm4.88 6.7c.53-1.21.84-2.51.93-3.84.04-1.32-.15-2.65-.57-3.91-.14-.5.58-.74.83-.3.6 1.04.8 3.04.77 4.25-.01 1.47-.37 2.91-1.05 4.22a.5.5 0 01-.63.18.5.5 0 01-.28-.6zm1.48 1.82a9.25 9.25 0 002.1-2.37c.56-.94.98-1.94 1.25-3a.44.44 0 01.87.15 8.7 8.7 0 01-1.24 3.36 10.34 10.34 0 01-2.3 2.66c.18 2.77.28 5.54.4 8.32.42 9.39-.14 12.87-8.23 19.15-.54.42-1.14-.45-.6-.87 8.09-6.29 8.14-9.6 7.77-18.8-.1-2.63-.25-5.26-.3-7.88a1 1 0 01.28-.72zm-48.14 30.88c-4.58 5.58-7.22 11.06-6.88 18.44a.45.45 0 01-.9.1c-.96-6.94 2.5-14.06 6.97-19.17.44-.5 1.24.12.81.63zm.45 27.74c-2.52 1.4-7.55 2.89-10.44 3.31-15.45 2.28-10.87-14.55-6.06-22.28a82.13 82.13 0 018.66-11.53 18.07 18.07 0 01-.33-11.61c.2-.62 1.18-.81.94.32-.97 4.5-.82 6.5.25 10.7a1.4 1.4 0 01-.27 1.52 53.88 53.88 0 00-9.8 13.8c-3.7 7.76-6 20.07 6.9 17.95 3.63-.6 6.36-1.91 9.74-2.94.44-.13.88.51.42.76zm81.54 14.31c.9 2 4.07 8.2 4.08 10 0 2.42-2.32 3.82-4.25 1.94-2.35-2.28-3.37-4.81-6.38-7.27-1.86-1.52-4.32-2.64-5.64-4.66a5.26 5.26 0 01-.55-5c.22-.55 1.14-.28 1 .29a5.05 5.05 0 00.67 4.2c1.05 1.45 3.7 2.82 5.25 4.09 3.12 2.55 3.95 4.48 6.33 7.15 1.17 1.32 2.3.78 2.31-.75 0-1.37-3.11-7.27-4.07-9.3-.8-1.73-2.02-3.86-2.45-5.64-.14-.6.73-1.34 1.07-.41.74 2 1.82 3.6 2.63 5.36zm25.08-49.92c-.27 3.08-3.46 15.3-4.2 17.61-1.35 4.3-5.48 3.87-8.8 2.3-.59-.28-.2-1.21.4-1.05 2.5.63 6.02 1.69 7.03-1.66 1.02-3.38 4.22-14.22 4.3-17.23.03-.91-.55-1.25-1.26-.7-2.39 1.85-5.67 7.67-7.3 10.36-.25.43-1.03.18-.85-.33.93-2.53 5.32-9.8 7.68-11.21a1.95 1.95 0 013 1.91zM170.85 84.6c.37-3.16.56-6.33.56-9.5 2.63-6.04 4.74-13.06 6.52-19.38 2.73.84 5.37 1.93 7.9 3.26-.02 5.1-1.14 22.89-2.08 24.45-3.17 1.69-10.82 1.36-12.9 1.17zm26.97-35.41c-.06 3.96-2.91 10.97-3.82 12.94-2.61-1.96-11.22-6.2-16.3-7.84a.65.65 0 00-.83.42 178.76 178.76 0 01-4.57 14.74c-3.09 8.36-7.8 16-21.49 13.2-7.7-14.97 19.49-43.87 23.55-44.72 5.05-1.05 20.35 8.67 23.46 11.26zm-86.14 6.1c-.52-1.78-3.95-6.6-5.13-7.85a1.94 1.94 0 00.83-1.68c-.04-.48-.8-.63-.9-.1a1.5 1.5 0 01-1.65 1.4 1.52 1.52 0 01-.74-.28c-1.2-.76-2.05-2.9-1.43-4.27a1.23 1.23 0 011.32-.64c.17.03.34.1.48.2a.49.49 0 00.6-.05 9.92 9.92 0 001.93-7.76c3.2-.22 6.31-1.07 9.17-2.52 3.43-1.73 6-3.68 4.99-8.58-.6-2.92-3-6.06-6.8-5.17-4.78 1.13-13.37 9-13.77 13.76-1.63.37-2.98 1.15-3.27 2.9-.54 3.14 1.9 6.81 4.23 8.67-.07 2.3 1.45 5.2 4.2 4.56a64.56 64.56 0 015.18 7.86c.27.48.89 0 .76-.46zm-3.6-31.08a14.14 14.14 0 015.34-3.87c1.75-.74 4.68-.83 4.9 1.6a.53.53 0 01-.97.26c-.82-1.82-2.87-1.18-4.28-.49-1.6.82-3.08 1.87-4.4 3.11a.43.43 0 01-.6-.61zm32.25-7.77a3.26 3.26 0 015.16-1.5 3.18 3.18 0 01.94 3.77.5.5 0 01-.58.3.5.5 0 01-.37-.54c.31-1.3-.01-2.58-1.37-3.07a2.37 2.37 0 00-2.93 1.37.46.46 0 01-.6.26.45.45 0 01-.25-.6z" fill="#000"/>
</svg>
