<svg fill="none" xmlns="http://www.w3.org/2000/svg" viewBox="0 0 265 190">
  <path d="M49.5 78.14c21.1-.2 42.12.05 63.25-.37a.85.85 0 01.99.78.85.85 0 01-.88.9c-20.88.42-42.37.9-63.24.34-1.2-.03-1.35-1.64-.12-1.65zm47.43-31.98c3.52 15.67-18.05 24.42-27.87 14.5-4.5-4.54-5.2-11.95-2.76-17.68 3.66-8.55 13.1-11 21.3-7.5 4.47 1.92 8.2 5.63 9.33 10.68zm-1.95-1.77a13.08 13.08 0 00-7.6-7.5c-9.2-3.22-18.1-1.38-20.76 8.9-1.4 5.44.1 12.01 4.87 15.35 10.96 7.67 29.14-2.98 23.49-16.75zm-44.7-13.45c0-.52-.85-.5-.9 0-1.15 12.05-.58 24.67-.54 36.79.01 1.81.65 1.95 1.78 2.02 18.06 1.2 42.86.53 60.89-.27.65-.03.67-1.14 0-1.15-20.14-.38-41.32 1-61.14-.18.31-12.15-.03-24.98-.1-37.2zm63.03 37.6c.07.53 1.13.6 1.12 0-.24-12.65-.13-25.4-.45-38.02-.05-1.73-.08-1.58-1.96-1.66a646.7 646.7 0 00-60.03.73.55.55 0 10.05 1.1c20.16-.07 40.53-.88 60.66-.23-.74 10.02-.64 28.25.6 38.08zm-25.5-19.4c-2.37-1.39-5.7-3.56-8.35-5.01-1.77-.97-1.9.36-.64 1.23 1.8 1.24 5.1 2.83 7.4 4.43-2.63 1.62-5.15 3.32-7.82 4.94-.39-3.53-.56-7-1.07-10.53-.09-.64-.97-.45-.95.15.1 3.92.64 7.76.78 11.62a.69.69 0 00.96.52c2.3-1.19 7.82-4.46 9.86-6.24a.68.68 0 00-.17-1.1zm65.39-9.75c2.88-.18 2.78-2.05-.2-1.84-9.08.64-18.38.46-27.48.23-4-.1-4.4 1.56-.3 1.72 8.9.33 19.13.46 27.97-.1zm8.92 31.8c.15-3 .13-6-.06-9-.04-.45-.87-.52-.95-.05-.39 2.33.1 6.56 0 9.1-.02.54.97.49 1-.06zM50.66 8.43c11.51-.03 97.3-.59 101.83-.4 9.99.4 10.58 12.1 9.38 12.29-1.28.2-120.19-.58-121.44-.68-.87-.07-1.28-11.18 10.23-11.2zm100.18 6.34a2.2 2.2 0 002.47 2.2 2.21 2.21 0 10-1.44-4.12 2.23 2.23 0 00-1.03 1.92zm-7.46 1.46a2.25 2.25 0 002.79.52 2.34 2.34 0 00.92-2.64 2.26 2.26 0 00-2.4-1.46 2.18 2.18 0 00-1.31 3.58zm-8.22.14a2.34 2.34 0 002.67.24c1.47-.81 1.43-3.25-.24-3.83a2.48 2.48 0 00-2.7.9 2.1 2.1 0 00.27 2.69zm25.94 6.6c.19 9.56-.66 19.12-.15 28.75.03.57.98.53.97-.02-.16-9.48.84-19.3.17-28.76-.05-.57-1-.54-1 .02zm-6.9 6.8c-10.72.5-21.23-.21-31.9-.22-.42 0-.5.76-.09.94 3.28 1.42 27.17 1.26 32.03.89a.8.8 0 00.75-.83.8.8 0 00-.8-.78zM48 93.42c7.64.04 15.66.74 21.74.3.56-.04.63-.98.05-1-7.2-.2-14.1-.66-20.92-.81-4.62-.1-7.18-1.94-7.66-6.76-.79-8.13-.48-18.46-.52-26.75-.06-9.1.8-34.16.58-36.7a.55.55 0 00-1.09-.1c-.3 1.5-.77 19.86-.93 34.07-.1 9-.5 21.45.44 30.11.5 4.6 3.6 7.62 8.31 7.64zm82.97-1.48c-13.08.8-28.13.27-41.62.62-.58.01-.58 1 0 1.02 13.37.35 28.3-.25 41.62-.23.8 0 .8-1.46 0-1.41zM124.23 47c-1.55.37-1.34 1.37.22 1.37 2.47 0 5.13-.28 7.7-.3 1.63-.03 2.33-1.32-.34-1.52-2.53-.12-5.08.03-7.58.45zm41.92 65.82a30.44 30.44 0 00-5.21-9.45c-.33-.43.22-1.1.67-.72a18.98 18.98 0 015.72 9.85 20.67 20.67 0 0119.53 4.92c.68-17.49-13.97-29.37-28.56-30.45-2.15 5-11.6 6.95-13.37 1.78-7.36 1.46-17.97 6.75-21.78 13.07 4.82-.03 8.17-.04 10.74.43 2.45.45 4.1 2.2 4.23 4.28.18 4 .66 7.98 1.44 11.9 1.87-4.83 6.28-6.05 10.22-6.14 3.42-.08 11.69 1.65 16.37.53zm-2.8-35.07a62.36 62.36 0 0119.46-.97c6.34.67 10.36 1.51 11.86 8.48 2.24 10.4-.1 27.12-3.67 37.13-3.09 8.61-8.74 7.8-16.27 8.37-.58.04-.74 1.04-.1 1.06 7.17.24 13.23-.05 16.52-5.88 5.06-9 6.9-29.11 5.41-39.41-.97-6.75-3.83-10-10.71-10.89-7.06-.92-16.02-1.12-22.81 1.08a.54.54 0 00.3 1.03zm32.37 1.81c4.62 1.67 9.6 3.46 12.96 7.22 7.54 8.48 3.5 22.4 1.63 32.3-2.1 11-4.09 22-6.17 33-.65 3.44.65 4.5 1.27 1.43 2.18-10.97 4.23-22 6.32-32.98 2-10.44 6.08-24.3-.85-33.7-3.53-4.78-9.32-6.63-14.8-8.18-.59-.16-.96.7-.36.91zm-26.66 97.38c-.26 1.07 1.34 1.37 1.61.24 2.38-10.11 5.62-22.14 6.77-32.17.91-7.94.26-13.06-8.73-13.91-7.21-.7-13.18 2.21-14.5 9.8-1.7 9.9-.68 25.93-.33 36.5a.5.5 0 00.5.51.5.5 0 00.5-.5c.31-10.58-.17-21.47.46-31.95.43-7.18 2.16-12.5 10.46-12.92 9.14-.46 10.96 3.02 10.16 11.53-1.02 10.8-5.22 25.91-6.9 32.87zm44.28-15.81c.98-1.89 4.25-5.24 6.16-5.25 1.59-.01.57 3.1 1.07 4.86 4.1.36 4.85.31 7.6 3 .34.34.77.15.47-.35a7.56 7.56 0 00-2.57-2.64c1.4-2.1 3.6-3.32 4.27-3.23 1.24.17-.32 4.4.48 7.73.55 2.26 1.52 4.89.58 7.54-.73 2.06-1.9 3.93-5.45 5.05-3.26 1.04-9.43.25-12.2-1.3 4.05-2.46 2.57-8.5-3.65-6.52-8.44 2.7-12.68 3.3-21.56 1.82-.63-.1-.78.59-.12.71a41.15 41.15 0 0021.42-1.17c3.37-1.06 5.75 1.05 4.13 3.29-1.63 2.27-6.01 3.1-8.67 3.51-8.02 1.22-16.5.32-20.2-.12-6.88-.83-3.36-18.35 14.54-20.74 5.13-.69 10.4.75 13.28 2.65a18.38 18.38 0 00-2.5 7.58c-.03.52.54.4.65-.11.48-2.2 1.24-4.32 2.27-6.32zm-17.97-1.68c-1.04.55-1.77 1.92-2.13 3a6.43 6.43 0 00-.17 3.62c.14.56.7.61.7.02-.01-1.1.22-2.2.69-3.21.17-.37 1.1-1.83 1.48-2.44.39-.64.06-1.32-.57-.99zm5.32-1.24c-1.48.8-2.34 2.57-2.86 4.1a9 9 0 00-.14 5.02c.12.53.7.49.73-.04.12-1.93.45-4.66 1.85-6.45.43-.56.83-1.14 1.18-1.75.4-.7-.23-1.16-.76-.88zm4.52 1.07a9.47 9.47 0 00-2.1 2.86 7.44 7.44 0 00-.65 4.5c.1.54.69.63.75.04a9.55 9.55 0 011.52-4.17c.46-.72 1-1.38 1.6-1.98 1.54-1.56.31-2.51-1.12-1.25zm21.36 10a1.27 1.27 0 011.67.34c.42.59.88.26.64-.47a1.68 1.68 0 00-2.72-.51.4.4 0 00-.06.48.4.4 0 00.47.16zm-4.26 1.33c.06.5.97 1.55 1.54 1.52.68-.03 1.63-.74 1.56-1.41-.06-.68-3.2-.86-3.1-.12zm-3.37-1.58a1.52 1.52 0 011.9-.25c.56.42 1.06-.1.58-.58a1.95 1.95 0 00-3.12.41c-.3.49.31.74.64.42zM98.95 117.27c.23-1.93.35-2.87-1.7-2.97-5.9-.29-10.09 1.2-13.7 4.02-3.96 3.07-6.94 8-7.21 13.08a.48.48 0 10.95.16c.93-4.77 3.12-9.12 7.02-12.15 4.15-3.22 8.58-4.24 13.68-3.86a22.34 22.34 0 01-5.94 13.68c-4.14 4.41-7.58 5.4-13.08 6.64a.48.48 0 00.12.95c4.78-.06 10.57-3.32 13.81-6.72a23.2 23.2 0 006.05-12.83zm41.42 60.18c-1.6-3.53-5.61-8.07-9.97-7.19-2.73.56-5.73 3.47-7.06 5.83-.7 1.24-.39 2.67 1.19 2.86 3.64.33 7.3.43 10.95.29 3.56-.04 8.9-.25 12.28-1.14.63-.17.31-1.03-.24-1.04-2.37-.05-4.76.22-7.15.4zm-31.9 1.5c4.11.22 9.71.2 13.6-.75.6-.15.34-1-.21-1-.57 0-1.13.01-1.7.03-.88-2.16-1.96-4.36-4.1-5.53-3.42-1.87-7.05.83-9.4 3.22-3.05 3.08-1.33 3.84 1.82 4.02zm-44.11-48.56a.53.53 0 00.5-.54.53.53 0 00-.52-.52c-5.55-.03-10.9-.91-15.84-3.57-7.24-3.9-11.57-9.74-14.26-17.33 4.45-.55 11.62-.9 17.89.9 9.48 2.7 13.37 9.15 15.16 18.23.1.55 1.06.49 1-.1-1.57-18.23-17.93-22-33.56-20.33-1.73.19-2.09.29-1.4 2.1 1.65 4.37 3.96 8.75 7.14 12.07 5.8 6.05 15.42 10.17 23.89 9.09zm167.98 49.74c-13.45-.35-14.09-.28-27.54-.27-13.45.02-26.91.1-40.37.12-26.77.03-53.55.1-80.32.23-15.01.05-30.34-.18-45.31.36-.53.02-.54.92-.01.94 13.44.4 26.92.15 40.37.12l40.36-.09c26.78-.08 53.55-.2 80.33-.22 15.1-.01 17.39.38 32.48-.08.63-.03.64-1.1 0-1.12zm-149.6-2.42c1.21-6.49 2.87-15.64 3.3-22.1 1.55-.12 1.73-.29 2.04-1.9.3-1.33.5-2.68.63-4.03.12-1.93.4-2.77-1.8-2.82-9.09-.2-20.14-.28-29.11.32a.48.48 0 00.03.95c9.78.62 20.2-.6 29.65.24a27.03 27.03 0 01-.69 5.88c-9.7.67-18.93.57-28.63.46a40.68 40.68 0 01-1.45-6.18c-.09-.55-1.02-.53-1 .06.07 2.13.47 4.23 1.17 6.25.35 1.05 1.12 1.22 2.25 1.21 8.72-.06 17.02.19 25.78-.37-.9 8.52-2.3 14.13-3.22 20.63-.32 2.3.8 2.76 1.05 1.4zm23.06-44c.51.01.72-.82.17-.93-3.3-.67-7.02-.9-9.8 1.36-3.48 2.82-2.17 8.6-1.55 12.54 1.17 7.43 5.02 23.46 7.95 31.15.24.64 1.28.22 1.1-.4-2.33-8.15-5.77-19.86-7.6-30.89-.44-2.7-1.43-7.31-.2-9.8 1.78-3.63 6.6-3.1 9.93-3.03zm-46.7 24.24c.3 4.17 2.36 15.92 3.9 19.55a.56.56 0 00.95.04c.07-.1.1-.23.1-.36a200.43 200.43 0 01-3.98-19.4c-.1-.61-1-.43-.97.17zm12.43-40.08a.48.48 0 00.83-.48 22.3 22.3 0 01-2.4-15.36 21.15 21.15 0 0114.72-15.72c1.3 4.68 1.64 9.57 1 14.39-1.28 8.3-4.57 12.71-9.8 18.74-.38.45.24 1.14.72.77 3.37-2.6 6.45-7.5 8.08-11.41 2.86-6.85 3.54-15.45 1.12-22.55-.46-1.33-.6-1.43-1.9-1.02a22.71 22.71 0 00-11.57 8.38 21.87 21.87 0 00-.8 24.26zm.2 27.66c.02.6 1.06.62 1.08 0l.06-1.62c4.83-10.25 9.63-15.85 18.4-22.91.41-.34-.11-1.12-.6-.88-6.63 3.33-14.6 13.88-17.65 20.75.7-15.08 1.94-25.93 5.74-41.03.14-.55-.79-.81-.97-.26-3.57 10.84-5.4 25.47-5.96 36.89-4.1-9.3-12.49-16.74-21.74-20.65-.59-.25-.9.66-.34.92 10.04 4.57 17.4 12.8 21.98 22.7a152.3 152.3 0 000 6.09z" fill="#F97D7D"/>
  <path fill-rule="evenodd" clip-rule="evenodd" d="M146.86 119.24c-.9 1.17-1.64 1.3-2.22 2.96-.43 1.3-.37 2.7.16 3.96.05.11.06.24.02.36a.48.48 0 01-.6.29.48.48 0 01-.27-.23 5.93 5.93 0 01-.54-4.76c.38-1.23 1.6-3.09 2.93-3.37.1-.02.2 0 .3.04a.5.5 0 01.3.47c0 .1-.03.2-.08.28zm3.09 2.54a.5.5 0 00.07-.49.5.5 0 00-.39-.3c-1.4-.05-2.58 1.87-2.79 3.09a3.9 3.9 0 001.69 3.92.48.48 0 10.6-.75 3.46 3.46 0 01-1.06-3c.28-1.65 1.43-2.02 1.88-2.47zm35.26-4.62c-.1-.64-1.09-.56-1.08.04.02 4.16-1.38 8.48-8.6 9.91-8.05 1.6-16-.32-22.87-4.63a.46.46 0 00-.54.74c6.54 5.04 15.59 6.78 23.65 5.27 6.01-1.12 10.59-4.52 9.44-11.33zm-30.5 12.3c-.84.07-12.73.42-13.54.01-.81-.4-4.04-10.74-4.82-20.75-.22-2.88-.67-4.21-4.19-4.73-2.84-.42-25.25-.2-27.24 0-1.71.18-3.02.86-2.87 4.28.33 8.15 4.63 23.45 6.95 24.7 2.52 1.34 42.63 1 45.62.4 2.46-.5 2.01-4.1.1-3.92zm-31.93-11.02c-.44-1.89-1.83-3.03-3.48-2.97-1.86.07-2.2 2.27-1.82 3.82.37 1.57 1.57 2.97 3.3 2.9 1.76-.07 2.44-1.86 2-3.75zm2.72 44.11c-.15-.55-1-.33-.96.2.1 1.32.98 5.86 1.4 7.99.07.42.8.2.88-.2.17-.92-.99-6.75-1.32-7.99zm5.97-.11c-.28-.44-1.04-.13-.85.38.85 2.32 1.67 4.06 2.2 6.67.1.53.96.4.94-.16a17.15 17.15 0 00-2.3-6.9zm12.38 6.81a21.25 21.25 0 01-1.17-6.68.47.47 0 00-.44-.43.47.47 0 00-.5.36c-.27 2.12-.07 4.28.6 6.31.65 2.1 2.11 3.87 1.76 6.1a.52.52 0 00.35.6.52.52 0 00.63-.25c1.1-1.93-.57-4.23-1.23-6.01zm-28.28-6.53a.47.47 0 00-.58-.2.47.47 0 00-.3.55c.4 1.86 2.07 5.42.95 7.09a.5.5 0 00.55.74c2.29-.74.3-6.78-.62-8.18zm10.01-9.65c-1.27-5.02-2.75-13.5 1.43-17.5-6.53-.1-11.98-.22-13.33-.22-2.47 0-5.5.59-6.25 4.12-.93 4.33 2.34 14.16 5.53 21.32 2.25.18 9.95.3 12.74-.05a58.6 58.6 0 01-.12-7.67zm3.84-17.47c-6.98 4.54-1.95 19.46.14 25.41 4.52.26 9.06.24 13.58-.05-.51-2.2-.6-8.19.39-9.45.99-1.26 3.97-1.14 8.4-1.08.04-5.13-.2-12.86 2.9-15.29-2.77.63-14.96.6-25.41.46zm40.13-22.87c-6.62 2.57-10.09 1.69-16.8 1.38-4.6-.22-10.96 1-12.22 6.3a.48.48 0 00.68.52c.1-.05.19-.14.24-.25 2.1-5.47 8.5-5.58 13.43-5.14 4.93.44 10.73.85 15.13-1.94a.5.5 0 00-.1-.88.5.5 0 00-.36 0zm-1.74-24.7c-5.15-4.23-6.61-13.52-8.66-17.93-4.06-8.77-12.77-11.5-21.78-9.48-7.02 1.58-6.92 9.1 3.42 8.23 5.52-.46 8.15-1.85 8.17-1.86.61 2.42 3.31 6.12 3.63 5.43.78-1.67 2.43-.96 2.7.58.38 2.24-.84 3.36-2.1 3.31-.46-.01 1.8 7.84 2.36 9.3.14.39.63.32.99.34 2.84.08 7.73.53 11.27 2.08zm-1.44-30.12c-5.63-4.41-15.56-9.35-22.74-9.77a2.8 2.8 0 00-1.39.18c-6.55 1.8-15.84 6.37-21.04 10.7-.32.26-.07.72.26.82 3.6 1.09 7.03 1.89 10.33 3.27.63.26.9-.74.3-1a54.4 54.4 0 00-9.4-2.95c5.84-3.88 13.7-8.64 20.55-10.06 6.7.41 16.28 5 21.65 9.06-3.92.83-7.78 1.9-11.56 3.24a.47.47 0 00-.06.84c.1.06.22.07.34.04 4.44-1.18 8.05-2.44 12.56-3.33a.6.6 0 00.2-1.03zm-45.73 18.3a14.19 14.19 0 011.28 5.84c-.05.51-.8.5-.95.06-.25-.68-.34-1.55-.57-2.28-.08 1.31-.05 2.63-.12 3.94a.48.48 0 01-.8.37.49.49 0 01-.16-.31 29.3 29.3 0 01-.2-3.9c-.38.9-.67 1.84-.87 2.8a.45.45 0 01-.53.32.45.45 0 01-.35-.5c.15-1.22.74-4.4 1.36-5.53.3-.54 1.35-1.72 1.92-.8zm.12-15.3a.46.46 0 01.52-.29.46.46 0 01.38.47 78.55 78.55 0 00-.97 13.11c0 .65-.96.56-.99-.06-.14-3.58.23-9.77 1.06-13.22zm18.02-5.08c-.1-.43-.83-.52-.89-.05-.08.71-.14 3.03-.12 3.72a.5.5 0 00.48.51.5.5 0 00.53-.46c.08-1.24.08-2.48 0-3.72zm10.32-.65c-2.6-1.44-6.64-1.59-9.37-.82a.46.46 0 00-.34.39.45.45 0 00.1.34.44.44 0 00.33.16l.18-.03c2.99-.57 6.09-.21 8.87 1.03a16.45 16.45 0 00-.05 3.67.5.5 0 001-.03c-.06-1.04-.05-2-.03-3.03.03-.95.15-1.22-.69-1.68zm-1.95 30.66a11.92 11.92 0 004.34-3.24c.35-.4-.28-.95-.67-.62-1.94 1.64-3.97 3.59-6.73 3.3-2.94-.32-3.79-3.31-4.4-5.75-.15-.58-1.05-.43-.93.17.59 2.86 1.68 6.02 4.96 6.56.83.14 1.67.1 2.49-.11.14.96-.03 1.9.05 2.72a.47.47 0 00.92-.03c.12-1 .1-2-.03-3zm1.55-7.3a.48.48 0 00-.52-.34.48.48 0 00-.42.46c.17 1.72-1.5 2.12-2.81 2.48a.45.45 0 00-.33.55c.03.11.1.21.2.27.11.07.24.08.35.05 1.64-.15 4.02-.97 3.53-3.46zm-5.21-.29c-.35.1-.72.12-1.08.04.15-.52.3-1.03.43-1.56a.45.45 0 00-.3-.55.45.45 0 00-.57.28 18.4 18.4 0 00-.5 1.54.9.9 0 00.35 1.14.9.9 0 00.42.13c.53.1 1.08.07 1.6-.09a.5.5 0 00.33-.45.5.5 0 00-.68-.48zm-3.95-2.12c-.02-.4-.19-.84-.64-.87-.6-.04-.75.5-.68.98.07.4.37 1 .87.95.48-.06.48-.7.45-1.06zm6.54-2.17a.72.72 0 00-.42-.47.73.73 0 00-.63.03 1.12 1.12 0 00.73 1.91c.6-.13.55-.88.32-1.47zm4.55-2.34a5 5 0 00-2.57 0c-.6-1.25-1.89-2.6-3.4-2.35-1.7.27-2.12 2.16-2.01 3.6a1.8 1.8 0 00-1.39.39c-.47-1.07-1.21-2.06-2.43-2.26-2.6-.42-3.08 3.03-2.62 4.9.36 1.47 1.48 3 3.17 2.8 2.54-.32 2.05-4.18 2.12-4.27a1.09 1.09 0 011.25-.48c.32 1.79 1.75 3.9 3.84 3.4 2-.47 2.28-3.17 1.81-4.82.72-.08 1.44-.08 2.15-.01a.46.46 0 00.08-.9zm-4.04 4.63c1.45-.68.97-3.4.44-4.4-.43-.79-1.48-2-2.5-1.52-.89.42-1.13 1.7-.87 2.96.41 2.05 1.3 3.73 2.93 2.96zm-6.13-1.98c-.18-1.19-.79-2.26-1.97-2.29-1.5-.04-1.62 2.53-1.4 3.59.2.94.95 2.22 2.1 2.14 1.38-.1 1.41-2.6 1.28-3.44z" fill="#000"/>
</svg>
