<svg fill="none" xmlns="http://www.w3.org/2000/svg" viewBox="0 0 265 190">
  <path fill-rule="evenodd" clip-rule="evenodd" d="M89.2 43.93c-1.07-.39-6.44-2.76-15.44-.66a39.34 39.34 0 00-23.32 14.36c-6.56 8.39-13.13 27.17-5.25 39.52a15.96 15.96 0 0011.51 7.27c.59.09 3.21-8.24 9.16-9.97-.36-1.25-.9-2.44-1.63-3.53-.1-1.25 50.01-7.11 67.47-7.11 3.65-13.74 3.6-27.73 3.15-41.74a74.7 74.7 0 01-8.2-.29c-1.52-.2-8.5 19.12-10.6 21.2a.07.07 0 01-.04.02l-.04-.01c-.39-.39-7.78-9.36-14.85-13.53-7.14-4.21-7.97-4.11-11.92-5.53z" fill="#F97D7D"/>
  <path fill-rule="evenodd" clip-rule="evenodd" d="M80.95 42.23c2.84-.02 5.66.51 8.3 1.55 0 .13 3.13.8 6.92 2.7 7.01 3.6 11.43 6.6 19.84 16.15 2.16-2.78 8.07-19.02 10.09-20.92.57-.52-.02-.09 5.3.01 1.87.03 2.85 0 3.5 0a.35.35 0 01.3.28c.09.7.4 12.58.1 18.93-.23 7.42-1.22 14.8-2.97 22-.28 1.13-.29 1.1-.4 1.19-.25.17-.26-.03-6.18.24 0 .06-19.02.77-48.28 4.6-2.07.28-10.7 1.42-12.7 2.09.6.96 1.07 2 1.4 3.08.07.25.13.4-.03.6-.48.4-3.81.33-7.87 7.86-1.38 2.57-1.06 2.35-2.75 2.02-4-.78-7.58-3.03-10-6.32-5.14-7.04-5.06-16.71-2.8-25.18 2.8-10.36 8.37-18.9 17.37-24.62 6.71-4.24 14.98-6.3 20.86-6.26zm-4.92.8c-13.12 2.21-23.09 9.55-28.63 19.9-9.33 17.63-6.8 38.67 9.2 41.1.93-1.29 3.45-7.98 8.78-9.83-.33-1.03-.79-2-1.37-2.9-.12-.2-.26-.36-.1-.63.22-.22.5-.37.8-.42 5.8-1.71 50-6.78 66.69-6.83 3.48-13.29 3.54-27.32 3.11-41-2.62.04-5.25-.06-7.86-.3-1.53.68-8.43 19.16-10.4 21.05a.34.34 0 01-.38.06c-.3-.14-6.96-8.48-13.7-12.88a70.09 70.09 0 00-8.42-4.6c-1.42-.6-2.61-.95-4.6-1.68a24.46 24.46 0 00-13.12-1.05z" fill="#F97D7D"/>
  <path fill-rule="evenodd" clip-rule="evenodd" d="M75.6 42.89c7.9-1.4 12.6.68 13.6 1.04 2.17.78 3.4 1.1 5.24 1.92-.68 6.86-.52 2.98-2.09 25.63-4.92-8.51-14.08-23.97-16.75-28.59z" fill="#fff"/>
  <path fill-rule="evenodd" clip-rule="evenodd" d="M83.39 42.28c2.36.23 4.67.79 6.87 1.68 1.47.45 2.9.97 4.32 1.57.57.3-.1-.2-1.38 19.53l-.46 6.5a.4.4 0 01-.4.31c-.32-.03-.32-.18-.8-1.01C91.5 70.79 76 44.1 75.45 42.95a.16.16 0 01.12-.21l.01.03v-.04c2.57-.5 5.2-.65 7.8-.45zm-7.53.73c3.32 5.63 4.46 7.19 16.19 27.15 1.46-20.84 1.33-17.62 2-24.09-1.17-.53-2.47-.97-3.69-1.4-2.48-.87-6.67-2.9-14.5-1.66z" fill="#212121"/>
  <path fill-rule="evenodd" clip-rule="evenodd" d="M89.8 67.07c.08-2.11-.22-10.59-.18-11.93.6-.03 1.18-.1 1.77-.22 0 0 .9 2.1 1.71 4.35-.37 4.79-.44 7.77-.78 12.66l.03-.46-2.56-4.4z" fill="#212121"/>
  <path fill-rule="evenodd" clip-rule="evenodd" d="M92.24 55.96c.26.64.73 1.81 1.04 2.65.3.77.23.35.1 2.2-.18 2.43-.35 6.51-.74 10.91-.03.24-.02.49-.33.5a.3.3 0 01-.28-.31v-.01l.02-.22c0-.26.21.23-1.74-3.34-.7-1.3-.67-1.2-.67-1.27.11 0 .29 0 0 0 0-2.4-.34-8.04-.38-10.97-.03-1.1-.02-1.1.12-1.24.17-.13.2-.09.5-.1 2.06-.18 1.53-.77 2.36 1.2zM90 55.5c0 .07.1 11-.05 11.53.08.12 1.66 2.66 2.14 3.46.23-5 .25-6.22.6-11.17.07 0-1.52-3.91-1.54-3.98-.3.05-.87.14-1.15.16z" fill="#212121"/>
  <path fill-rule="evenodd" clip-rule="evenodd" d="M69.22 68.17c-.09 1.75-.28 3.5-.57 5.23-.68 4.1-2.53 9.79-4.7 13.4-.38.67-.82 1.32-1.3 1.93-.16.16-.28.15-.35.06l.03-.23.22.03a.15.15 0 00-.18-.04c.5-.5 3.55-6.3 5.5-14.9 1.27-5.7.81-5.33 1.2-5.65l.15.17zM115.09 60.67c.02-.11.03-.08.01-.14v-.02a17.87 17.87 0 012.69 3.96c.25.5.42 1.06.49 1.62l-.16.17-.16-.16v-.01c-.12-.47-1.8-2.45-3.1-5.33a1.5 1.5 0 01-.06-.14v-.04-.06l.02-.02.22-.05.05.22z" fill="#fff"/>
  <path fill-rule="evenodd" clip-rule="evenodd" d="M90.93 54.9c-.96.24-1.11.43-1.31.23-.88-.75-1.8-1.44-2.77-2.06.88-1.67 1.84-4.07 2.04-4.44.26.12.53.22.81.3.96 1 1.8 1.84 2.08 2.09-.1 1.04-.06 3.68-.85 3.88z" fill="#212121"/>
  <path fill-rule="evenodd" clip-rule="evenodd" d="M89.73 48.53c.23.07.17.05.6.5 1.9 1.97 1.74 1.76 1.79 1.9a15.23 15.23 0 01-.5 3.37c-.12.3-.3.66-.63.75-1.69.53-.96.6-2.24-.3-1.97-1.38-2.37-1.32-2.25-1.8l.38-.78c.43-.9 1.53-3.6 1.73-3.83.3-.24.44-.03 1.12.2zm1.17 6.21h.02a.43.43 0 00.06-.05l.03-.03v-.01h.01c.43-.65.4-2.59.4-3.48l-.56-.52c-1.73-1.68-1.14-1.27-1.78-1.5-.14.32-.96 2.25-1.52 3.34l-.24.47c.15.11.69.47 1.56 1.18.33.26.64.54.92.84h-.01.01-.01.01c.13 0 .52-.14 1.1-.25v.01z" fill="#fff"/>
  <path fill-rule="evenodd" clip-rule="evenodd" d="M90.33 44.32c1.46.5 2.53.84 3.95 1.46.11 1.92.04 3.85-.23 5.75 0 .1-.1 1.5-.12 1.5-.32-.16-.7-.77-1.02-1.02a36.37 36.37 0 01-3.2-3.08c.25.08.43.1.5.03.8-.65.43-3.05.12-4.64z" fill="#fff"/>
  <path fill-rule="evenodd" clip-rule="evenodd" d="M90.05 48.66v-.01h.01v-.01h.01c.8-1.2-.04-4.25.15-4.44l.02-.01a.17.17 0 01.1-.02h.03c-.03.1-.1.28 0 0 1.35.36 2.67.8 3.96 1.3.32.12.26.22.32 1.02.1 1.54.04 3.1-.17 4.62-.2 1.91-.05 2.03-.33 2.25-.51.29-.93-.5-1.42-.98-.98-.8-1.9-1.68-2.74-2.61-.64-.69-.62-.63-.65-.8a.35.35 0 01.27-.38c.2-.03.23.04.44.07zm.41.53c.5.51 1.6 1.58 2.3 2.17.3.23.6.5.84.8.22-1.67.34-3.35.37-5.04L93.96 46c-.67-.36-3.17-1.32-3.41-1.41.27 1.19.82 3.8-.09 4.62zm-.45-.5l-.01.01H90z" fill="#212121"/>
  <path fill-rule="evenodd" clip-rule="evenodd" d="M79.05 42.47c.57.96 6.98 4.93 9.84 6.16-.28.5-2.02 4.93-2.98 5.9-.16.17-7.8-6.2-10.84-9.23a11.8 11.8 0 01-1.45-2c1.78-.43 3.6-.7 5.43-.83z" fill="#fff"/>
  <path fill-rule="evenodd" clip-rule="evenodd" d="M79.09 42.32h.02l.04.03.02.02.02.02c.56.92 7.69 4.96 7.94 4.99 1.96 1.01 1.87.83 2.05 1.03a.37.37 0 01.02.4l-1.03 2.4c-.27.6-1.55 3.51-2.19 3.7-.23.03-.28-.05-.5-.15-.85-.43-5.55-4.52-6.19-5.08-4.92-4.36-4.88-4.53-5.9-6.2a.3.3 0 01-.02-.3c.1-.16.17-.15.41-.2 1.75-.37 3.52-.6 5.31-.66zm-5.02 1.16c.85 1.29.94 1.35 2.75 2.99 1.82 1.63 6.99 6.15 9 7.56 1-1.67 1.85-3.41 2.57-5.22a50.49 50.49 0 01-5.33-3.06c-.53-.34-3.83-2.54-4.1-3.1-1.64.15-3.28.43-4.89.83z" fill="#212121"/>
  <path fill-rule="evenodd" clip-rule="evenodd" d="M94.44 45.85a75.7 75.7 0 016.8 3.68c-1.17 2.8-2.07 5-4.48 9.92-.13.28 3.35.42 3.9.96.14.14-9.03 20.67-9.06 20.73 0 .06-.02.11-.04.16-.07.07-.02-.03.04-.16.34-2.11 1.61-24.08 2.41-31.27.15-1.34.3-2.68.43-4.02z" fill="#fff"/>
  <path fill-rule="evenodd" clip-rule="evenodd" d="M98.2 47.54c.07.04 3.13 1.7 3.25 1.85.08.17.08.09-.48 1.46-1.9 4.58-1.74 4.13-3.74 8.44 1.09.22 3.1.3 3.7.88.2.29.41-.1-3.86 9.61-4.97 11.23-4.96 11.11-4.96 11.18l-.12.27c-.04.09-.02.22-.17.37a.4.4 0 01-.52.05.4.4 0 01-.15-.46c.44-1.47 1.1-18.3 3.02-34.35.12-1.03.08-1.14.28-1.14h.06c-.06.13-.07.16 0 0 .94.42 2.35 1.1 3.69 1.84zm-3.63-1.42c-1.2 12.7-1.36 19.79-2.34 32.61.66-1.53 7.41-16.56 8-18.15-.57-.28-2.93-.5-3.5-.71a.48.48 0 01-.29-.26c-.15-.47.37-.42 4.48-9.98a67.94 67.94 0 00-6.34-3.54v.03z" fill="#212121"/>
  <path fill-rule="evenodd" clip-rule="evenodd" d="M92.1 75.2c-6.04-3.65-17.86-11.04-17.98-11.4-.3-.87 4.62-5.36 4.49-5.62a714.2 714.2 0 00-12.1-12.7 48.76 48.76 0 019.09-2.59c2.68 4.62 11.83 20.08 16.75 28.59l-.26 3.73z" fill="#fff"/>
  <path fill-rule="evenodd" clip-rule="evenodd" d="M73.92 64.1a.54.54 0 01-.14-.56c.27-1.19 3.4-4.14 4.35-5.3.03-.03.03-.02-.02-.07-1.2-1.34-6.54-6.87-7.81-8.2-4.52-4.69-4.15-4.23-4.2-4.45a.4.4 0 01.25-.41 49.46 49.46 0 019.18-2.6.4.4 0 01.41.18c4.2 7.24 6.06 10.2 16.58 28.69.05.09.06-.21-.24 3.4-.03.44 0 .52-.14.58h-.08a.23.23 0 01-.05-.02c.06-.1.15-.25 0 0-1.45-.85-16.87-10.11-18.09-11.23zM67.2 45.64l.3.3C79.8 58.66 79 58.04 78.99 58.22c-.04.38-.48.73-2.52 2.92-.42.44-1.81 1.94-2 2.53 1.6 1.31 15.78 10.2 17.49 11.27l.2-3.4c-.06 0-13.87-23.25-16.75-28.2-2.8.52-5.54 1.3-8.2 2.3z" fill="#212121"/>
  <path fill-rule="evenodd" clip-rule="evenodd" d="M92.84 75.62a.2.2 0 01.03.03l.01.02.01.02c.03.1-.08.43-.13 1.13-.23 2.29-.14 7.73-.14 13.72l-.15.17-.17-.15-.2-1.61a47.16 47.16 0 01-.08-10.39c.03-.25.14-1.15.18-1.22.1-.55.22-1.1.38-1.62v.03l.01.05c.08.1.07.13.02-.15l.23-.04z" fill="#fff"/>
  <path d="M93.66 84.1a6 6 0 01.14-1.86.4.4 0 01.7.36 9.57 9.57 0 00-.05 1.6.4.4 0 01-.35.3.4.4 0 01-.44-.4z" fill="#fff"/>
  <path fill-rule="evenodd" clip-rule="evenodd" d="M70.81 127.62c-.93 10.36-3.9 33.32-5.58 44.63-.46 3.07-.43 2.94-.6 3.14-.57.66-2.66.39-3.46.1-.4-.14-.54-.22-.6-.58-.47-3.13 2.5-40.04 2.6-45.72.01-.82 0-.73-.1-.94.04-.1.08-.16.19-.18h.05c.2.06.22.3.2 1.82-.18 9.98-2.46 41.85-2.17 44.82.85.3 1.77.36 2.65.18.3-.18 5.94-42.23 6.5-47.3l.18-.15.14.18zM205.74 120.31c-.46 1.02 3.55 43.22 3.71 52.81.05.47.01.93-.12 1.38-.3.45-1.98.6-2.61.6-.42.03-.84-.07-1.21-.28-.32-.23-.29-.27-.58-2.22a1107.18 1107.18 0 01-5.74-45.68l.14-.17.17.14c.98 8.79 5.46 40.86 6.48 47.3.58.26 1.98.06 2.67-.17.5-.71-3.97-53.4-3.17-53.86l.03-.01h.03c.12 0 .16.06.2.16zm-.28.13l.07.03-.07-.03zM162.91 174.93c.12-.13-.06-10.07.17-12.27l.18-.14c.17.21.14.14.13.29-.07 1.48.17 7.55.24 10.78.02 1.7.07 1.82-.35 1.99a11 11 0 01-2.49.17.38.38 0 01-.36-.29c-.02-.12 0-.04 0-.33v-.56c-.75 0-11.71 2.76-14.25 2.76-.43-.03-.7-.14-.7-.6 0-3.44 5.88-6.2 9.08-7.48v-.1c.06 0-.03-6.58.19-6.75a.18.18 0 01.1-.03h.02l.05.02.06.21.02-.04c0 3.27.2 6.85.06 7.07a36.88 36.88 0 00-5.91 3.2 9.09 9.09 0 00-2.43 2.38c-.27.4-.43.87-.47 1.35 1.17 0 5.19-.88 6.32-1.12 8.14-1.78 8.34-1.9 8.58-1.42.04.33.06.66.04.98.58.02 1.15 0 1.72-.07zm0 .17zm-8.15-12.43c.2-.01.16 0 .22-.07l-.22.07zM182.31 156.4c1.35 1.5 1.27 1.2.97 1.82-1.16 2.26-2.73 6.28-2.56 8.85.02.62.21 1.2.57 1.7.5-.47.95-.98 1.38-1.51 2.1-2.57 1.98-2.6 2.05-2.6 5.5-7.19 5.65-7.75 6.23-7.5.24.21.47.45.67.71.45-.36.87-.75 1.25-1.18-.12-.14.31.35-1.1-1.33-.72-.84-6.12-7.13-6.71-8.02-.06-.1-.05-.03 0-.29.26.05.2.03.26.1.5.75 6.03 6.67 8.11 9.1.38.47.41.65-1.1 2-.55.47-.6.58-.88.53-.17-.08-.07-.01-.7-.74-.22.2-2.48 3.25-5.4 7.1-.47.6-1.5 1.93-1.9 2.4-.48.6-1 1.19-1.55 1.73-.32.28-.65.53-.97.26-.34-.34-.6-.76-.75-1.22-.85-2.4.8-6.73 1.9-9 .8-1.68.8-1.42.69-1.55-4.38-5.22-4.28-5.13-4.26-5.25a.19.19 0 01.06-.08l.02-.02.04-.01.2.12c0-.08-.48-.55 3.48 3.89zm10.67.43zm-14.27-4.13c.15-.14.12-.1.12-.19l-.12.19zM97.67 146.82c.6 8.66 1.6 23.41 2.15 29.53.86.25 1.77.25 2.64.03.55-.14.43-43.02 1.04-46.4.07-.36.33-.35.4-.09a.64.64 0 00-.12.43c-.33 3.94.14 39.33-.44 45.7-.03.39-.06.83-.33.99-.66.24-1.36.36-2.07.33l-.3-.01c-.56-.04-1.33-.14-1.55-.65-.31-.76-2.57-34.78-2.86-47.94.5-.53.1-1.09 1.44 18.08zm5.97-16.8zM173.04 127.4c-.26 12.15-2.48 47.48-2.94 48.09-.52.69-2.62.57-3.45.33-.4-.12-.55-.18-.64-.54-.67-3.07-.18-44.42-.54-46.54-.11-.2-.11-.16-.09-.23.08-.2.32-.23.4.1.61 2.88.46 43.23 1 46.42.87.24 1.8.24 2.68-.01.13-.16 2.86-38.53 3.27-47.63l.16-.15.16.17zm-7.4 1.28z" fill="#212121"/>
  <path fill-rule="evenodd" clip-rule="evenodd" d="M105.38 166.93c.12-.13-2.3 4.74-2.03 4.99.86.77 10.94 8.82 13.75 9.27.24.04.88-1.32-.11-2.87-.71-1.1-5-8.44-5.54-8.59" fill="#212121"/>
  <path fill-rule="evenodd" clip-rule="evenodd" d="M111.4 169.88l-.1-.2.2-.1c.33.1 1.31 1.58 1.5 1.87.78 1.11 4.19 6.39 4.55 7.1a2.84 2.84 0 010 2.79c-.2.23-.36.33-.92.15-3.73-1.25-13.4-9.09-13.57-9.48-.15-.46.56-1.85 1.67-4.1l.48-.98.02-.04v.07l.03.07c0-.23-.02-.22.08-.25l.02-.01h.06l.02.01.03.01.03.04c.03.02.04.05.04.09v.02a.6.6 0 01-.03.1c-.15.41-1.62 3.65-1.85 4.57-.05.2-.19.04 1 .97 2.39 1.86 8.26 6.26 11 7.63.42.23.86.42 1.33.56v-.01c.21-.56.19-1.18-.06-1.72-.12-.26-4.13-7.3-5.51-9.14l-.02-.01zm-7.77 1.97v-.01zm1.74-4.77l.08-.01c.02 0 .03-.02.05-.03-.27 0-.24-.01-.13.05zM121.28 173.35c0-.18 1.42 5.08 1.79 5.08 1.15 0 14.03-.67 16.44-2.18.2-.13-.22-1.58-1.99-2.08-1.27-.35-9.35-3-9.84-2.75" fill="#212121"/>
  <path fill-rule="evenodd" clip-rule="evenodd" d="M121.14 173.42c.05.07 0 .04.11.08l-.14-.16.01-.04.01-.02.03-.04.02-.02a.24.24 0 01.05-.03h.02a.18.18 0 01.14.04c.1.1 1.18 3.68 1.67 4.67l.1.21c.06.08 12.98-.76 15.98-2.1v-.02-.05l-.01-.01v-.02a2.46 2.46 0 00-1.38-1.27c-.07-.02-9.54-3.2-10-3.08l-.21-.07c.08-.2.05-.24.19-.24.68-.19 9.7 2.47 10.41 2.74 1.6.72 2.02 2.03 1.72 2.46-.5.36-1.09.61-1.7.74-3.25.92-10.73 1.45-14.45 1.53-.82.02-.85.1-1.16-.58-.56-1.36-1.33-4.62-1.4-4.68v-.03l-.01-.01zm2.07 4.77h.01zm-1.93-4.7c.11-.02.08 0 .14-.08.03-.07.04-.07-.14.09zM133.57 31.7a1 1 0 01.82.61c.1.2.15.42.17.64.18 1.65-.66 7.72-.95 8.6-.05.09-.07.13-.16.14l-.17-.14.13-.17h-.03l-.03.02-.04.04v-.01c.4-2.6.63-5.25.67-7.9.03-.37-.07-.75-.27-1.07a.29.29 0 00-.14-.08H133.5l-.04.03c-.4.52-.65 1.14-.75 1.79-.08.38-.15 1.09-.22 1.24a.37.37 0 01-.6.1.38.38 0 01-.1-.2c0-1.27.04-1 .04-1.45 0-.25.04-.76.07-1.07.05-.63.05-.94.05-1.02.04-.4-.02-.8-.18-1.17l-.01-.02h-.02v-.01l-.01-.02h-.01l-.02-.01-.01-.01c-.08-.04-.15 0-.21.03-.56.51-.74 1.92-.77 2.66 0 .36-.03.73-.1 1.08 0 .35.06.54-.18.73a.4.4 0 01-.5-.07.46.46 0 01-.12-.35l.01-.4a5.2 5.2 0 01.02-1.02c.16-1.4.03-2.82-.4-4.17v-.03l-.02-.02v-.01l-.03-.02h-.01l-.01-.01h-.02a.52.52 0 00-.31.17c-.2.44-.3.93-.28 1.42-.07.41-.1.83-.12 1.24-.15 3.24-.02 3.88-.64 3.96-.28.02-.41-.13-.75-.19-.3-.04-.59-.06-.89-.05-.3-.01-.61.06-.87.23h-.01v.01h-.01l-.01.02-.01.01V35.92l.01.01v.02l.01.02c.02.09.12.23.43.48.22.16 1.23.77 1.13.72.12.1.72.15.78.58.06.5-.31 3.17-.23 3.6 0 .17.08.22-.01.34l-.02.01a.16.16 0 01-.1.04c-.12-.01-.1-.04-.12-.18l-.04.03v.02c-.16-.66.06-2.27.06-3.78-.18-.1-.3-.11-.52-.2-.88-.48-2.07-1.02-1.96-1.94a1.04 1.04 0 01.88-.72 4.1 4.1 0 012.05.06c.1-.8.04-3.61.2-4.48-.03-.63.1-1.25.38-1.82a1.13 1.13 0 011.31-.47c.62.31.74 1.3.87 2.2a1.15 1.15 0 011.34-.66c.81.3.84 1.37.82 2.23-.01.34-.06.22.19-.02a.9.9 0 01.66-.3zm-6.23 6.08zM175.15 26.07c-.01-.01 1.06-1.27 1.48-1.34.44-.09.89-.1 1.33-.04 1.35.27 1.9 2.59 1.6 3.72a2.84 2.84 0 01-1.83 1.64l-1.1.16s-1.85 1.88.34 4.75c.2.25-3.63.08-4.26 2.48-.75 2.86 3.59 2.31 3.6 2.33.04.03-2.33 4.87-.92 6.27 1.83 1.8 4.74-1.76 4.76-1.73.05.04.81 2.07.97 2.4.89 1.76 2.55 2.14 4.6 1.6 2.2-.6 1.56-4.04 1.56-4.04s2.5 2.86 5.71 2.05a1.53 1.53 0 001.03-1.66c0-.96-1.92-3.64-1.76-3.64.25 0 5.95.74 7.09-1.33.74-1.36.64-2.9-.79-3.68a33.2 33.2 0 00-3.6-1.3c.77-.29 1.5-.65 2.2-1.1 1.38-1.38 1.43-2.44.66-3.83-.45-.81-2.04-.63-2.86-.63-.16 0-.93.25-1.02.16-.04-.04.56-.97.69-1.25a2.6 2.6 0 00-.02-2.08 3.8 3.8 0 00-2.35-1.8c-.33-.05-1.43.07-1.41.04 1-1.97-1.02-5.53-3.84-4.55.5-.63.94-1.3 1.33-2a3.86 3.86 0 00-.98-4.03c-1.18-1.18-3.49-1.27-4.93-.62-.4.17-1.17.9-1.57.9.37-.67.64-1.38.83-2.12a3.52 3.52 0 00-2.24-3.1c-2.72-1.2-5.62 1.28-7.8 3.06a1.47 1.47 0 00-.62-1.72c-1.15-.88-3.78-1.78-5.2-1.37a1.58 1.58 0 00-1.1 2.15c.36.5.78.94 1.25 1.33-.65-.55-1.22-1.12-1.53-1.33-2.05-1.37-4.2-1.86-6.54-.78-.88.4-2.54 1.54-2.35 2.7.1.6 2.2 1.1 2.08 1.14-.2.07-1.4.08-1.73.12-1.48.16-4.68 1.41-4.34 3.44a2.34 2.34 0 001.92 1.65c.08 0 1.1.09 1.1-.08 0-.02-.57.33-.6.35-.31.24-.6.51-.86.82a3.76 3.76 0 00-.62 3.69c.35 1.06 1.49 2.03 2.66 1.64.49-.2.92-.53 1.25-.94.03-.02.55-.48.6-.4.05.13-.26.63-.32.75a1 1 0 00-.04.95.98.98 0 00.78.54c.54 0 1.05-.19 1.45-.55a7.26 7.26 0 002.47-3.56c.2-.54.48-2.43.5-2.31.19.73.52 2.04 1.06 2.58 1.06 1.05 2.87 1.77 4.35 1.22.6-.22 1.15-.54 1.65-.94.12-.1.47-.55.62-.55a6.6 6.6 0 001.65 2.82c1.44 1.26 3.96.95 3.96.95z" fill="#212121"/>
  <path fill-rule="evenodd" clip-rule="evenodd" d="M191.5 23.23c0 .19-.03.38-.08.57a2.7 2.7 0 011.91.37 4.17 4.17 0 011.72 1.85 3 3 0 01-.4 2.8c.08-.03.15-.04.22-.05.08-.01.99-.03 1.41-.01.91.04 1.57.23 1.95.97a2.91 2.91 0 01-.03 3.23c-.24.36-.52.7-.83.99-.41.28-.85.52-1.3.71.67.22 1.58.52 2.27.82.5.19.93.5 1.27.9a3.15 3.15 0 010 3.61c-1.19 1.7-4.64 1.62-6.71 1.46.43.74 1.43 2.31 1.48 3.15 0 1.75-.96 2.27-2.7 2.22-1.03-.05-2.02-.35-2.88-.88-1.17-.7-1.09-.88-1.09-.7.02.5-.04 1-.16 1.5a2.6 2.6 0 01-1.3 1.74c-.86.33-1.78.46-2.7.36a3.31 3.31 0 01-2.32-1.34c-.51-.82-.9-1.7-1.18-2.62a8.52 8.52 0 01-2.15 1.64c-.54.3-1.18.4-1.78.27-2.54-.67-1.23-4.28-.22-6.72-2 .07-3.83-.5-3.49-2.48.46-1.97 2.26-2.41 4.2-2.74a4.18 4.18 0 01-.76-3.67c.13-.42.35-.81.66-1.14.1-.06 1.07-.15 1.29-.22a2.88 2.88 0 001.5-1.24c.42-.78.01-2.98-1.03-3.59a2.55 2.55 0 00-1.7-.06c-.39.26-.74.58-1.04.94-.25.27-.2.25-.25.28l.02-.03v-.01c0 .15-.31.14-.57.15-2.98.1-4.43-1.13-5.3-3.68l-.08.1a4.25 4.25 0 01-5.66.78A3.52 3.52 0 01161.9 21a8.65 8.65 0 01-1.18 3.23 6.2 6.2 0 01-2.17 2.16 1.54 1.54 0 01-1.65.1c-.17-.09-.32-.22-.43-.39l-.01-.01-.08-.15c-.06-.14-.1-.29-.1-.44 0-.63.29-.56-.35-.08-1.23 1-3.28.36-3.83-1.87a4.06 4.06 0 011.32-4.15c-1.47-.18-2.76-1.72-1.98-3.24.68-1.3 2.52-2.14 3.94-2.44.63-.13.72-.08.65-.1a1.9 1.9 0 01-.7-.52c-.35-.5-.08-1.24.3-1.77a6.27 6.27 0 017.4-1.72c1.35.58 1.15.78 1.18.42a1.95 1.95 0 01.8-1.4c1.4-.98 3.98-.17 5.49.61a2.71 2.71 0 011.58 1.67c1.42-1.14 2.87-2.31 4.68-2.77a4.31 4.31 0 015.1 2.47c.16.42.23.87.2 1.32-.03.29-.12.57-.24.84-.16.42-.14.12.56-.17 1-.38 2.09-.48 3.15-.28a3.85 3.85 0 012.57 1.58 4.22 4.22 0 01.68 3.73c-.22.53-.51 1.03-.87 1.48 2.08-.04 3.72 2.14 3.59 4.1zm-33.77-9c-.84.21-1.95-.21-4.1.87-.53.24-.99.6-1.36 1.04a1.49 1.49 0 00-.3 1.48 2.14 2.14 0 001.55 1.14c.26.03.53.04.8.02a.4.4 0 01.36-.08l.13.08c.04.05.07.1.08.16.09.48-.45.37-1.03.94-.28.26-.54.56-.77.88-.15.24-.28.51-.36.8-.24.85-.17 1.76.2 2.56.24.46.62.83 1.09 1.06 1.52.68 2.26-1.33 3-1.29.18.03.32.18.26.46-.1.4-.45.7-.45 1.15v.07l.01.06v.03h.01v.04l.03.06h.01v.02h.02v.03c.57.75 1.49.13 2.2-.47.46-.4.85-.86 1.16-1.37 1.25-2.06 1.04-3.03 1.34-4.01a.24.24 0 01.12-.18.25.25 0 01.2-.01c.03 0 .05.02.06.03l.03.02c.08.1.04.05.2.66l.24.8c.14.56.46 1.05.9 1.41.6.5 1.3.84 2.04 1a3.66 3.66 0 003.06-.75c.57-.4.8-.89 1.12-.82.21.07.14.38.6 1.33.28.65.72 1.22 1.27 1.67 1.06.66 2.3.94 3.54.8.09 0 0 .05.28-.26.35-.44.78-.8 1.27-1.08.46-.1.94-.13 1.4-.07 1.36.26 1.95 2.15 1.87 3.54-.01.3-.1.59-.25.84-.43.7-1.1 1.2-1.9 1.39l-.85.12-.08.01a3 3 0 00-.44 2.84c.39 1.29 1.24 1.63.8 1.95-.44.28-3.58.19-4.15 2.37a1.31 1.31 0 00.1 1.12 1.33 1.33 0 00.92.64c.78.2 1.59.25 2.39.17a.28.28 0 01.21.15c.06.14.04.15-.13.56-.53 1.24-1.59 4.04-1.05 5.29.11.25.3.46.55.59.82.46 1.84-.12 2.59-.68 1.39-1.1 1.33-1.51 1.74-1.4l.1.06c.15.16.83 2.04 1.05 2.5.1.19.21.37.34.54.98 1.22 2.34 1.27 3.88.87 1.38-.39 1.53-2.23 1.3-3.63a.35.35 0 01.61-.3 6 6 0 004.68 2.03c.37 0 .74-.1 1.06-.3l.09-.09c.2-.28.3-.62.28-.96a4.04 4.04 0 00-.56-1.46c-.94-1.78-1.32-1.98-1.19-2.4.25-.43.41-.09 2.83-.09a8.24 8.24 0 003.63-.65 1.76 1.76 0 00.88-1.12c.46-1.36-.01-2.28-1.06-2.76-.55-.25-1.26-.49-1.83-.68-1.68-.55-1.57-.46-1.7-.63a.4.4 0 010-.47c.1-.1.1-.09.45-.23.62-.23 1.2-.52 1.76-.88l.01-.01c.55-.49.92-1.15 1.06-1.87 0-.27-.04-.54-.13-.8-.1-.26-.22-.53-.37-.77-.31-.49-1.92-.36-2.43-.36-.1 0-.57.14-.86.17-.5.05-.68-.31-.56-.6.13-.32.55-.86.77-1.45.04-.14.06-.28.08-.43.06-.46-.05-.93-.32-1.32a3.83 3.83 0 00-1.44-1.2c-.58-.24-.58-.14-1.75-.1a.41.41 0 01-.45-.28c0-.06-.04-.05-.01-.21.11-.23.19-.48.22-.73a3.46 3.46 0 00-.9-2.62 2.39 2.39 0 00-2.39-.8c-.3.08-.4.17-.64 0a.39.39 0 01-.1-.48c.48-.62.92-1.27 1.3-1.94a3.28 3.28 0 00.1-1.9c-.58-2.16-2.47-2.96-4.62-2.54-1.07.23-1.13.5-1.89.95-.17.12-.38.2-.59.24a.4.4 0 01-.48-.48c.33-.64.6-1.31.8-2a3.1 3.1 0 00-1.75-2.64c-2.54-1.3-5.2.91-7.38 2.69-.24.2-.33.32-.6.26a.4.4 0 01-.25-.52 1.05 1.05 0 00-.3-1.08c-1.01-.97-4.33-2.16-5.58-1.23a1.13 1.13 0 00-.34 1.37c.05.06-.03 0 .32.4.84.86.89.75.96 1.02a.38.38 0 01-.24.41.4.4 0 01-.45-.12c-1-.85-1.33-1.34-2.7-1.97a5.79 5.79 0 00-2.99-.57c-2.03.2-3.68 1.52-4 2.33a.86.86 0 00-.07.44v.05c.18.32 1.6.76 1.83.85a.37.37 0 010 .7zm17.58 11.83c-.1 0-.3.02 0 0v.02-.02z" fill="#212121"/>
  <path fill-rule="evenodd" clip-rule="evenodd" d="M163.69 47.51c-2.2-.64-2.1-1.85-2.91-2.47-.08-.06-2.1 2.5-4.94.22-.9-.71-.9-1.87-.65-2.93.18-.34.34-.7.49-1.06l-.42.22c-.37.14-.75.22-1.14.25-1.16.15-2.35.07-2.78-1.21-.74-2.24 1.34-3.79 3.1-4.63 1.04-.5.93-.69 2.35-.9 0 0-.77-.11-1.14-.2a3.63 3.63 0 01-1.92-1.1c-.61-.92.22-2.03.84-2.67a5.12 5.12 0 013.9-1.39c1.3 3.83 3.22 9.05 6.88 10.78.97.47 2.7.73 2.82.86.28.28.45 3.3.25 3.5-.65.66-3.78 2.26-4.73 2.73z" fill="#212121"/>
  <path fill-rule="evenodd" clip-rule="evenodd" d="M158.27 29.24c.57 0 .5.1.75.8.91 2.68 2.33 6.35 4.28 8.4 1.79 2 3.39 2.06 4.81 2.5a.49.49 0 01.38.33c.25 1.14.33 2.31.2 3.47-.03.2-.14.26-.37.44a29.26 29.26 0 01-3.16 1.78c-1.07.54-1.54.8-1.5.68l-.01.03c-2.1-.57-2.14-1.58-2.86-2.33-.13-.13-2.06 2.51-5.13.15a2.48 2.48 0 01-.92-1.95c-.02-.48.04-.97.19-1.44.13-.3.24-.1-1.11.03-1.26.1-2.27-.15-2.77-1.32-.8-2.16.55-3.76 2.53-4.9.51-.28.73-.37 1.04-.54l.54-.3c-2.52-.85-2.63-2.55-.8-4.4a5.46 5.46 0 013.91-1.43zm-2.48 11.7c.54.25-.05.93-.25 1.4l-.03.07c0 .06-.42 1.38.18 2.26a3.7 3.7 0 001.75 1.16 2.97 2.97 0 002.72-.59c.47-.35.46-.44.65-.42.33.1.78.94 1.09 1.38.2.3.48.55.8.71.31.18.64.32.97.43.88-.45 3.78-2 4.55-2.7.06-.55.06-1.1-.02-1.64-.02-.16-.13-1.47-.29-1.52-1.68-.44-4.02-.52-6.5-4.27a32.63 32.63 0 01-3.22-7.18c-.84 0-1.67.2-2.41.57-.55.3-1.02.72-1.38 1.23a1.76 1.76 0 00-.46 1.42c.04.11.1.22.17.3.46.44 1.04.74 1.66.87 1.08.24 1.18.09 1.37.4a.39.39 0 01-.11.48c-.14.08-.14.07-.37.1-.45.05-.89.2-1.28.43-1.41.76-3.42 1.62-3.78 3.4-.08.46-.02.93.17 1.37.45.99 1.63.9 2.7.74.34-.04.68-.16.98-.34a.37.37 0 01.34-.05zm12.16.53zm0 0z" fill="#212121"/>
  <path fill-rule="evenodd" clip-rule="evenodd" d="M177.61 24.3c.42-.01.84.13 1.17.4a4.13 4.13 0 011.06 4.06c-.41.78-1.11 1.37-1.95 1.64-.18.05-.58.1-1.05.16h-.01a2.7 2.7 0 00-.53 2c.13.81.47 1.57 1 2.2a.42.42 0 01.02.4.42.42 0 01-.33.24c-.53.15-2.58.28-3.5 1.37-.48.58-.71 1.57-.14 2.08.56.38 1.23.57 1.9.55 1.03.04 1.2-.17 1.42.2a.41.41 0 010 .34 15.3 15.3 0 00-1.32 4.46c-.05.42.02.84.21 1.22.13.17.29.3.48.4.71.35 1.57-.08 2.22-.54 1.23-.87 1.44-1.46 1.82-1.56a.4.4 0 01.21.02c.22.1.24.22.38.57.62 1.57.8 2.22 1.34 2.8.41.43.57.34.64.66.01.27-.12.35-.49.63-.9.64-1.84 1.2-2.83 1.67-3.43 1.62-7.22 2.27-10.84 1-1.82-.65-2.94-1.52-4.66-2.85-.08-.07-.6-.46-.68-.54a.35.35 0 01-.03-.44c.15-.18 3.75-1.84 5.03-2.86a10.86 10.86 0 00-.2-3.08c-.34-.1-1.15-.27-1.97-.53-4.47-1.47-6.54-7.7-8-12.26-.25-.68-.43-1.38-.53-2.1-.02-.16-.04-.19 0-.27l.02-.02a.31.31 0 01.04-.04h.02a.2.2 0 01.06-.01c.06 0 .12 0 .19-.02.34-.1.66-.26.95-.48a5.7 5.7 0 001.47-1.54c.43-.68.77-1.4 1.01-2.17.13-.46.36-1.93.43-2.14a.23.23 0 01.13-.14.18.18 0 01.1-.02l.08.01c.3.15.38 1.96 1.24 2.72a4.8 4.8 0 002.2 1.14c.65.15 1.33.1 1.94-.17 1.76-.74 1.77-1.63 2.32-1.44.2.1.16.19.37.74.22.6.53 1.15.92 1.65.4.5.93.87 1.54 1.06.75.24 1.54.33 2.33.28.21 0 .12.03.34-.21 1.02-1.13 1.3-1.26 2.46-1.24zm-15.75-3.26a7.9 7.9 0 01-2.04 4.24 4.6 4.6 0 01-1.99 1.3c-.08 0-.06-.02-.05.1a46.15 46.15 0 002.67 7.49c1 2 2.14 4.17 4.17 5.51 1.11.77 2.15.9 3.4 1.22.32.09.41.14.52.47.2.76.43 2.95.2 3.53-.31.58-4.15 2.56-4.66 2.8.71.55 1.96 1.5 2.74 1.97 4.75 2.78 10.73 1.32 14.8-1.64-.16-.15-.3-.31-.44-.49-.48-.66-.48-.82-1.16-2.52-1.21 1.19-2.94 2.5-4.42 1.67a1.96 1.96 0 01-1.03-1.61 8.2 8.2 0 01.52-3.2c.18-.53.38-1.1.63-1.69-3.1.05-3.96-1.46-3.27-3.19.6-1.5 2.33-2 3.9-2.26a4.34 4.34 0 01-.72-3.36c.12-.55.39-1.06.78-1.47.2-.13 1.1-.16 1.37-.25.28-.1.53-.26.76-.45.21-.17.4-.37.54-.6.41-.7.12-1.99-.24-2.72a1.46 1.46 0 00-1-.87 4.36 4.36 0 00-1.15.05c-.26.16-.5.36-.71.6-.67.65-.53.71-.86.75-.5.04-1.02.03-1.52-.03-2.4-.29-3.37-1.43-4.2-3.61-.63.63-1.4 1.09-2.26 1.35-.92.22-1.9.13-2.76-.28a5.22 5.22 0 01-1.7-1.18c-.3-.39-.52-.82-.65-1.28-.18-.51-.14-.5-.16-.35zm6.14 20.5zm0 0zm7.44-15.29v-.02.02zm.03-.06v-.01.01z" fill="#212121"/>
  <path fill-rule="evenodd" clip-rule="evenodd" d="M163.24 28.39v.02h.02l.03-.22.22.02a.5.5 0 01.08.26c.12.88.06 1.77-.18 2.63-.23 1.22-.13.85-.22 1.21-.05.18-.1.35-.13.53.26.14.55.23.84.27.43.11.87.14 1.3.07l-.02.02-.06.07v.04l.11-.14a.15.15 0 01.12.03l.02.02.02.02a.2.2 0 01.03.1v.03l-.01.02c-.05.1-.16.12-.44.22-.29.1-.59.15-.88.14-.44.04-.87-.02-1.28-.17-.76-.35-.53-.89-.36-1.59 0-.52.6-2.3.67-3 .1-.37.1-.53.12-.6zm1.91 5.06l.09.04h.04-.01c-.17-.13-.14-.12-.12-.04zm-2.14-.65v-.01zM168.1 34.5c.05.27 0 .56-.12.81-.13.25-.3.47-.53.65-.39.36-.9.56-1.42.58-.07 0-.02.01-.25-.08.11-.26.01-.14.4-.49.34-.3.63-.48.92-.77.12-.1.29-.28.29-.28l.08-.08c.12-.12.23-.25.32-.4l.19-.13.13.18z" fill="#212121"/>
  <path d="M166.75 29.95a.4.4 0 01-.4-.34c-.05-.4-.36-1.17-.06-1.53a.4.4 0 01.51-.07.4.4 0 01.15.5c0 .22.17.8.2.99a.4.4 0 01-.02.17.4.4 0 01-.22.25.4.4 0 01-.16.03zM160.33 30.37a.4.4 0 01-.39-.35c-.05-.38-.23-.64-.15-1.03a.42.42 0 01.17-.46.41.41 0 01.5.02c.25.2.12.52.1.65.05.23.13.42.17.71l-.01.17a.4.4 0 01-.08.15.4.4 0 01-.3.14z" fill="#212121"/>
  <path fill-rule="evenodd" clip-rule="evenodd" d="M159.97 25.71a1.19 1.19 0 01.89.33c.13.13.11.1.16.35l-.22.04c-.17 0-.37.07-.66.07-.3.03-.6.03-.9 0-.18-.01-.1.05-.34-.05l.01-.01h.02v-.02h-.2l-.01-.01-.01-.01a.17.17 0 01-.04-.14c.04-.19.22-.16.34-.27h-.02c.12-.1.27-.18.43-.21.18-.05.37-.07.55-.07zm-1.01.48l-.02.2h.02l.01-.02.02-.03v-.02l.01-.03v-.07l-.01-.02-.01-.01-.01-.01v-.01l-.01.02zM166.5 25.75a1.85 1.85 0 011.53.65l.04.23c-.32.06-.1.04-.53 0-.13 0-.3 0-.42-.02-1.14-.16-1.08-.04-1.65-.15h-.04l-.22-.04c.05-.29-.02-.23.37-.44.28-.17.6-.26.92-.23z" fill="#212121"/>
  <path fill-rule="evenodd" clip-rule="evenodd" d="M159.25 32.2c-.12.05-.24.11-.35.18h.01v-.01c-.26.33-.48.7-.63 1.1-.17.43-.25.87-.24 1.33 0 .53.14 1.05.43 1.5.3.37.7.66 1.15.83.73.31 1.53.42 2.31.32l.01-.01h.01v.01l-.01.01v.03l.14-.17c.18.15.17.13.17.2 0 .14-.15.24-.33.3-.75.25-1.56.27-2.33.08a3.29 3.29 0 01-1.68-1.03 2.75 2.75 0 01-.18-.24 3.71 3.71 0 01-.35-2.66 3.73 3.73 0 011.25-1.89c.18-.11.39-.18.6-.2.1.01.11.07.12.07l.02.02v.13l-.21.08.05.02h.03zm-.17-.1c.1.1.1.13 0-.13v.13zM178.07 28.69h.03l.03.02.03.02c.03.04.05.09.05.13l-.12.14c-.41.6-.6 1.31-.53 2.03 0 .29.06.58.18.85.53 1.21 1.57 2.25 2.89 2.16 3.09-.27 2.64-5.94-.26-6.08-.39-.01-.22.07-.47-.13l.14-.18c2.18-.4 3.67 1.94 3.45 4.1-.02.31-.08.62-.17.92-.15.49-.41.93-.77 1.3a2.91 2.91 0 01-2.1.86 3.77 3.77 0 01-3.32-2.74c-.11-.32-.16-.66-.14-1 .03-.55.16-1.1.38-1.6.08-.17.17-.33.28-.47.22-.26.27-.35.42-.33zm-.18.2v-.01.03c.02.04.04.07.07.08l.03.01a.2.2 0 00.04 0l-.14-.12z" fill="#fff"/>
  <path fill-rule="evenodd" clip-rule="evenodd" d="M163.68 57.38a12.1 12.1 0 01-.76 1.65c-.21.47-.17.38-.9 2.26a23.58 23.58 0 00-1.64 6.68c-.02.3 0 .58.04.87.06.26.03.86.1 1.08v.01c.05.13.34.45.08.65h-.01l-.22-.04.04-.22-.02.01v.01h-.01l-.01.01v.04-.01h-.01v-.01l-.02-.03-.12-.15a4.04 4.04 0 01-.3-1.15c-.36-1.33-.15-2.22.09-3.6a19.3 19.3 0 013.34-8.08l.17-.15.16.17zM191.52 54.15c.41 3.47 1.03 6.9 1.84 10.3.63 2.72.74 2.25.54 2.64l-.2-.1a27.14 27.14 0 01-1.3-3.44c-.26-.98-.78-3.31-.94-4.36a19.5 19.5 0 01-.28-4.67c.03-.45-.03-.32.18-.53l.16.16zM172.55 66.68a.63.63 0 01-.34.25c-.9.15-1.78-1.63-2.17-2.47-2.7-6.17-4.97-16.66-4.33-18.08.04-.07-.01-.04.25-.1l.05.22v.01l-.01.01-.01.02c-.62 1.22 3.9 18.02 6.01 19.55 1-1.42 9.05-16.83 9.4-18.55v-.05l.14-.17.17.15c.22 1.04-7.3 16.72-9.16 19.21z" fill="#212121"/>
  <path fill-rule="evenodd" clip-rule="evenodd" d="M175.88 71.59a4.3 4.3 0 01-3.88 2.04 2.78 2.78 0 01-1.58-.54 6.2 6.2 0 01-1.01-.85 3.94 3.94 0 01.46-5.25c1.2-1.03 4-1.17 5.57.28.5.47.81 1.1.91 1.77.14.87-.03 1.77-.47 2.55zm-4.85-4.4c-1.87.75-2.1 3.62-.82 4.74.34.31.7.57 1.11.79.48.16.99.22 1.49.15a3.55 3.55 0 003.26-3.22c-.03-.5-.18-.97-.45-1.4a2.56 2.56 0 00-.53-.58 4.43 4.43 0 00-4.06-.48zM154.85 169.07h.03l-.02.09c.03-.13-.05-.08.44 0 2.1.4 4.24.49 6.37.25 1.4-.17 1.55-.45 1.81-.18.1.15.07 0 .13 2.32.02.92.08 3.15.02 3.67-.06.25-.19.32-.44.4-.73.12-1.46.17-2.2.14-.23 0-.32.01-.48-.13-.13-.18-.08-.14-.08-1.06-.07 0-.56.1-.63.12-6.8 1.41-13.2 3.04-14.11 2.5l-.02-.02c-.2-.17-.17-.37-.17-.63.16-2.08 2.29-3.64 4.02-4.73a30.57 30.57 0 015.16-2.48c0-.1 0-.2.1-.24l.02-.02a.2.2 0 01.05 0zm.15.4l-.02.06-.01.02a.2.2 0 01-.05.04h-.02a2.2 2.2 0 01-.1.05c-2.6 1.11-6.54 3.14-8.08 5.51-.27.4-.43.87-.48 1.35 0 .09-.02.07.1.07 3.11-.35 5.1-.93 12.9-2.57 2.08-.39 1.96-.41 1.96 1 .57.02 1.14 0 1.7-.09 0-.13.04-.34 0-5.08-2.31.36-4.67.3-6.97-.18-.91-.18-.85-.2-.93-.2v.02z" fill="#212121"/>
  <path d="M155 169.47l-.02.06-.01.02a.2.2 0 01-.05.04h-.02a2.2 2.2 0 01-.1.05c-2.6 1.11-6.54 3.14-8.08 5.51-.27.4-.43.87-.48 1.35 0 .09-.02.07.1.07 3.11-.35 5.1-.93 12.9-2.57 2.08-.39 1.96-.41 1.96 1 .57.02 1.14 0 1.7-.09 0-.13.04-.34 0-5.08-2.31.36-4.67.3-6.97-.18-.91-.18-.85-.2-.93-.2v.02z" fill="#212121"/>
  <path fill-rule="evenodd" clip-rule="evenodd" d="M189.6 152c.14.04-.07-.2 2.83 3.05.06.06.8.91 1.04 1.22.38.48.33.68-1.13 1.98-.5.43-.64.64-.95.5-.13-.07-.03 0-.63-.7-.2.16-2.47 3.2-2.52 3.27-.96 1.28-5.16 6.92-6.35 7.94a1.4 1.4 0 01-.56.36c-.3.06-.47-.15-.65-.4-1.92-2.61.67-8.44 2.24-11.29.08-.16.08-.09-.02-.22a.15.15 0 01-.02-.06v-.07l.03-.05a19.85 19.85 0 006.3-5.3c.12-.18.18-.25.39-.23zm-1.97 2.79a22.34 22.34 0 01-4.33 2.9c.24.28-.92 1.51-2.05 5.4-.37 1.18-.56 2.4-.58 3.63-.03.73.18 1.45.6 2.05.23.28 5.6-7.01 8.35-10.56 1.19-1.5 1.15-1.35 2-.35a7.7 7.7 0 001.24-1.17c-.05-.06-.19-.27-3.3-3.86-.57.71-1.22 1.37-1.93 1.96z" fill="#212121"/>
  <path d="M187.63 154.79a22.34 22.34 0 01-4.33 2.9c.24.28-.92 1.51-2.05 5.4-.37 1.18-.56 2.4-.58 3.63-.03.73.18 1.45.6 2.05.23.28 5.6-7.01 8.35-10.56 1.19-1.5 1.15-1.35 2-.35a7.7 7.7 0 001.24-1.17c-.05-.06-.19-.27-3.3-3.86-.57.71-1.22 1.37-1.93 1.96z" fill="#212121"/>
  <path fill-rule="evenodd" clip-rule="evenodd" d="M213.67 63.32c2.9 1.9 3.7 4.12 4.37 7.4.65 3.45.91 6.95.78 10.45-.13 4.7-.83 11.69-.9 11.82a.29.29 0 01-.34.11c-.37-.15-.94-1.95-4.64-3.22-1.37-.47-4.8-1.31-4.89-1.38a.29.29 0 01-.03-.05l-.01-.02v-.09c0-.03.03-.06.06-.09.67-.4 4.07-2.04 5.63-3.49.36-.29.66-.66.86-1.08.74-1.79.5-4.21.23-6.27a63.23 63.23 0 00-1.04-5.83 20.84 20.84 0 00-1.21-3.26c-1.74-3.74-2.25-4.2-2.04-4.6.19-.26.26-.15 1-.22 1.87-.18 1.48-.63 2.17-.18zm-2.24.97c.15.44 1.03 1.96 2.06 4.32a19.98 19.98 0 011.5 5.53c.32 1.76.52 3.55.63 5.34.18 4.44-.83 5.19-2.74 6.5a41.13 41.13 0 01-4.24 2.35c1.26.3 3.81.9 5.03 1.32a9.2 9.2 0 013.77 2.4c.46-6.6 1.28-15.05-.28-21.66a16.07 16.07 0 00-1.1-3.42 8.43 8.43 0 00-2.85-3.02c-.58.19-1.18.3-1.78.34z" fill="#212121"/>
  <path fill-rule="evenodd" clip-rule="evenodd" d="M163.57 47.3a27.55 27.55 0 004.03 2.78c3.24 1.6 7.9 1.66 12.91-1.32 1.62-.95 1.49-1.23 1.9-1.09.26.17.55.3.85.38.8.16 1.65.11 2.44-.14 1.27-.42 1.38-2.14 1.21-3.47a.63.63 0 01-.01-.23.4.4 0 01.3-.32.4.4 0 01.42.17 6.02 6.02 0 004.43 2c1.17-.06 1.45-.37 1.55-.98.02-.15.03-.3.02-.45-.1-.4-.24-.8-.42-1.16a.4.4 0 01.23-.42c.16-.05.16-.08 1.58.33 5.22 1.53 8 3.76 10.94 7.23 2.65 3.25 2.76 3.97 5.06 6.01 2.46 2.2 3.74 2 4.74 3.1a2.33 2.33 0 01.42 2.1 1.4 1.4 0 01-.5.7c-2.5 2.28-5.97 2.15-9.13.93l-.13.15a6.57 6.57 0 01-2.7 1.58c-4.2 1.3-4.25-1.27-7.05-1.03-1.39.13-2.56.8-2.56 2.17 0 .88 5.35 15.38 5.17 16.87a.4.4 0 01-.19.31c-1.9 1.28-4.44 1.19-6.68 1.71-1.58.37-.7.47-2.15.3-8.53-1.01-17.24-1.46-25.87-1.68-7.03-.18-6.99-.05-6.99-.3v-.04l.01-.02c1.22-2.8 3.57-5.38 5.73-7.52-.5-.5-.94-1.03-1.35-1.6-.68-1.18-.88-2.91-1.64-4.07-.31.2-.65.35-1 .48-.63.2-1.3.21-1.93.05-1.65-.4-2.48-1.95-3.68-2.32-2.01-.6-5.1 1.93-7.03-.3-.25-.28-.45-.6-.59-.95-.1-.37-.27-1.17-.04-1.48.29-.35.7-.42 1.3-.67.37-.16.3-.16.82-.68 1.28-1.27 2-1.94 2.57-2.52 3.74-3.75 5.92-10.32 10.68-13.83.78-.54.9-.58.97-.64.99-.57.9-.53 1.36-.13zm-10.7 20.56c2.1.05 2.57 2 4.45 2.47 2 .49 2.67-.93 3.12-.44.6.76.94 2.35 1.35 3.45.23.68.62 1.29 1.14 1.78.88 1 .92.68.08 1.51-1.88 1.9-4.06 4.23-5.21 6.75 9.3.04 19.34.3 28.52 1.13 5.34.49 4.56.56 4.97.4 2.26-.82 5.46-.64 7.32-1.88 0-1.43-5.18-15.77-5.24-16.27-.22-1.98 1.16-3.15 3.17-3.37.84-.1 1.7.05 2.44.45 1.26.6 1.79 1.32 4.14.7 2.29-.64 2.9-1.72 3.05-1.85a.41.41 0 01.42-.05c1.25.52 2.59.82 3.94.89.86.03 1.71-.09 2.52-.36a5.86 5.86 0 002.28-1.41c.13-.23.17-.49.13-.74-.17-1.34-1.46-1.33-3.2-2.45-3.1-2-4.83-4.81-6.1-6.43-3.26-4.14-6.21-6.61-11.88-8.14a2.17 2.17 0 01-.64 2.46c-1.1.69-3.66.64-5.88-1.2 0 1.45-.36 2.85-1.74 3.36-.92.31-1.91.38-2.87.2-1.16-.28-.62-.49-1.18-.09a20 20 0 01-3.36 1.86c-4.15 1.8-8.86 1.93-12.54-.52a48.8 48.8 0 01-3.04-2.27c-.69.37-1.34.8-1.94 1.3-4.26 3.5-6.37 9.58-10.19 13.34l-3.1 3c-.26.15-.53.28-.82.37-.22.06-.43.16-.62.29-.03.32 0 .64.1.94.12.28.28.54.48.77 1.32 1.68 3.92.02 5.94.05z" fill="#212121"/>
  <path fill-rule="evenodd" clip-rule="evenodd" d="M151.59 83.5c33.03 0 46.96 2.23 60.64 5.93 9.06 2.45 8.3 10.67-2.71 13.77-71.15 19.97-148.23 8.36-160.78-1.89a2.7 2.7 0 01-.67-.78 16.27 16.27 0 008.63 3.9c.59.08 3.21-8.25 9.16-9.98a12.5 12.5 0 00-1.6-3.48c2.5-.6 5-1.14 7.49-1.6 10.7-1.6 30.7-3.83 45.86-4.92 11.41-.7 22.36-.94 33.98-.94z" fill="#fff"/>
  <path fill-rule="evenodd" clip-rule="evenodd" d="M48.21 100.2a16.06 16.06 0 008.3 3.84c.12.02.1.04.16-.07.92-1.37 3.6-8.04 8.78-9.74a12.66 12.66 0 00-1.36-2.92c-.12-.2-.18-.25-.14-.44a.33.33 0 01.24-.22c6.52-1.56 8.91-1.86 17.07-2.86 8.07-.98 17.54-1.98 27-2.8 24.03-2.07 67.8-2.94 91.64 1.3 5.18.92 10.94 2.36 13 2.98 1.12.33 2.18.83 3.15 1.47 1.6 1.1 2.76 2.7 2.76 4.63 0 3.07-2.83 5.5-5.64 6.85-2.38 1.11-4.3 1.58-9.2 2.85-33.48 8.53-69.63 11.07-103.34 8.47-13.07-1-37.99-4.07-49.55-10.28-.82-.44-3.13-1.76-3.37-2.66a.37.37 0 01.5-.4zM130.67 84c-8.97.33-18.85.81-41.08 3.36-15.31 1.77-18.92 2.38-24.82 3.82.56.91 1.01 1.9 1.33 2.92.07.25.15.39 0 .58-1.4.46-2.7 1.22-3.77 2.23-3.35 3.1-4.77 7.67-5.53 7.86-.3.06-1.25-.3.15.2 29.84 10.53 95.82 13.45 151-1.73 3.08-.83 6.43-1.85 8.68-4.41 1.43-1.62 2-3.69.86-5.62-1-1.71-3.08-2.76-5-3.35-5.9-1.65-11.9-2.92-17.97-3.8-17.83-2.57-46.87-2.67-63.85-2.06z" fill="#212121"/>
  <path fill-rule="evenodd" clip-rule="evenodd" d="M218.46 95.34c.05.11.07.24.07.36-.03 8.23-.78 11.96-8.53 14.14-71.15 19.98-148.23 8.37-160.78-1.88-1.9-1.56-1.45-5.06-1.05-7.27.16.24.35.45.57.62 12.55 10.25 89.63 21.86 160.78 1.88 6-1.68 8.95-4.88 8.94-7.85z" fill="#fff"/>
  <path fill-rule="evenodd" clip-rule="evenodd" d="M218.5 95.19c.01 0 .03 0 .05.02l.03.03.02.03c-.08.03-.15.07 0 0 .1.26.1.24.08 1.56-.02 2.09-.12 4.87-.77 6.87-1.44 4.37-4.8 5.5-9.31 6.75-35.3 9.72-74.38 12.5-108.82 9.62-12.5-.97-37.59-4.22-48.51-10.29-.95-.5-1.83-1.11-2.63-1.83-1.45-1.55-1.33-4.2-1.03-6.32.17-1.1.16-1.23.48-1.33.32-.04.38.15.52.32.21.24.45.46.72.64 14.46 10.77 90.85 20.68 158.68 2.15a25.7 25.7 0 004.98-1.71c2.16-1.05 4.44-2.75 5.11-5.04.35-1.19.04-1.54.4-1.47zm-.16 1.78c-1.08 3.27-5.25 5.4-8.56 6.35-40.66 11.85-94.59 14.52-135.76 6.82-6.45-1.23-20.57-4.32-25.6-8.58-.25 1.69-.44 4.04.5 5.46A8.3 8.3 0 0051.5 109c17.6 9.87 88.22 19 154.69 1.65 6.04-1.6 10.43-2.37 11.71-8.37.3-1.75.44-3.53.44-5.31z" fill="#212121"/>
  <path fill-rule="evenodd" clip-rule="evenodd" d="M51.25 109.32c11.21 6.38 45.98 12.73 87.58 11.21-.2 2.47-.63 4.81-1.22 5.75-4.71 7.46-24.33 12.92-32.79 14-13.44 1.71-41.33-2.52-49.09-15.35a32.7 32.7 0 01-4.48-15.61z" fill="#fff"/>
  <path fill-rule="evenodd" clip-rule="evenodd" d="M139.23 120.56a30.42 30.42 0 01-.47 3.5c-.4 1.94-.78 2.4-1.15 2.93-2.06 2.83-5.9 5.07-9.05 6.6-7.2 3.54-19.1 6.81-25.6 7.27-4.73.3-9.48.15-14.18-.46-8.1-1-16.53-3.1-23.86-7.01-4.39-2.45-7.71-5.15-10.08-9.57a33.2 33.2 0 01-3.74-14.32c0-.16-.04-.3.13-.34h.07l.03.02c-.05.08-.15.25 0 0a47.72 47.72 0 008.89 3.55c18.56 5.47 44.15 7.55 63.36 7.63 15.17.13 15.65-.67 15.65.2zm-87.8-10.9c.24 6.78 3.01 13.7 6 17.21 5.93 6.96 17.4 10.43 26.34 12.04 7.12 1.34 16.68 1.96 23.88.53 8.03-1.43 25-6.43 29.57-13.28.04-.07.09-.13.12-.2.7-1.28 1.06-4.73 1.06-5.01-3.32.16-12.96.33-22.15.04-16.92-.52-48.93-3.31-63.95-10.92-1.01-.52-.88-.51-.88-.4z" fill="#212121"/>
  <path fill-rule="evenodd" clip-rule="evenodd" d="M110.47 149.38c1.9 5.1 4.06 10.79 5.9 15.31-2.03 2.57-3.97 5-4.41 5.13-.5.15-7.1-3.32-7.3-3.61-.11-.16 2.86-8.3 5.8-16.83zm24.78-28.73c3.21 3.55 3.54 9.58 2.04 13.8a57.57 57.57 0 01-8.4 15.07c-.37-10.02-1.51-21.33-4.34-28.76 3.5.02 7.07-.02 10.7-.12z" fill="#fff"/>
  <path fill-rule="evenodd" clip-rule="evenodd" d="M110.8 149.8c6.28 15.85 6.08 14.8 5.86 15.13-4.53 5.77-4.42 5.49-5.38 5.13a60.54 60.54 0 01-6.55-3.32c-.75-.46-.6-.38.5-3.57 2.14-5.95 3.14-8.55 4.65-12.65.5-1.34.43-1.28.6-1.3.13.02.12.1.13.1l.2.48zm-5.71 16.24a54.6 54.6 0 006.77 3.38c.3 0 4-4.72 4.07-4.8-1.64-4-4.91-13.1-5.46-14.74-1.86 5.8-3.13 9.39-5.38 16.16zm19.88-45a50.45 50.45 0 012.17 7.81c1.71 8.56 1.94 17 2.1 19.53 2.3-3.1 4.3-6.4 5.98-9.88.98-2.1 1.7-3.95 1.86-4.46 1.48-4.46.74-9.43-1.08-12.16-.25-.37-.53-.73-.83-1.07-2.81.1-7.3.23-10.2.23zm12.35 2.54a14.5 14.5 0 011.05 4.49c.16 2.12-.07 4.25-.7 6.28a48.7 48.7 0 01-3.34 7.52 65.21 65.21 0 01-4.5 7.03c-.66.92-.7 1.05-1.02 1a.39.39 0 01-.22-.13.4.4 0 01-.1-.24c-.28-8.44-1.27-19.72-3.9-27.79-.33-.97-.38-.92-.3-1.11.13-.23.19-.17 1.57-.15 8.2.1 9.35-.08 9.5.06-.08.07-.22.2 0 0 .84.88 1.51 1.9 1.96 3.04z" fill="#212121"/>
  <path fill-rule="evenodd" clip-rule="evenodd" d="M58.9 112.52c13.36 4.39 37.27 8.08 65.65 8.23 6.07 15.95 4.36 49.7 4.04 50.33-.03.06-8.22 2-8.39 1.84-2.18-2.18-14.55-36.67-14.55-36.67s-9.32.1-15.56-.53c-6.15-.62-16.93-3.84-21.94-7.75-7.6-5.94-9.05-12.24-9.25-15.45z" fill="#fff"/>
  <path fill-rule="evenodd" clip-rule="evenodd" d="M110.98 120.06c12.03.53 13.5.12 13.85.45.07.1.05.05.28.69a64.3 64.3 0 012.82 12.24c2.1 14.9 1.56 33.76 1.08 37.6a.55.55 0 01-.12.3c-.12.12-.1.13-1.8.53-1.21.3-4.9 1.16-6.15 1.37-.28.07-.56.1-.84.07-1.8-.63-14.05-34.86-14.7-36.7-3.06.04-10-.08-14.28-.47a58.87 58.87 0 01-17.18-4.6c-4.12-1.85-6.93-3.67-10.16-7.41-2.81-3.38-4.68-7.11-5.01-11.28-.02-.32-.05-.37.04-.45l.02-.02a.15.15 0 01.1-.01h.03c-.03.08-.03.1 0 0 14.59 4.81 36.51 7 52.02 7.69zm-5.22 15.84c.24.1.24.22.38.61 2.94 8.1 7.57 20.65 10.82 28.6 2.93 7.13 3.34 7.24 3.43 7.42a140.9 140.9 0 007.86-1.77c.46-2.78 1.6-35.04-3.96-49.64-3.41 0-9.83-.15-17.68-.6-15.72-1.04-32.5-3.1-47.53-7.77.15 1.69.55 3.34 1.19 4.91 2.08 5.2 6.8 9.9 11.36 12.2a57.23 57.23 0 0013.2 4.64c2.92.68 5.89 1.06 8.87 1.15 4.86.3 11.91.22 12.06.25z" fill="#212121"/>
  <path fill-rule="evenodd" clip-rule="evenodd" d="M215.82 106.87c.1 0 .19-.02.28-.05 0 0-.03 2.11-.08 2.8a20.89 20.89 0 01-3.72 10.23c-6.5 9.1-29.87 12.1-41.13 10.89-7.08-.77-23.52-4.64-27.47-9.94-.1-.14-.2-.3-.26-.47 21.32-1.06 44.23-4.22 66.56-10.5 2.7-.75 4.56-1.7 5.82-2.96z" fill="#fff"/>
  <path fill-rule="evenodd" clip-rule="evenodd" d="M216.14 106.66l.02.01.05.03c.07 1.23.04 2.45-.08 3.67a21.23 21.23 0 01-2.91 8.52 13.7 13.7 0 01-3.06 3.6c-8.3 7.12-28.51 9.98-40.38 8.47-6.8-.98-22.44-4.53-26.44-9.98-.13-.19-.23-.4-.3-.6a.4.4 0 01.25-.4c.8-.27 31.3-.71 66.4-10.26 2.1-.57 4.32-1.35 5.9-2.85.12-.1.13-.14.22-.16.1 0 .19-.02.28-.05h.05zm-5.22 3.1c-2.2.72-10.35 2.95-19.53 4.9a311.32 311.32 0 01-47.27 6.04c2.67 3.56 11.78 6.37 16.26 7.54 3.22.85 6.49 1.51 9.78 2 10.95 1.42 32.17-1.2 40.25-8.65 2.35-2.08 4.19-5.86 4.9-8.87.45-1.87.66-3.78.62-5.7a12.2 12.2 0 01-5.01 2.75zm5.08-3.07z" fill="#212121"/>
  <path fill-rule="evenodd" clip-rule="evenodd" d="M207 110.66l-.05.36a12.84 12.84 0 01-3.95 7.73c-9.38 9.15-31.78 8.8-32.14 9.17-.24.23-2.78 34.57-2.87 34.66-.28.27-14.3.24-16.13-.67-.29-.15-2.98-28.72 1.82-42.24 18.01-1.4 35.86-4.41 53.32-9z" fill="#F97D7D"/>
  <path fill-rule="evenodd" clip-rule="evenodd" d="M207.04 110.5c.18.07.1.23.07.53a12.1 12.1 0 01-.89 3.4c-3.02 7.43-13 10.64-20.84 12.17-6.6 1.3-13.42 1.48-14.22 1.6-.26 1.27-2.65 33.71-2.77 34.38a.42.42 0 01-.33.39c-1.18.3-13.66.21-16.12-.6-.5-.17-.5-.15-.71-2.05-1.05-10.34-1.44-30.17 1.74-39.7.12-.41.26-.8.42-1.19.2-.22-.11-.07 4.75-.52 30.7-2.85 48.32-8.5 48.9-8.4zm-10.26 2.9a299.91 299.91 0 01-42.82 6.62c-.04.09-.61 1.87-.9 3.16-2.88 12.03-1.6 34.8-.87 38.43 1.83.7 13.38.84 15.45.64 0-.07 2.62-33.7 2.9-34.46.13-.27.3-.27 1.4-.34 5.35-.33 12.49-.81 19.12-2.76 5.54-1.6 11.88-4.47 14.46-9.6.66-1.3 1.1-2.7 1.27-4.14.03-.2.45-.02-10 2.45z" fill="#F97D7D"/>
  <path fill-rule="evenodd" clip-rule="evenodd" d="M160.91 119c8.57 7.6 28.4 26.19 28.31 26.28-2.76 2.76-14.22 9.7-14.22 9.7s-3.23-3.01-4.7-4.24c-6-5-11.53-10.55-17.52-15.54-3.18-2.65-6.66-7.47-7-15a327.4 327.4 0 0015.13-1.2z" fill="#F97D7D"/>
  <path fill-rule="evenodd" clip-rule="evenodd" d="M146.07 120.47c.14 2.8.83 5.55 2.03 8.09a18.57 18.57 0 004.84 6.3c3.7 3.08 5.09 4.38 9.94 8.8 7.02 6.42 5.36 4.61 12.17 10.82.37-.2 11.45-7.03 13.64-9.22-1.18-1.22-22.58-21.4-27.83-26.1-6.27.73-12.29 1.13-14.79 1.3zm31.9 13.72c12.27 11.33 11.7 10.93 11.6 11.22 1.09 0-13.87 9.88-14.54 9.96-.35 0 0 .05-4.54-3.94-8.02-6.82-11.68-10.66-17.95-15.94a20.08 20.08 0 01-6.82-12.87c-.13-.84-.19-1.69-.18-2.54.2-.3-.24 0 9.4-.73 5.52-.41 5.95-.57 6.08-.47-.07.09-.2.22 0 0 9.42 8.27 16.85 15.3 16.95 15.3z" fill="#F97D7D"/>
  <path fill-rule="evenodd" clip-rule="evenodd" d="M170.98 128.02l.01-.02.01-.01c-.03.06-.14 3.1-.15 3.17-.33 10.02-1.24 22.2-1.43 22.5l-.21.04c-.06-.25-.05-.24-.07-.17v-.02c0-4.69 1-24.62 1.59-25.7l.23-.02.02.23zM153.83 119.72c-.45 1.36-1.32 5.65-1.36 5.71-.68 3.14-1.23 6.54-1.67 9.67-.14 1.03-.14 1.01-.25 1.96l-.17.15-.15-.17c.04-3.97.54-7.92 1.49-11.78.44-1.9 1.03-3.75 1.77-5.55.06-.13 0-.08.25-.2l.1.2z" fill="#fff"/>
  <path fill-rule="evenodd" clip-rule="evenodd" d="M67.44 106.6c.53.15 2.33.53 2.72.35.22-.44-1.31-1.13-1.76-1.31-.24-.1-1.5-.48-1.68-.6a.4.4 0 01-.1-.48c.3-.47.62-.05 2.68.5.54.15 2.64.68 3.07.32.1-.14-.05-.58-1.54-1.23-.86-.36-1.74-.64-2.65-.85-.48-.13-.73-.14-.8-.5a.4.4 0 01.29-.4c.37-.08 1.46.44 3.45.73.4.06 1.6.2 1.92-.05h.02c.07-.08.02-.3-.43-.56-1.46-.83-4.45-1.06-5.46-2.23a2.1 2.1 0 01-.6-1.39c.03-.8.68-1.36 1.03-2.02.2-.37.3-.74-.05-.99a.8.8 0 00-.65-.1c-.8.44-1.57.94-2.3 1.48-.2.06-.43-.17-1.49-1.2-.1-.12-.08-.04-.1-.32.27-.01.2-.03.33.08.26.24.89.82 1.18 1.03.43-.35 1.06-.8 1.51-1.1.34-.32.77-.49 1.23-.48a1.12 1.12 0 01.98.68c.32.83-.53 1.72-.87 2.35a1.05 1.05 0 00.13 1.35c.17.26.41.47.7.6 1.46.71 4.35 1 5.31 2a.94.94 0 01.13 1.28.93.93 0 01-.37.28c-.2.08-.4.13-.6.15-.44.05-.47-.01-.38.05.6.4 1.1.98.82 1.66-.36.79-1.6.64-2.45.5a.99.99 0 01.16 1.06.72.72 0 01-.59.43 8.78 8.78 0 01-3.2-.52 55 55 0 01-4.2-1.73 25.96 25.96 0 01-3.04-1.68c-.34-.22-1.81-1.25-1.86-1.52a.16.16 0 01.07-.14.16.16 0 01.16-.02l.02.07.03-.03c1.5 1.65 6.93 3.83 9.23 4.5zm-2.85-9.7zm0 0z" fill="#212121"/>
  <path fill-rule="evenodd" clip-rule="evenodd" d="M95.43 104.54c-.15.02 2.06-26.35 3.9-32 .53-1.66 45.2-12.3 45.73-11.76.5.5-2.46 31.78-2.59 31.91-.36.36-35.95 10.38-47.04 11.85z" fill="#fff"/>
  <path fill-rule="evenodd" clip-rule="evenodd" d="M95.4 104.7c-.43-.05 1.92-27.16 3.6-32.26.52-1.97 43.22-11.99 45.9-12.07.68-.02.62.51.62 1.25-.18 6-2.09 26.08-2.52 29.88-.15 1.4-.1 1.44-.53 1.6-3.18 1.19-35.6 10.03-46.62 11.54-.15.03-.3.05-.45.05zm8.08-33.48c-3.72 1.15-3.8 1.44-3.86 1.46-1.93 6.76-4.03 30.46-4.03 31.68 9.74-1.41 43.03-10.66 46.54-11.94.53-4.69 2.6-26.78 2.6-31.24-3.34.39-30.11 6.6-41.25 10.04z" fill="#212121"/>
  <path fill-rule="evenodd" clip-rule="evenodd" d="M141.35 64.82c.66.13.59.66.59 1.34.07 2.17-.44 8.58-.5 9.37-.47 6.34-.32 5.44-.48 5.8l-.22.09-.22-.1-.09-.23c0-3.21.24-8.51.27-12.15 0-2.62-.04-2.4-.04-2.78-3.3.34-6.54 1.08-9.67 2.2-3.43 1.17-2.45 1.03-3.42.99l-.41-.45.02-.6c.54-.51.24-.35 1.38-.76a56.11 56.11 0 017.8-2.17c1.65-.33 3.32-.51 5-.55zM96.74 89.82c-.76 7.12-1.31 13.79-1.32 14.63-3.23-.1-22.05-7.48-22.1-8.09-.04-.47-.14-1.93.2-1.82.41.15 1.77.8 1.77.8s16.97-4.54 21.45-5.52z" fill="#212121"/>
  <path fill-rule="evenodd" clip-rule="evenodd" d="M96.76 89.66c.04 0 .07.02.1.05l.01.02.02.05v.05c-.1-.01-.28-.03 0 0 0 .08-.82 9.27-1.07 13.59-.08 1.22-.03 1.04-.1 1.2-.14.22-.3.2-.74.14-3.31-.4-14.18-4.61-17.7-6.07-4.16-1.73-4.32-1.94-4.36-2.34-.04-.52-.13-1.6.15-2 .26-.33.58-.18.85-.07.4.17.92.4 1.32.6.26.12.96-.32 14.48-3.6.73-.18 6.8-1.63 7.04-1.62zM75.18 95.7l-.05-.02c-1.01-.48-1.38-.62-1.45-.65-.02.34-.02.68.01 1.02.01.16 0 .13.06.16 2.12 1.28 17.56 7.29 21.35 7.85.37-4.68 1.03-10.77 1.45-14.04-4.67 1.1-21.03 5.76-21.37 5.68z" fill="#212121"/>
  <path fill-rule="evenodd" clip-rule="evenodd" d="M96.82 87.82a337 337 0 00-1.31 14.63c-3.24-.1-22.53-7.64-22.1-8.08 2.08-2.18 18.15-5.4 23.41-6.55z" fill="#fff"/>
  <path fill-rule="evenodd" clip-rule="evenodd" d="M96.84 87.66c.04 0 .07.02.1.05l.01.02.02.05v.06c-.1-.02-.28-.04 0 0-1.37 16.02-1.05 14.52-1.16 14.78-.15.23-.33.2-.7.15-3.76-.47-18.6-6.18-21.45-7.72-.33-.18-.66-.34-.66-.7.1-.8 3.33-1.88 4.08-2.13 6.06-1.98 19.7-4.56 19.76-4.56zm-.24.37c-4.27 1-19.47 4.3-22.56 6.33 2.74 1.46 17.77 7.27 21.13 7.71 0-.57.51-5.62.57-6.18.86-8.25.96-7.88.86-7.86z" fill="#212121"/>
  <path fill-rule="evenodd" clip-rule="evenodd" d="M144.08 76.02c.14-.03.29-.05.43-.06.77-.1 2.22.34 2.9-.04.08-.05.12-.45.15-.55.16-.61.24-1.23.36-1.85.38-1.61.86-3.2 1.46-4.73 1.31-.2 2.73-.82 3.94-.63 1.4.23 2.2 1.88 3.7 2.34 2.1.64 3.06-.7 3.25-.45.76 1.06 1.01 2.9 1.65 4.1.44.65.95 1.24 1.5 1.8-2.44 2.4-4.74 4.88-6.02 7.94-2.14 1.97-3.74 3.54-6.74 4.14-1.27.25-2.8-.07-4.08-.1l-3.6-.08c.32-3.19.73-7.54 1.1-11.83z" fill="#fff"/>
  <path fill-rule="evenodd" clip-rule="evenodd" d="M144.88 75.77c.86.03 1.76.25 2.38 0l.08-.4c.39-1.65.18-2 1.16-4.92.68-1.99.59-1.8.7-1.9.1-.06.07-.04.43-.11 1.76-.36 3.24-1.15 4.81-.19.97.64 1.52 1.44 2.54 1.85.74.3 1.56.28 2.28-.04.55-.26.65-.4.92-.42.31 0 .41.19.62.54.73 1.24.95 3.22 1.78 4.24 1.03 1.29 1.35 1.27 1.2 1.7-.36.58-4.2 3.67-6 7.86-.07.2.03.07-.8.84a13.96 13.96 0 01-4.57 3.11c-2 .74-2.98.62-5.12.4-.68-.05-.56-.03-3.41-.13-1.05-.04-.96-.02-1.09-.1-.17-.18-.13-.09.1-2.18 1.1-10.4 1.01-9.95 1.1-10.03a.17.17 0 01.04-.02h.03c.27-.07.54-.1.81-.1zm4.72-6.71c-.26.75-.68 1.87-.82 2.3-.72 2-.62 2.59-1.11 4.49a.42.42 0 01-.14.23c-.72.46-2.2-.08-3.3.07-.24 3.2-.61 8.2-.9 11.39 1.64-.04 3.29.01 4.93.15 1.45.2 2.93-.02 4.26-.64a14.1 14.1 0 004.01-2.9c.67-.62.47-.38.69-.85 1.18-2.69 3.56-5.32 5.64-7.36-.44-.46-.85-.95-1.21-1.47-.64-1.09-.95-2.99-1.56-4-.42.26-.88.44-1.36.53-.72.11-1.45.02-2.13-.26-1.07-.46-1.83-1.48-2.59-1.94-1.2-.76-2.66-.04-4.41.26zM183.19 89.99c.1.24-.06.53-.66 1.79-1.78 3.78-5.39 10.9-7.03 13.6-.64.98-.6.95-1.86.94-3.61-.04-25.5-1.58-27.11-2.33a.39.39 0 01-.23-.24.4.4 0 01.04-.34c.68-1.23 12.3-14.76 13.84-15.87.05.07.06.08 0 0a839.8 839.8 0 0118.3 1.69c4.6.48 4.57.48 4.7.76zm-22.94-2.1c-.7.35-9.16 10.58-10.5 12.24-2.18 2.68-2.52 3.21-2.6 3.31.06.01 2.73.58 17.11 1.58.41.03 10 .71 10.23.43.8-1.08 2.85-5.04 3.5-6.27 3.76-7.25 4.23-8.53 4.38-8.78-.63-.1-21.95-2.65-22.12-2.5z" fill="#212121"/>
  <path d="M122.4 87.38c-1.31 0-2.48-.3-3-1.52-.41-.97-.52-1.24 2.27-7.2a2.3 2.3 0 011.76-1.31c1.48-.21 1.95.48 3.5 2.78 1.43 2.13 1.65 2.73 1.74 2.98a2.42 2.42 0 01-.95 2.96c-1.66.81-3.47 1.26-5.32 1.31zM171.52 100.44c-4.31-.97-8.68-1.7-13.07-2.15a.4.4 0 01-.42-.65c.16-.17.33-.33 6.1.58 2.75.43 6.2 1.04 7.61 1.45a.4.4 0 01.29.34c0 .06 0 .1-.02.16a.4.4 0 01-.19.24.4.4 0 01-.3.03zM172.62 94.7c-2.24-.66-9.33-1.7-10.07-1.59a.4.4 0 01-.36-.64.4.4 0 01.26-.15c.92-.12 8.1.94 10.4 1.6a.4.4 0 01.26.5.4.4 0 01-.49.27z" fill="#212121"/>
  <path fill-rule="evenodd" clip-rule="evenodd" d="M81.78 30.55a1.84 1.84 0 01-1.54-.3c-.11-.31-1.74-2.28-3.45-1.23-1.18.73-1.12 2.66-.83 3.8.39 1.6 1.79 1.63 2.94 1.51.05 0-.11 7.44.12 8.08.37 1.04 10.5 7.13 11.2 6.55 1.18-.98-.26-5.96-.16-6.1.17-.2 2.73.58 5.09-.32 4.54-1.75 4.03-6.54 3.98-9.6A47.01 47.01 0 0096.8 20.3c-.24 1.1-1.99 1.56-2.9 1.75-3.1.6-6.3.33-9.28-.75-1.04-.4-3.9-2.44-3.88-2.23.3 2.06.72 4.1 1.25 6.1.26 1.2.87 2.69.7 3.95a1.57 1.57 0 01-.91 1.42z" fill="#fff"/>
  <path fill-rule="evenodd" clip-rule="evenodd" d="M96.69 19.94a.4.4 0 01.5.26c.8 2.4 1.4 4.84 1.77 7.33.58 3.23.78 8.1.44 10a6.46 6.46 0 01-3.13 4.91c-1.9 1.08-3.64 1.01-5.76.8.3 1.58 1.06 4.78.06 5.9a.66.66 0 01-.67.23c-.9-.25-1.77-.61-2.58-1.07a64.23 64.23 0 01-7.16-4.39c-.51-.39-1.3-.96-1.46-1.4-.24-.98-.07-6.28-.07-7.87-2.16.13-2.97-.8-3.07-2.9-.14-3.33 2.46-3.96 4.11-2.43.13.1.25.22.36.34.53.63.2.43.55.6.34.2.75.26 1.14.16.14-.07.27-.15.38-.26.34-.46.5-1.03.44-1.6-.11-.97-.33-1.93-.64-2.86a64.53 64.53 0 01-1.43-6.62.28.28 0 01.28-.28c.66.26 1.28.6 1.84 1.04 1.19.86 2.55 1.45 3.98 1.74 1.12.26 2.26.4 3.41.44 1.72.05 4.47-.14 5.9-1.08.73-.57.41-.72.72-.95a.47.47 0 01.09-.04zm-17.5 14.41c.05.52-.05 6.82.14 7.9.16.75 9.13 6.2 10.7 6.37.08-.1.14-.23.17-.37.32-1-.17-3.45-.37-4.43a8.2 8.2 0 01-.16-.9c0-.11.02-.21.08-.3.24-.25.58-.18 1-.14 2.15.23 3.73.2 5.53-.97 2.36-1.7 2.56-4.37 2.48-7.34 0-2.63-.27-5.25-.8-7.82-.31-1.74-.72-3.46-1.23-5.15-.4.38-.87.66-1.39.84-3 1.12-8.06.78-10.97-.5-.93-.43-2.5-1.52-3.31-2.01.15 1.33.57 3.07.9 4.47.2.94.23 1.13.32 1.47.38 1.59.8 2.56.5 4.05-.05.3-.2.6-.4.82a1.7 1.7 0 01-.53.36 1.85 1.85 0 01-1.78-.4v-.01c0-.02-.02-.02-.03-.04-.8-1.06-2.03-1.76-3.15-1.03-.86.57-.95 1.88-.81 2.9.01.6.27 1.19.7 1.61 1.07.8 2.4-.07 2.4.62z" fill="#212121"/>
  <path fill-rule="evenodd" clip-rule="evenodd" d="M76 30.03c-.16-.14-.31-.3-.45-.46-1.5-1.78-2.87-2.57-3.05-5.84-.08-1.4-.52-2.9-.16-4.31a8.8 8.8 0 011.47-2.77 5.87 5.87 0 013.02-1.93c.31-.06 1.59.2 1.8.02.3-.26 1-2.56 2.68-3.2 16.03-6.1 17 4.88 17.08 4.99.68.64 1.28 1.37 1.79 2.17 1.26 2.58-.29 5.2-1.88 6.55a.2.2 0 01-.16 0 32.31 32.31 0 00-1.33-4.94c-.25 1.09-2 1.56-2.91 1.74-3.1.6-6.3.34-9.27-.74-1.05-.4-3.91-2.44-3.9-2.23.32 2.05.74 4.09 1.26 6.1.26 1.19.88 2.68.7 3.94a1.57 1.57 0 01-.91 1.43 1.84 1.84 0 01-1.54-.3c-.11-.31-1.74-2.28-3.44-1.23-.37.24-.65.6-.8 1.01z" fill="#212121"/>
  <path fill-rule="evenodd" clip-rule="evenodd" d="M73.46 27.45a6.74 6.74 0 01-1.18-3.51c-.2-2.45-.74-3.65.16-5.6.36-.74.8-1.44 1.3-2.1a6.58 6.58 0 012.74-1.78c.38-.1.78-.11 1.17-.03.26.04.52.04.78.01.34-.72.75-1.4 1.23-2.05a3.7 3.7 0 011.62-1.21c6.78-2.6 14.41-3.27 17.03 3.53.2.53.34 1.08.44 1.63a8.83 8.83 0 011.86 2.34c1.02 2.4.11 4.75-1.74 6.59-.3.28-.4.41-.7.39-.11 0-.2-.04-.29-.1-.26-.27.06-.07-1.07-4.04l-.09-.3c-.16.17-.34.31-.54.43-.87.47-1.8.77-2.78.89a17.8 17.8 0 01-9.24-1.05c-.66-.34-1-.57-1.58-.92-1.62-1.04-1.45-.96-1.44-.88.29 1.93.58 2.95.96 4.68l.27 1.2c.35 1.04.54 2.11.6 3.2-.06.91-.31 1.75-1.19 2.03a1.9 1.9 0 01-1.74-.49 3.3 3.3 0 00-.97-.98 1.84 1.84 0 00-2.93.78.16.16 0 01-.18.07.15.15 0 01-.06-.03c.08-.08.2-.22 0 0a31.3 31.3 0 01-2.44-2.7zm7.33-8.71c.44.06 2.16 1.35 3.66 2.1.51.22 1.04.4 1.58.55 2.36.63 4.83.76 7.25.39 1-.1 1.95-.45 2.78-1 .47-.45.27-.6.53-.8a.4.4 0 01.26-.07c.34.05.4.27.72 1.4 0 .06.6 1.98.85 3.3 1.32-1.3 2.2-3.24 1.67-5.04-.33-1.15-.93-1.62-1.8-2.56-.35-.37-.25-.27-.4-.94a8.34 8.34 0 00-.82-2.18c-1.66-2.84-4.36-3.91-7.78-3.8-2.74.19-5.43.8-7.97 1.84-1.1.5-1.65 1.64-2.18 2.63-.4.7-.49.62-1.96.49a1.23 1.23 0 00-.65.07c-.68.24-1.31.6-1.87 1.07-.42.36-.78.78-1.06 1.26-1.32 2-1.25 2.88-.97 5.18.12 1.02.08 1.24.17 1.88.33 2.44 1.28 3.1 2.76 4.82.12.15.25.3.39.43.78-1.67 2.95-1.61 4.3.11.2.27.1.22.25.3.24.13.5.2.77.24.2.02.4-.03.56-.14 1.34-.9.24-3.55-.17-5.31a55.45 55.45 0 01-1.25-5.86.34.34 0 01.38-.36zM95.77 27.07a42 42 0 011.36 5.52.45.45 0 01-.23.46c-.71.44-2.16.39-2.56.43h.01l.01-.01.03-.02.03-.04c.03-.06.07-.08-.16.07l-.13-.18.02-.05.02-.02a.16.16 0 01.08-.06c.71-.18 1.4-.4 2.1-.67a32.06 32.06 0 01-.9-5.4v-.02l.15-.16.17.15zM96.08 37.1v.01c-.16.22-.38.4-.63.5-.15.04-.3.07-.46.08h-.18a1.5 1.5 0 01-1.3-.66v-.02-.08l.01-.03.01-.02a.2.2 0 01.04-.04l.02-.01.02-.01.2.09v-.03l-.02-.02-.02-.01h.01v-.01l.46.02c.34.04.68.04 1.03 0 .85-.02.52-.07.87.02l-.06.23zm-2.36.02c.11-.1.09-.05.1-.19v-.01l-.1.2z" fill="#212121"/>
  <path fill-rule="evenodd" clip-rule="evenodd" d="M90.1 25.44A3.43 3.43 0 0193 26.72c-.07 0 .14-.06.48 1.02.4 1.21.6 2.35-.1 3.4-1.83 2.5-6.71 1.64-6.71-2.31a3.73 3.73 0 011.64-2.97 3.13 3.13 0 011.8-.42zm.3.57a2.6 2.6 0 00-2.73 1.73 2.76 2.76 0 00-.1 1.99c.22.72.7 1.31 1.35 1.68a3.48 3.48 0 003.73-.47 2.57 2.57 0 00.57-2.33 7.63 7.63 0 00-.37-1.5 1.1 1.1 0 00-.12-.2 3.02 3.02 0 00-2.34-.9zm2.58.7z" fill="#212121"/>
  <path fill-rule="evenodd" clip-rule="evenodd" d="M101.69 25.9a2.62 2.62 0 00-2.75-1.04c-.87.12-1.53.82-1.9 1.92-.64 1.86.33 3.9 1.79 4.34a2.7 2.7 0 003.26-1.48c.24-.9.23-1.86-.05-2.75-.05-.35-.18-.7-.36-1z" fill="#fff"/>
  <path fill-rule="evenodd" clip-rule="evenodd" d="M99.39 24.53a2.75 2.75 0 012.78 2.05c.37.96.47 2 .28 3.02a2.85 2.85 0 01-2.72 2.02 2.77 2.77 0 01-2.13-.79c-1.9-1.79-1.26-5.24.66-6.1.35-.16.74-.22 1.13-.2zm-.75.73c-.89.4-1.37 1.66-1.41 2.51-.07 1.5.8 3.02 2.31 3.07.49.01.97-.11 1.38-.35.42-.25.74-.63.9-1.09.17-.53.21-1.08.13-1.63-.04-.6-.17-1.2-.38-1.76v-.02h-.01a2.3 2.3 0 00-.85-.69 2.9 2.9 0 00-2.07-.04zm3.19.56z" fill="#212121"/>
  <path d="M90.69 29.77a.4.4 0 01-.4-.4c0-.2.02-.44.02-1.03 0-.77.94-.57.8 0l-.02 1.04a.4.4 0 01-.4.4zM98.54 28.78a.4.4 0 01-.39-.34c-.03-.15-.07-.55-.15-1.02-.12-.76.85-.72.8-.13.17 1.2.08.67.14 1.02a.4.4 0 01-.4.47zM93.71 28.82c-.24 0-.3-.09-.37-.29a.4.4 0 01.27-.5c.18-.05-.26.08 1-.15.69-.15 1.4-.26 2.1-.32a.4.4 0 110 .8c-.55 0-2.58.46-3 .46zM86.87 28.73c-4.07 0-4.08-.08-4.12-.45l.4-.05.03-.4c.14.01 2.9.1 3.69.1a.4.4 0 010 .8z" fill="#212121"/>
  <path fill-rule="evenodd" clip-rule="evenodd" d="M193.73 66.58c-.19-2.65 2.9-3.03 4.1-2.76 1.28.28 2.08 1.22 3.27 1.32 1.9.16 4.35-.81 5.31-2.15 1.4.58 2.9.9 4.42.93 1.3 2.82 2.93 5.44 3.55 8.8 1.1 5.9 1.46 10.05 0 11.71-2.94 3.37-18.18 9.14-24.25 11.74-3.1 1.33-14.28 3.26-14.95 2.5-1.2-1.35 3.16-1.83 3.16-1.83s-4.15-.02-4.22-.67c-.1-.87 1.31-1.29 2.63-1.48a16.8 16.8 0 002.2-.19c-.74.02-1.47.08-2.2.19-.98 0-1.45-.09-1.57-.73-.29-1.4 3.6-1.39 3.77-1.55.08-.08-.26-.84-.3-.96a2.01 2.01 0 01.24-1.92c.91-.91 2.46 2.4 2.63 2.58l2.18-.66s12.35-13.28 14-13.4c0 0-2.15-6.1-3.97-11.47z" fill="#fff"/>
  <path fill-rule="evenodd" clip-rule="evenodd" d="M193.57 66.52c-.11-1.76 1.22-2.73 2.98-2.93 2.1-.22 2.78.86 4.08 1.24 1.27.36 3.72-.23 5.06-1.43.53-.47.43-.53.6-.63.32-.14 1.59.74 4 .87.66.03.68-.08.86.3 1.71 3.65 2.95 5.26 3.73 9.67.36 1.84.61 3.7.77 5.56.14 1.81.14 4.29-1.09 5.61-3.58 3.55-16.08 8.29-23.84 11.56-1.45.6-2.95 1.06-4.48 1.37-1.35.32-10.25 2.18-11.3 1.28-.15-.13-.25-.3-.32-.47-.22-.69.34-1.16 1-1.44-.54-.07-1.55-.19-1.82-.65a.88.88 0 01-.03-.66 1.65 1.65 0 01.94-.93c.5-.23.42-.12.33-.26a1.23 1.23 0 01-.2-1.1c.4-1.07 2.53-1.23 3.67-1.36l-.2-.52c-.3-.81-.19-2.14.6-2.51 1.13-.46 2.17 1.55 2.77 2.61l1.59-.47.25-.08c0 .07 11.38-12.19 13.88-13.25-.03-.07-3.81-11.13-3.83-11.38zM179 94.12a.39.39 0 01.26.6.39.39 0 01-.2.15c-.68.1-1.37.18-2.06.2-.6.02-2.35.38-2.49.93v.03c.61.37 3.83.4 3.9.41a.4.4 0 01.32.37c-.01.42-.36.4-.67.46-.64.09-2.28.39-2.68.89l-.02.03v.03l.02.05v.01l.06.08c.08.13 1.58.06 2.95-.1 3.8-.43 7.54-1.21 11.2-2.32.07-.03 8.52-3.5 11.81-4.91 2.69-1.16 10.73-4.62 12.67-6.82.45-.58.73-1.27.8-2 .44-2.58-.6-9.03-1.26-11.27-.69-2.32-2.16-4.97-2.92-6.64-.06-.14 0-.11-.21-.12a11.99 11.99 0 01-3.99-.9 6.78 6.78 0 01-4.4 2.06 3.68 3.68 0 01-2.36-.44c-1-.52-1.55-1-2.78-.98-1.67.04-3.19.88-3.07 2.54 0 .26 4.04 11.45 4.05 11.58a.24.24 0 01-.22.24c-1.55.15-13.77 13.4-13.84 13.44.08 0-1.21.39-1.92.6-.74.23-.6.2-1.25-.9a4.79 4.79 0 00-1.39-1.68l-.02-.01-.05-.01h-.05l-.02.01a.7.7 0 00-.15.19c-.08.17-.13.36-.14.56-.01.28.03.57.12.84.2.55.47.96.23 1.29-.17.2-.33.17-1.33.3-.64.06-1.26.2-1.86.42-.18.06-.34.17-.46.31l-.01.02v.01l-.01.02v.01l-.01.02V93.85l.01.08.01.02v.02l.01.02v.03h.01v.02h.01c.2.27.92.26 1.45.2.65-.08 1.3-.11 1.95-.11z" fill="#212121"/>
  <path fill-rule="evenodd" clip-rule="evenodd" d="M202.93 75.75l-.11.19c-.4.16-1.14.5-1.45.61-.03.01-1.09.4-1.43.54-.85.33-1.69.72-2.49 1.16v-.03l-.2.04a.26.26 0 01-.03-.03l-.02-.03v-.02a.2.2 0 01-.01-.05 4.73 4.73 0 011.35-1.23 9.25 9.25 0 013.88-1.24c.38-.04.27-.06.51.09z" fill="#212121"/>
  <path fill-rule="evenodd" clip-rule="evenodd" d="M61.72 88.29c.27.05.54.17.77.34.9.65 3.43 3.26 3.4 3.84l-.15.16-.16-.16v-.01l-.01-.02c-.24-.55-3.13-3.14-3.72-3.35h-.01c-4.43-1.28-10.27-.25-12.34 3.68l-.21.07-.08-.2c1.77-4.46 7.88-5.71 12.5-4.35zM59.36 112.67c1.88.6 3.97 1.2 6.24 1.77-3.75 10.68-24.03 64.6-24.2 64.97-1.04 2.33-3.91 1.68-2.73-1.57.22-.58 17.31-51.94 20.69-65.17z" fill="#fff"/>
  <path fill-rule="evenodd" clip-rule="evenodd" d="M63.78 113.77c2.06.54 1.91.44 2 .58.23.52-23.7 64.72-24.2 65.57-1.4 2.3-4.26 1.37-3.43-1.74.22-.83 17.1-51 20.84-64.73l.23-.87c.16-.2.01-.02 4.56 1.2zM38.8 178.98c-.07.4.02.81.25 1.15.52.64 1.47.11 1.9-.7.06-.1 22.15-58.58 24.39-64.85-3.73-.96-5.62-1.64-5.87-1.7-4.62 18.08-20.58 65.2-20.67 66.1z" fill="#212121"/>
  <path fill-rule="evenodd" clip-rule="evenodd" d="M205.53 111.05c2.52 10.98 20.75 65.75 20.97 66.35 1.19 3.25-1.7 3.9-2.73 1.57-.17-.38-22.73-60.36-24.66-66.32 2.14-.5 4.28-1.04 6.42-1.6z" fill="#fff"/>
  <path fill-rule="evenodd" clip-rule="evenodd" d="M205.61 110.92l.02.01.02.02.02.04.01.03c-.17.04-.16.03 0 0 2.27 9.23 15.5 49.16 18.5 58.17 2.84 8.62 3.2 9 2.93 10.22-.3 1.38-1.95 1.91-3.16.58-.2-.24-.38-.5-.52-.8-.67-1.56-24.71-65.82-24.51-66.61.1-.23-.06.02 5.97-1.53.66-.17.63-.18.72-.13zm-.24.34c-.78.2-2.03.56-6 1.53l.1.3c1.94 5.48 7.75 20.75 12.98 34.68 12.26 32.62 11.68 31.51 12.5 32.03a.87.87 0 001.27-.24v-.02c.04-.07.08-.15.1-.23.06-.23.08-.46.06-.7-.1-1.17-12.9-38.5-19.15-60.54-2.04-7.1-1.72-6.85-1.86-6.81z" fill="#212121"/>
</svg>
