<svg fill="none" xmlns="http://www.w3.org/2000/svg" viewBox="0 0 265 190">
  <path fill-rule="evenodd" clip-rule="evenodd" d="M129.01 92.59a13.37 13.37 0 01-2.93-3.96c3.63-1.31 7.6-2.43 11.5-2.5-2.36 2.28-4.44 4.84-6.65 7.27l-1.29-.65" fill="#000"/>
  <path fill-rule="evenodd" clip-rule="evenodd" d="M137.9 85.18a1 1 0 01.68 1.07c-.13.62-.1.3-2.3 2.66-2.23 2.4-1.83 2.2-4.13 4.34-.91.85-.84.79-1.08.85-.45.04-.4-.06-1.66-.87l-.1-.13-.26.1-.47-.15a12.57 12.57 0 01-3.09-3.4c-.3-.54-.45-.75-.38-1.24.05-.22.17-.42.35-.56a39.28 39.28 0 019.63-2.55c.93-.13 1.87-.17 2.81-.12zm-2.93 2.16c-2.56.36-5.08.99-7.5 1.87l.07.13a16 16 0 001.91 2.79l.06.15c.49 0 .19-.05 1.16.28.84-1.23 1.77-2.4 2.78-3.52 1.69-1.9 1.6-1.71 1.52-1.7zM167.88 107.55c-1.66 2.14-3.4 4.23-5.07 6.38 1.9.35 3.9.34 5.83.52.32-2.35.06-4.74-.75-6.97" fill="#000"/>
  <path fill-rule="evenodd" clip-rule="evenodd" d="M168.27 107.04l.21.4v.02l.23.43c1 2.04 1.33 4.34.94 6.58a1.01 1.01 0 01-.76.95c-.23.04-.06.05-1.22-.05-1.22-.07-2.85-.15-3.8-.27-1.27-.17-1.39-.18-1.7-.4a1 1 0 01-.25-1.25c.26-.39 2.54-3.22 2.82-3.57 1.24-1.42 2.42-2.49 2.64-2.73.3-.14.24-.1.3-.17h.04c.15-.06.04-.06.55.06zm-3.58 6.13c3.02.21 2.59.16 3.05.2.03-1.38-.02-2.76-.13-4.13-1.34 1.96.1.13-2.92 3.93z" fill="#000"/>
  <path fill-rule="evenodd" clip-rule="evenodd" d="M127.95 55.14c4.69 4.92 7.5 10.92 8.98 17.51-4.2 5.02-7.95 10.4-11.18 16.1 4.24-1.76 9.09-2.86 13.72-2.43 14.43 1.34 28.1 14.16 29.23 28.9 2.33-2.96 4.79-5.82 7.18-8.73 1.53-1.86 2.9-3.91 4.6-5.62-2.29-4.02-2.04-8.92-1.67-13.35.82-9.69 3.94-20.22 9.13-28.55-3.04.9-6.9 2.1-10.08 1.26-4.06-1.07-5.92-4.74-3.09-8.19-4.99-2-10.6-2.3-15.91-2.38a81.4 81.4 0 00-31.51 5.77" fill="#FF7979"/>
  <path fill-rule="evenodd" clip-rule="evenodd" d="M182.9 26.4l.27.38c-.08.8.11.03-.78 2.05-2.36 5.34-2.71 5.75-3.48 8.01-1.4 4.22-1.52 8.03 2.19 10.52.91.6 1.09.54 1.27 1.14a1.14 1.14 0 01-.28 1c-.8 1.22-1.74 3.3-2.55 4.82a.85.85 0 01-.98.34c-1.1-.4-2.1-.99-2.98-1.75l-.23-.36.06-.38.32-.2c.62.07.2-.04 1.18.42a7 7 0 001.37.47c.26-.79.57-1.56.92-2.32.25-.52.49-.97.8-1.5-7.4-4.73-3.1-15.22 2-22.38.05-.08-.01-.02.44-.32l.46.06z" fill="#000"/>
  <path d="M190.8 36.14c.36-.8.24-1.63-.26-1.86-.5-.23-1.21.23-1.57 1.02-.37.8-.25 1.63.25 1.86.5.24 1.21-.22 1.58-1.02z" fill="#000"/>
  <path fill-rule="evenodd" clip-rule="evenodd" d="M215.2 94.25c2.45-6.57.67-13.92-2.54-19.9-1.4-2.6-4.66-5.86-7.88-5.94-.9 6.42-1.72 13.01-3.34 19.3 4.8.13 10.52 2.73 13.4 6.65" fill="#FF7979"/>
  <path fill-rule="evenodd" clip-rule="evenodd" d="M201.55 35.76a7.21 7.21 0 00-4.72 1.01c-1.78-1.73-1.42-4.25-.94-6.47-4.73.73-9.66.03-12.97-3.42a11.7 11.7 0 01-2.75-11.76c1.46-4.4 5.92-7.41 10.46-5.57 5.1 2.08 6.35 8.35 7.44 13.1 1.9.98 3.55 2.03 4.75 3.84 2 2.98 1.06 6.79-1.35 9.13" fill="#000"/>
  <path fill-rule="evenodd" clip-rule="evenodd" d="M192.03 9.11c4.45 2.48 5.8 7.95 6.92 12.87 1.67.81 3.12 2 4.25 3.46 2.26 3.1 1.83 6.9-.54 9.72-.6.69-.54.48-.48.69l-.25.41c-.63.17-.34.13-.84.1a5.63 5.63 0 00-2.13.3c-1.74.59-1.67 1.04-2.37.88a3.4 3.4 0 01-1.16-1.2c-.9-1.5-.94-3.16-.72-4.9-3.63.4-7.43-.14-10.46-2.14A12.8 12.8 0 01178.6 18c.46-7.63 7.38-12.26 13.43-8.9zm-5.39 1.02c-5.42 1.15-8.26 8.98-3.95 14.93 2.41 3.26 5.95 4.5 9.97 4.5 3.17.01 3.24-.55 3.93.08.51.64.13.8-.13 2.83a4.68 4.68 0 00.59 3.32 7.69 7.69 0 014.21-.72c1.75-1.99 2.42-4.78 1.38-7.1-.8-1.76-2.4-2.99-4.1-3.93-2-1.08-.95-.04-2.47-5.35a18.07 18.07 0 00-2.29-5.27c-1.96-2.83-4.78-3.78-7.14-3.29zM182.2 48.21c.16.03.3.08.44.17.86.48 1.8.79 2.79.9l.13.07.1.06c.39.22.76.48 1.1.76-.43.53-.48.69-1.1.95-.44.18-.64.15-1.37.01a8.67 8.67 0 01-2.5-.92c-.23-.1-.43-.25-.58-.44a2.72 2.72 0 01-.37-.59c-.07-.16-.05 0-.1-1.03.48-.09.98-.07 1.46.06zM186.88 41.56a2.1 2.1 0 01-.07 1.76c-.32.4-.72.73-1.17.96a2.95 2.95 0 01-2.39.33c-.49-.16-.9-.5-1.14-.96-.14-.34-.17-.7-.1-1.06.02-.1-.04.02.5-.84 1.25.8.54.35.96.66.1.09.22.16.35.22.18.24.7-.02.96-.17.8-.5 0-.33 2.1-.9zM185.31 31.88l.1.4c-.1.37-.28.71-.53 1-.76 1.12-1.27 1.32-2.71 3.15l-.66.86c.5.27.94.63 1.32 1.05.35.4.24.2.5 1.06-1.07.24-.5.2-2-.08-.8-.21-1.74-.53-2.08-1.28a1.62 1.62 0 01.36-1.54c.84-1.22 1.79-2.36 2.83-3.41.42-.45.92-.81 1.48-1.07.3-.2.65-.3 1.01-.31l.38.17zM104.08 150.27c.4-8.05-1.02-16.14-.2-24.18-3.17 3.04-6.9 5.52-10.15 8.53-7.24 6.72-13.47 14.24-19.84 21.74 5.8 2.78 9.6 9.28 8.61 15.7 1.3-3.33 3.82-6.3 6.15-8.96 4.5-5.15 15.43-12.83 15.43-12.83z" fill="#000"/>
  <path fill-rule="evenodd" clip-rule="evenodd" d="M104.16 125.12c.23.07.42.2.56.4.31.57.1.34-.04 3.63-.3 7.66.55 14.23.04 21.16-.35-.02-1.17-.06-.1 0-.05.37.11.09-3.32 2.79a147.06 147.06 0 00-8.5 7.19c-3.17 2.96-7.57 7.84-9.24 11.85-.2.47-.21.57-.56.8-.2.12-.44.16-.67.12a1 1 0 01-.82-.82 1.1 1.1 0 01.03-.53c.77-5.62-2.47-11.33-7.15-13.96-1.08-.6-1.24-.54-1.46-1.1-.06-.22-.05-.45.03-.66.15-.3-.26.23 4.04-4.86 15.69-18.36 18.23-18.9 24.4-24.16 2.03-1.73 1.94-2 2.76-1.85zm-1.62 3.53c-6.89 5.86-8.16 5.11-27.07 27.4a16.67 16.67 0 018.06 11.93c1.83-2.7 3.93-5.2 6.27-7.47 4.28-3.82 8.85-7.31 13.65-10.45.13-5.55-.6-11.24-.77-16.4-.2-5.44.24-5.34-.14-5.01zM126.87 143.17a161.85 161.85 0 001.2-32.13c-.37-5.19-2.88-12.05-8.84-10.82-7.49 1.53-9.77 9.18-9.84 16-.14 13.82.96 27.72 1.26 41.55 2.07-5.97 3.68-13.32 7.62-18.43 4.52-5.88 7.78-1.26 8.6 3.84" fill="#000"/>
  <path fill-rule="evenodd" clip-rule="evenodd" d="M124.05 100.07c.75.48 1.41 1.09 1.96 1.79a12.9 12.9 0 012.02 3.86c.72 2.18 1.1 4.45 1.15 6.74.47 8.38.24 17.3-1.46 29.32-.25 1.75-.14 1.36-.46 1.9l-.46.13-.42-.25-.13-.46a.82.82 0 00-.04-.51c-.44-1.82-1.42-4.45-3.14-5.13-1.53-.62-3.14 1.06-4.14 2.4-3.47 4.68-5.07 11.49-7.08 17.53-.27.79-.35 1.3-1.18 1.4-.23 0-.46-.08-.65-.23a1 1 0 01-.35-.59c-.03-.2-.05-1.36-.13-4.05-.45-14.02-1.23-24.21-1.15-37.38.05-4.69.89-9.59 3.93-13.32 2.73-3.34 8.1-5.5 11.73-3.15zm-2.87 1.05c-1.67-.23-4.62.6-6.81 2.82-2.64 2.73-3.67 6.92-3.91 10.73-.43 6.9.73 28.72 1.03 37.21 1.44-4.57 3.47-10.22 6.74-13.78a6.44 6.44 0 013.49-2.2c.83-.13 1.69.05 2.4.51.45.3.86.68 1.2 1.12 1.35 1.81 1.22 2.7 1.28 2.11.73-7.67.98-15.39.75-23.1-.11-3.86-.19-7.18-1.2-10.1-.86-2.5-2.36-4.97-4.97-5.32z" fill="#000"/>
  <path fill-rule="evenodd" clip-rule="evenodd" d="M163.98 116.63c-.74-2.75-2.52-4.88-4.23-7.12-7.4-9.67-18.63-13.45-30.04-15.81-.9 1.04-1.78 2.1-2.62 3.19 7.32 2.94 7.36 10.62 6.75 17.48-.7 7.8-1.07 15.63-1.73 23.43 4.82-1.45 10.18-1.59 14.74-3.84 7.26-3.58 17.13-17.33 17.13-17.33z" fill="#000"/>
  <path fill-rule="evenodd" clip-rule="evenodd" d="M130.18 92.77c9.8 2.08 18.8 4.9 26.14 11.67 1.81 1.71 3.44 3.6 4.85 5.64 1.44 1.97 2.85 4.02 3.42 6.39l-.1.03c.06.32-.07.43-.33.8a92.37 92.37 0 01-10.66 12.86c-6.4 6.24-9.83 6.12-18.3 7.9-3 .63-3.15 1.08-3.85.41-.35-.47-.26-.6-.15-1.85.52-6.47.85-12.48 1.3-18.3.56-7.26 2.05-16-4.27-19.75-1.5-.89-2.06-.7-2.15-1.67.04-.49.01-.42 1.52-2.27 1.62-1.95 1.6-2.06 2.58-1.86zm-1.51 3.74c6.38 3.51 6.81 10.2 6.21 17.46-.56 6.62-.41 5.3-1.65 22.48 5.41-1.37 10.5-1.34 15.51-4.8 4.67-3.34 9.92-9.21 13.5-13.65l1.08-1.36c-.41-1.6-1.87-3.72-2.9-5-6-7.67-12.73-13.09-30.33-16.83-.96 1.1-1.34 1.6-1.42 1.7z" fill="#000"/>
  <path fill-rule="evenodd" clip-rule="evenodd" d="M204.28 35.56c.26.49.23.32.28 1.06.42 7.1-4.65 10.67-8.9 15.45a26.04 26.04 0 00-3.17 4.44c-6.75 11.07-11.93 23-10.98 35.8.33 3.9.9 7.34 2.99 10.64 1.93 2.81 4.63 4.78 10.17 5.34 1.67.1 3.34.01 4.98-.29 6.14-1.1 11.31-4.73 13.53-10.7.64-1.8.24-1.16.7-1.77l.39-.07.32.23c.09.47.11.29-.06 1.04-2.23 9.21-11.04 14.32-20.64 13.5-5.04-.61-9.15-2.6-11.65-7.12-1.69-2.86-2.38-6.78-2.69-10.1-.9-10.08 1.87-19.52 6.3-28.63 1.87-3.77 3.94-7.44 6.22-10.98 4.15-6.08 11.05-8.93 11.19-16.35.01-1.26-.11-.7.13-1.42l.42-.22h.01l.46.15zM206.95 42.66c.03-.52.1-1.03.2-1.54.33-.89.54-1.82.63-2.76.17-1.9-.17-2.07-.11-3.9 0-.51-.08-.25.43-1.18l.4.07c.26.18.47.42.6.7.2.34.36.69.49 1.05.25 1.18.31 2.4.18 3.6-.09.83-.26 1.65-.51 2.45a3.64 3.64 0 01-1.14 1.84c-.3.29-.1.19-.97.48-.24-.84-.21-.7-.2-.81zM211.76 43.44c.12-.8.33-1.57.63-2.32.51-1.33.78-2.74.78-4.16-.02-.75-.1-1.5-.26-2.22-.23-2.06-.23-1.3-.15-2.11l.26-.33.43.02c.5.35.4.26.54.46a5.5 5.5 0 011.15 3.3c.23 2.99-.75 5.97-1.5 6.93-.3.39-.63.74-1 1.06l-.73.2c-.2-.85-.18-.7-.15-.83z" fill="#020202"/>
  <path fill-rule="evenodd" clip-rule="evenodd" d="M217.95 40.8c.13.4.27.38-.07 2.36a16 16 0 01-1.53 4.61c-2.96 5.8-7.28 5.59-9.2 9.96-5 11.5-5.2 22.39-7.88 36.1-.08.36-.02.21-.28.64-1.13.34-.9.1-.31-7.5.51-6.45 2.13-17.02 4.59-24.62.54-1.67 1.82-5.32 2.76-6.8 1.98-3.06 4.94-3.84 7.4-6.8a15.66 15.66 0 003.34-7.22c.09-.51 0-.3.31-.82l.45-.14.42.23z" fill="#020202"/>
  <path fill-rule="evenodd" clip-rule="evenodd" d="M203.74 37.57c-5.4-1.33-11.13 6.86-8.46 9.83 1.3 1.45 3.05.27 4.06-.93 1.99-2.36 4.44-5.75 4.02-9.04" fill="#000"/>
  <path fill-rule="evenodd" clip-rule="evenodd" d="M203.71 36.9c.24.07.14.01.57.36l.08.46c-.33.43-.26.36-.35.38a9.15 9.15 0 01-1.56 5.88 29.04 29.04 0 01-2.57 3.4c-2.35 2.52-4.86 2.02-5.92-.16-1.9-4.08 4-12 9.75-10.33zm-4.54 2.76c-.54.4-1.04.85-1.5 1.36-1.18 1.32-2.77 4.13-1.75 5.57a.9.9 0 001.18.39c.92-.36 1.6-1.27 2.21-2.06a22.46 22.46 0 003-4.94c.24-.59.4-1.2.49-1.83-1.33.13-2.6.65-3.63 1.5v.01z" fill="#020202"/>
  <path fill-rule="evenodd" clip-rule="evenodd" d="M177.03 39.46a15.7 15.7 0 012.91-7.95 4.18 4.18 0 00-5.83-3.26c-2.06.84-3.81 3.2-4.38 5.3a6.51 6.51 0 00.89 5.4c1.74 2.3 4.7 1.99 6.47.05" fill="#000"/>
  <path fill-rule="evenodd" clip-rule="evenodd" d="M180.93 31.3c.11.84-.32.63-1.51 2.98a18.31 18.31 0 00-1.43 3.73c-.5 1.9-.12 1.17-.58 1.94l-.44.15h-.01l-.1-.06c-.93.9-2.17 1.4-3.47 1.4-4.4-.1-6.94-6.55-2.77-11.69 3.99-4.93 9.62-2.84 10.31 1.55zm-7.47-1.53a7.84 7.84 0 00-2.83 4.35c-.85 4.32 2.7 7.1 5.78 4.76a13.9 13.9 0 012.47-7.62c-.53-2.1-3.06-3.22-5.42-1.49z" fill="#020202"/>
  <path fill-rule="evenodd" clip-rule="evenodd" d="M179.54 25.63c.04.18.07.36.08.54-.02.2-.02.18-.15.34-.94 1.25-.81 1.31-1.06 1.47-.15.06-.3.12-.45.16l-1.11-.62a4.62 4.62 0 01-.06-.28c-.01-.38-.1-.29.77-1.52.47-.65.37-.67 1.13-.72l.85.63zM209.97 27.02a7.84 7.84 0 01-.8 3.57c-.42.87-.4.78-.7 1.06l-.36.05-.27-.26c-.16-1.08.08.24.11-3.63.03-.7.01-1.4-.07-2.1-.4-3.1-2.07-5.76-4.99-6.93-.98-.43-2.02-.75-3.08-.94-.08-.01 0 0-.47-.24l-.19-.4v-.02l.2-.4c.48-.24.35-.24 1.28-.3 5.51-.24 9.31 4.97 9.34 10.54z" fill="#020202"/>
  <path d="M151.38 25.43a2.68 2.68 0 100-5.37 2.68 2.68 0 000 5.37z" fill="#000"/>
  <path fill-rule="evenodd" clip-rule="evenodd" d="M151.36 19.38c.6.1.6.2.58.13a3.28 3.28 0 013.08 2.63 3.7 3.7 0 01-6.3 3.17c-2.26-2.37-.55-6.4 2.64-5.93zm-1.44 2.55a1.67 1.67 0 001.05 2.44c.33.08.68.07 1-.05 1.46-.55 1.35-2.51.24-3.36-.33-.25-.3-.11-.26-.29a2.32 2.32 0 00-2.03 1.26z" fill="#000"/>
  <path d="M161.73 24.13a2.35 2.35 0 100-4.7 2.35 2.35 0 000 4.7z" fill="#000"/>
  <path fill-rule="evenodd" clip-rule="evenodd" d="M161.67 18.75c.6.1.58.2.57.13a3.1 3.1 0 011.45.43 3.06 3.06 0 01.6 4.65 3.35 3.35 0 01-4.94.18c-2.08-2.1-.6-5.82 2.32-5.4zm-.73 1.87c-1.51 1.62.49 3.24 1.7 2.15a1.74 1.74 0 00.4-1.43 1.72 1.72 0 00-.86-1.2l.03-.11a1.81 1.81 0 00-1.27.59z" fill="#000"/>
  <path fill-rule="evenodd" clip-rule="evenodd" d="M155.43 10.6c3.36 1.34 6.53 2.43 9.76 3.76a1 1 0 01.61 1.08c-.27 2.25-.7 4.48-1.27 6.68-.03.3-.16.57-.35.8l-.37.1-.32-.21a1.44 1.44 0 01-.1-.86c-.03-2.01.08-4.02.31-6.02-1.16-.48-7.76-2.96-7.8-2.98-.47 4.08-.3 6-1.5 10.9-.03.07.02-.01-.3.46l-.44.12h-.01l-.39-.25c-.19-.64-.14-.3-.1-1.25.12-2.3.1-4.55.8-10.74.11-.98.1-1.03.38-1.37a1 1 0 011.09-.22zM199.74 124.9c.12.25.34.43.14 1.85-.1.64-.31 1.26-.65 1.82a2.54 2.54 0 01-2.3 1.25 3.27 3.27 0 01-1.53-.55c-1.34-1.03-1.71-2.44-2.5-2.79a2.73 2.73 0 00-2.03-.1c.14 2.63.55 5 .66 6.7.2 3.22.2 2.58.02 3.18l-.37.26-.45-.11-.3-.4c-.01-.08-.72-2.38-.93-3.6-.24-1.39-.43-3.3-.55-4.7-.18-2.08-.18-2.17.05-2.56.14-.2.34-.34.57-.42a5.54 5.54 0 012.43-.5c3.29.15 3.4 2.8 4.73 3.48h.02l.02.02h.02l.01.01h.01l.02.01h.02l.01.02.11.03H197.27l.05-.02h.03a2.67 2.67 0 001.07-1.25c.18-.36.32-.74.41-1.14.05-.2-.01-.06.23-.5l.34-.16.34.17z" fill="#000"/>
  <path d="M187.96 140.57a3.37 3.37 0 100-6.73 3.37 3.37 0 000 6.73z" fill="#000"/>
  <path fill-rule="evenodd" clip-rule="evenodd" d="M188.02 133.17c.2.03.4.08.6.14v-.02l.44.06h.01c.58.1 1.13.33 1.6.67 3.07 2.25 1.66 7.01-2.25 7.53a4.36 4.36 0 01-4.65-5.62 3.81 3.81 0 014.25-2.76zm-2.32 3.34a2.37 2.37 0 004.19 2.08 2.4 2.4 0 00.18-2.58 2.4 2.4 0 00-.47-.74 2.66 2.66 0 00-.88-.68h-.01l-.03-.01.03-.1a3.02 3.02 0 00-3.01 2.03z" fill="#000"/>
  <path fill-rule="evenodd" clip-rule="evenodd" d="M117.2 47.13c3.21 5.07 4.13 10.84 6.4 14.44a10.18 10.18 0 002.98 3.45c.51.34.3.14.65.56v.38l-.28.26c-.38 0-.36.08-1.28-.31a8.8 8.8 0 01-3.77-3.27c-2.69-4.35-3.46-10.43-7.06-15.4-.67-.9-1.4-1.73-2.2-2.51-.8-.79-1.7-1.47-2.66-2.04l-.31-.39v-.46l.35-.3.5-.01c2.65 1.02 4.55 2.29 6.68 5.6z" fill="#2A2A2A"/>
  <path fill-rule="evenodd" clip-rule="evenodd" d="M120.67 58.7c.16-.3.37-.56.62-.8 1.17-.64 2.4-1.19 3.66-1.64.21-.1.45-.16.68-.18h.01c.29 0 .57 0 .86.03l.8.4c-.5 1-.3.72-.75 1.12-.18.16-.38.3-.6.4-2.52.9-3.32 1.46-3.76 1.6a3.4 3.4 0 01-1.82-.1c.28-.86.22-.71.3-.84zM102.9 58.64c.4.67.12-.17.86 3.88.3 1.67.69 3.31 1.16 4.94 1.8 5.84 5.48 10.98 11.34 13.12 1.25.44 2.56.72 3.89.82 2.14.16 4.29.17 6.43.04l.42.13.21.32-.12.37c-.5.3-.06.17-2.4.67-2.32.56-4.72.6-7.06.12a17.33 17.33 0 01-8.75-4.84c-3.6-3.53-6.25-9.46-6.73-14.14-.18-1.72-.2-2.79-.25-4.39-.06-.33-.01-.66.14-.96l.41-.23.45.15z" fill="#2A2A2A"/>
  <path fill-rule="evenodd" clip-rule="evenodd" d="M126.08 138.8c2.27 3.96.96 10.02-.92 14.18a20.17 20.17 0 01-2.2 3.75c-1.08 1.45-2.49 3.13-3.03 4.83-.75 2.3-.33 5.51-2.95 7.41a4.6 4.6 0 01-1.74.73c-2.32.45-4.5-1.16-5.5-3.31-1.13-2.5-.78-5.4.14-8 .84-2.32 1.05-2.07.81-2.15 1.28-4.8 3.69-11.66 6.55-15.76.79-1.17 1.78-2.2 2.92-3.02 2.3-1.69 4.59-.99 5.92 1.34zm-14.3 17.85c-.94 2.35-1.51 5.22-.86 7.66.82 2.96 3.17 3.98 4.61 3.18 1.56-.65 1.79-3.1 2.07-4.77.55-3.16 1.69-4.44 3.73-7.18 2.88-3.97 4.17-9.07 3.9-12.49a8.28 8.28 0 00-.74-2.94c-.23-.53-.6-1-1.07-1.35a1.35 1.35 0 00-1.14-.16 7.18 7.18 0 00-2.56 1.96c-2.08 2.44-4.4 7.54-5.65 10.52-2.5 6-2 5.5-2.29 5.57zM79.94 170.5c-.12.2-.27.39-.46.54-.42.4-.98.63-1.56.65a2.22 2.22 0 01.02-1.72c.09-.24.21-.46.38-.65.43-.6 1.05-1.4 1.5-1.96 1.1-1.36.78-.93 1.09-1.18.52-.28 1.09-.49 1.68-.6-.2 2.53-.17 1.48-2.65 4.92zM69.87 148.27c1.87 3.86 4.8 12.7 5.87 16.89a49.8 49.8 0 011.4 8.18c.11 1.84 0 3.95-1.02 5.5a5.16 5.16 0 01-4.33 2.25 6.2 6.2 0 01-1.37-.16 7.58 7.58 0 01-4.3-3.03c-1.66-2.38-1.81-4.65-1.92-7.54-.1-3.2-.18-4.9-2.25-8.5-2.15-3.77-5.63-7.55-5.88-12.81-.12-1.65.09-3.3.59-4.86 1.93-5.3 8.18-5.88 13.2 4.08zm-9.55-6.56c-.07.02-.02-.03-.23.26-.4.23-.76.53-1.06.87a5.79 5.79 0 00-1.22 3.21c-.84 7.89 5.08 11.38 7.64 18.57 1.56 4.8-.3 9.05 2.74 12.65a5.14 5.14 0 003.23 1.8c.3.03.6.02.9-.03 1.5-.32 2.55-1.08 2.8-3.51.08-2.08-.1-4.17-.52-6.21-1.07-5.66-2.72-10.2-4.78-15.93a38.38 38.38 0 00-3.11-7.1c-1.38-2.25-3.84-5.28-6.38-4.58z" fill="#000"/>
  <path fill-rule="evenodd" clip-rule="evenodd" d="M121.06 154.15c.39.1.75.25 1.09.46.3.17.17.07.74.73-.45.41-1.02.67-1.63.73l-.24.04c-.75.05.38-.05-3.12-.11-2.17-.04-1.92.13-3.15-.24-.33-.1-.14.02-.9-.7.71-.77.53-.63.85-.75.96-.36 1.08-.32 2.47-.32.76 0 3.43.04 3.9.16zM118.67 158.84c.22.08.42.18.62.29.53.33.27.12.99.84-.33.29-.72.5-1.13.65-.21.07-.43.13-.65.17-.37 0-.75-.01-1.11-.06-3.35-.27-3.05.05-4.08-.32-.55-.2-.3-.03-1.09-.76l.61-.67c.28-.13.57-.24.87-.32a3 3 0 01.98-.07c1.33.02 2.66.1 4 .25zM69.23 161.07c.35.08.7.22 1 .41.29.16.14.03.76.7-.42.4-.93.68-1.5.81-.67.09-1.36.11-2.04.08-.9.02-2.25.14-2.33.14-.26.05-.54.06-.8.02-1.05-.21-.8-.13-1.61-.77l.56-.7c.4-.24.84-.4 1.3-.51 1.54-.16 3.1-.22 4.66-.18zM70.04 167.42c.25.05.49.14.7.27.48.34.08-.11.95.83-.4.37-.88.64-1.4.8l-.18.06-.19.03c-3.37.07-3.61.49-4.7.19-.52-.16-.26 0-1.11-.7l.57-.7c.13-.06.23-.14.56-.3.3-.15.63-.23.97-.23 1.27-.17 2.55-.25 3.83-.25zM145.88 58.96c.46.96.27.42.33 1.15.1 1.04.63 3-.7 4.39a50.34 50.34 0 00-5.18 5.41c-.9.98-1.77 1.69-1.9 1.82l-.46.22-.43-.09-.2-.39c.08-.52.05-.44.09-.52.31-.67.67-1.31 1.07-1.93a45.6 45.6 0 014-4.45c2.09-2.02 1.65-1.15 2.02-3.23.1-.66.3-1.3.6-1.9.1-.19 0-.1.76-.48z" fill="#000"/>
  <path fill-rule="evenodd" clip-rule="evenodd" d="M93.1 57.47l.39.22.16.32v.01l-.18.32-.42.18c-1.18.2-2.38.32-3.59.38-12.44-.14-12.74-.22-15.45-.87-.2-.04-.06.02-.57-.3l-.15-.42.22-.39c.6-.24.28-.17 1.07-.21 4.7-.16-.5-.1 9.22.12 6.56.08 6.16-.02 9.3.64zM93.14 67.1l.36.21.12.36c-.35.57.2.46-4.68.42-2.25 0-2.23-.08-7.32-.28-2.91-.11-8.59-.23-11.47-.36-8.8-.4-8.65-.75-11.98-1.35l-.4-.27-.13-.44v-.01l.24-.39c.56-.17.4-.15.74-.13 24.36 1.39 26.18.41 34.52 2.23zM90.04 74.28l.47.6-.62.44c-.24.01-2.09.12-2.26.1-2.3.04-3.22-.38-11.53-.19-1.4.06-2.82-.02-4.2-.25-.09 0 0 .02-.5-.21l-.19-.4.18-.41.43-.24c1.08-.21 2.16-.36 3.26-.46 10.76-.25 12.37.11 14.96 1.02zM85.72 32.76l-14.46 6.23.8-14.06 13.66 7.83z" fill="#FF7979"/>
  <path fill-rule="evenodd" clip-rule="evenodd" d="M78.38 27.4c2.25 1.37 3.13 1.9 7.6 4.9a.53.53 0 01-.05.94c-.18-.42-.38-.88.04.1a187.44 187.44 0 01-7.92 3.8c-7.03 3.04-6.46 2.85-6.89 2.84a1 1 0 01-.89-.88c0-.24.1-2.06.8-14.23a.99.99 0 01.83-.93c.58-.04.1-.2 6.48 3.46zm-6.03 10.03c5.45-2.35 5.95-2.62 11.9-4.8-5.71-2.76-6.59-3.34-11.28-6.03l-.62 10.83zM48.65 30.65l13.66 7.83.8-14.06-14.46 6.23z" fill="#FF7979"/>
  <path fill-rule="evenodd" clip-rule="evenodd" d="M63.37 23.46a.99.99 0 01.73 1.02c-.87 15.3-.75 14.16-.95 14.54a1 1 0 01-1.19.4c-.22-.1.53.32-6.2-3.54a186.9 186.9 0 01-7.43-4.68c.1-.17.05-.01-.13-.28a.53.53 0 01.1-.65c.3-.25 5.48-2.8 5.55-2.85 2.52-1.2 1.59-.78 8.86-3.91.2-.1.44-.1.66-.05zM50.13 30.7c5.59 2.81 5.87 3.03 11.27 6.12L62 25.98c-5.14 2.21-5.92 2.62-11.88 4.7zM105.8 33.9l-14.46 6.23.8-14.06 13.66 7.83z" fill="#FF7979"/>
  <path fill-rule="evenodd" clip-rule="evenodd" d="M98.46 28.54a150.6 150.6 0 017.6 4.9.53.53 0 01.26.5.53.53 0 01-.31.44c-.18-.41-.38-.88.04.1a186.06 186.06 0 01-7.92 3.81c-7.03 3.03-6.45 2.84-6.89 2.83a.99.99 0 01-.9-.88c0-.24.12-2.06.8-14.23a1 1 0 01.85-.93c.57-.03.09-.2 6.47 3.46zm-6.03 10.04c5.45-2.35 5.95-2.62 11.9-4.8-5.7-2.77-6.58-3.34-11.28-6.04l-.62 10.84zM47.1 32.86c.33-7.82.3-8.41.68-10.15.3-1.31.16-.93.5-1.49l.41-.15h.01l.38.21c.22.5.2.41.2.5.25 3.03.2 2.3.04 5.83-.39 8.76-.2 8.18-1.02 11.2l-.56.53-.49-.6c-.38-2.96-.3-2.53-.15-5.88z" fill="#FF7979"/>
  <path fill-rule="evenodd" clip-rule="evenodd" d="M107.2 24.72c.26.62.17.2.27 1.54.14 1.94-.02 1.98-.54 10.47 0 1.48-.18 2.96-.53 4.41a4.53 4.53 0 01-.52 1.56l-.31.2h-.01l-.3-.23-.18-.53c-.4-2.8-.32-2.68-.09-6.43.55-8.5.5-8 1.13-10.6.02-.08 0-.01.28-.46l.41-.15.4.22z" fill="#FF7979"/>
  <path fill-rule="evenodd" clip-rule="evenodd" d="M100.79 47.54l-.42.8c-.19.16-.36.35-.52.55l-.2.22a2.63 2.63 0 00-.98 1.92c-.03.89.18.84.23 1.5 0 .13.06.46.1.65.04.15.02.03 0 .84-.84-.04-.7 0-.85-.08-.42-.19-.79-.5-1.05-.88a2.21 2.21 0 01-.3-.73 4.66 4.66 0 011.44-4.64c.32-.28.72-.47 1.15-.53.2-.03.4-.04.6-.04l.8.42zM104.8 45.44c.3.06.1-.06.88.64l-.6.67c-.1.05-.19.1-.27.17l-.07.06-.29.3-.08.08-.2.2c-.1.09-.17.2-.23.3-.32.56-.43 1.21-.32 1.84.07.3.18.58.33.85l.19.47c.04.1.09.19.15.27.1.15 0-.05.37.78-.74.3-.65.33-1.19.23-2.18-.42-2.71-4.64-.3-6.53l.25-.14c.43-.2.92-.27 1.39-.19z" fill="#000"/>
  <path fill-rule="evenodd" clip-rule="evenodd" d="M191.6 11.04c.97.72 1.6 1.46 2.1 3.33.02.11.05-.02-.23.8-.8-.31-.69-.25-.76-.34-.8-1-1.77-1.85-2.86-2.51a4.26 4.26 0 00-3.79.17 7.5 7.5 0 00-2.52 2.14c-.56.64-1.08 1.32-1.53 2.04l-.38.33-.44.03-.3-.31a2 2 0 01.13-1.25 6.43 6.43 0 011.49-2.71c2.44-2.72 6.09-3.8 9.1-1.72zM195.96 18.4l.05.05.04.04v.01l.13.35c.4 1.15.3.72.26.98-.3.46-.17.33-1.25.73a1.6 1.6 0 01-.52-.14c-.08-.06-.05-.02-.1-.16-.01-.05-.35-.95-.4-1.12 0-.13.01-.05.02-.13a4.83 4.83 0 01.2-.34l1.2-.4c.13.03.25.08.37.14zM162.58 52.51c.28.02.55.12.77.3l.13.35c-.32.55.02.44-3.26.61-3.95.2-11.1-.06-18.87 1.93-.74.19-3.64 1-5.12 1.5-1.75.6-.95.5-1.83.54l-.36-.28L134 57l.3-.4c.07-.04.16-.13 1.2-.74.69-.39 1.39-.74 2.11-1.04 4.2-1.76 11.06-2.58 15.72-2.82 4-.2 5.77-.17 9.25.51z" fill="#FEFEFE"/>
</svg>
