<svg fill="none" xmlns="http://www.w3.org/2000/svg" viewBox="0 0 265 190">
  <path fill-rule="evenodd" clip-rule="evenodd" d="M128.31 166.57c17.72-4.12 31.8-18.99 42.48-33 11.2.97 22.36-.68 33.54.14 2.66.2 11.6 1.29 7.68 5.58-6.9 7.53-23.4 4.55-30.2 7.64-.15.06-.45.08-.43.25.3 3.05 10.3 4.51 4.17 7.64-.82.4-1.69.7-2.58.92-7.16 1.98-16.32 1.03-24.49 2.86-.2.04-4.6 1.18-4.37 1.65 1.12 2.33 6.4 2.9 8.58 3.7.33.12 3.03.95 3.01 1.52-.08 2.44-7.66 2.76-9.32 2.73-9.2-.14-18.84.23-27.94-1.3M41.55 128.73c-12.97-1.35-14.58 10.82-1.74 13.04-.01-5.03.9-10.02 2.7-14.71M78.9 140.21c12.17-1.65 10.7 3.55 14.12 8.19 5.96 8.07 14.03 18.33 24.54 19.76-5.81 3.84-13.58 2.79-20.16 2.73-2.4-.02-7.08-.8-9.13.8-.9.7 1.88 2.15 2.27 2.3 1.8.7 10.89 2.04 7 5.83-2.87 2.78-9.15 1.86-12.75 2.09-4.1.25-8.22-.01-12.33.12-6.11.19-12.39.46-18.44-.63-3.5-.64-7.98-1.01-10.93-3.23-1.86-1.4-.81-3.29 1.12-4.12 2.76-1.2 6.57-1 9.54-1.3.45-.04 3.59-.28 3.65-.87.17-1.78-5.08-2.75-6.19-2.91-3.77-.54-7.51-.82-11.18-1.9-1.12-.33-2.69-.65-3.51-1.56-1.36-1.5-.25-3.26 1.05-4.38 2.37-2.04 5.9-2.47 8.92-2.73 3.7-.32 8.2.88 11.43-.52 12.99-5.62 13.86-13.52 21-17.83" fill="#FF7979"/>
  <path fill-rule="evenodd" clip-rule="evenodd" d="M111.62 52.95a5.6 5.6 0 01.2-2.92c.42-1.77.93-3.52 1.53-5.23.5-.9.2-.34.63-1.07.44-.4.26-.31.75-.4.36.34.26.18.4.75 0 1.03-.18 2.05-.55 3-1.4 4.7-.86 4.23-1.8 5.93-.2.36-.02.17-.74.73-.46-.73-.39-.57-.42-.79z" fill="#000"/>
  <path fill-rule="evenodd" clip-rule="evenodd" d="M115.98 51.93c.57.1 1.1.32 1.58.63-1.01 1.5-.96 1.23-4.04 1.52-.41.09-.85.04-1.23-.14-.21-.08-.02.05-.84-.56.43-.59.5-.82 1.26-1.1.35-.1 2.33-.2 3.05-.32l.22-.03zM105.51 44.5c1.15 14 .5 21.63 4.86 23.8 1.07.45 2.22.7 3.39.73.82.07 1.04.03 1.4.41.39.56.2.22-.33 6.27-.08.98-.04 1.01-.3 1.36-.58.55-.86.28-2.26-.08a36.38 36.38 0 00-13.08-.82c-8.95.92-19.37 5.2-26.88 9.84l-.38.07-.32-.2-.07-.37c.27-.4.13-.27.62-.61 1.31-.92 2.55-1.8 4.37-2.88 10.77-6.47 24.61-9.97 36.44-6.81.06-.81.41-4.2.42-4.3a9.33 9.33 0 01-4.56-1.3 6.6 6.6 0 01-1.9-1.84c-3.2-4.67-2.67-19.06-3.01-27.23-.05-1.2-.1-.76.1-1.36l.39-.22c.68.22.67-.33 1.1 5.53zM54.62 103.08l.2.4c-.18.63.02.23-.83 1.32a58.3 58.3 0 00-6.04 9.86 77.69 77.69 0 00-6.92 20.5c-1.02 4.94-1.57 10.27-.15 15.16 1.3 4.64 4.06 7.1 6.9 7.83 1 .26 2.02.38 3.04.35 4.82-.2 9.38-2.49 13.24-5.44 10-7.84 23.72-24.7 25.6-34.07.27-1.33.04-.82.36-1.38l.36-.11h.01l.32.18c.13.42.17.25-.03 1.57-1.9 12.27-19.9 33.4-30.86 38.72a25.14 25.14 0 01-7.4 2.31c-7 .98-13.03-3.22-14.13-13.52-.48-4.73.16-8.65 1.07-12.92a68.92 68.92 0 014.28-14.1c4.7-11 9.85-16.2 10.13-16.59l.42-.2.43.13z" fill="#000"/>
  <path fill-rule="evenodd" clip-rule="evenodd" d="M62.24 109.73l-.04.7c-.26.4-.45.84-.57 1.3-.03.1-.62 2.45-.97 3.94-.5 2.04-.76 2.07-1.65 2.64a46.66 46.66 0 01-8.66 4.2l-.47.02-.34-.25-.04-.42.27-.4c.86-.68 1.77-1.29 2.73-1.82a50.85 50.85 0 005.97-3.25c.62-1.55.6-3.42 1.64-5.13.25-.43.55-.82.9-1.15.53-.47.47-.4.92-.52l.31.14zM83.45 106.37c.23.84.28.48-.18 1.7-.33.83-.8 1.6-1.37 2.28a32.68 32.68 0 01-8.5 6.74c-.17.11-1.73.74-1.9.8l-.48.03-.34-.24-.05-.42.26-.4c1.14-1 2.36-1.89 3.65-2.67 4.88-3.35 5.25-4.49 7.2-6.5 1.28-1.37.82-1.06 1.7-1.32zM86.12 113.81c-.38 1.42-.7 2.31-2.7 4.31a27.04 27.04 0 01-4.35 3.48c-.23.13-.2.13-.62.32-.5.22-1 .4-1.52.56-.59 0-.4.07-.82-.23l-.02-.4c.42-.67.07-.2.9-1 .12-.05.04-.06 1.06-.84a21.05 21.05 0 005.72-5.18c.77-.84.96-.96 1.4-1.43.12-.1-.02-.04.77-.29l.18.7zM88.2 117.42c-.23 1.8-.4 2.15-1.76 4.3a22.96 22.96 0 01-3.3 3.98c-.56.47-1.18.86-1.85 1.16l-.48.07-.36-.18-.09-.4.19-.44.88-1.11a26.23 26.23 0 003.61-4.4c1.25-2.07.88-1.7 2.13-3.2.13-.19.02-.11.77-.45l.26.67zM139.17 43.83a6.2 6.2 0 014.13 1.26c.57.49 1.02 1.1 1.33 1.78 1.23 2.88-.45 6.29-2.97 7.54.2 5.8.9 14.58 1.7 19.95 9.53-1.06 20.68-.78 29.09 3.82 1.66.9 3.23 2 4.65 3.24a21.94 21.94 0 016.03 8.69c1.57 3.92 2.2 9.6.84 16.09-2.55 13.49-18.96 40.05-39.38 53.67-15.07 10.04-29.04 9.74-36.75 5.11-8.85-5.18-17.95-20.01-22.98-27.61l-.07-.38.2-.32.37-.07c1.23.8 8.76 13.93 18.03 22.72l.57.52c4.15 3.81 7.23 5.14 11.78 5.91 7.76 1.3 14.65-.46 21.66-3.89 18.75-9.58 36.7-33.05 42.98-50.14 3.97-10.5 3.64-22.05-5.1-29.34-6-5-14.23-6.45-22.09-6.61-9.75 0-10.44.95-11.28.3-.3-.34-.27-.42-.37-1.23-.84-6.93-1.32-13.9-1.44-20.88a.76.76 0 01.48-.73c2.06-.68 3.9-3.64 2.67-6.08a3.77 3.77 0 00-2.98-2c-2.4-.28-1.42.11-2.37-.26l-.18-.42.16-.43c.5-.23.29-.21 1.29-.21z" fill="#000"/>
  <path fill-rule="evenodd" clip-rule="evenodd" d="M92.49 104.24c4.6 3.14 6.33 7.41 5.92 10.64a218.73 218.73 0 0025.9 11.78c2.95-4.48 4.35-7.29 10.57-17.08.9-1.41.66-1.1 1.07-1.42l.38.03c.4.56.47.1-1.73 4.44-2.93 5.77-4.76 8.75-6.11 10.97-3.78 5.9-2.86 5.58-5.46 4.61-9.98-3.73-18.15-7.86-26.1-11.97-.86-.55-.31-1.16-.38-2.36 0-4.22-3.83-8.16-7.68-10.2-.38-.18-.25-.09-.63-.48v-.45l.32-.32h.46c1.22.46 2.39 1.07 3.47 1.8z" fill="#000"/>
  <path fill-rule="evenodd" clip-rule="evenodd" d="M123.41 126.78c.6.15 1.2.36 1.76.63 2.72 1.63 5.63 3.02 5.94 3.27.26.19.5.39.74.6.62.63.4.27.8 1.2-.9.21-.66.2-1.09.13a5.06 5.06 0 01-1.89-.57c-1.72-.9-3.35-1.77-5.1-2.78a5.5 5.5 0 01-1.24-.93l-.53-.52c-.29-.51-.25-.33-.21-.82.42-.27.24-.22.82-.21zM123.37 56.8c-.2.9-.7 1.73-1.42 2.33-1.4 1.27-3.3 2.43-5.33 2.18a3.1 3.1 0 01-2.47-1.68l-.07-.14c-.11-.57-.14-.38.06-.84v-.01c.48-.12.29-.13.85.06l.18.12c.25.15.51.26.79.35a2.9 2.9 0 001.85.21c.6-.14 1.16-.38 1.66-.72a12.4 12.4 0 001.82-1.5l.96-.7c.44-.31.09-.17 1-.37l.12.71z" fill="#000"/>
  <path d="M125.94 47.33c.81 0 1.47-.92 1.47-2.06 0-1.14-.66-2.06-1.47-2.06-.81 0-1.47.92-1.47 2.06 0 1.14.66 2.06 1.47 2.06zM109.75 48.21c.82 0 1.47-.92 1.47-2.06 0-1.13-.65-2.06-1.47-2.06-.8 0-1.47.93-1.47 2.06 0 1.14.66 2.06 1.47 2.06z" fill="#000"/>
  <path fill-rule="evenodd" clip-rule="evenodd" d="M126.6 40.76a2.39 2.39 0 00-1.95-.08l-.3.13a3 3 0 01-.34.17c-.32.08-.27.08-.55.14-.4.08.1.06-1.06.03.02-.96-.02-.79.1-1a1.89 1.89 0 011.01-1.03 4.68 4.68 0 012.16-.5c.56.01 1.12.14 1.64.38.24.1.44.28.58.5a1.9 1.9 0 01.33 1.45 9.95 9.95 0 01-1.61-.19z" fill="#000"/>
  <path fill-rule="evenodd" clip-rule="evenodd" d="M143.1 45.35c-3.6-2.64-6.47 1.02-6.5 4.5-4.88-2.76-5-8.79-4.39-13.71-2.31-.75-4.15-2.45-5.76-4.22-6.25 5.8-16.1 6.16-23.98 6.01-8.42-.15-11.2-9.99-9.25-16.87 1.16-4.11 4.35-7.18 7.95-9.27 6.67-3.87 17.2-4.16 23.08 1.45 2.84 2.72 3.91 6.77 6.75 9.4 5.75 5.37 18.26 4.07 11.47 22.63" fill="#000"/>
  <path fill-rule="evenodd" clip-rule="evenodd" d="M112.32 8a21 21 0 017.2 1.25 14.89 14.89 0 017.84 6.43c2.65 4.22 2.97 6 7.4 8.42 4.23 2.3 11.06 4.35 10.35 13.09-.3 2.58-.93 5.1-1.88 7.51.26.19.18.1.45.56l-.1.44-.39.24-.45-.1c-.21-.16-.07-.1-.44-.1-.31-.3-.27-.22-.28-.33a2.92 2.92 0 00-1.56-.3 3.56 3.56 0 00-2.63 2.38c-.1.26-.2.52-.26.79-.36 1.42-.04 1.58-.39 2.07-.56.57-1.1.12-1.84-.39-2.47-1.78-3.56-4.2-4.06-7.2-.28-2-.3-4-.06-6-.8-.33-1.54-.74-2.24-1.24a21.98 21.98 0 01-2.58-2.27c-6.56 5.31-15.38 5.77-23.94 5.63-8.66-.24-12.1-9.75-10.34-17.29C93.4 15.07 101.28 8 112.32 8zM97.5 15.77a12.77 12.77 0 00-3.89 8.66c-.4 5.8 2.3 11.89 8.1 12.5 3.82.19 7.65.05 11.44-.42 3.92-.54 8.11-1.74 11.3-4.14 1.5-1.11 1.34-1.37 2.05-1.4.69.1.52.31 2.1 1.79 2.61 2.4 3.76 2.24 4.3 2.75.37.47.24.65.16 1.43-.3 2.92-.41 6.34.9 8.97.5 1 1.18 1.88 2.04 2.6.2-.96.58-1.87 1.13-2.67a4.18 4.18 0 014.28-1.96c.3.07.61.16.9.3.06-.12.54-1.74.8-2.75 2.92-12.47-4.7-12.93-10.69-16.54-4.27-2.69-4.83-5.74-7.44-9.36-5.75-7.89-20.1-7.2-27.48.24z" fill="#000"/>
  <path fill-rule="evenodd" clip-rule="evenodd" d="M133.26 27.1c-.43-.66-.78-1.37-1.05-2.12-1.57-4.92-2.7-6.57-3.23-8.77l-.14-.58.03-.48.26-.32h.4c.5.36.32.18.76.77.77 1.06 1 1.46 2.4 5.04 1.55 4.08 1.52 4.36 1.61 5.54 0 1.07.15.6-.32 1.5-.73-.46-.59-.34-.72-.57z" fill="#fff"/>
  <path fill-rule="evenodd" clip-rule="evenodd" d="M63.4 114.84c2.62-.14 9.58 1.04 11.87.07 2.63-1.1 7.27-6 7.96-8.9.5-2.08-.76-5.88-1.06-7.96-.11-.74-.77-7.09-1.23-7.54-1.86-1.83-16.4 1.07-19.48 1.65-.47.09-2.63.25-2.88.7-.75 1.28.83 5.37 1.23 6.58 1.66 5.1 2.46 10.5 3.95 15.66" fill="#000"/>
  <path fill-rule="evenodd" clip-rule="evenodd" d="M80.61 89.28c1.3.47 1.44.74 1.94 4.27.79 5.39.1 2.42 1.17 7.32.7 3.27 1 4.83-.38 7.32-1.6 2.82-4.77 6.01-6.97 7.2a5.7 5.7 0 01-2.95.75c-1.79.01-3.57-.1-5.34-.31-4.1-.44-3.82-.35-4.02-.38l-.16.13-.37-.05-.08-.09h-.03l-.43-.16-.2-.4v-.02c.18-.48.12-.4.23-.45-1.31-4.2-1.84-6.85-3.04-11.12-1.38-4.83-3.13-8.57-2.38-10.59.27-.77.85-.98 1.67-1.17.86-.16 1.96-.3 2-.3.54-.12 5.52-1.06 8.85-1.55 2.44-.35 8.15-1.15 10.5-.4zm-5.68 24.79c2.56-1.28 6.56-5.53 7.35-8.15.47-2.14-.75-5.5-1.04-7.62-.1-.6-.66-5.98-1.05-7.16-1.18-.7-9.32.26-9.6.4-2.9.38-9.02 1.57-9.26 1.6-.67.07-1.33.18-1.98.33-.2 1.18.77 3.97 1.15 5.08 1.65 4.7 2.37 10.57 3.56 15.66 4.12 0 8.75.65 10.87-.14z" fill="#000"/>
  <path fill-rule="evenodd" clip-rule="evenodd" d="M78.35 106.95c-.95-2.21-.71-2.17-1.93-8.65-.7-3.74-.58-2.9-.69-4.49-.03-1.3-.07-.91.1-1.51l.33-.25.4.1c.38.44.29.3.4.59.28.71.31.78.57 1.55.17.17 1.82 9.48 1.92 10.12.1.77.12 1.54.08 2.31-.02.6.06.34-.4 1.17-.72-.6-.55-.39-.78-.94z" fill="#fff"/>
  <path d="M72.12 100.41c1.03-.2 1.65-1.44 1.39-2.76-.26-1.32-1.3-2.23-2.33-2.03-1.03.2-1.65 1.44-1.39 2.76.26 1.33 1.3 2.24 2.33 2.03z" fill="#fff"/>
  <path fill-rule="evenodd" clip-rule="evenodd" d="M195.3 119.88c2.64.02 40.36.38 42.43 1.3l.16.33c-.32.68.08.4-4.13.67-11.1.29-23.45-.4-38.03-.4-4.88-.03-2.89.08-11.8-.1-3.08-.07-2.45.03-3.05-.22l-.19-.4v-.01l.16-.41.42-.2c1.07 0 4.18-.56 14.02-.56zM26.42 110.34c15.05.13 13.34-.1 16.7.4 1.72.33 1.24.16 1.8.46l.15.32-.17.31c-.42.18-.16.16-1.82.32-3.48.3-1.72.12-7.7.12-5.1-.02-10.04.01-10.37-.11-3.04-.3-2.82-.36-3.2-.56l-.17-.4.18-.38.43-.2c.15 0 2.85-.3 4.17-.28zM189.1 132.16c3.8 0 3.82 0 5.72.5.3.08.13-.03.75.58-.7.58-.25.46-2.36.78-.75.07-1.5.08-2.25.05-6.2-.08-9.24.27-10.82-.62l-.17-.37.18-.38c.26-.18.57-.28.88-.29 2.03-.34 2.13-.25 8.07-.25zM226.92 133.2c6.6 0 6.74.1 9 .55.5.24.37.12.59.5v.01c-.23.38-.1.26-.6.49-.15 0-.27.08-1.65.26-1.97.26-1.23.08-7.89.08-4.55 0-4.4.2-7.04-.03-1-.08-.72-.02-1.26-.25l-.2-.37.15-.4.4-.25c.12 0 .55-.16 2.19-.41 0-.15 5.03-.19 6.3-.19zM23.11 120.45c.4 0 2.45.23 2.57.24 3.54.37 3.62.33 4.51.72.7.33.44.15 1.1.82-.78.52-.5.4-1.24.58-1.07.22-.94.14-5.99-.38a4.9 4.9 0 01-1.4-.2c-1.39-.44-1-.39-1.12-.39-.47-.35-.36-.2-.54-.65.26-.42.12-.29.65-.55.48-.1.97-.16 1.46-.2zM132.52 65.42v.01c.03.44.07.28-.2.7-.63.54-1.3 1.03-2.01 1.46l-.54.31c-3.54 1.81-10.8 3.52-15.22 2.75-1.35-.26-1.1-.17-1.61-.48l-.14-.4c.36-.65 0-.48 3.43-.76.33-.03 1.02-.04 1.9-.1 2.63-.17 5.21-.67 7.7-1.49 2.4-.8 1.75-.67 3.18-1.19l2.81-.97c.5 0 .27-.12.7.16zM211.74 66.23c-.35-.62-.74-1.22-1.16-1.8-3.04-4.3-8-7.05-12.76-4.77-1.6.8-3.02 1.92-4.18 3.27a12.42 12.42 0 00-2.78 8.1c.04 1.86.27 3.73.68 5.55 1.68-.77 8.15-4.68 8.57-4.82 0-.1.13-4.52.33-4.52a.88.88 0 01.57-.48c1.89-.45 3.08-.7 5.45-1.2 3-.65 2.22-.6 2.91-.5l.28.35v.01l-.06.44-.35.3-2.2.68c-5.42 1.63-4.95 1.34-4.96 1.58-.17 4.14.2 4.33-.75 4.84-3.01 1.62-6.22 3.66-9.7 5.4-.5.25-.71.38-1.22.14-.43-.3-.44-.35-.84-2.36-1.38-6.72-.6-12.5 4.8-16.83 6.54-5.19 13.7-2.47 17.64 4.9.72 1.4.61 1.26.63 1.66l-.23.29c-.49 0-.24.12-.67-.23z" fill="#000"/>
  <path fill-rule="evenodd" clip-rule="evenodd" d="M230.4 64.84c2.54.64 2.4.53 2.6 1.96.72 6.08-.29 11.12-2.03 14.6-1 2.12-2.35 4.05-3.99 5.71-5.57 5.57-15.45 5.88-21.52.86-5.24-4.34-5.4-10.73-5.11-17.38.07-1.65 0-1.25.25-1.8l.41-.17h.01c.85.37.44-.25.78 6.24.11 2.14.52 4.25 1.2 6.28.39 1.1.92 2.15 1.59 3.1 4.25 6.05 13.56 7.02 19.5 2.84 3.1-2.26 5.41-6.13 6.41-9.85.88-3.34 1.09-6.82.6-10.25a59.33 59.33 0 00-16.51-1.9c-1.06.03-.72.08-1.22-.1l-.18-.33.13-.36.34-.17c5.62-.6 11.14-.65 16.73.72z" fill="#000"/>
  <path fill-rule="evenodd" clip-rule="evenodd" d="M228.82 67.05l.24.26-.06.36-.3.27c-1.36.61-2.77 1.11-4.22 1.49a61.12 61.12 0 01-10.25 1.12c-7.57.21-9.46-.5-11.04-.72l-.4-.24-.15-.4.21-.39.44-.17s2.63-.05 3.57-.05c1.89 0 4.6.23 9 0 2.84-.16 5.66-.5 8.45-1.02.56-.1 3.03-.4 4.1-.58.05 0-.13-.01.41.07z" fill="#000"/>
  <path fill-rule="evenodd" clip-rule="evenodd" d="M228.16 75.84c-2.53-.37-4.74 1.48-7.24 1.58-2.75.11-5.33-.82-8.04-.97-2.64-.14-5.3.36-7.94.5.53 2.16 1.48 4.65 3.13 6.22 6.95 6.61 18.63 2.2 19.58-7.33" fill="#FF7979"/>
  <path fill-rule="evenodd" clip-rule="evenodd" d="M216.16 90.27l.24.4.01.04c.44 1.82.65 3.68.62 5.55.38 11.93-.57 11.67-.57 12.42-.25.45-.12.34-.52.52l-.3-.17-.17-.4c-.61-4.83-.04-3.2-.34-12.58-.14-1.75-.11-3.51.08-5.26v-.03l.18-.44.38-.2.4.15z" fill="#000"/>
  <path fill-rule="evenodd" clip-rule="evenodd" d="M219.6 90.46l.16.43c0 5.54.4 10.95.96 16.81.24 0 .7-.01 1.41.01 3 .12 7.53.9 9.2 3.39 1.5 2.45-1.23 4.76-4.07 5.2-1.65.23-3.32.38-4.99.44-4.3.15-8.62 0-12.9-.44-1.17-.1-2.32-.38-3.4-.84-2.71-1.28-3-3.8-.1-5.4 2.6-1.46 5.5-1.26 8.44-1.54.24-.07.5-.05.74.06l.2.3v.01l-.1.36c-.33.23-.1.2-1.84.5-2.53.4-3.92.51-5.8 1.34a4.2 4.2 0 00-1.82 1.52v.02l-.02.04v.1l.02.04c.1.36.72.82 1.7 1.15 2.9.97 16.47 1.27 20 .34.45-.11.89-.28 1.3-.5.42-.22.78-.53 1.04-.93l.01-.01v-.01l.06-.1v-.05l.03-.09.01-.03v-.21a.65.65 0 00-.09-.22v-.01c-.72-.96-1.7-1.35-3-1.82-1.43-.42-2.9-.67-4.39-.72-2.62-.1-2.48.19-3.06-.16-.43-.37-.38-.26-.67-3.75-.3-3.36-.42-6.73-.35-10.1.17-5.19.18-5.69 1.31-5.13z" fill="#000"/>
  <path fill-rule="evenodd" clip-rule="evenodd" d="M207.5 72.96c.17.55.3 1.1.4 1.66.05.63.13 1.27.25 1.9.24 1.3.7 2.55 1.36 3.69l.09.22.35.98c.07.2.06.02.02.87-.83-.08-.67-.04-.87-.16-.72-.38-1.3-.99-1.63-1.73a10.29 10.29 0 01-.88-2.21c-.3-1.12-.5-2.27-.58-3.43.03-.6.13-1.2.3-1.78.3-.51.15-.38.6-.6.44.22.3.09.6.6z" fill="#fff"/>
  <path fill-rule="evenodd" clip-rule="evenodd" d="M202.38 61.04c1.28.02 2.52.4 3.6 1.1.45.3.29.15.62.55v.35c-.9.33-.38.27-1.65.06-1.13-.15-2.26-.19-3.4-.13a7.07 7.07 0 00-5.96 4.65c-.45 1.34-.7 2.74-.77 4.16l-.16.44-.37.23-.4-.13-.26-.4a7.73 7.73 0 01.66-6.04 8.98 8.98 0 018.09-4.84z" fill="#000"/>
  <path fill-rule="evenodd" clip-rule="evenodd" d="M197.35 66.77c.67.58.85.66.96.9l.08.25.05.3c-.69.93-.54.8-.74.82-.15.02-.3.02-.44 0-.26-.06-.14.02-1.14-.82-.07-.1-.99-.76-.99-.93-.16-.43-.24-.9-.23-1.36 1.54-.13 1.3-.14 2.45.84zM202.98 62.83c.12.15.04.03.14.94.06.63.08.47.04.6l-.04.07c-.1.11-.2.22-.32.31-1.13.18-.94.22-1.39-.08l-.06-.06-.05-.06c0-.16-.17-1.35-.12-1.52l.04-.07c.07-.1.16-.2.25-.3h.01l1.2-.08c.1.1.02-.03.3.25zM242.22 50.22c.78.18.62.13 1 .38l.11.35c-.37.58.31.39-5.82.39-1.39-.07-2.77.04-4.13.3-.7.14-1.37.38-2 .72-.58.31-1.1.73-1.54 1.24-2.19 2.45-2.66 7.24-3.47 11.2-.62 3-.52 2.52-.81 2.98l-.42.13-.38-.23c-.18-.56-.17-.16-.08-1.8.05-1.94.27-3.86.65-5.75.25-.5.7-7.05 5.15-9.45.2 0 3.5-2.48 11.74-.46z" fill="#000"/>
  <path fill-rule="evenodd" clip-rule="evenodd" d="M107.92 11.69c.37.04.26.02.7.26l.16.4v.01l-.2.39-.43.18h-.06c-1.21.07-2.41.34-3.55.79-.89.32-1.73.75-2.51 1.28a11.34 11.34 0 00-3.37 3.74 12.24 12.24 0 00-1.52 4.66c-.18 2.22.14 4.45.93 6.53.44 1.08.32.51.41 1.18l-.18.3-.36.06-.33-.2a9.43 9.43 0 01-2.36-5.15c-.8-8.67 6.23-15.5 12.67-14.43z" fill="#fff"/>
</svg>
