<svg fill="none" xmlns="http://www.w3.org/2000/svg" viewBox="0 0 265 190">
  <path d="M148.22 146.94c-1.39-.07-3.44-.1-5.95 0-6.25.24-12.4 1.42-18.65 1.6-1.77.06-3.54.31-4.83-.2a33.22 33.22 0 01-4.42-2.47c-5.87-3.68-10.25-6.47-12.72-7.68-2.46-1.22-2.86-1.1-.67.62 2.19 1.7 6.44 4.91 11.76 8.53 1.37.9 2.67 1.82 4.32 2.69a8.5 8.5 0 002.25.78l-1.24 24.38a.8.8 0 00.76.83.8.8 0 00.83-.75l1.24-24.34c.63 0 1.23-.02 1.83-.05 8.44-.33 16.96-1.8 25.32-3.04 2.68-.42 2.98-.74.17-.9zM150 35.11l5.6-.8a4.87 4.87 0 00-2.02-.97c-1.61-.54-3.58 1.77-3.58 1.77zM139.84 33.1l4.74 1.55c0-.01-2.17-3.68-4.74-1.55zM144.52 30.9c-.34-3.71-4.57-2.21-5.05-1.38-.48.83.5 1.35.78 1.13 3.22-2.35 4.37 1.44 4.27.24zM156.2 31.35c-.17-.97-3.74-3.84-5.3-.44-.5 1.1 1.9-2.1 4.17 1.26.2.32 1.31.15 1.14-.82zM146.37 41.12c.88.14.86-1.31.54-1.49-.34-.2-1.99-.7-2.09-.88-.1-.15 1.95-3.94 1.5-4.63 0 0-2.87 3.68-2.93 4.54-.06.85 2.1 2.32 2.98 2.46zM149.82 44.88a.59.59 0 00-.03-.72.6.6 0 00-.71-.15c-2.75 2.5-3.94-.6-3.8.4.44 3.14 4.14 1.25 4.54.47z" fill="#000"/>
  <path d="M135.8 41.76c1.12 4.14 3.6 7.68 8.1 9.41 2.26.86 4.7 1.12 7.1.74 1.5-.22 2.94-.73 4.25-1.5.9-.53 1.31-.97 1.27-1.1-.04-.16-.5-.05-1.45.23-1.34.4-2.73.64-4.12.74a12.93 12.93 0 01-9.65-3.6c-4.14-4.03-4.16-9.82-4.18-15.2l.02-4.41c0-2.07-.28-2.37-.86-.3-1.27 4.56-1.79 10.2-.47 14.99z" fill="#000"/>
  <path d="M186.24 70.06a23.78 23.78 0 00-3.58-2.86 36.29 36.29 0 00-5.66-2.93 49.97 49.97 0 00-7.24-2.36 61.91 61.91 0 00-7.3-1.34 842 842 0 00-.62-12.38l-.44-6.76c.86-.16 1.7-.39 2.53-.68 2.74-1.31 2.27-5.91-1.04-6-.87 0-1.13.35-.97.4.57.1 1.11.3 1.61.6a2.06 2.06 0 01.24 3.3c-.98.8-2.41.4-3.53.84l-.7.28.03.82c.08 5.73.31 13.01.65 20.42-1.27.78-4.25 2.27-7.52 1.75-2.43-.38-4.56-1.81-6.33-4.28.19-1 .3-2 .32-3.02.1-1.9-.18-2.17-.84-.34-.14.4-.68 2.96-1.1 2.94a15.56 15.56 0 00-5.43.1c-4.76.79-9.43 2.1-13.9 3.9a48.7 48.7 0 00-5.68 2.65c-1.2.64-2.33 1.41-3.37 2.29-1.37 1.35-1.23 1.67.36.81.84-.38 2.05-.95 3.6-1.59 6.14-2.5 12.48-4.48 18.95-5.91a22 22 0 014.56-.6c.46.05.93.03 1.4-.06.01 0 2.7 2.71 3.12 2.97a11.1 11.1 0 004.08 1.57c3.03.48 6.13-.18 8.7-1.87l.11.02a58.21 58.21 0 0124.22 7.82c.62.44 1.1.82 1.46 1.06.36.24.57.34.66.32.14-.05-.28-.64-1.35-1.88zM138.4 22.71c.63 1.91.99 2.05.89.02-.16-3.56-.5-7.44 2.13-10.29a6.49 6.49 0 016.86-1.79c2.63 1.04 4.24 3.6 6.97 4.56 1.01.36 2.07.57 3.15.6a5.65 5.65 0 004.17-1.38c.74-.77.7-1.4.6-1.45-.14-.1-.36.26-1.04.68-1.06.57-2.29.77-3.48.55-5-.7-7.54-6.37-12.78-6.2a8.5 8.5 0 00-6.66 3.72c-2.21 3.18-2 7.44-.82 10.98z" fill="#000"/>
  <path d="M158.57 20.05c-1.31-.58-2.2-1.7-3.22-2.65-1.87-1.77-4.32-2.31-6.63-.98a6.6 6.6 0 00-2.9 7.25c.18.7.4 1.05.53 1.07.16.02.24-.31.36-.97.32-2 .86-4.1 2.67-5.26a3.4 3.4 0 012.87-.43c2.04.67 3.12 3 5.19 3.82 1.57.69 3.34.82 5 .38a3.96 3.96 0 002.44-2.04c.3-.67.18-1.09.06-1.15-.14-.08-.31.18-.71.56a3.8 3.8 0 01-2.05 1.01 6.92 6.92 0 01-3.6-.61zM162.67 25.98a7.45 7.45 0 00-2.32-1.44 4.72 4.72 0 00-3.3.08c-.45.17-.84.46-1.12.84a1.53 1.53 0 00-.28 1.33c.04.18.18.36.36.32.23-.04.47-.44.67-.58.25-.16.51-.28.8-.34 2.1-.4 3.2 1.26 4.62 2.47.92.8 2 1.38 3.18 1.71a4.67 4.67 0 004.38-.77 4.07 4.07 0 001.51-2.29c.16-.98-1.27.24-1.47.36-.67.5-1.47.82-2.3.91-1.88.04-3.41-1.5-4.73-2.6z" fill="#000"/>
  <path d="M213.6 51.57c-.23-.1-.43-.04-.53-.16-.1-.07-.12-.47.47-.73.36-.14.76-.15 1.12-.02.53.16.99.51 1.27 1 .33.54.55 1.15.64 1.78.13.7.18 1.42.14 2.13-.03.47-.15.93-.36 1.36-.26.5-.68.92-1.2 1.17-.79.3-1.63.44-2.48.42-.05 0-.1 0-.16.02.16-.02.31-.1.42-.22.4-.52.2-.62.26-.4l.06 1.06c.02.7.04 1.37.02 2.01.02 1.97-.22 3.93-.72 5.83-.38 1.1-.68.94-.87-.18-.2-1.11-.32-3.16-.54-5.89l-.18-2.07-.04-.52c-.06-.32-.04-.64.06-.95a1.44 1.44 0 01.82-.86c.19-.08.39-.12.6-.12.21-.02.41-.04.59-.04.75 0 1.2-.08 1.27-.2.12-.06.26-.37.32-.9.04-.53.05-1.07.02-1.6 0-.39-.06-.77-.18-1.14a1.16 1.16 0 00-.81-.78z" fill="#1D201F"/>
  <path d="M197.74 57.1c.74.12.72-1.09.44-1.25-.6-.2-1.17-.45-1.73-.74-.08-.13 1.63-3.28 1.23-3.86 0 0-2.39 3.07-2.43 3.79-.06.71 1.76 1.95 2.5 2.06zM200.6 60.23c.07-.09.1-.2.1-.3a.48.48 0 00-.4-.46.49.49 0 00-.31.04c-2.28 2.1-3.28-.5-3.16.34.38 2.6 3.44 1.04 3.78.38z" fill="#000"/>
  <path d="M204.89 62.98c-3.15 2.15-6.85 1.29-9.62-1.02-4.52-3.78-5.85-10.13-5.41-15.76.08-1.02.2-1.9.3-2.63 1.58-.22 5.75-1.2 6.5-5.11-.8-.1-1.6-.12-2.4-.06-1.66.08-3.8 1.63-4.72 3.44a17.8 17.8 0 00-1.3 4c-1.43 6.57.5 14.75 6.38 18.63 3.08 2.03 8.16 2.36 10.72-.72.62-.75.7-1.31.62-1.41-.12-.14-.4.16-1.07.64z" fill="#000"/>
  <path d="M201.47 50.76c.06.47.31.85.61.83.28-.04.48-.46.42-.93-.06-.48-.32-.86-.62-.84-.28.02-.47.44-.41.94zM194.16 50.66c.06.5.34.87.64.85.3-.04.5-.46.44-.97-.06-.5-.34-.88-.64-.86-.3.04-.48.48-.44.98zM197.36 47.83c-1.07-3.26-4.55-1.03-4.81-.18-.26.86.71 1.12.93.86 2.37-2.8 4.22.36 3.88-.68zM204.7 47.75c-.33-.82-4.01-2.73-4.79.58-.24 1.05 1.3-2.2 3.94.34.24.23 1.2-.1.86-.92zM207.04 48.15c-1.52-4.4-4.42-8.18-9.5-9.54-.25-.06-.51-.12-.8-.16 2.81 3.84 6.3 7.12 10.3 9.7zM172.9 86.42c-1.67-1.01-1.35-1.21.5-.75 1.85.45 5.26 1.57 9.85 2.84 6.4 1.84 13 2.9 19.67 3.17 1.67.04 3.04.06 4.02.07 1.9.06 1.77.4-.08.9-1.33.34-2.68.56-4.04.66-6.93.61-14.03-.7-20.6-2.89a53.42 53.42 0 01-9.32-4zM221.35 161.81a16.92 16.92 0 00-4.06-2.37 36.8 36.8 0 00-6.45-2.03 74.79 74.79 0 00-15.98-1.4c-1.44.03-4.18.55-5.44-.27-1.01-.66-.8-3.38-1.01-4.62-.08-.44-.16-.78-.22-1.05 3.37-.57 6.7-1.36 9.97-2.37 1.81-8.9 2.5-19.52-.36-28.22.12.4-2.88-.42-3.28-.81-.38-.34-1.25-1.18-1.04-1.8.24-.71 1.4-.42 1.9-.18 7.4 3.65 10.66-9.31 5.05-13.03a8.54 8.54 0 00-7.36-.54c-3.84 1.5-3.8 5.83-2.71 9.2.1.31.14.8-.18.9a.55.55 0 01-.4-.09 4.14 4.14 0 01-1.65-5.87c-6.57-4.16-15.26-5.47-21.57-.08a6.87 6.87 0 00-3.25-1.33c-4.16-.48-7.98 3.64-9.17 7.32-1.47 4.54 3.4 7.45 7.16 8.08.81.16 1.65.13 2.45-.08.46-.11 1.22-.8 1.22.14 0 2.77-5.28 2.03-5.26 1.9a111.8 111.8 0 00-1.03 27.04c4.44.72 8.94 1.08 13.45 1.08l-.02.12c-.18 1.43-.34 3.66-.52 6.13-.04.23-.08.28-.1.28-.14.09-.3.16-.46.21l-2.06.64c-1.46.46-2.99.96-4.58 1.51a111.98 111.98 0 00-16.08 6.87c-5.03 2.7-10.4 6-14.25 10.27a19.6 19.6 0 00-1.75 1.97c-1.77 2.29-1.71 2.69.46.8 3.76-3.3 7.85-6.2 12.2-8.66 6.29-3.5 12.84-6.53 19.58-9.06 1.7-.65 3.28-1.25 4.78-1.8.73-.29 1.45-.55 2.13-.8.31-.13.61-.29.9-.48a12.3 12.3 0 006.96 2.27c4.67 0 8.4-2.83 9.81-4.08.54.16 1.1.28 1.66.38 1.19.14 2.4.22 3.6.23 8.42.28 16.56 1.04 24.62 3.58l1.75.74c1.82.94 2.28.86.59-.64zm-48.19-3.88c.04-1.45-.04-2.53-.07-3.58l-.15-2.63-.03-.4c4.91 0 9.83-.38 14.68-1.15a36.36 36.36 0 00-.24 3.3l-.04 1.68a2.45 2.45 0 00.34 1.48v.03l-.01.03h-.03a15.38 15.38 0 01-5.16 2.85c-2.53.76-5.26.54-7.64-.61-.3-.14-.58-.3-.85-.46-.08-.06-.8-.4-.8-.54z" fill="#000"/>
  <path d="M247.32 102.16c-.31-6.58-3.48-14.2-8.94-18.27-1.5-1.13-2.52-1.49-2.66-1.41-.16.1.52.6 1.85 1.9a23.31 23.31 0 014.56 6.24 30.47 30.47 0 012.98 10.89c.94 12.64-10.7 20.52-21.75 22.75a40.8 40.8 0 01-12.64.57c-1.87-.22-2.9-.43-3.04-.27-.12.1.65.53 2.54 1.07 10.83 3.06 24.88-.68 32.25-9.3 3.36-3.93 5.1-9 4.85-14.17z" fill="#000"/>
  <path d="M211.38 107.2c1.77.34 3.58.44 5.37.28 2.56-.16 5.1-.59 7.58-1.28 1.79-.45 3.5-1.15 5.1-2.06.87-.58.87-.92-.16-.88-1.73.18-3.45.45-5.15.81l-.6.12c.64-2.45.4-5.06-.68-7.36a.6.6 0 10-1.07.56c1 2.22 1.14 4.74.38 7.06-1.74.32-3.57.62-5.36.92-2.47.4-4.33.68-5.33.97-.98.26-1.1.58-.08.86z" fill="#000"/>
  <path d="M222.4 72.67s-1.53-.5-.2-3.84c1.12-2.79 6.01-15.67 3.45-26.75-2.65-11.37-15.27-17.75-25.8-12.7a24.56 24.56 0 00-9.33 8.24c2.45-.24 5.65-.9 8.02-.26 13.38 3.55 11.7 23.88 9.31 28.4-1.7 3.25-4.51 8.4-9.11 7.27-.31-.08-.61-.2-.9-.34.17-2.29.21-4.58.14-6.87a7.6 7.6 0 01-2.78-1.03 13.88 13.88 0 01-4.06-3.79c.12.9.2 1.68.28 2.35.1 3.37-.3 6.73-.14 10.11.06 1.28-2.95 1.06-3.77 1.2a41 41 0 00-6.36 1.65 30.87 30.87 0 00-7.25 3.27c-.9.65-1.75 1.36-2.57 2.1 0 0 23.29 12.5 52.35 1.78l10.8-3.68a71.36 71.36 0 00-12.08-7.11zm-1.67-22.83c-.14.28-.28.54-.44.8-.12.18-.22.26-.26.26-.02 0 .24-5.18.2-5.68a17.87 17.87 0 00-1.67-6.23 14.17 14.17 0 00-9.53-7.82 30.1 30.1 0 00-3.27-.54c-.77-.1-1.23-.16-1.27-.3-.04-.12.3-.26 1.11-.39 1.17-.16 2.35-.18 3.53-.06 1.74.17 3.43.66 4.99 1.45 3.84 1.91 6.17 5.85 7.15 9.91.42 1.73.55 3.52.37 5.3a11.19 11.19 0 01-.9 3.3zM152.72 113.11l-29.45 2.39c-.3 2.06-.27 4.16.12 6.2.93 5 1.23 11.31-.96 9.22-1.85-1.75-4.1-9.35-4.02-15.02l-27.27 2.2s12.62 2.97 9.93 9.38a8.55 8.55 0 01-2.78 3.6l22.2 14.2 34.98-1.04s.62-19 .81-21.84c-.01-.01-6.6-4.51-3.56-9.29zm-4.93 28.66c-2.5.6-9.56.88-15.78.64-6.23-.24-9.28-.94-6.81-1.53 2.49-.6 9.55-.88 15.78-.64 6.25.24 9.3.93 6.8 1.53z" fill="#FB7B7B"/>
  <path d="M98.83 123.54a9.23 9.23 0 00-6.93-3.3c-3.28-.22-6.8.91-10.49 1.53-8.16 1.37-16.22 1-23.98-1.97a99.51 99.51 0 01-11.3-5.28c-1.44-4.63-1.22-12.81-1.22-12.91a.6.6 0 00-.58-.62.54.54 0 00-.45.14.54.54 0 00-.16.44c0 .34-.2 7.26.95 12.12-1.25-.72-2.3-1.34-3.14-1.81-1.44-.84-2.21-1.34-2.37-1.26-.16.06.32.68 1.63 1.8 3.97 3.28 8.38 6 13.1 8.07 4.56 2.11 9.2 3.86 14.25 4.32.38.04.78.02 1.16.06-.2.8-.44 2.01-.76 3.72a477.9 477.9 0 00-1.73 10.01c-.14.84-7.5 1.06-8.34 1.06-2.96.03-5.9-.25-8.8-.84a41.93 41.93 0 01-17.83-8.02c-10.9-8.6-14.04-23.92-9.56-36.72a30.78 30.78 0 0110.79-14.3c5.97-4.44 13.13-6.9 20.2-9.28-6.85 1-13.61 3.06-19.47 6.75A32.8 32.8 0 0020.1 94.1a37.14 37.14 0 00.56 26.06c3.46 8.44 11.32 15.22 19.88 18.17 8.9 3.04 18.15 4.04 27.3 1.51l.29-.08.04-.28.11-1 3.45-.1 1.67-13.49c5.17-.22 9.95-1.59 14.99-2.6 3.22-.66 7-.68 9.63 1.59 1.23 1.1 1.55 2.05 1.75 2.07.08.02.1-.18.02-.6a6.71 6.71 0 00-.95-1.81zm-28.2 13.71l-2.23.06c.75-6.27 1.2-10.5 1.29-12.4.82.04 1.63.06 2.45.06l-1.52 12.28z" fill="#000"/>
  <path d="M96.42 127.28a8.1 8.1 0 00-7.13-1.81c-1.23.2-2.38.75-3.3 1.6-.48.53-.36.83.28.83 1.57.02 3.12-.38 4.7-.32 1.51 0 3.01.33 4.4.96.43.24.91.39 1.4.42.39 0 .56-.16.6-.3.04-.16-.04-.3-.2-.5-.22-.32-.47-.61-.75-.88zM89 133.79c-3.19-1.8-6.87-1.15-9.96.48a13.32 13.32 0 00-3.94 3c-.6.72-.5 1.04.4.8 2.09-.58 4-1.66 6.03-2.41 2.14-.84 4.5-.97 6.72-.4.8.2 1.4.34 1.82.48.43.14.71.24.85.16.12-.08.1-.36-.23-.82a5.71 5.71 0 00-1.7-1.29zM92.76 130.56c-.44-.34-.9-.65-1.4-.91a8.24 8.24 0 00-6.13-.84c-.5.13-.97.35-1.39.64-.6.44-.54.76.12.88 1.25.23 2.57.2 3.82.47 2.45.56 4.4 1.9 6.39 3.37.56.44.91.44.8-.38a5.32 5.32 0 00-2.21-3.22zM67 44.15c-.7.13-1.35.42-1.93.83l5.25.98c-.02.02-1.79-2.23-3.32-1.81zM79.98 44.49c-2.35-2.11-4.54 1.27-4.54 1.27l4.54-1.27zM79.68 42.17c.26.22 1.21-.23.78-1.03-.42-.82-4.36-2.39-4.84 1.1-.14 1.1 1.13-2.43 4.06-.07zM64.6 42.2c-.22.91.83 1.1 1.03.81 2.29-3.08 4.44.04 4-1.01-1.33-3.28-4.81-.72-5.04.2zM73.49 51.81c.84-.1 2.94-1.4 2.93-2.2-.02-.82-2.57-4.4-2.57-4.4-.48.61 1.31 4.28 1.21 4.43-.65.29-1.33.53-2 .74-.35.16-.43 1.53.43 1.43zM70.8 54.42c-.21-.22-1.07.02-.73.8.34.75 3.76 2.68 4.32-.26.17-.94-1.08 1.93-3.58-.54z" fill="#000"/>
  <path d="M53.49 54.08c.04 1.25 2.35 3.78 4.3 4.26l.06.66c.65 7.16 1.53 10.62 1.95 7.74.24-2.5.3-5 .2-7.5-.04-1.66-.1-3.43-.22-5.26l-.04-.68c0-.46-.13-.9-.38-1.29a1.83 1.83 0 00-1.3-.7l-.7-.1c-.7-.02-1.38-.24-1.98-.6a2.21 2.21 0 01-.66-1.66c-.02-.67.04-1.33.16-1.97.06-.44.2-.87.4-1.26.78-.7 1.65-.62 1.81.64.3 2.23 1.16-2.69 2.6-3.39 1.46-.7 8.47-1.87 10.18-11.5 0 0 2.72 5.21 11.12 6.85l-.08.67a44.63 44.63 0 000 4.34c.1 2.03.07 4.07-.06 6.1a17.42 17.42 0 01-1.77 6.66 9.04 9.04 0 01-5.05 4.46c-1.06.32-2.15.47-3.25.44a22.8 22.8 0 01-2.94-.12c-1.4-.14-2.8-.36-4.18-.66-.98-.2-1.55-.3-1.66-.18-.1.12.26.46 1.2.96 1.34.67 2.77 1.16 4.24 1.47.93.19 1.87.32 2.82.4-.2 1.32-.1 2.68.28 3.97.17.71.47 1.38.9 1.97.3.36.62.44.9.02.51-.81.43-2.96-.05-4.8-.08-.37-.2-.75-.35-1.1h.27c.65-.02 1.3-.1 1.93-.23a10.41 10.41 0 006.55-4.81c1.39-2.4 2.16-5.1 2.25-7.86.08-1.76 0-3.53-.22-5.28.9-1.27 5.62-8.81-.31-18.4-6.51-10.51-14.07-1.22-14.07-1.22s-9.42-5.63-15.05 1.81a23.38 23.38 0 00-4.84 15.19s-1.97-.12-1.55 2.63c.42 2.74 6.55 7.92 6.59 9.33zm2.92-14.6c.62-.47 1.87-1.06 3.25-1.96 1.5-.98 2.89-2.12 4.14-3.4.92-.97 1.79-1.99 2.6-3.05.24-.31.42-.52.56-.52.14 0 .26.22.26.68a8.25 8.25 0 01-1.73 3.98 13.45 13.45 0 01-4.61 3.92 8.7 8.7 0 01-4.14 1.12c-.82-.06-.94-.34-.33-.78z" fill="#000"/>
  <path d="M113.18 111.34c-.27-3.25-.9-6.45-1.9-9.55a48.33 48.33 0 00-18.03-24.64 44.89 44.89 0 00-15.8-6.99c-.34-.34-.66-.7-1-1.01-.33-.36-.7-.72-.97-1l-.66-.68-.63.64-6.2 6.13c-4.87-2.89-8.7-5.1-11.3-6.53l-.1-.06-.08.08c-3.48 3.72-3.76 4.44-.05 1.33l.21-.17a464.9 464.9 0 0010.83 7.18l.74.48.65-.62c1.82-1.7 3.8-3.54 5.88-5.45l1.29 1.4.26.27.36.08c13.57 2.98 24.91 13.13 31.05 25.4a57.57 57.57 0 014.52 13.45c.73 4.48 1.05 5.02.93.26z" fill="#000"/>
  <path d="M68.95 80.67c1.36 1.43 5.22 4.26 9.36 6.9l2.27 1.46-.52-2.55c-.24-1.15-.5-2.33-.76-3.46-1.4-5.83-2.6-8.56-2.72-6.11.05 2.46.3 4.9.75 7.32-.7-.44-1.4-.85-2.07-1.25-5.17-3.07-7.98-4.1-6.3-2.31zM59.22 88.33l1.12-1.25 1.05-1.2c3.76-4.3 5.17-6.78 3.2-5.55a32.05 32.05 0 00-4.41 3.76c-.48-1.49-1-2.98-1.54-4.44-2-5.35-3.52-7.78-3.36-5.45.14 2.13 1.6 7.46 3.34 12.42l.6 1.71zM67.04 81.8a.69.69 0 00-.26.66c.02.12.07.23.14.32.78 2.32 5.04 20.28 4.38 33.1a.6.6 0 00.35.58.6.6 0 00.23.05h.04a.6.6 0 00.6-.57c.65-12.78-3.87-33.62-4.82-34.16a.64.64 0 00-.66.02z" fill="#000"/>
  <path d="M130.51 87.8a13.78 13.78 0 00-4.56-7.25c.7-1.12.98-2.44.82-3.74-.42-2.39-2.9-3.64-4.9-4.56-1.95-.9-4.65-2.73-6.86-1.97a5.18 5.18 0 00-3.23 5.41c.2 1.02 1.16 1.74 1.93 2.31a47.56 47.56 0 006.67 4.1c.76.38 1.75.98 2.65.78.77-.2 1.46-.62 2-1.2.77.75 1.45 1.58 2.04 2.47a10.04 10.04 0 011.69 7.15c-.52 3.08-2.07 5.89-3.24 8.75-1.3 3.13-2.67 6.23-3.77 9.42a22.19 22.19 0 00-1.3 9.55c.2 2.18.65 4.34 1.36 6.4.5 1.46.82 2.08.92 1.96.03-.8-.06-1.61-.26-2.39-.78-4.7-.88-9.17.52-13.75 1.33-4.38 3.48-8.42 5.23-12.64 1.44-3.36 3.2-7.02 2.29-10.8zm-5.61-10c-.12.48-.38.9-.76 1.22-.53.42-.75.22-.73-.32a2.88 2.88 0 00-.58-2.19c-.86-.91-1.86-1.7-2.95-2.33a13.05 13.05 0 01-2.58-2.03c-.4-.51-.3-.77.31-.73 1.83.29 3.55 1.03 5.02 2.17a5.56 5.56 0 012.23 2.9c.15.42.16.88.04 1.31z" fill="#FB7B7B"/>
</svg>
