<svg fill="none" xmlns="http://www.w3.org/2000/svg" viewBox="0 0 265 190">
  <path d="M101.97 69.71c-.06-.46-.27-1.26-.78-1.4l-.02-.02a.53.53 0 00-.66.11.53.53 0 00-.11.2 1.24 1.24 0 00.24 1.16c.05.12.11.23.19.34a.48.48 0 00.6.2l.01-.02a.53.53 0 00.53-.57z" fill="#000"/>
  <path d="M92.97 166.95a13.84 13.84 0 004.15 6.5c.47.42.97.81 1.49 1.18.4.29 1.23.59 1.4 1.06.1.44.16.9.17 1.36l.15 1.23c-.03.75.15 1.49.53 2.14a.5.5 0 00.42.14.5.5 0 00.37-.25c.33-.71.08-1.55-.02-2.3-.1-.84-.17-1.68-.3-2.51-.2-1.25-1.67-1.69-2.57-2.39a18.57 18.57 0 01-5.19-6.4.33.33 0 00-.6.24v0z" fill="#000" stroke="#000" stroke-width=".33" stroke-miterlimit="10"/>
  <path d="M105.13 73.48c.13-.03.24-.1.32-.21.6-.84 1.12-1.55.39-2.47a18.09 18.09 0 00-2.7-2.78 32.93 32.93 0 00-2.23-4.54.33.33 0 00-.13-.13c.1-.76.13-1.53.12-2.3a.63.63 0 00-.2-.47c.02-2.45-1.9-3.73-3.95-5.1a10.4 10.4 0 00-9.12-1.16c-3 .95-5.52 1.95-7.4 4.49-1.85 2.52-3.2 7.47-3.88 10.48-1.63 7.27-.7 13.07-1.1 20.45a43.5 43.5 0 01-1.75 10.8c-.22.69-.84 1.6-.38 2.27.53.71 1.13 1.36 1.8 1.95a21.61 21.61 0 004.04 3c6.88 3.9 14.72 1.36 21.2-3.14a.7.7 0 00.32-.77c-1.91-4.74-2.35-7.62-2.89-12.7-.47-4.46.02-9.37-2.33-13.38a.68.68 0 00-1.16 0c-1.16 1.53-3.24.35-3.72-1.12-.16-.5-.38-2.03-.07-2.5.46-.72 1.64-.44 2.17-.03a.7.7 0 00.82-.1c2.05-1.79 4.16-3.1 5.65-5.4.76-1.18 1.3-2.5 1.6-3.87 1.32 3.5 2.91 6.92 3.8 10.57.4 1.56.95 4.02-.3 5.35a3.9 3.9 0 01-2.6 1.05c-.48.02-.96-.03-1.42-.16-.4-.17-.8-.26-1.23-.29a.47.47 0 00-.4.7 2.46 2.46 0 001.78.9c-.5 1.33-.56 3.72.47 4.79a.5.5 0 00.6.06.5.5 0 00.23-.55c-.28-.72-.48-1.46-.6-2.22-.05-.67.02-1.35-.06-2.02h.17c1.03.05 2.05-.2 2.95-.68 1.95-1.06 2.21-3.2 1.98-5.2-.15-1.22-.42-2.41-.8-3.57v0zM82.97 59a17.9 17.9 0 00-2.57 6.63 39.6 39.6 0 00-.5 4.22c0 1.4-.12 2.8-.38 4.17a.24.24 0 01-.46 0 12.6 12.6 0 01-.19-4.57c.1-1.42.27-2.83.52-4.22.21-1.26.57-2.48 1.06-3.66.25-.57.54-1.12.88-1.64.33-.49.75-.91 1.22-1.26.22-.17.6.05.42.33zm15.21 4.1c-.38.9-.85 1.74-1.4 2.53-.43.6-.95 1.56-1.62 1.9a.38.38 0 01-.56-.3c.09-.76.37-1.48.82-2.1.39-.7.82-1.37 1.2-2.1.36-.7.63-1.44.78-2.21.12-.8.17-1.6.16-2.41a.42.42 0 01.78-.21c1 1.44.49 3.42-.16 4.9zm6.62 9.35l-.83-2.3a3 3 0 00-.11-.3l.4.5c.28.3.54.63.77.97.27.43.03.78-.23 1.13z" fill="#000" stroke="#000" stroke-width=".16" stroke-miterlimit="10"/>
  <path d="M101.44 90.05c.61-.34 1.16-.79 1.75-1.16a5.12 5.12 0 012.37-.73c3.42-.29 6.83.5 10.1 1.41 6.1 1.72 13.23 4.22 18.15 7.04 2.92 1.68 5.15 3.09 7.4 5.55.4.42.7.09.35-.33-1.81-2.16-3.3-2.98-5.55-4.8-2.32-1.88-5.86-3.65-8.6-4.86a76 76 0 00-9.38-3.2 43.5 43.5 0 00-9.97-2.06c-1.67-.08-3.57-.1-5.11.66-1.57.8-2.7 2.24-4.64 1.88a.36.36 0 00-.35.59c.98.98 2.42.6 3.48.01zM162.77 59.72a13.56 13.56 0 001.84-3.84 47.2 47.2 0 001.4-4.35 60.95 60.95 0 001.38-6.65c.08-.58.36-1.35-.16-1.75a.42.42 0 00-.49-.06c-.6.26-.54 1.04-.62 1.6a55.51 55.51 0 01-1.32 6.4 72.84 72.84 0 01-1.22 4.14 25.04 25.04 0 00-1.35 4.22c-.01.25.32.57.54.29zM167.32 51.98c0 .06.03.12.06.17a.32.32 0 00.32.13.32.32 0 00.16-.08c.38-.31.8-.6 1.16-.08.22.44.32.93.28 1.41.03.95-.04 1.9-.2 2.82-.16.85-.38 1.7-.66 2.52-.2.64-.84 1.57-.48 2.22a.28.28 0 00.32.13c.51-.14.65-.63.83-1.1.26-.68.5-1.4.7-2.1.38-1.34.57-2.73.55-4.12-.02-.99-.08-2.3-1.06-2.87-.74-.41-2.04-.03-1.98.95zM171.44 57.85c-.1.74-.26 1.46-.47 2.17-.32.7-.53 1.45-.6 2.21 0 .24.3.47.52.3.9-.67 1.16-2.13 1.4-3.16.27-1.21.4-2.45.4-3.7 0-.83.16-2.16-.63-2.74a.95.95 0 00-1.37.18c-.1.14-.16.3-.18.48a.31.31 0 00.2.29.32.32 0 00.34-.07c.63-.6.55 1.34.55 1.6 0 .82-.05 1.64-.16 2.44v0z" fill="#000" stroke="#000" stroke-width=".33" stroke-miterlimit="10"/>
  <path d="M174.14 54.94c-.38-.38-1.13-.5-1.38.07-.07.15.02.4.23.38.88-.09.57 1.72.52 2.27a14.17 14.17 0 01-2.75 7.37c-.93 1.27-1.9 2.5-2.75 3.82-.77 1.19-1.73 2.36-1.5 3.82-.9-.5-1.87-.87-2.88-1.07a21.97 21.97 0 00-3.4-.42c.06-.06.1-.13.1-.2a5 5 0 00-.39-1.93c-.22-.72-.5-1.42-.77-2.12a30.12 30.12 0 01-1.38-4.16c-.27-1.26-.36-2.76.5-3.81.84-1 2.21-1.08 3.1-1.94a.39.39 0 00.08-.41.38.38 0 00-.34-.24c-1.24-.14-2.73.71-3.57 1.58a4.86 4.86 0 00-1.14 3.97c.22 1.6.66 3.15 1.3 4.62.3.76.66 1.52.98 2.27.26.82.61 1.6 1.05 2.32.04.05.09.09.14.1-.14.04-.27.09-.4.15a.6.6 0 00-.9-.07c-3.94 3.92-7.16 8.53-10.5 12.95-1.78 2.34-3.55 4.69-5.3 7.04a78.8 78.8 0 00-5.13 7.3.25.25 0 00.24.37c.05 0 .1-.03.15-.07a75.93 75.93 0 005.57-6.8c1.76-2.3 3.52-4.6 5.26-6.9 3.38-4.45 6.61-9.08 10.58-13.03a.56.56 0 00.15-.21c.78.2 1.61.27 2.4.45.78.18 1.56.34 2.3.58.72.24 1.4.59 2.03 1.03.1.08.23.14.36.19a182.3 182.3 0 01-3.9 15.68 126.28 126.28 0 01-5.96 15.43 78.87 78.87 0 01-3.47 6.84 16.93 16.93 0 01-4.45 5.29c-4.51 3.26-10.77 2.17-15.87 1.32-3.29-.55-6.58-1.13-9.87-1.7-1.5-.26-3.01-.52-4.5-.84-1.56-.35-3.06-.95-4.6-1.27-.56-.12-.75.27-.23.49 1.5.65 2.58 1.03 4.02 1.63 1.03.43 2.1.75 3.2.95-.42 1.76-.59 3.61-.91 5.38-.34 1.81-.7 3.62-1.11 5.4a105.86 105.86 0 01-2.1 7.93c-.33.8-.57 1.63-.74 2.48l-.15.44-.18.48-.86-.23a34.08 34.08 0 00-3.9-.75 45.05 45.05 0 00-7.73-.35c-2.64.11-5.28.36-7.9.75-1.37.2-2.73.4-4.08.66-1.32.2-2.61.48-3.88.85a106.94 106.94 0 01-8.32-19.79c-.71-2.32-1.55-4.72-2.36-7-.13-.35-.48-.31-.43.12a31 31 0 00.9 4.45 32.47 32.47 0 00-6.35 4.67 7.15 7.15 0 00-1.72 1.93.27.27 0 00.38.37c.67-.4 1.29-.88 1.84-1.44a48.86 48.86 0 016.14-4.48l.46 1.57a110.08 110.08 0 005.82 15.03 6.24 6.24 0 00-1.24.02c-.64 0-1.28.04-1.9.14a.36.36 0 00-.08-.28 40.77 40.77 0 00-4.63-4.42c-1.54-1.39-3.1-2.75-4.66-4.12a88.07 88.07 0 00-4.43-3.65 25.74 25.74 0 00-4.86-3.2c-.64-.29-.57-.12.04.27.58.4 1.1.89 2.42 1.84.8.56 1.6 1.45 2.36 2.04 1.54 1.18 2.47 2.5 3.93 3.77 1.54 1.34 3.05 2.7 4.6 4.04a47.9 47.9 0 004.29 3.56v0a6 6 0 00-.84 1.89c-.27.78-.5 1.57-.71 2.36-.4 1.4-.63 2.83-.68 4.28a38.64 38.64 0 00-4.57-1.14 108.58 108.58 0 01-13.22-3.87 62.13 62.13 0 01-8-3.41 17.34 17.34 0 01-6.36-5.25 9.7 9.7 0 01-1.8-7.42c.6-2.77 2.47-5.1 4.2-7.27a79.7 79.7 0 0118.77-17.01c2.58-1.7 5.32-3.1 7.91-4.76.35-.22.13-.86-.3-.7a41.13 41.13 0 00-7.54 3.94 78.89 78.89 0 00-19.17 16.88c-1.8 2.22-3.72 4.5-4.72 7.23a10.27 10.27 0 00.46 7.95c2.47 5.34 8.12 7.94 13.28 10a101.52 101.52 0 0015.54 4.78c1.73.46 3.52.73 5.32.8a.39.39 0 00.34-.18.28.28 0 00.27.04.29.29 0 00.19-.2c.15-.52.28-1.04.41-1.57.6.46 1.3.8 1.92 1.25.36.28 1.28 1.23 1.7.49.35-.67-.8-1.26-1.22-1.53a6.46 6.46 0 00-2.2-.99c.16-.69.31-1.37.51-2.06.2-.71.42-1.42.65-2.1.18-.53.43-1.06.58-1.6l.07.04c.71.15 1.45.22 2.18.2.53.02 1.24.17 1.69-.16.62 1.29 1.29 2.56 1.96 3.83a.5.5 0 00-.15.06 17.34 17.34 0 00-4.94 5.83 51.56 51.56 0 00-3.34 7.3 79.44 79.44 0 00-4.72 17.53c-.45 3.25-.87 6.72-.4 10 .08.59.94.39.98-.13.23-2.9.16-5.77.5-8.66.36-2.9.92-5.79 1.66-8.62a74.45 74.45 0 015.74-15.7 36.26 36.26 0 015-7.04l.02.05a.57.57 0 00.47.28.57.57 0 00.49-.24c1.39-.1 2.77-.29 4.13-.56l4.1-.61c2.86-.42 5.75-.65 8.65-.7a40.29 40.29 0 0110.21 1.11c.52.23 1.08.34 1.65.32l.01.06c1.42 4.61 3.11 9.14 4.37 13.81 1.27 4.72 2.24 9.5 2.91 14.34.39 2.72.55 5.45.96 8.17.09.6 1.02.43 1.02-.14a52.7 52.7 0 00-.64-7.28 118.3 118.3 0 00-4.92-21.54 54.13 54.13 0 00-3.07-7.62.35.35 0 00-.13-.13c.16-.26.29-.56.37-.86l.3-.8c.3-.7.53-1.45.71-2.2a101.84 101.84 0 003.13-13.64c.34-1.78.55-3.6.61-5.41l9.15 1.57c5.33.92 11.54 2.26 16.7-.14 4.48-2.1 6.85-6.88 8.9-11.11a129.9 129.9 0 006.43-15.87c2.09-6.04 3.6-12.27 4.53-18.6a.36.36 0 00-.16-.36.58.58 0 00-.17-.42l-.14-.13a.38.38 0 00.22-.28c.29-1.8 1.44-3.35 2.5-4.8 1.11-1.56 2.37-2.97 3.17-4.71a15.73 15.73 0 001.48-5.95c-.07-.75.07-1.9-.5-2.49z" fill="#000" stroke="#000" stroke-width=".33" stroke-miterlimit="10"/>
  <path d="M69.7 31.76c-4.91-1-9.78-2.13-14.67-3.18-1.16-.25-2.33-.48-3.48-.76-.63-.15-.7-.7-.92-1.26l-.73-1.93-2.91-7.58c-1.03-2.66-1.97-5.38-3.56-7.76a.75.75 0 00-1.27 0c-2.95 5.53-5.62 11.52-6.9 17.7a.52.52 0 001 .28c1.05-2.93 2.01-5.88 3.18-8.75a85.96 85.96 0 013.4-7.37 43.37 43.37 0 012.6 6.05l3.01 7.84.75 1.93c.17.58.42 1.14.77 1.63.72.84 2.2.85 3.21 1.06 2.5.52 5 1.09 7.5 1.65 2.4.53 4.8 1.07 7.22 1.58-3.54 2.88-7.37 5.4-10.9 8.3-.77.64-1.78 1.3-2.09 2.3-.34 1.08.15 2.45.33 3.53a155.88 155.88 0 011.81 15.61c-4.29-3.39-8.39-7.02-12.28-10.87a.77.77 0 00-1.05 0c-4.84 3.79-9.82 7.44-14.51 11.4-.6.5.2 1.57.84 1.1 4.83-3.5 9.45-7.32 14.14-11 4.17 4.08 8.56 7.93 13.18 11.51.46.36 1.31.19 1.28-.52a164.76 164.76 0 00-2.23-19.1c-.1-.58-.27-1.1.15-1.58.37-.39.77-.74 1.2-1.05 1.9-1.58 3.87-3.03 5.85-4.5a111.9 111.9 0 006.4-5 .76.76 0 00-.33-1.26v0z" fill="#F77D7E" stroke="#F77D7E" stroke-width=".33" stroke-miterlimit="10"/>
  <path d="M236.25 63.14c-4.7-3.96-9.68-7.63-14.51-11.4a.77.77 0 00-1.05 0 143 143 0 01-12.28 10.87c.34-4.86.87-9.72 1.65-14.53.26-1.24.46-2.49.6-3.75.06-1.1-.63-1.84-1.4-2.5a97.93 97.93 0 00-5.93-4.6c-1.94-1.41-3.89-2.82-5.75-4.35 4.58-.96 9.14-2.04 13.72-3.02l1.83-.37c.6-.07 1.18-.21 1.75-.42 1.07-.5 1.35-1.99 1.73-3l2.96-7.71a53.82 53.82 0 013.06-7.21 83.77 83.77 0 013.4 7.36c1.16 2.9 2.13 5.83 3.17 8.75a.52.52 0 00.64.35.52.52 0 00.37-.63c-1.29-6.17-3.95-12.16-6.91-17.7a.75.75 0 00-1.27 0 33.21 33.21 0 00-3.16 6.74l-2.91 7.58c-.47 1.23-.88 2.5-1.42 3.7-.26.57-.78.56-1.33.67l-1.8.4c-2.46.55-4.93 1.07-7.4 1.62-2.74.6-5.5 1.2-8.26 1.78a.74.74 0 00-.5.89c.02.12.09.23.17.32 3.67 3.15 7.71 5.83 11.48 8.87.42.33.84.68 1.25 1.04.39.33.9.67.97 1.2 0 .62-.08 1.24-.26 1.83l-.31 1.9a169.92 169.92 0 00-1.77 16.4c-.05.72.81.88 1.28.52 4.61-3.58 9.01-7.43 13.18-11.52 4.7 3.69 9.3 7.5 14.14 11 .66.47 1.47-.58.87-1.08z" fill="#000" stroke="#000" stroke-width=".33" stroke-miterlimit="10"/>
  <path d="M189.28 31.62c-6.5-1.69-13.48-1.34-19.77-3.9v-.01-.02c-2.08-6.3-4.16-12.6-6.23-18.92-.06-.16-.32-.23-.4-.04a219.14 219.14 0 00-7.8 18.07c-.06.3-.19.6-.38.85a2.2 2.2 0 01-.87.33l-2.07.6a124.58 124.58 0 01-16.65 3.48c-.16.03-.2.26-.1.37a134 134 0 0015.12 12.38 449.26 449.26 0 00-3.28 17.94c0 .04 0 .09.02.13a.22.22 0 00.34.08c4.59-4.7 11.07-7.1 15.3-12.19l.87 1.02c.3-1.7.62-3.4.93-5.08.2-1.13.45-2.24.78-3.34a2.74 2.74 0 011.27-1.8c1.49-.7 2.13 1.03 2.2 2.19.1 1.97-.06 3.95-.46 5.89a1.86 1.86 0 012.47.61c.2.29.31.62.34.96a1.55 1.55 0 011.21-.06 2.36 2.36 0 011.27 1.93 1.29 1.29 0 011.55.33c.77.9.6 2.57.62 3.66.01 1.96-.2 3.92-.62 5.84l.28.28a.21.21 0 00.36-.15c.6-4.7 1.2-9.4 1.44-14.12.06-1.19.1-2.38.1-3.57 0-.68-.1-1.17.44-1.66l1.28-1.17a168.28 168.28 0 0010.57-10.65.21.21 0 000-.1.21.21 0 00-.04-.1.2.2 0 00-.09-.06zM129.18 29.34c-6.6-1.28-13.54-.5-19.99-2.66v-.02c-2.48-6.17-4.94-12.33-7.4-18.5a.22.22 0 00-.22-.16.22.22 0 00-.2.16 206.89 206.89 0 00-6.7 18.72c-.1.34-.15.58-.46.76a144.14 144.14 0 01-2.88 1.05 119.6 119.6 0 01-16.28 4.49.22.22 0 000 .3c5 4.2 10.3 8 15.87 11.42-.32 2.27-.62 4.54-.9 6.81 2.43-.41 4.94-.07 7.17.98.86.42 1.65 1 2.33 1.68a25.38 25.38 0 004.12-4.31c4.09 4.32 9.01 7.7 13.48 11.59a.21.21 0 00.36-.15c.3-4.72.61-9.45.55-14.2a71.92 71.92 0 00-.11-3.56c-.04-.67-.19-1.17.31-1.68.41-.41.8-.83 1.2-1.25a168.71 168.71 0 009.83-11.2c.1-.05.09-.24-.08-.27z" fill="#F77D7E"/>
</svg>
