<svg fill="none" xmlns="http://www.w3.org/2000/svg" viewBox="0 0 265 190">
  <path fill-rule="evenodd" clip-rule="evenodd" d="M111.39 94.98a4.5 4.5 0 011.75 2.18 6.9 6.9 0 01.22 4.3 3.85 3.85 0 01-3.3 3.07c.52 3.22 1 5.36 1.1 5.87.51 2.16.47 1.62.4 2.15l-.26.22-.34-.05-.22-.27c0-.06-.68-2.02-1.31-4.81-.9-3.96-.8-3.7-.7-3.97a.68.68 0 01.3-.29c.27-.1.61-.08 1.24-.28.45-.12.84-.39 1.1-.76a5.08 5.08 0 00.44-4.57 2.95 2.95 0 00-1.46-1.7c-.78-.44-.11-.85-.66-3.83-1.98-10.14-13.24-10.42-17.8-4.35l-.3.18-.32-.06-.18-.28c.07-.4.05-.32.1-.4 5.55-8.54 20.1-6 20.2 7.65z" fill="#000"/>
  <path fill-rule="evenodd" clip-rule="evenodd" d="M96.86 91.9c.54-.02 1.07.19 1.47.56.23.18.4.44.47.72l-.06.3c-.98.1-.42.07-.99-.03l-.3-.04h-.01c-.35-.08-.7-.08-1.05 0h-.01c-.2.08-.38.2-.52.34-.08.11-.16.13-.53.37-.07.05.02 0-.6.27-.29-.64-.25-.55-.26-.62-.02-.3.04-.6.2-.85.32-.4.75-.7 1.24-.87.3-.1.63-.16.95-.15z" fill="#000"/>
  <path d="M98.2 97.35c.03-.82-.53-1.5-1.24-1.54-.72-.03-1.33.6-1.37 1.42-.04.82.52 1.5 1.24 1.53.72.03 1.33-.6 1.36-1.41z" fill="#000"/>
  <path fill-rule="evenodd" clip-rule="evenodd" d="M96.9 108.58l-.35-.1a57.7 57.7 0 00-1.08-.53c-.16-.06-.3-.14-.45-.23a3.2 3.2 0 00-.9-.35 1.26 1.26 0 00-.23-.02H93.76l-.02.02-.02.05h-.01l-.01.02-.01.01v.01h-.01l-.02.03-.04.04-.12.17-.16.28-.45.44c-.49-.5-.43-.37-.55-.87a2.76 2.76 0 01-.02-.38c.01-.13.04-.25.1-.38.13-.29.34-.53.61-.7.33-.2.7-.28 1.08-.25.79.1 1.54.4 2.17.87.36.3.68.66.94 1.05l.12.35-.1.3-.35.17zM91.62 111.2c.2.17.71.53.78.58a6.47 6.47 0 005.5 1.16c.5-.12 1-.4 1.35.31a29.1 29.1 0 011.41 3.9c.23.71.2.45.2.92l-.22.25h-.34c-.32-.28-.2-.05-.92-1.44-.03-.06-.83-1.68-1.2-2.52a7.9 7.9 0 01-6.15-1.08 4.68 4.68 0 01-1.4-1.4 7.13 7.13 0 01-.49-.86l-.04-.35.16-.26.3-.05c.55.3 0-.05 1.06.85z" fill="#000"/>
  <path fill-rule="evenodd" clip-rule="evenodd" d="M93.6 113.3c-1.14-.4-2.65-.84-2.97-2-.24-.84-.43-1.7-.58-2.55a13.35 13.35 0 01-.12-3.39c.02-.12-.03-.44.08-.37 1.1.75.5 2.62 3.44 8.22" fill="#000"/>
  <path fill-rule="evenodd" clip-rule="evenodd" d="M92.54 111.9c.63.3 1.33.44 2.03.4-.37-.9-1.4-3.44-.43-3.3.3.05.54.37.7.6.42.63.58 1.57 1.17 2.07.53.45 1.88-.17 2.41-.39.35-.14 1.22-.32 1.34-.76.13-.49-.29-1.13-.47-1.56-.39-.93-.8-1.86-1.24-2.77a4.58 4.58 0 00-.96-1.53c-.92-.82-1.58-.33-2.18-.73-.37-.26-.55-.7-.02-.91.49-.14 1-.13 1.48.01.47.08.93.23 1.35.46 1.24.76 1.86 2.25 3.06 4.13.9 1.44.86 2.66 3 .3 3.13-3.44 1.9-4.82 2.9-8.2.06-.2.22-.84.55-.76.51.13.67.9.72 1.34.22 1.4.19 2.82-.08 4.21a8.74 8.74 0 01-1.52 3.54c-.9 1.12-3.1 3.36-5.47 4.33-.52.22-2.34 1.04-2.77 1.14-3.27.84-6.04-.5-6.47-1.45-.08-.2 0-.38.23-.37.24.04.48.1.7.22" fill="#000"/>
  <path fill-rule="evenodd" clip-rule="evenodd" d="M73.71 91.57c.28.3.2.06.7 1.59 3.97 13.46-2.73 23.04-1.47 43.15.46 6.2 1.58 11.45 4.82 16.68a26.56 26.56 0 009.98 9.15c.33.02 9.31 6.1 22.7 1.54l.34.02.24.25-.02.35-.25.23c-2.66 1-5.44 1.64-8.28 1.9a27.8 27.8 0 01-27.44-15.36c-4.42-8.9-4.19-21.82-2.87-31.66.8-6.92 3.28-16.9 1.72-24.3-.2-1.01-.45-2.01-.77-2.99l.03-.34.25-.22.32.01zM78.2 90.58l.27.23c.82 1.12.94 1.97 1.3 3.74.22 1.12.34 2.26.35 3.4-.02.68-.1 1.36-.23 2.04l-.17.31-.3.13-.29-.15-.14-.33c-.04-.46-.26-1.99-.35-3.05-.24-2.77-.77-3.8-.92-5.01l-.08-.77.06-.36.2-.2.3.02zM83.37 90.07c.22.15.4.36.5.6.2.3.36.64.48.98.3 1.16.49 2.34.57 3.53.1 1.1.04 2.2-.21 3.27-.06.3-.24.83-.25.9l-.2.3-.31.08-.27-.18-.1-.34c0-.8-.08-3.45-.1-3.8a18.97 18.97 0 00-.54-3.46c-.05-.28-.13-1.3-.13-1.35l.06-.35.2-.21h.01l.3.03zM88.53 91.95c.23.33.23.15.57 2.31.3 2.75.35 5.51.17 8.27-.12 2.22-.03 4.45.27 6.65 1.54 8.85 8 18.55 11.68 28.9.11.2.15.45.1.68l-.25.23-.34-.01c-.31-.33-.14-.03-.68-1.33-3.87-8.66-10.05-18.94-11.77-27.36-1.2-6.17.17-11.18-.34-17.2-.1-.84-.1-.61 0-1.03l.27-.19.32.08z" fill="#010101"/>
  <path fill-rule="evenodd" clip-rule="evenodd" d="M105.22 132.01l.26.2-.01.31c-.85 1.09-2.59 1.62-4.54 2.76-.36.23-.77.38-1.2.44-.14.04 0 .05-.72-.1.15-.71.1-.58.2-.7.25-.38.6-.7 1-.9 0-.08 2.5-1.3 2.88-1.48.38-.14.77-.27 1.16-.38.3-.13.64-.18.97-.15zM46.66 104.46l.22.25c-.01.57.07.06-.54 1.6-2.4 5.78-3.81 12.77-4.62 19.08-.45 4-.67 7.52-.74 10.08-.17 3.05.12 6.12.88 9.09.3 1.14.69 2.27 1.13 3.38 1.9 4.5 5.34 8.18 9.72 10.36 2.72 1.3 5.7 1.97 8.72 1.95 3.42-.06 6.8-.76 9.96-2.08a39.5 39.5 0 002.53-1.14l.34-.03.27.22.02.34c-.3.36.01.18-2.13 1.23a29.85 29.85 0 01-7.17 2.33c-1.64.3-3.3.43-4.97.4-.4 0-.78-.04-1.04-.05a20.53 20.53 0 01-6.86-1.73 20.8 20.8 0 01-6.48-4.72 20.55 20.55 0 01-3.93-5.77c-2.9-6.5-2.66-12.04-2.16-19.13.8-9.25 2.01-17.09 6.26-25.45l.26-.22.33.01zM60.66 107.74l.28.15.12.32c0 .1-.02 1.2.03 2.03 0 .45.06 1.46.08 1.66.08 2.5.34 4.98.75 7.43.71 4.7 2.94 11.17 4.72 15.54 1.6 3.92 1.4 3.04 1.42 3.65l-.22.26-.34.02c-.35-.3-.19-.09-.73-1.07-.37-.72-1.46-2.74-2.34-4.84-2-4.73-3.41-9.7-4.17-14.79-.94-6.24-.11-9.37-.09-9.96l.17-.3.31-.1z" fill="#010101"/>
  <path fill-rule="evenodd" clip-rule="evenodd" d="M70.55 131.54l.24.19-.02.3-.24.3c-.45.38-.94.7-1.47.94-.08 0-.54.25-2.06.8-.14.08-.3.12-.45.13l-.33.01c-.43-.03-.23.03-.91-.29.32-.68.2-.5.51-.8.2-.18.42-.32.67-.4.14 0 2.4-1.05 3.21-1.13.28-.08.57-.1.85-.05z" fill="#010101"/>
  <path d="M178.48 92.26c.9-.07 1.57-.9 1.5-1.88-.07-.98-.85-1.72-1.75-1.66-.9.07-1.56.9-1.5 1.88.08.98.86 1.72 1.75 1.66z" fill="#000"/>
  <path fill-rule="evenodd" clip-rule="evenodd" d="M178.95 83.9c.18.07.36.16.52.26.07.04.01-.01.3.3l.03.3-.22.21-.37.06a5.19 5.19 0 00-1.33.1 3.7 3.7 0 00-2.02 1v.01c-.1.13-.22.23-.36.32-.31.28-.7.46-1.12.5l-.16-.6c.05-.26.12-.5.23-.74.1-.2.23-.37.4-.52a5.21 5.21 0 012.87-1.41c.42-.01.84.06 1.23.21zM178 101.07l.23.2.06.37c-.06.5-.2 1-.41 1.47l-.17.34a7.43 7.43 0 01-3.87 3 3.3 3.3 0 01-1 .02c-.24-.03-.09.05-.67-.41.56-.72.14-.32 1.23-.95a6.5 6.5 0 001.65-.9 7.88 7.88 0 001.49-1.54 9.52 9.52 0 00.9-1.29l.24-.26.31-.05zM101.68 21.44l.27.17c.2.59.06-.2.09 2.78.03 3.1.02 2.95-.16 3.23-.6.64-.95-.13-2.39.33-.48.15-.92.44-1.23.84a2.22 2.22 0 00-.44 1.64v.03l.04.1c.13.33.37.6.68.77.96.56 2.7.25 3.24.4.6.27.4.6.66 1.64.2 1.09.78 2.07 1.62 2.79 1.1.86 1.08-.35.91 4.15-.04 1.25 0 .98-.17 1.4l-.3.14c-.56-.24-.44.15-.69-4.31-1.28-.6-2.38-1.87-2.85-4.17l-.04-.24c-1.05.1-2.1-.09-3.06-.52a3.12 3.12 0 01-1.23-1.25c-.21-.41-.3-.88-.28-1.35a3.94 3.94 0 014.25-3.66c.06-1.07.17-2.14.34-3.2.26-1.55.21-1.27.42-1.61l.31-.1zM114.86 21.93l.3.13.14.31c.01.43.31 2.98.35 4.4.77 0 1.54.17 2.24.5a3.06 3.06 0 011.52 2.73c0 .2-.01.4-.05.6-.36 2.05-2.1 2.77-4.2 2.8-.12 0-.06-.04-.13.23a5.58 5.58 0 01-2.4 3.57c-.1.07-.02-.17-.16 1.76-.13 1.93-.02 1.44-.22 1.92l-.3.14h-.01l-.31-.13c-.2-.45-.13-.12-.2-1.37-.1-3.15-.07-2.3-.09-2.54a.64.64 0 01.24-.6 4.04 4.04 0 001.37-1.39c.27-.46.47-.96.61-1.47.25-.83.06-1.08.48-1.43.38-.23.57-.08 1.61-.16.66 0 1.3-.22 1.82-.64a1.91 1.91 0 00.3-2.13c-.4-.8-1.28-.9-2.18-.94-.65-.02-1.05.1-1.33-.47a1.67 1.67 0 01-.05-.57c-.03-1.6.04-3.21.2-4.81l.15-.31.3-.13zM109.5 32.16c-.04.67 0 .62-.17.87-.17.29-.42.52-.72.67a2.44 2.44 0 01-2.17-.15c-.25-.14-.26-.14-.44-.45l-.1-.26-.06-.62c1.33-.14 1.07 0 1.55.17.44.14.58-.04.93-.1.79-.19.2-.17 1.18-.13zM108.11 25.66c.35.9.23.43.17 2.6.03.7-.04 1.38-.2 2.05-.03.2-.1.4-.22.57l-.26.15-.28-.13-.2-.32c-.4-1.32-.32-1.65-.23-3.58-.04-.37.02-.74.18-1.07.2-.4.07-.24.62-.74l.42.46z" fill="#010101"/>
  <path d="M105.5 26.13c.02-.66-.35-1.2-.84-1.22-.49-.02-.9.49-.94 1.14-.02.65.35 1.2.84 1.22.49.02.9-.5.94-1.14zM111.7 26.4c.02-.66-.35-1.2-.84-1.22-.5-.02-.91.49-.94 1.14-.03.65.34 1.2.83 1.22.5.02.91-.5.94-1.14z" fill="#000"/>
  <path fill-rule="evenodd" clip-rule="evenodd" d="M104.27 36.64c.23.01.46.04.69.08.45.2.93.33 1.42.38.43.04.65.01.9.04 1.24.16.91.1 1.36.24l.19.23-.09.3-.29.24a3.3 3.3 0 01-1.65.42 6.57 6.57 0 01-2.02-.36c-.37-.08-.7-.31-.9-.64-.19-.28-.12-.07-.24-.83.84-.14.55-.1.63-.1zM101.3 27.43a6.37 6.37 0 01-.5-6.58c-2.16-.49-4.05-2.54-4.65-4.65 4.3 2.55 12.37-4.45 17.63-1.54 2.08 1.15 2.95 3.75 2.53 6.03 3.05 1.43 2.1 4.2.54 7.18-.61-.21-1.26-.3-1.9-.29-.14-2.2.12-4.4-.05-6.6-1.17.33-2.37.54-3.58.63-2.73.32-5.78.43-8.46-.31a12.3 12.3 0 00-1.45 6.38" fill="#000"/>
  <path fill-rule="evenodd" clip-rule="evenodd" d="M96.58 15.62c3.55 1.83 9.31-2.72 14.73-2.37 3.76.25 5.8 2.97 5.83 6.36 0 1.12-.29.3.74 1.24 1.86 1.88 1.19 4.11.05 6.5-.39.76-.5 1.32-1.23 1.23-.56-.21-1.17-.3-1.77-.27-.78-.09-.71-.74-.74-1.43-.04-1.17.08-3.83.04-4.99-.56.12-1.13.21-1.7.27-6.47.77-8.96-.13-9.16-.14l-.22-.06c-.25.52-.48 1.05-.67 1.6-.4 1.12-.61 2.3-.64 3.5-.03.67.1.36-.1.92l-.3.15-.33-.1-.15-.31v-.04l-.02-.01a7.31 7.31 0 01-1.39-4.64c.05-.6.17-1.2.38-1.76a7.17 7.17 0 01-3.25-2.46 7.39 7.39 0 01-1.14-2.13c-.1-.2-.12-.42-.1-.64a.73.73 0 011.14-.42zm4.82 5.02a.6.6 0 010 .42 5.6 5.6 0 00-.45 4.54c.04.13 0 .1.06-.2.15-1.17.46-2.3.9-3.39.45-1.02.47-1.14.8-1.26.08 0-.02-.01.2-.01 1.1.28 2.24.44 3.38.48 2.44.03 4.87-.18 7.26-.62.42-.08.83-.2 1.24-.32a.7.7 0 01.75.42c.24.72.06 4.14.1 6.19.28.02.56.06.84.12l.29-.59c.3-.58.53-1.2.68-1.83.38-1.68-.1-2.42-1.04-3.03-.46-.26-.46-.18-.68-.43-.38-.6.16-.55-.14-2.63a4.65 4.65 0 00-1.93-3.06c-4.35-2.75-11.39 2.76-16.18 2a6.28 6.28 0 002.98 2.65c.53.2.74.12.94.55z" fill="#000"/>
  <path fill-rule="evenodd" clip-rule="evenodd" d="M128.94 51.1s-6.28 6.18-19.73 7.99c-5.47.73-11.06-.94-15.97-3.36-2.36-1.17-5.21-2.58-6.9-4.65.54-1.65 2.13-3.16 3.44-4.23 3.17-2.6 7.16-4.7 11.3-5.17a5.75 5.75 0 003 2.62c3.82 1.7 7.9.4 10.32-2.9 5.64.64 11.93 5.08 14.54 9.7z" fill="#FF7979"/>
  <path fill-rule="evenodd" clip-rule="evenodd" d="M125.67 54.15A38.55 38.55 0 01113.8 59c-7.05 1.6-12.79 1.72-22.86-3.62a17.11 17.11 0 01-4.99-3.63.95.95 0 01-.34-.66c.12-.54.34-1.06.65-1.52.26-.43.57-.84.9-1.23a24.54 24.54 0 015.34-4.31 21.22 21.22 0 018.29-3.05.8.8 0 01.82.2c.34.74.88 1.35 1.55 1.79 2.98 2 7.19 2.02 10.34-1.51.63-.75.5-.8 1.53-.64 5.2.86 11.2 4.76 14.27 10a.47.47 0 01-.05.6 23.6 23.6 0 01-3.58 2.73zm-11.82-11.1a8.97 8.97 0 01-7.33 2.66c-2.73-.3-5.07-1.86-5.86-3.25a20.7 20.7 0 00-8.37 3.43c-1.53 1-2.92 2.18-4.14 3.53-.4.46-.72.97-.98 1.52.66.7 1.4 1.31 2.2 1.84a48.31 48.31 0 007.57 3.78c5.15 1.98 9.03 2.25 12.48 1.77 5.97-.85 12.55-2.85 17.63-6.34.45-.3.89-.64 1.3-.99-2.77-4.34-8.43-8.18-13.65-8.9-.26.33-.55.65-.85.95z" fill="#FF7979"/>
  <path fill-rule="evenodd" clip-rule="evenodd" d="M118.9 8.35c6.36.5 18.15 2.05 24.2 5.05a19.43 19.43 0 018.32 7.47 15.18 15.18 0 011.59 3.98c1.22 5.26-.5 10.21-3.77 14.56a61.6 61.6 0 01-6.47 6.93 93.02 93.02 0 01-10.5 8.36c-4.35 2.99-4.27 2.55-3.32 2.5 1.9-.09 3.8.18 5.6.8 2.58.88 3.43 3.33 2.44 5.35-2.6 5.24-15.05 4.06-17.2-.32a3.18 3.18 0 01-.3-.84c-9.12.81-20.64 3.02-35.81-5.23-3.92-2.15-7.4-4.46-9.96-8.1a23.99 23.99 0 01-3.49-21.3c5.66-17.8 30.1-20.73 48.66-19.21zm7 49.58c.1-.45-.02-.17 2.12-1.55 7.35-4.66 19.44-14.25 22.72-21.85.9-1.96 1.36-4.09 1.38-6.24a14.04 14.04 0 00-4.43-10.02c-2.87-2.72-5.66-4.05-9.44-5.2-4.35-1.32-10.54-2.28-14.7-2.8-13.9-1.67-33.73-1.37-44.65 7.4a21.61 21.61 0 00-7.73 22.17c1.69 6.77 5.23 10.95 10.42 14.22 11.1 6.9 20.73 8.3 32.69 7.22 5.97-.56 6.02-.75 6.43-.25.1.14.15.32.12.49V61.64c-.14 3.19 10.58 5.96 14.61 1.96 1.45-1.7.88-3.59-.7-4.4a14.73 14.73 0 00-3.89-1 18.44 18.44 0 00-4.44.18.45.45 0 01-.47-.26.45.45 0 01-.04-.19z" fill="#000"/>
  <path fill-rule="evenodd" clip-rule="evenodd" d="M134.31 116.59c-2.58-2.03-5.96-3.17-9.11-3.89-4-.9-12.02-.26-12.1-.2-3.09 2.93-5.93 6.05-9.64 8.27-1.48.89-4.8 1.43-3.99-1.35a9.46 9.46 0 00-3.47 2.36c1.6 3.56 2.97 6.43 4.59 9.96 1.68-.68 2.82-.9 4.5-1.58 5.08 3.43 8.52 9.76 10.38 15.48.73-1.22 1.46-2.48 2.28-3.64-.95-2.68-2.12-8.05 2.22-8.28-.22-3.33.81-7.08 4.86-6.63-.15-1.7-.14-3.63.83-5.12 1.24-1.88 3.87-1 5.1.34 1.04-1.86 3.55-5.72 3.55-5.72z" fill="#FF7979"/>
  <path fill-rule="evenodd" clip-rule="evenodd" d="M132.32 120.66c-1.25 2.06-1.13 2.19-1.64 2.17-.27-.07-.28-.16-.41-.27a4.2 4.2 0 00-1.68-.98 2.7 2.7 0 00-1.33-.08h-.04c-.25.06-.49.18-.69.35a4.7 4.7 0 00-1.14 3.05c-.08 2 .2 2.05-.03 2.52a.63.63 0 01-.64.28c-.72-.1-1.46.03-2.12.35a3.62 3.62 0 00-1.64 2.26c-.1.35-.18.72-.23 1.08-.3 2.29.23 2.47-.4 2.93-.64.29-3.31-.25-2.64 4.51.16 1 .41 1.97.75 2.92.16.65-.1.43-2.07 3.8-.28.47-.36.74-.86.81a.73.73 0 01-.72-.5 38.09 38.09 0 00-3.83-8.31 22.62 22.62 0 00-5.96-6.58c-.55.18.66-.18-2.2.75-1.22.38-1.84.66-2.06.72a.72.72 0 01-.8-.4c-3.15-6.91-4.66-9.82-4.66-10.33a.7.7 0 01.2-.44 9.43 9.43 0 013.92-2.57.73.73 0 01.75.45c.1.34.03.36-.05.76-.03.13-.03.26-.02.4v.02l.01.04.03.09v.02l.02.03v.01l.02.03h.01v.01h.02v.01h.02l.01.02.03.01v.01l.04.01.04.02.14.05h.01l.04.01h.06v.01c1.73.08 2.72-.68 4.12-1.66 3.77-2.79 7.35-6.74 8.02-7.2.66-.29 8.37-.68 12.19.13 3.24.72 7.1 2.1 9.65 4.23.46.42.23.38-2.24 4.45zm-1.68.82c.26-.48 2.94-4.65 3.06-4.79-2.35-1.71-5.8-2.8-8.64-3.4-2.01-.49-6.42-.39-8.49-.3-.58.02-2.56.13-3.13.2-4.22 4.06-5.25 5.19-8.38 7.42a7.9 7.9 0 01-3.26 1.52c-.85.15-1.95.12-2.57-.47a1.8 1.8 0 01-.57-1.04c-.66.35-1.26.8-1.8 1.32.99 2.2 3.7 8 4.1 8.87.65-.25 2.78-.9 3.42-1.15.87-.32.73-.4 1.85.42a23.97 23.97 0 015.7 6.31 39.5 39.5 0 013.72 7.54c.04-.07.86-1.42 1.3-2.04-.75-2.34-1.44-5.65.14-7.57a3.56 3.56 0 012.17-1.21 8.08 8.08 0 011.4-5.1 4.2 4.2 0 013.5-1.59c-.1-2 .3-4.73 2.03-5.71 1.03-.6 2.74-.56 4.45.77zM120.44 179.9a16.4 16.4 0 01-7-15.68c-5.44 3.09-11.17 4.68-17.39 3.2.96 4.27 1.95 8.54 2.88 12.8 2.43-.08 14.39-.22 21.73-.18" fill="#FF7979"/>
  <path fill-rule="evenodd" clip-rule="evenodd" d="M113.57 163.5a.73.73 0 01.6.7c0 .14-.06.53-.06.6-.2 1.81-.06 3.66.4 5.43a16.54 16.54 0 002.96 6.2c.96 1.2 2.06 2.27 3.28 3.2l.23.1c.44 1 .47.73-8.8.91-9.6.28-2.96.02-13.22.3a.72.72 0 01-.73-.56c-3.06-13.76-2.95-12.76-2.87-13.16a.73.73 0 01.74-.52c2.32.55 4.71.69 7.08.4a24.44 24.44 0 007.51-2.27c2.5-1.16 2.33-1.36 2.88-1.32zm-15.22 5.06c-.07 0-1.28-.16-1.35-.2.5 2.19 2.03 8.94 2.5 11.13.57-.17 16.6.02 19.63.06a16.33 16.33 0 01-2.57-2.38 16.4 16.4 0 01-3.97-11.66c-4.45 2.31-9.24 3.68-14.24 3.06z" fill="#FF7979"/>
  <path fill-rule="evenodd" clip-rule="evenodd" d="M167.09 112.15c.31.23.66.43 1.02.6l.4.2c.68.4 1.42.68 2.19.82.73.13 1.48.17 2.22.11.88-.07 1.75-.23 2.6-.47.3-.08.6-.2.88-.35l.35-.07.28.16.07.32-.17.31c-.3.26-.6.48-.94.68-.83.46-1.74.75-2.68.84-1.36.14-2.73 0-4.03-.41a7.48 7.48 0 01-1.51-.7l-.24-.16c-.43-.37-.8-.8-1.1-1.29l-.08-.34.11-.28.29-.09.34.12z" fill="#000"/>
  <path fill-rule="evenodd" clip-rule="evenodd" d="M168.85 113.4c.21.42.13.1.3 1.2.18 1.22.22 2.47.12 3.7a.87.87 0 01-.1.5c-.32.47-.61.35-1.41.38-2.3.12-4.6.38-6.87.78-1.08.2-.64.2-1.2.13l-.22-.24.03-.33.26-.24c1.85-.82 3.83-1.3 5.86-1.42 2.4-.2 2.2-.07 2.21-.17l.01-1.03c-.02-.69.03-1.38.14-2.06l.14-.88.16-.32.28-.13.29.13zM190.56 87.33c.28.15.54.3.8.48 3.26 2.38 3.05 6.35-.24 8.65a9.4 9.4 0 01-3.2 1.43c.02 2.6-.38 5.2-1.18 7.67-.64 2-1.62 3.87-2.9 5.53 0 .08.04 3.4.23 6.3 2.39.66 4.73 1.48 7.02 2.45.75.35.56.22.86.55l-.01.34-.25.23h-.35a58.19 58.19 0 00-8.2-2.46c-.34-.22-.34-.46-.38-.89-.15-1.4-.3-3.4-.36-6.14 0-1.13-.01-.82.56-1.6l.24-.34c.63-.9 1.16-1.88 1.59-2.9a21.96 21.96 0 001.67-9.31.72.72 0 01.5-.72 8.14 8.14 0 001.56-.39c2.08-.86 3.83-2.24 3.72-4.47l-.01-.1a3.86 3.86 0 00-.67-1.81c-.4-.6-.94-1.1-1.56-1.47-.79-.5-1.7-.77-2.63-.79l-.31-.13-.14-.3.12-.3c.35-.18.25-.16.56-.16a6.3 6.3 0 012.97.65z" fill="#000"/>
  <path fill-rule="evenodd" clip-rule="evenodd" d="M161.6 75.94c1.86.97 3.65 2.09 5.72 2.58 4.63 1.1 10-.75 13.45-3.9.5 5.15 1.53 10.96 7.1 12.36.36-3.2-.02-7-1.44-9.94-1.63-3.34-5.15-5.8-8.73-6.63a16.5 16.5 0 00-9.22.45c-1.22.46-2.3 1.27-3.56 1.62-.53.15-1.28-.09-1.2-.77.1-.74.48-1.43 1.06-1.91a14.97 14.97 0 016.03-2.7c3.22-.6 8.26.05 11.16 1.67a18.1 18.1 0 016.77 7.4c1.32.06 2.11.29 3.23-.64 1.35-1.12.66-3.47-4.06-4.05.88-.27 1.73-.66 2.5-1.16.82-.4 1.5-1.03 1.99-1.8.84-1.7-.34-3.33-2.14-3.52-1.88-.2-3.97 1.2-5.25 2.48.93-1.45 2.1-2.78 2.63-4.46.67-2.15-.25-3.6-2.4-2.53-1.7.86-2.79 2.78-3.82 4.3a14.6 14.6 0 001.42-3.58c.4-1.92.06-5.92-2.98-5-2.57.8-3.98 3.75-4.8 6.3.21-1.95 1.01-6.55.1-8.44a1.86 1.86 0 00-2.21-1.06c-.29.08-.55.23-.77.44-.31.28-.6.6-.82.96-1.57 2.37-1.59 5.35-1.8 8.09-.44-1.93-1.04-4.1-2.54-5.52-2.28-2.15-4.18.8-4.33 2.99-.15 2.15.69 4.1 1.37 6.1-1.23-1.8-2.12-4.46-4.01-5.71-1.98-1.31-3.56.65-3.54 2.65.02 2.34 1.78 4.7 3.04 6.6-1.5-1.4-3.44-3.38-5.68-3.3-1.55.04-3.18 3.46-.15 6.77 2.08 2.27 4.91 2.3 7.71 2.56" fill="#000"/>
  <path fill-rule="evenodd" clip-rule="evenodd" d="M188.14 60.19c.89 1.33.3 3.16-.46 4.56l.1-.04c5.05-1.97 7.47 3.19 3.95 5.61-.3.23-1.11.74-1.45.93.43.14.85.33 1.25.55 1.93 1.05 2.58 3.21.48 4.6-1.01.65-1.78.59-2.96.51-.45-.03-.45-.01-.67-.11-.44-.3-.08-.22-1.3-2.09a18.31 18.31 0 00-4.77-4.87c-3.43-2.22-9.2-2.69-12.27-1.82-1.55.43-3.01 1.1-4.34 2a2.4 2.4 0 00-1.26 1.76c.07.02.14.03.22.02.88-.3 1.73-.7 2.54-1.16 5.93-2.97 15.89-1.49 19.8 5.92a15.37 15.37 0 011.38 4.26c.34 1.93.42 3.9.23 5.85-.05.43-.03.48-.17.72a.72.72 0 01-.82.26 8.95 8.95 0 01-1.5-.54c-3.74-1.8-4.93-5.35-5.62-9.46a40.9 40.9 0 01-.23-1.81 16.95 16.95 0 01-9.94 3.52c-4.5.03-7.11-2.19-8.95-3.03-.36-.44.18-.15-2.42-.45-2.9-.33-4.98-1.22-6.56-3.71-.2-.32-.36-.65-.5-1-.3-.7-.43-1.46-.4-2.22.06-1.46.9-3.14 2.41-3.18a5.6 5.6 0 013.15 1.02c-.8-1.52-1.41-3.1-1.05-4.78.53-1.95 1.68-2.7 2.79-2.69 1.36.02 2.42 1.11 3.26 2.17-.03-.1-.06-.78-.06-.85-.05-3.67 2.69-6.5 5.27-4.35a7.6 7.6 0 011.88 2.58c.16-1.84.78-3.61 1.8-5.15.88-1.24 2.2-1.88 3.58-1.26 1.97 1 1.82 3.56 1.72 5.76.2-.3.42-.57.65-.84 2.33-2.51 5.43-2.9 6.44.07a7.9 7.9 0 01.3 3.27c.56-.51 1.21-.9 1.92-1.14 1.28-.4 2.14-.04 2.58.6zm-14.45 5.97c2.85.05 6.33.66 8.76 2.06a18.95 18.95 0 016.76 7.25c.44.05.9.05 1.34 0 .47-.12.89-.38 1.2-.76v-.01l.01-.02v-.01l.03-.04v-.02l.01-.02.03-.09v-.01l.01-.02v-.05l.01-.1V74.22l-.02-.1v-.03l-.01-.02v-.01l-.02-.05c-.02-.1-.24-.66-1.44-1.2a9.37 9.37 0 00-2.41-.6.75.75 0 01-.69-.43.72.72 0 01.23-.89c.22-.14.55-.19 1.27-.5.74-.32 2.46-1.3 2.87-1.98a1.66 1.66 0 00.23-1.55 1.64 1.64 0 00-1.17-1.04 3.9 3.9 0 00-2.93.5 9.5 9.5 0 00-2.23 1.67.72.72 0 01-.91.09.72.72 0 01-.27-.89c.56-1.05 3.21-3.99 2.74-5.9l-.02-.01v-.04h-.01v-.02h-.01v-.04l-.11-.2v-.01h-.01l-.01-.01v-.01l-.01-.01h-.01v-.01h-.01l-.02-.01-.02-.01a.69.69 0 00-.27-.05c-.77.11-1.48.47-2.02 1.02-2.4 2.4-2.23 3.92-3.37 3.6a.73.73 0 01-.46-.77c.1-.48 1.33-2.36 1.51-4.11.11-1.1.03-2.87-.83-3.57-.7-.56-1.97.08-2.66.63-1.29.95-2.21 2.9-2.75 4.43-.27.77-.23.89-.63 1.1a.74.74 0 01-.5.02c-1.12-.46.04-1.68.02-6.86 0-.9-.15-2.2-.96-2.58-.2-.08-.4-.11-.6-.08-.5.15-.93.48-1.2.93-1.52 2.25-1.6 4.65-1.8 7.56-.03.46-.02.63-.3.9a.7.7 0 01-.88-.01c-.45-.43-.17-.83-1.09-3.24-.04-.09-.16-.41-.28-.62-.4-.86-1.37-2.26-2.33-2.28a1.69 1.69 0 00-1.25.84c-1.68 2.44-.46 5.2.47 8a.66.66 0 01-.56.95.65.65 0 01-.4-.12c-.86-.75-2.42-5.32-4.48-5.97a1.2 1.2 0 00-1.14.18c-3.02 2.74 1.94 7.95 2.05 8.76a.56.56 0 01-.23.5.57.57 0 01-.56.06c-.59-.31-2.87-3.27-5.34-3.28a.82.82 0 00-.5.13c-1.63 1.24-1.07 4.46 1.06 6.23 1.75 1.62 4.35 1.76 6.67 1.96.33.03.2 0 .57.19l.07.21c2.42 1.3 4.44 2.45 6.9 2.69 2.5.2 5.01-.23 7.29-1.28 1.58-.7 3.03-1.65 4.31-2.81a.62.62 0 01.78-.05c.45.38.1.44.7 3.7.24 1.49.67 2.94 1.3 4.32.98 1.94 2.03 3.12 4.1 3.92.16-2.28-.09-4.57-.72-6.77-.31-1.1-.8-2.16-1.43-3.12-2.5-3.57-6.94-5.84-12.57-5.43-3.9.3-4.93 1.54-6.88 2.28a2.2 2.2 0 01-1.8.08 1.37 1.37 0 01-.84-1.15c0-.57.15-1.13.43-1.62.45-.77 1.1-1.4 1.9-1.8a16.7 16.7 0 014.02-1.8c1.4-.42 2.86-.61 4.32-.58z" fill="#000"/>
  <path fill-rule="evenodd" clip-rule="evenodd" d="M154.85 118.46c.2.42.13.14.22 1.06.2 1.98.3 3.97.29 5.97.15 7.8.22 7.2.27 12.71-.06 5.29 0 4.73-.51 5l-.31-.14c-.2-.43-.14-.19-.22-1.1-.46-5.6-.41-6.35-.52-9.7-.23-9.63-.24-9.45-.13-11.24.05-.9.16-2.18.17-2.25l.15-.31.3-.13.29.13zM196.4 116.63l.3.14.13.32c.31 3.02.2 15.26.18 15.93a60.07 60.07 0 01-.71 8.88c-.17 1.17-.14.97-.34 1.3l-.32.1h-.01c-.58-.34-.34.16-.2-4.7.39-13.92-.13-15.24.45-20.94.08-.74.02-.51.22-.9l.3-.13z" fill="#FF7979"/>
  <path fill-rule="evenodd" clip-rule="evenodd" d="M175.74 138.46c.4.77.23.3.4 2.26.1.62.04 1.25-.15 1.84l-.18.36-.25.15c-.33-.16-.22-.06-.47-.46-.2-.44-.32-.9-.36-1.38-.01-.08-.16-1.9-.13-2.14.03-.15.08-.29.15-.42.13-.26 0-.1.53-.65l.46.44zM119.8 135.63c1.57 1.71.22.2 2.65 3.37 3.75 4.32 3.55 3.87 3.37 4.48l-.3.13-.35-.1c.28 0-1.6-.52-4.64-4.62-.43-.54-.81-1.13-1.12-1.74a7.71 7.71 0 01-.38-1.09c.02-.45-.06-.25.17-.6l.3-.02.3.19zM122.99 130.28c.37.42.71.87 1.03 1.34 1.88 3.38 2.24 3.73 2.97 4.94 1.3 2.36 1.08 1.8 1.2 2.34l-.16.28-.31.07-.33-.17c-.28-.29-.97-1-1.35-1.5a46.7 46.7 0 01-3.31-5.3c-.22-.52-.4-1.05-.52-1.6.02-.43-.05-.28.19-.59h.3l.29.19zM131.32 132.61l-.34-.15c-.54-.48-1.05-1-1.52-1.55a19.22 19.22 0 01-2.27-3.92 4.65 4.65 0 01-.52-2.31c0-.19-.02-.08.11-.49l.23-.19.29.07c.28.31.23.25.3.39.05.08.56 1 .6 1.17 1 2.65 1.65 3.15 3.12 5.68.43.72.33.44.44.92l-.13.3-.31.08zM137.46 124.2l.22.24c.01 1.56-4.33 9.72-3.82 22.38.04 1.95.3 4.8.4 5.9.8 7.76 1.1 7.26.93 8.05l-.28.2-.33-.08-.2-.28a77.7 77.7 0 01-1.78-10.31c-.32-4-.26-8 .18-12 .18-1.77.7-4.3.71-4.37a33.58 33.58 0 012.71-8.17c.74-1.53.64-1.31.93-1.57l.33.01z" fill="#000"/>
  <path fill-rule="evenodd" clip-rule="evenodd" d="M118.43 145.38l.23.24c.02 1.11-.19-.33-1.2 5.24-.87 4.75-3.2 11.7-1.54 18.82.48 2.11 1.4 4.1 2.73 5.82a12.26 12.26 0 005.22 3.82c1.8.7 3.73.97 5.65.81 1.5-.17 2.98-.56 4.38-1.15 4.1-1.66 6.65-5.36 8.77-9.17 2.18-4 1.56-3.3 2.08-3.75l.34.01.23.26c-.02.45.03.23-.25.85-1.38 3.1-3.36 7.18-5.78 9.64a15.1 15.1 0 01-11.8 4.78 14.04 14.04 0 01-12.35-9.5 24.32 24.32 0 01-1.16-10.1c.6-6.05 1.32-7.28 2.02-10.26.17-.67.92-4.28 1.85-6.12l.25-.24h.33zM151.35 121.4l.16.3-.1.32c-.35.19-.27.17-.47.2-2.74.39-5.75 2.38-7.95 4.08-3.78 2.92-6.08 6.16-8.85 9.95l-.29.2-.32-.03-.2-.26c.03-.42.01-.32.07-.46 1.01-2.3 2.41-4.42 4.14-6.24 1.75-2 3.73-3.77 5.9-5.3 1.23-.9 2.57-1.61 3.99-2.14a11.2 11.2 0 013.59-.72l.33.1zM198.94 122.45c4.27 1.16 8.86 2.99 12.32 5.85 2.9 2.33 4.9 4.78 6.96 9.4 4.07 8.68 5.55 17.53 6.26 27.08.12 2.09.54 4.36.9 7.49a24 24 0 01.13 4.47l-.15.3-.33.12-.3-.15-.12-.32c.13-3.04-.72-6.57-1.09-9.03-.67-4.06-.73-9.2-2.37-16.6a58.06 58.06 0 00-3.2-10.42c-1.2-2.8-2.87-6.44-4.94-8.7-.58-.65-1.2-1.26-1.86-1.84-3.26-2.93-8.07-5.26-12.48-6.8l-.25-.22-.04-.34.22-.25.34-.04zM205.85 180.24c-.29-.33-.21-.16-.72-1.3-.32-.75-.22-.45-1.31-4.22a3.56 3.56 0 01-.16-1.57l.31-.55.55.3c.21.32.4.65.56 1 .04.1 1.07 3.58 1.16 4.03.06.23.16 1 .17 1.1.07.84.08.57-.01 1.06l-.24.22-.31-.07z" fill="#000"/>
  <path fill-rule="evenodd" clip-rule="evenodd" d="M148.28 179.69c-1.38-11.74-3.84-23.95 1.82-34.98 5.7-1.31 40.24-1.46 51.46-.51 3.94 12 1.26 24.23-1.06 36.26" fill="#FF7979"/>
  <path fill-rule="evenodd" clip-rule="evenodd" d="M200.93 143.43c.82.05.82.05 1.03.17.3.23.29.39.47.95 3.6 11.77 1.05 23.35-1.38 35.44-.14.67-.06.49-.3.85l-.34.07-.29-.19c-.1-.48-.11-.12.14-1.47 2.09-11.47 1.76-10.76 1.82-10.76 1.18-8.62 1.34-15.51-1.06-23.6l-2.7-.18a505.53 505.53 0 00-30.95-.3c-2.19.05-14.7.34-16.78.94a31.8 31.8 0 00-3.04 10.62c-1.13 10.26 1.5 22.62 1.08 24l-.3.16-.32-.09-.17-.3c-1.66-11.93-4.16-24.25 1.49-35.09.34-.7.37-.63 2.07-.89 10.36-1.18 40.58-1.1 49.53-.33z" fill="#FF7979"/>
  <path fill-rule="evenodd" clip-rule="evenodd" d="M114.13 70.8c.07.04 0 .04.35-.06 2.48.22 5.18 3.37 4.57 5.74l-.01.04c-.88 3.4-5.56 2.34-7.4-.7a4.6 4.6 0 01-.7-1.92c-.06-.49 0-.98.19-1.44a2.56 2.56 0 013-1.66zm-.11.88c-.26-.01-.52.05-.76.16a1.73 1.73 0 00-.88 1.48c-.16 1.07.86 2.95 3 3.72.42.15.87.2 1.3.12a1.36 1.36 0 00.95-1 2 2 0 00-.07-1.16 5.95 5.95 0 00-.58-1.23 4.48 4.48 0 00-2.7-2.18l-.26.09zM120.87 67.11c1.27.03 2.6 1.53 2.53 3.1-.08 1.9-2.63 3.01-4.26.6a2.29 2.29 0 01-.17-2.38c.07-.14.16-.27.27-.38.54-.5.38-.24.5-.5a1.59 1.59 0 011.13-.44zm-.45 1.1l-.04.09c-.11.13-.2.29-.24.46v.03a.86.86 0 00-.03.15V69.26l.01.03v.05l.03.12.01.08v.02l.01.03v.03h.01v.02l.01.02v.01c.28.76.81 1.08 1.17 1.06a.75.75 0 00.4-.16l.03-.02a.46.46 0 00.04-.05v-.01l.01-.02.03-.05v-.01h.01v-.02l.02-.05V70.28l.01-.01V69.94c-.08-.72-.78-1.96-1.48-1.73zM137.71 70.12c.35.02.7.07 1.03.16a3.2 3.2 0 012.32 1.87c.7 1.54-.39 3.02-2.51 2.64a5.18 5.18 0 01-2.37-1.03c-1.56-1.4-.78-3.65 1.53-3.64zm.35 1.2c-.25.04-.5.12-.74.24l-.13.07c-.26.14-.25.16-.31.23l-.02.03v.02h-.02v.25l.01.02v.01l.02.08v.01l.02.03v.03h.01v.03l.02.03.04.06.02.03.01.02.01.01.02.02v.01c.6.63 2.19 1.04 2.7.74l.02-.01v-.01h.01l.01-.01.03-.03.01-.01V73.16l.01-.01v-.1c.01-.2-.02-.39-.1-.56-.19-.5-.54-.94-1-1.22h-.01c-.21-.02-.43 0-.64.04z" fill="#010000"/>
  <path fill-rule="evenodd" clip-rule="evenodd" d="M143.48 113.7a7.31 7.31 0 01-3.1-2.04c-2.1 3.28-4.08 5.97-6.66 9.6-.57.8-1.84 2.78-1.2 3.83 1.08 1.75 3.11-.94 3.84-1.96 2.81-3.89 4.07-5.57 7.13-9.48" fill="#000"/>
  <path fill-rule="evenodd" clip-rule="evenodd" d="M140.49 111.02c.3.08.31.15.5.38.68.77 1.52 1.39 2.46 1.8l.33.08.16.3c-.06.22-.05.16-.04.26l-.04.04-.01.05c-6.65 9.17-6.94 9.88-8.12 11.13a3.7 3.7 0 01-2.21 1.33 1.71 1.71 0 01-1.54-.81 2.48 2.48 0 01-.18-2.24c.48-1.57 1.71-3.02 4.43-6.85 3.9-5.6 3.64-5.53 4.26-5.47zm-7.26 12.61c-.12.3-.17.62-.14.94v.01c0 .03.01.04.03.08v.03a1.2 1.2 0 00.15.19h.02l.02.01.01.02h.14l.01-.01h.04l.03-.02.05-.01c.07-.03.13-.06.18-.1.98-.58 2.04-2.18 2.73-3.13 1.83-2.54 4.27-5.48 6.16-7.76a7.66 7.66 0 01-2.16-1.22c-2.88 4.78-6.74 9.31-7.27 10.97z" fill="#010000"/>
  <path fill-rule="evenodd" clip-rule="evenodd" d="M153.56 75.66a20.08 20.08 0 0119.54 20.1c0 1.78-.22 3.55-.66 5.27v.01a20.68 20.68 0 01-40.7-4.75 20.15 20.15 0 015.5-14.24 20.28 20.28 0 0116.32-6.4zm-3.2 1.62a18.71 18.71 0 00-14.6 10.75 18.48 18.48 0 00-1.6 9.32 18.3 18.3 0 1034.44-9.98 18.93 18.93 0 00-8.2-8.22 16.65 16.65 0 00-10.03-1.87zm3.2-1.62c-.28 0-.28 0 0 0z" fill="#010000"/>
  <path d="M158.7 93.78c.1-1.96-1.03-3.6-2.5-3.66-1.46-.07-2.72 1.47-2.8 3.42-.1 1.96 1.03 3.6 2.5 3.66 1.46.06 2.72-1.47 2.8-3.42z" fill="#000"/>
  <path fill-rule="evenodd" clip-rule="evenodd" d="M156.14 89.36c.45-.02.9.04 1.31.18 1.49.57 2.55 2.09 2.46 4.17a6 6 0 01-.3 1.7 4.29 4.29 0 01-2.8 2.89 3.32 3.32 0 01-3.14-.84 4.55 4.55 0 01-1.12-1.71c-1.13-2.93.7-6.52 3.6-6.4zm.04 1.5c-1.44.26-1.84 2.29-1.49 3.7a1.82 1.82 0 001.13 1.42h.07l.02.01H156.07a1.76 1.76 0 001.18-1.13c.7-1.53-.14-3.73-1.07-4zM166.4 89.47l.09.33a33.74 33.74 0 01-.34 3.98c-.26 2.08-.25 3.14-.86 8.27a7.1 7.1 0 00-.23 1.73v.05l.05.17v.02h.01v.02h.01c.08.14.32.25.7.33.23.04.1-.02.48.2l.12.3-.16.3c-.36.14-.3.14-.53.13a1.88 1.88 0 01-1.66-.8c-.15-.28-.24-.6-.25-.92-.08-1.75.48-5.5.6-7.1.1-.81.01-.81.4-3.8.16-1.05.42-2.07.79-3.05l.21-.27.3-.08c.02 0 .26.18.26.19zM150.1 80.35c.7 0 1.4.18 2.03.53a2.17 2.17 0 011.05 1.51c.4 2.63-3.97 5.3-5.89 6.95-1.1.97-2.07 1.88-3.53 2.08-2.02.11-2.67-1.87-2.35-3.86.1-.54.28-1.06.54-1.54a11.04 11.04 0 015.63-5.12c.92-.37.78-.32 1.12-.3l.15-.11c.4-.1.82-.15 1.24-.14zm-1.07 1.03l-.2-.05c-1.6.87-3.02 2.02-4.22 3.39a9.29 9.29 0 00-1.58 2.4 3.33 3.33 0 00.02 2.58v.01l.02.03.02.02v.02l.02.01.01.01v.01l.02.01.02.03.02.01h.01v.01h.02l.02.02.06.04h.04l.02.02h.08l.13.01H143.62c.3-.05.6-.14.86-.3.45-.25.87-.55 1.25-.9 3.1-2.65 4.66-3.44 5.84-5.15.1-.15.19-.3.26-.47.05-.12.1-.25.11-.39v-.28l-.02-.1-.01-.03v-.02h-.01v-.02l-.02-.02v-.01a1.1 1.1 0 00-.38-.45 2.4 2.4 0 00-.22-.14h-.02l-.01-.02a3.8 3.8 0 00-2.22-.28zM141.35 95.27c.34.2.28.15.32.25.16-.01.06-.02.23.03a2.73 2.73 0 011.54 1.24c.24.4.4.84.45 1.3.12.76.03 1.55-.26 2.27a3.14 3.14 0 01-4.84 1.53c-1.3-.87-1.62-2.73-1.1-4.19a3.45 3.45 0 012.19-2.36c.47-.15.98-.18 1.47-.07zm-.11.88c-.3.02-.57.1-.83.25-.38.24-.7.56-.93.94a2.8 2.8 0 00-.5 1.14c-.21.9.04 2 .88 2.36.4.2.88.25 1.31.13a2 2 0 001.13-1.18 3.53 3.53 0 00.31-1.5c0-.35-.07-.7-.21-1.02-.18-.4-.5-.73-.91-.91l-.22-.21h-.03zM52.9 84.9c1.8.06 3.56.42 5.24 1.07 2.28.82 1.88.64 2.21.94l.04.32-.21.25-.34.05a34.1 34.1 0 00-6.5-1.16c-.6-.07-1.23.01-1.79.25h-.01c-.42.25-.76.6-1 1.02-.54.97-.92 2.01-1.14 3.1a28.46 28.46 0 00-.61 8.46c.12 1.7.4 3.8 1.7 4.88 1.6 1.32 4.82.96 6.9.63 1.76-.25 1.27-.29 1.84-.16l.19.28-.07.33-.29.2c-1.5.38-3.04.66-4.59.84-2.02.22-4.44-.18-5.65-1.8-2.14-2.57-1.7-10.15-.95-13.44.44-2 1.06-4.36 2.77-5.49.3-.2.63-.34.98-.43.42-.1.85-.15 1.28-.13z" fill="#010000"/>
  <path fill-rule="evenodd" clip-rule="evenodd" d="M53.26 87.25c.5.52.9 1.13 1.16 1.8.55 1.42.61 3.6.62 5.13a25.9 25.9 0 01-.74 5.8c-.2.79-.14.52-.21.78-.38 1.11-.74 2.24-1.75 2.95l-.33.09-.3-.16-.08-.32.16-.31c.57-.52.88-1.8 1.01-2.57.58-3.14 1.02-5.39.7-8.75a22.9 22.9 0 00-.36-2.25c-.1-.57-.3-1.13-.58-1.65l-.06-.34.14-.28.3-.07.32.15z" fill="#010000"/>
  <path fill-rule="evenodd" clip-rule="evenodd" d="M53.8 89.3c-1.65 2.5-1.9 5.05-2.03 7.7-.03.56-.02 1.13.03 1.68.05.52.06 2.13.56 2.5.07.06.38-.23.44-.3 1.28-1.37 1.36-6.66 1.37-8.54-.01-.35.01-2.6-.75-2.3" fill="#000"/>
  <path fill-rule="evenodd" clip-rule="evenodd" d="M54.03 88.93l.18.27c-.06.45-.02.27-.15.54.57.45.68 2.03.7 2.75.14 2.23.03 6.6-1.13 8.5-.4.61-1.08 1.2-1.7.78-.58-.44-.73-1.42-.8-2.2-.07-.78-.1-1.55-.1-2.33.15-3.3.38-5.57 2.4-8.18l.29-.19.31.06zm-1.45 6.68c-.08.8-.11 1.61-.1 2.42 0 .1.1 1.6.14 1.78.75-1.96 1.04-7.7.93-8.87a19.2 19.2 0 00-.97 4.67zM72.03 83.87c.03 0 11.94 3.05 12.3 3.16 3.33.9 4.09 1.12 4.9 1.51.65.3 1.22.74 1.65 1.3.9 1.15 1.16 2.9 1.23 4.35.04.81-.02 1.63-.19 2.43-.25 1-.56 1.98-.92 2.94l-.23.26-.33.03-.26-.21c-.07-.62-.1.12.56-2.57.1-.47.17-.94.2-1.42.06-1.48-.28-4.12-1.27-5.07-.7-1.15-7.34-2.54-14.37-4.36-2.58-.67-6.43-1.84-9.08-1.62-.53.05-1.03.3-1.4.68-.32.32-.62.66-.9 1.02-.66.87-1.21 1.82-1.64 2.82-.84 2-1.34 4.13-1.5 6.3a19 19 0 00.46 6.14c.2.86.58 1.66 1.12 2.35 1.8 2.18 6.47 1.6 9.27 1.32l.33.1.18.3-.1.33-.3.17c-.3-.01-4.04.76-6.98.3-3.94-.64-4.8-3.57-5.36-7.43a20.7 20.7 0 012.39-12.12 10.5 10.5 0 012.7-3.19c.36-.2.73-.36 1.13-.45 1.8-.37 4 .11 6.41.63z" fill="#010000"/>
  <path fill-rule="evenodd" clip-rule="evenodd" d="M58.85 92.4h.02l.02.01v-.01l.04.01v-.01h.06v-.01H59v-.01h.02v-.02h.02v-.01h.02v-.03-.02l.01.02h.01l.02.01c.18.06.35.1.53.14.15.06.17.1.28.16.31.25-.06-.11.67.63-.56.42-.6.5-1.09.62a2.16 2.16 0 01-1.62-.73.72.72 0 01.04-.71l.88-.07.05.04zM60.15 98.52c.2.1 0-.06.58.53-.25.27-.55.5-.89.65l-.09.04a.65.65 0 00-.08.03c-.24.03-.47.1-.67.22h-.01l-.01.02h-.02v.01l-.03.01v.01h-.01l-.02.02-.03.02-.03.03h-.04l-.25.01c-.16 0 .06.12-.83-.5.03-.53.1-.56.38-.78.22-.16.47-.28.73-.36a1.49 1.49 0 011.32.04zM67.14 85.81l.02.03a6.91 6.91 0 011.48 2.47c.17.62.14.4.14.47l.1.41a20.71 20.71 0 01-.92 11.29c-.58 1.39-1.3 3.32-2.8 3.46-.4-.01-.24.05-.66-.19l-.1-.32.17-.3.33-.1H65.02l.03-.01h.01l.09-.03.02-.01h.02l.03-.02c.12-.04.36-.28.62-.74.3-.65.56-1.31.74-2a20.37 20.37 0 00.7-11.51 8.99 8.99 0 00-.84-2.36l-.07-.34.15-.28.31-.07.31.15z" fill="#010000"/>
  <path fill-rule="evenodd" clip-rule="evenodd" d="M67.49 87.89c-1.85.91-2.6 3-3.03 4.87-.3 1.3-.6 4.65-.35 5.83.24 1.2 1.13 3.61 2.15 2.77 2-1.65 2.06-7.56 1.97-10.15-.04-1.02-.1-2.34-.87-3.13" fill="#000"/>
  <path fill-rule="evenodd" clip-rule="evenodd" d="M67.88 87.68v.01l.02.31c.44.6.71 1.3.8 2.02.1.93.18 1.86.2 2.79.1 2.13-.1 4.27-.63 6.34-.35 1.27-1.22 3.17-2.51 3.11-1.1-.05-1.76-1.52-2.1-2.57-.37-1.3-.47-1.65-.28-4.48.03-.68.22-1.81.24-2.01.48-2.4 1.39-4.7 3.63-5.7.06-.02-.01 0 .38-.02l.25.2zm-2.83 5.78a24.63 24.63 0 00-.3 3.06c-.02.6 0 1.2.05 1.81.15.88.5 1.72 1.01 2.45h.01c.1-.08.18-.17.26-.27 1.48-1.69 1.76-9.46 1.45-10.99a3.1 3.1 0 00-.33-.9c-1.27 1.18-1.76 2.99-2.15 4.84z" fill="#010000"/>
  <path fill-rule="evenodd" clip-rule="evenodd" d="M67.16 90.96c.02.39-.05.78-.21 1.14-.84 2.26-.34 1.6-1.22 3.89l-.22.3-.28.1-.26-.16a1.46 1.46 0 01-.16-.7 6.02 6.02 0 010-1.15c.17-.96.44-1.9.79-2.81.1-.32.3-.6.55-.82.27-.25.1-.16.81-.39l.2.6zM53.68 94.64c-.01.48-.13.95-.33 1.39-.14.31 0 .14-.59.68-.46-.6-.4-.46-.46-.77a4.96 4.96 0 01.02-2.16c.08-.79.08-.8.14-.94.09-.16.19-.3.3-.45l.49-.39c.74.94.63.75.43 2.64z" fill="#fff"/>
  <path fill-rule="evenodd" clip-rule="evenodd" d="M92.39 94.46c.47-.03.95.12 1.33.41 1.03.76 1.21 2.37 1.04 3.62-.3 2.06-1.64 3.07-3.14 3a2.45 2.45 0 01-.76-.19l-.26-.24-.04-.32.22-.24c.65-.1.67 0 1.03-.14.2-.06.4-.17.56-.31.34-.29.61-.66.78-1.07.29-.7.33-2.38-.2-2.85v-.01l-.02-.02-.09-.08a1.16 1.16 0 01-.1-.07h-.02a2.28 2.28 0 00-.26-.16 7.92 7.92 0 00-.91-.34l-.3-.2-.12-.27.14-.26.32-.16h.01c.26-.06.52-.1.79-.1zM117.43 122.22c.1.56.23.34-1.84 2.11a109.96 109.96 0 01-8.36 6.13l-.33.1-.3-.1-.1-.28.1-.34c.06-.08-.01-.01.53-.7.6-.7 1.32-1.3 2.11-1.8 3.4-2.41 3.75-3.07 7.54-5.22l.36-.06.29.16zM172.72 167.26c.34.19.66.4.96.66 1.34 1.53 2.32 2.12 3.49 3.3.5.5.28.18.57.67l-.03.3-.26.18-.38-.04a8.16 8.16 0 01-1.75-.89 21.25 21.25 0 01-2.2-2c-.5-.43-.86-.98-1.06-1.6v-.01l.04-.63.62.06z" fill="#000"/>
</svg>
