<svg fill="none" xmlns="http://www.w3.org/2000/svg" viewBox="0 0 265 190">
  <path fill-rule="evenodd" clip-rule="evenodd" d="M83 77c-.26-.62-1.32-.24-1.1.38a137.02 137.02 0 016.74 28.05c.11.77 1.26.5 1.17-.24C88.96 98.26 85.9 83.7 83 77zm22.82 81.91c-2.13-.6-3.5-1-5.67-1.46a.61.61 0 00-.75.43.61.61 0 00.4.75c1.88.65 4.76 1.02 4.94 1.44.07.16-4.35 15.5-5.11 16.69-.64 1-1.67.16-2.52-.2-.95-.4-1.65-.56-2.6-.96-.9-.37-1.33 1.1-.43 1.46 1.07.44 1.9.63 2.98 1.06 1.8.71 3.1 1.36 3.9-.98 1.91-5.67 3.57-11.63 5.34-17.36a.71.71 0 00-.48-.87zM66.3 142.68c10.53 5.43 21.91 8.93 33.22 12.65-2.67 4.36-8.06 16.71-8.06 27.34-12.55-3.23-55.63-22.2-59.7-32.73-4.09-10.54-.68-54.92 6.12-64.27 4.66-6.41 17.76-12.5 27.03-15.22 7.37 7.92 20.74 33.92 25.62 45.73-.08 9.98.02 19.97.77 29.92.06.73 1.11.57 1.12-.13.02-10.68-.3-21.37-.26-32.07.05-14.51 2.58-28.34 1.08-43.08a107.9 107.9 0 0118.66 5.07c0 5.65-.74 62.21-.84 78.41-13.14-.7-30.57-6.88-42.48-12.58-5.52-2.64-9.58-4.7-9.06-11.31.65-8.42.57-16.91 1.78-25.27a.58.58 0 00-1.15-.17c-1.6 7.81-2.01 18.67-2.23 26.7-.14 5.41 3.65 8.57 8.38 11zm27-23.07a.62.62 0 001.13.53 121.57 121.57 0 006.84-15.73c1.63-4.5 3-6.7-.79-10.47-1.63-1.62-2-2.05-.08-2.55a11 11 0 003.28-1.38c1.22-.94.9-2.34.37-3.58a72.97 72.97 0 00-5.77-11.03c-.41-.64-1.29.01-.95.65 1.23 2.31 5.4 9.57 5.8 11.83.26 1.52-3.02 2.11-4.27 2.57-2.64.97-1.26 2.64.17 4.02 3.69 3.54 2.71 4.57 1.12 8.99-2 5.56-4.37 10.78-6.84 16.15zm-30.8-42.78c.21-.66 1.27-.3 1.1.37-.54 2.33-1.62 6.87-1.38 9.23.12 1.18.99 1.65 1.95 2 1.66.6 3.37 1.07 5.04 1.6 3.98 1.3 2.97 3.11 2.72 6.58-.4 5.44-.79 5.46 3.44 9.03 4.06 3.43 8.24 7.43 12.44 10.57.68.5-.16 1.49-.82 1-4.49-3.27-10.18-8.3-14.28-12.05-3.01-2.76-2.33-5.35-2.07-9 .18-2.42 1.07-3.85-1.66-4.75-1.7-.56-3.4-1.05-5.08-1.64-1.18-.41-2.38-1.05-2.8-2.36-.71-2.18.7-8.45 1.4-10.58z" fill="#F97D7D"/>
  <path fill-rule="evenodd" clip-rule="evenodd" d="M71.24 33.21c.56.42 1.14-.27 1.37-.71 1.77-3.38 2.96-8.38 2.2-12.16-.13-.62-1.2-.66-1.18.04.07 4.34-.1 7.4-2.17 11.36-2.14-1.9-5.9-1.91-6.47 1.23-.5 2.8.85 7.36 2.88 9.37a2.83 2.83 0 003.05.78c.24 2 .5 3.99.76 6 .68 5.15 1.37 10.37 1.58 15.85a.61.61 0 001.2-.04c.38-5.47-.81-12.73-1.83-18.87-.23-1.43-.46-2.8-.65-4.09-.11-.7-.76-.97-1.23-.59-1.12.92-2.06-.37-2.61-1.3-.94-1.56-2.15-5.12-1.56-6.95.73-2.25 3.43-.85 4.66.08zm18.6 34.66c.12 1.32.32 9.38-.8 9.7-.65.2-2.07-.75-3.61-1.77-1.43-.95-2.97-1.96-4.08-2.2-1.1.86-6.69 5.16-8.07 4.14-1.7-1.24-2.15-9.1-2.05-10.86a.73.73 0 01.99-.6c3.14.92 6.14 2.3 8.88 4.07a28.91 28.91 0 005.34-3.08c1.32-.95 3.17-2.3 3.41.6zm-4.4-10.42c5.27 1.37 10.4.1 12.53-5.44 3.34-8.7.15-26.5-4.05-35.16-.35-.7-1.33-.14-1.06.57 3.75 9.65 6.59 21.38 4.6 31.66-1.3 6.83-5.95 8.81-12.26 7a47.73 47.73 0 01-3.69-1.28l-.8-.3c-.68-.26-.96.79-.32 1.07 1.24.58 2.5 1.08 3.8 1.52.2 1.53.18 4.16.16 6.13 0 1.02-.02 1.87.01 2.3.04.7 1.08.66 1.2 0 .24-1.38.04-6.75-.12-8.07zm-1.4-49.44c-.68.03-.64 1.1.01 1.18 3.17.4 7.98 1.3 7.53 5.62a.56.56 0 001.12.14c1-4.7-4.73-7.1-8.65-6.94zm3.66 7.57a.57.57 0 01-.99.55 12.6 12.6 0 00-11.26-5.54c-3.32.13-11.25 2.15-11.89 6.05-.12.76-1.44.58-1.34-.19.56-4.63 8.84-6.93 12.7-7.2 4.89-.34 10.5 1.72 12.78 6.33zm-8.51 2.06c.56.35.04 1.32-.55 1.03-3.6-1.8-8.1-2.56-11.83-.6-4.43 2.32-3.44 7.11-1.08 10.6a.65.65 0 01-1 .8c-3-3.54-3.46-9.51.86-12.24 3.94-2.49 9.75-2.06 13.6.4zm15.77 14.05c.61.44.3.9-.25.95a7.7 7.7 0 00-2.04.13c-.57.14-1-.45-.3-.97a2.67 2.67 0 012.6-.11zm-9.07.52c1.19.3 1.23 1.31-.07 1.22a7.36 7.36 0 00-2.77.47c-.54.17-.83-.48-.34-.92a3.93 3.93 0 013.18-.77zm9.28-4.7c.36.58-.1 1.06-.63.69-1.43-1.02-2.45-.72-3.47.36a.6.6 0 01-.95-.73c.88-1.83 4.03-1.98 5.05-.32zm-8.87.48c.76.47-.03 1.62-.77 1.14a3.54 3.54 0 00-4.87 1.04.59.59 0 01-.97-.66c1.28-2.37 4.42-2.9 6.62-1.52zm8.96 18.19c1.3 1.06.95 1.41-.54 1.04a16.9 16.9 0 00-2.83-.7.58.58 0 01-.06-1.14c.58-.2 1.21-.25 1.82-.11.58.2 1.13.51 1.6.91zm-5.44-.65c.46.2.63.79.19 1.07-.87.4-1.77.72-2.69.98-.63.24-1.17.48-1.75.75l-.75.33c-1.06.47-1.9.18-.67-.75.28-.22.55-.46.82-.7.55-.49 1.12-.99 1.77-1.27.8-.34 2.4-.73 3.08-.41zm.65-14.4a27.9 27.9 0 012.52 11.32c-.01 2.75-1.62 2.4-3.53 1.72a8.23 8.23 0 01-2.31-1.1.59.59 0 01.51-1c.4.12.8.3 1.18.47.27.12.53.24.8.34 1.16.45 2.07.62 2.06-.38-.04-3.79-.82-7.54-2.3-11.03-.28-.68.78-.97 1.07-.33zm59.21 130.32c.85-1.01 1.45.08.97.7-1.5 1.96-5.42 2.32-8.16 2.58l-1.15.11c-6.88.76-9.68 2.23-14.06 4.53-1.4.74-2.96 1.56-4.86 2.46a32.9 32.9 0 01-16.88 3.27c-2.2-.13-1.17-1.5.07-1.44 4.99.24 10.4-.42 17.56-4.03l2.06-1.04c5.61-2.86 8.47-4.32 15.7-5.13.46-.05 1.02-.1 1.64-.14 2.51-.17 5.89-.4 7.11-1.87zm47.94-121.28a.65.65 0 00-.66 1.08l.46.6c.79 1.02 1.35 1.74 1.53 3.34.15 1.38 1.29 1.68 1.59-.02.3-1.77-1.24-4.46-2.92-5zm-6.03-1.15c2.84-.37 5.31 4.65 5.2 7.16-.1 1.95-1.34 2.45-1.71.12-.28-1.79-1.4-5.78-3.49-6.05a.62.62 0 010-1.23zm.24 7.26c.02-3.72-2.68-8.6-6.98-7.53-.51.13-.65 1.1.01 1.19 3.9.53 4.56 3.36 5.1 6.68.45 2.73 1.85 2.4 1.87-.34zm-13.32-5.9c3.7-3.05 8.89 1.89 7.9 6.6-.22 1.04-1.35.43-1.43-.45-.2-2.33-1.76-6.55-5.86-5.13-.55.2-1.08-.62-.6-1.01zm54.8 60.12c-.07-5.61 0-11.33.09-17.05.11-8.15.23-16.31-.1-24.2-.37-9.17-.6-14.54-10.87-15.81-4.42-.55-9.75-.39-14.61-.24-1.88.06-3.69.11-5.34.12a.62.62 0 00-.01 1.23c3 .15 6.22.19 9.4.22 3.4.03 6.74.07 9.68.24 9.05.55 10.34 5.28 10.36 15.17 0 5.99-.06 11.97-.13 17.95-.08 7.57-.17 15.13-.1 22.7.05 5.46.25 11.15.45 16.88.31 8.98.63 18.07.38 26.51-.38 13-6.21 13.13-15 13.32-.45 0-.9.02-1.34.03-18.06.45-36.8.4-55.33.37-11-.03-21.9-.05-32.58.03-.65 0-.65 1.16 0 1.17 5.98.06 12.14.14 18.4.23 22.56.3 46.5.62 68.13.02l1.6-.04c11.68-.3 16.92-.44 17.81-14.7.55-8.68-.08-23.4-.53-33.93-.18-4.37-.34-8.03-.37-10.22zM180.3 43.24l-10.76-.15c-12.8-.19-25.93-.39-38.4.05-7.8.27-17.02 3.14-17.02 12.46l-.06 30.3c-.04 14.92-.08 29.83-.05 44.74 0 1.68-.04 3.48-.08 5.34-.09 4.57-.18 9.45.28 13.4.3 2.57 1.14 4.36 3.04 5.84.54.43 1.62-.29.9-1.01-1.77-1.75-2.26-3.55-2.42-5.8-.29-4.18-.2-8.85-.1-13.38.04-2.17.09-4.3.09-6.34 0-12.96-.02-25.91-.04-38.87l-.03-34.16c0-9.13 9.74-10.83 16.95-10.92 8.76-.1 17.54-.03 26.31.04 7.09.06 14.18.12 21.26.08 1.03 0 1.18-1.6.13-1.62zm6.12 86.15a2.02 2.02 0 012.08 1.36c.1.28.13.58.1.87-.22 1.95-2.48 1.94-3.39.66a1.8 1.8 0 011.22-2.9v.01zm-7.58.13a1.75 1.75 0 011.02 2.8c-.97 1.31-3.36.6-3.45-.77a2.07 2.07 0 012.43-2.03zm-6.68 1.03a1.85 1.85 0 01-.48 2.62 1.96 1.96 0 01-2.83-1.73 1.81 1.81 0 012.44-1.57c.35.13.66.37.87.68zm-8.92-.29c1.3.48 1.83 2.08.54 2.81a2.68 2.68 0 01-2.86-.08c-1.55-1.23-.2-3.65 2.32-2.73zm-9.66-.18a1.96 1.96 0 012.37 1.97c-.1 1.77-2.17 1.83-3.25.95a1.67 1.67 0 01.88-2.92zm-7.23.26a1.84 1.84 0 011.6 1.74c.01.3-.04.58-.16.84-.6 1.35-2.93 1.6-3.47-.13a1.9 1.9 0 012.03-2.45zm62.03.58c-.05-2.5-.1-4.77.05-6 .1-.7 1.16-.97 1.32-.17.03.15.3 10.3.13 13.41l-.02.45c-.05 1.28-.06 1.42-1.76 1.52-10.55.6-21.36.7-32.05.8-3.43.03-6.85.06-10.25.11l-5.09.08h-.02c-7.28.12-14.46.24-21.8.08-1.12-.02-1.13-.37-1.13-1.11 0-.18 0-.37-.02-.59a94.02 94.02 0 01-.09-7.42c.03-1.93.05-4.04.03-6.34a1 1 0 01.93-.88c13.02-.52 29.33-.68 45.25-.84 7.71-.07 15.33-.14 22.44-.26a.76.76 0 01.51 1.29.76.76 0 01-.51.23c-10.36-.06-21.4.2-32.05.46-12.86.31-25.17.6-35.07.3-.08 2.3-.05 4.7-.03 7 .02 2.43.04 4.77-.05 6.87 8.23-.25 16.41-.35 24.6-.44 5.92-.07 11.84-.13 17.8-.26 3.6-.08 7.18-.2 10.76-.34 5.36-.2 10.71-.39 16.09-.4.15-2.13.1-4.96.03-7.55zm-.26-27.05v-.02a59.66 59.66 0 01-.07-5.65c-22.88.2-46.15.24-69.03.26-.08 1.82-.1 4.35-.1 6.86-.01 2.6-.02 5.18-.1 6.94-.05.8-1.25.89-1.28.05-.15-4.1-.23-9.28-.06-13.43.07-1.74.29-1.75 1.88-1.78 21.14-.47 46.8-.89 67.89-.35 1.73.04 2 .1 2.25 1.97.3 2.38.53 11.68.06 13.58a.81.81 0 01-.78.66c-22.82.52-44.93.89-66.98.6-.81 0-.72-1.23.07-1.24 9.57-.1 19.18-.26 28.78-.42 12.52-.22 25.03-.43 37.41-.5.28-2.45.17-5.01.06-7.53zm-80.86 47.11c3.07-.76 3.43 1.41 1.42 3.37a18.65 18.65 0 00-4.13 5.93c-.36.83-1.69.34-1.32-.49a21.67 21.67 0 014.66-6.64c.96-.95.88-1.02-.33-.71-2.89.73-5.4 2.88-7.92 5.03-3.3 2.8-6.59 5.62-10.72 5.31-2.52-.18-2.08-1.3 0-1.34 3.8-.08 6.88-2.67 9.98-5.28 2.61-2.2 5.25-4.41 8.36-5.18z" fill="#000"/>
  <path d="M166.92 74.49l-2.17 8.49a.2.2 0 00.31.2l7.4-5.5a.2.2 0 01.24 0l7.36 5.22a.2.2 0 00.31-.2l-2.19-8.64a.2.2 0 01.07-.2l7.55-6.34a.2.2 0 00-.13-.35l-9.6.08a.2.2 0 01-.2-.13l-3-8.3a.2.2 0 00-.38 0l-2.97 8.42a.2.2 0 01-.17.14l-9.76.88a.2.2 0 00-.1.36l7.36 5.66c.06.05.09.13.07.21z" stroke="#FFC42E" stroke-width="1.8"/>
</svg>
