<svg fill="none" xmlns="http://www.w3.org/2000/svg" viewBox="0 0 265 190">
  <path fill-rule="evenodd" clip-rule="evenodd" d="M56.25 154.96a6.81 6.81 0 00-4.22 6.3v19.92H31.91v-20.06a6.8 6.8 0 016.8-6.8h17.54v.64z" fill="#000"/>
  <path fill-rule="evenodd" clip-rule="evenodd" d="M53.6 157.98c-1.16 2.22-.84 2.59-.74 9.34 0 1.16.07 13.77-.03 14.12a.85.85 0 01-.25.38c-.41.3 1.36.2-20.67.2a.85.85 0 01-.83-.7c-.02-.2-.03-20.27 0-20.78a7.61 7.61 0 014.75-6.45c1.93-.74 2.23-.54 12-.43 9.18.13 8.48.1 8.7.2a.52.52 0 01.26.47c-.01.7 0 .59-.02.71a.52.52 0 01-.31.4h-.01a6.2 6.2 0 00-2.85 2.54zm-6.19-3.12v.13l-8.7.1a6.03 6.03 0 00-5.84 4.83c-.15.81-.12-.88-.12 20.41H51.2c0-19.54 0-20.37.76-21.94a7.46 7.46 0 013.26-3.53h-7.8zM163.71 53.21l.3.24c.16.78.07-.08-.27 2.7-.29 1.85-.46 5.07-.49 5.35-.36 6.55.6 13.65 6.58 16.43 1.65.7 2.03.49 2.47.94.27.41.16.18.2 2.88 0 3.6.26 10.04.25 10.34a.62.62 0 01-.56.55c-.83.08-1.66.21-2.47.4l-.4-.08-.23-.33.08-.4.34-.23c.66-.16 1.27-.36 1.97-.5 0-.08-.7-6.15-.7-11.42-3.3-.87-5.93-3.04-7.59-6.7-.87-2-1.4-4.11-1.57-6.28-.28-2.8-.2-5.63.25-8.42.28-1.72.68-3.42 1.2-5.08l.25-.32.38-.06h.01zM191 57.39a5.55 5.55 0 013.99 5.8 5.5 5.5 0 01-.79 2.3c-1.61 2.38-3.88 3.17-6.7 3.6a61.74 61.74 0 01-3.24 8.8c.09 4.11.02 6.9.28 12.04.74.1 1.45.22 2.18.36.9.18.68.1 1.1.38l.1.4-.22.33a1.2 1.2 0 01-.83.04c-3.05-.42-2.96-.14-3.36-.42-.25-.24-.25-.1-.65-4.88-.32-4.65-.25-5.38-.3-8.08-.07-.32 0-.66.16-.94a54.89 54.89 0 003.23-8.94c.22-.94.81-.64 2.4-.97a7.43 7.43 0 003.92-1.98 3.91 3.91 0 00-.62-5.83 5.53 5.53 0 00-2.32-1.04c-.7-.15-1.4-.24-2.11-.28l-.37-.17-.15-.36.16-.36.37-.16c1.27-.1 2.54.02 3.77.36zm-8.21 19.65l-.03.04.04-.05-.01.01zm.07-.06l.06-.05-.06.05z" fill="#000"/>
  <path fill-rule="evenodd" clip-rule="evenodd" d="M168.7 56.72l.26.23.1.41c0 2.83-.77 3.18-.6 8.54 2.35-.02 1.85-.12 2.5.1l.2.33-.1.37-.37.23c-.95.26-1.92.47-2.9.62a.87.87 0 01-.63-.15.9.9 0 01-.27-.33c-.32-.98-.22-5.93.42-8.26 0-.06.36-.94.36-.95l.38-.77.3-.3.34-.06v-.01zM178.33 67.39c.23.35.29.28.4 1.42a4.43 4.43 0 01-.93 3.15 3.55 3.55 0 01-2 1.35 3.63 3.63 0 01-3.63-1.22 3.5 3.5 0 01-.5-.98c0-.53-.07-.32.18-.72 1.22.3.36.07 1.56.73.4.27.87.47 1.35.56a1.96 1.96 0 001.89-1.08c.46-.8.75-1.69.84-2.6.01-.17-.02-.06.15-.53l.32-.2.37.12zM177.93 52.68c.42.29.8.64 1.1 1.05.2.22.34.5.38.8l-.13.34h-.01l-.35.1a1.68 1.68 0 01-.68-.3 9 9 0 00-1.37-.64 3.08 3.08 0 00-2.39-.16l-.3.14-.23.16s-.5.25-.62.33c-.45.23.08.1-1 .33-.15-.7-.26-.71.09-1.38a2 2 0 01.88-.91c.17-.1.35-.2.54-.27a4.74 4.74 0 014.09.4z" fill="#000"/>
  <path d="M175.68 61.63c.86 0 1.55-.91 1.55-2.04 0-1.12-.7-2.04-1.55-2.04-.87 0-1.56.92-1.56 2.04 0 1.13.7 2.04 1.56 2.04z" fill="#000"/>
  <path fill-rule="evenodd" clip-rule="evenodd" d="M190.5 58.22c1.1-6.2 1.83-14.42-4.62-17.98-2.56-1.4-5.43-1.78-8.19-2.63-1.94-3.97-6.08-10.16-10.34-11.31a12.36 12.36 0 00-13.32 5.16c-3.66 5.43-2.8 13.26 3.58 16.13 4.97 2.22 12.14 1.5 17.51.45 1.66-.32 3.22 1.02 4.83 1.51.85 4.1 3.32 6.88 7.35 7.89l3.2.78z" fill="#000"/>
  <path fill-rule="evenodd" clip-rule="evenodd" d="M167.51 25.45c4.56 1.23 8.65 7.21 10.79 11.45 3.33.92 6.31 1.38 8.93 3.17 5.71 4.1 5.08 11.36 3.8 18.24-.1-.01-1.14-.2 0 0a.53.53 0 01-.4.43c-.19.03.07.08-2.48-.51a12.5 12.5 0 01-4.2-1.53c-2.55-1.6-3.84-3.74-4.6-6.6-1.23-.44-2.47-1.29-3.57-1.35-.92-.04-13.6 3.5-20.64-1.63-5.72-4.43-5.05-12.85-.72-17.55a13.12 13.12 0 0113.1-4.12zm-5.83 1.63c-7.75 2.01-10.75 10.5-7.9 15.82 2.53 5.36 10.63 5.7 16.54 5.09 4.59-.5 4.6-.9 5.92-.7 1.44.25 2.44 1.04 3.86 1.56.85.26.3.72 1.37 3.15a9 9 0 001.34 2.1c2 2.32 4.5 2.76 7.26 3.46 0-.62 1.43-7.3-.57-12.05a8.82 8.82 0 00-2.48-3.46c-2.52-2.15-6.1-2.59-9.31-3.54-1.06-.32-.36-.17-2.58-3.76-1.78-2.76-4.75-6.65-7.9-7.6a10.78 10.78 0 00-5.54-.07zM103.1 10.72a35.56 35.56 0 0120.86 23.74 35.39 35.39 0 01-5.01 30.65 34.94 34.94 0 01-12.39 10.82 36.08 36.08 0 01-36.36-1.57C43.89 56.7 50.75 18.75 78.23 9.81a35.58 35.58 0 0124.89.9zm-19.04.5a33.25 33.25 0 1033.58 50.86 33.77 33.77 0 004.48-27.6h-.02c-5.07-16.5-21.82-26.34-38.04-23.26zm39.9 23.24c-.16-.51-.15-.47 0 0z" fill="#010101"/>
  <path fill-rule="evenodd" clip-rule="evenodd" d="M88.32 30.48c.23 1.87.98 11.18 1 11.57.08.93.19 2.78.19 2.78 2.17.17 7.63-.13 11.03-.11.94 0 .7-.03 1.18.17l.17.36-.15.37c-.58.28.08.1-2.72.4-3.88.4-6.56.75-10.2.49a.93.93 0 01-.87-.44c-.13-.26-.1-.18-.18-1.55-.47-8.1-1.21-11.15-1-17.35.02-.38-.02-.2.17-.67l.34-.17c.65.25.47-.14 1.04 4.15zM64.72 43.94c.36.05.71.12 1.06.22.21.05.08 0 .58.25l.18.3c-.2.39-.07.26-.55.56-.37.14-.76.26-1.15.34-.28.05-.56.06-.84.06-2.22.09-1.86.26-2.51.03-.34-.1-.12.01-.87-.49.49-.73.35-.57.63-.79.18-.14.39-.24.6-.3.96-.12 1.91-.18 2.87-.18zM117.29 42.33c.25-.01.5.02.75.09l.38.11c.5.18.25.02.96.64-.62.65-.43.53-.94.7-.73.3-1.6.1-2.9.17a.9.9 0 01-.6-.16c-.28-.13-.06 0-.8-.53.5-.7.4-.57.63-.75.18-.17.42-.27.68-.28.66-.03 1.13-.01 1.84.01zM87.03 14.74c.15.23.28.48.38.73.06.35.1.7.13 1.06.18 1.71.43 2.58-.1 3.99l-.28.22-.33-.15-.28-.41c-.17-.42-.33-.86-.45-1.3-.07-.33-.34-2.75-.34-2.83-.05-.29-.03-.58.08-.85.24-.51-.1-.08.62-.93l.57.47zM90.22 73.54a4.1 4.1 0 01-.56-1.9c-.27-1.75-.24-1.37-.1-1.87.17-.42.05-.2.57-.88.35.2.64.48.87.81.17.25.13.2.24.9.25 1.7.33 1.75.16 2.64-.07.35 0 .2-.51.93-.71-.6-.59-.47-.67-.63z" fill="#010101"/>
  <path fill-rule="evenodd" clip-rule="evenodd" d="M174.28 133.81s-.1 6.5-.25 9.46c7.23 1.28 14.37 3.03 21.59 4.4 2.06.38 4.1 1.44 6.19 1.17 11.11-1.5 22.4-1.52 33.6-2.03a3.06 3.06 0 002.85-3.62c-1.51-8.1-3.54-16.07-7.43-23.45-7.62-14.46-22.34-25.47-38.6-28.11a1.3 1.3 0 00-1.23.5c-3.4 4.47-8.42 8.93-14.03 9.94-3.31.6-8.86.1-10.41-3.52a8.09 8.09 0 01-.3-4.71 1.29 1.29 0 00-.38-1.2 1.3 1.3 0 00-1.22-.3c-9.15 2.5-17.78 6.18-25.5 11.85-2.74 2.03-5.78 4.24-8 6.86a7.17 7.17 0 012.52 6.47c1.54 1.63 2.3 3.77 1.42 5.93 3.5 5.72-3.68 10.56-8 13.03 3.7 7.16 12.5 20.47 12.65 20.83.04.1 1.16 23.21 1.2 23.24l.03.01h.03c6.65-.67 13.37.15 20.05.02 9.66-.2 19.64-.59 29.31-.6.02 0 .04 0 .06-.02a.07.07 0 00.03-.05c0-.02 0-.04-.02-.06a.07.07 0 00-.05-.02c-6.65-1.77-15.9-4.74-21.15-8.98-4.95 1.9-10.89 1-15.69-.98-3.5-1.44-6.14-5.2-.82-6.41-2.33-2.03-4.9-5.97-.4-7-2.59-2.15-6.42-7.8-.72-8.8-.66-3.84-1.63-7.76-2.67-11.52-7.44-.7-6.94-5.5-4.2-6.64 4-1.67 9.79-.67 14.08-.68a90.07 90.07 0 01-.97-6.58c-.07-.74-.3-1.9.21-2.54 1.1-1.38 3.57-1.62 5.13-2.06 4.43-1.27 9.32-3.42 14.03-2.97 1.96.2 3.85 1.68 2.03 3.52-1.08 1.08-2.84 1.45-4.25 1.89-1.46.45-2.88 1.03-4.34 1.48-2.27.7-4.57 1.16-6.87 1.69.08 1.7.27 3.4.57 5.07 3.6-.17 7.2-.02 10.77.44 1.5.07 3 .34 4.43.81 1.53.65 2.15 2.52.44 3.4-1.68.85-3.86.84-5.72.84z" fill="#FF7979"/>
  <path fill-rule="evenodd" clip-rule="evenodd" d="M174.05 144.39c2.07-.02 4.14.14 6.19.5 7.78 1.26 20.3 4.43 22.7 4.95 0-.7-.06-.45.13-.96l.36-.18.38.13c.26.5.16.23.25.97.06.73.16 1.1-.34 1.34-.2.05-.08.06-1.51-.13-8.52-1.2-14.64-3.34-23.66-4.65-.94-.13-3.54-.63-5.3-.9-.17-.02-.07.01-.49-.22l-.13-.35v-.01l.18-.34c.48-.18.2-.15 1.24-.15z" fill="#000"/>
  <path fill-rule="evenodd" clip-rule="evenodd" d="M204 149.63c.3.02 2.41.51 2.91.63.58.12 1.14.32 1.66.6.34.14.66.35.93.62l.1.35-.26.26-.48.1c-1.9 0-1.88-.21-4.62-.77-.46-.05-.9-.22-1.27-.5-.23-.15-.1-.02-.6-.72.7-.5.54-.42.8-.47.28-.07.55-.1.83-.1zM235.71 148.69c.26.5.18.1.3 2.06.1 2.2-.03 4.4-.4 6.56a26.62 26.62 0 01-7.37 14.42c-5.53 5.73-13.44 8.64-21.32 9.03-8.24.37-14.93-1.83-22.49-5.1-4.9-2.13-10.24-4.44-14.25-7.8-1.9.7-3.89 1.14-5.9 1.35-4.31.41-8.9-.22-12.07-3.1l-.18-.36.11-.38.36-.18c.44.13.36.1.5.2.4.33.83.62 1.29.87 4.62 2.47 10.49 1.73 15.39-.03 1.78-.67.21.34 7.94 4.4 4.05 2.06 11.63 5.45 17 6.96 21.02 5.77 38.77-5.78 40.22-24.3.22-4.22-.19-3.62.13-4.54l.36-.18.38.12zM151.68 150.16c.39.23 1.25.63 1.59.81l.54.32a11.53 11.53 0 008.04 1.3c.91-.2.33-.18 1.06-.18l.3.25v.39c-.14.24-.35.43-.61.54-.81.45-1.7.74-2.62.87-2.35.15-4.7-.38-6.75-1.53a5.18 5.18 0 01-1.63-1.22 9.8 9.8 0 01-.62-.77l-.14-.4.1-.34.33-.13.41.09zM152.68 158.6c3.16.5 3.56 1.18 7.66.74.87-.09 1.73-.22 2.58-.4l.43.03.27.26-.02.38c-.3.32-.17.28-1.1.73-.96.46-2 .74-3.05.82-1.15.1-2.3.05-3.43-.12a6.68 6.68 0 01-3.78-1.48l-.25-.35-.01-.35.27-.23.42-.03h.01zM173.65 138.3l.23.34c0 .25-.08.5-.24.7a12.38 12.38 0 01-5.96 4.62c-3.5 1.43-7.17 2.36-10.93 1.97a9.92 9.92 0 01-3.64-1.29c-.13-.07-.06 0-.37-.38v-.38l.29-.24c.44-.02.36-.03.44 0 1.1.3 2.22.5 3.36.57 2.92.24 5.76-.03 10.17-1.83a18.4 18.4 0 005.12-3.02c1.14-1.17.53-.73 1.14-1.12l.4.07zM99 125.28h.01l.26.3v.4a47.32 47.32 0 00-2.73 21.88 27.86 27.86 0 002.07 7.73c2.38 5.44 6.66 8.6 12.6 9.43 7.77 1.07 18.41-2.44 24.9-8.45.77-.7.45-.5.98-.73l.38.15.16.37-.15.38c-8.06 8.44-23.27 13.42-33.24 7.78-11.72-6.68-11.8-27.44-5.93-39l.3-.26.4.02z" fill="#000"/>
  <path fill-rule="evenodd" clip-rule="evenodd" d="M130.81 129.26l.13.36-.13.39c-.65.84-1.38 1.62-2.18 2.31-.83.66-1.72 1.23-2.66 1.7-.27.14-.04.04-.61.31-2.04.92-1.86.62-1.83.88.68 4.56.9 4.1 1.71 9.2.32 2.18.3 1.78.18 2.32l-.33.22-.39-.08-.24-.35c-.66-2.54-2.17-6.66-2.73-11.96-.02-.85.58-.9 1.29-1.13a15.6 15.6 0 002.16-.92c1.65-.96 3.25-2.01 4.77-3.16.16-.12.05-.07.51-.22l.35.13zM127.36 116.53h.01l.16.34-.1.42a11.45 11.45 0 01-2.77 3.07 22.32 22.32 0 01-4.27 2.57c-.75.4-1.58.63-2.43.7-.3.06-.6.04-.88-.06l-.23-.26.05-.35.3-.3 1.21-.7c1.38-.6 2.7-1.3 3.97-2.09.92-.6 3.25-2.4 4.03-3.1.26-.23.12-.14.59-.35l.36.1zM129.14 122.3l.16.35-.1.41a12.92 12.92 0 01-2.6 3.15 16.47 16.47 0 01-4.16 2.64c-.79.4-1.65.59-2.53.57-.3.04-.61-.01-.89-.15l-.2-.29.09-.33.33-.27c.3-.12 1.28-.62 1.5-.7a14.02 14.02 0 003.85-2.07c.53-.4 3.06-2.54 3.78-3.22l.4-.19.37.1zM125.98 110.24l.13.38-.17.38c-.45.26-5.25 6.01-13.13 7.98-4.31 1.09-9.84.75-12.24-2.92-.25-.4-.46-.82-.61-1.26-.03-.08-.02 0 0-.45l.26-.28h.38c.34.29.28.22.33.3.08.03.95 2.32 5.23 3.22 6.56 1.31 13.84-3.2 19.06-7.38l.4-.13.36.16z" fill="#000"/>
  <path fill-rule="evenodd" clip-rule="evenodd" d="M107.7 118.6c-4.38-8.1-5.38-11.66-6.75-14a69.95 69.95 0 013.45-3.88c5 .66 10.03 1.16 15.03 1.89.68 3.58 2.51 6.77 3.47 10.26-2.31 2.36-5.41 3.64-8.51 4.57-2.1.74-4.3 1.12-6.52 1.11" fill="#000"/>
  <path fill-rule="evenodd" clip-rule="evenodd" d="M104.51 99.87c5.28.69 9.45 1.1 14.1 1.75 1.1.16 1.12.13 1.41.37.31.34.2.38.46 1.4.85 3.3 2.28 5.85 3.14 8.92.12.44.18.55.05.9-.28.4-.62.74-1.01 1.03-.94.79-1.98 1.46-3.08 2a31.7 31.7 0 01-9.98 2.84c-.6.05-1.18.05-1.77 0-.4.03-.17.06-.6-.23-.08-.16-2.76-4.67-4.79-8.98-.72-1.53-1.08-2.67-1.99-4.42a2.4 2.4 0 01-.33-.68c-.1-.56.2-.76.6-1.23a67.8 67.8 0 012.5-2.82c.53-.58.7-.88 1.3-.85zm.17 1.8c-1.51 1.6-2.58 2.9-2.7 3.02.74 1.26 1.93 4.63 6.02 13.33 3.19.02 8.51-1.86 10.97-3.23a14.03 14.03 0 002.97-2.16c0-.5-2.18-5.4-3.06-8.56l-.17-.69c0-.08-13.99-1.76-14.03-1.72z" fill="#000"/>
  <path fill-rule="evenodd" clip-rule="evenodd" d="M119.07 113.56c-.4-.34-.24-.07-1.44-1.96-.06-.1-.36-.58-.54-.96-.25-.51-.94-1.99-1.15-2.52-.72-1.66-.72-1.47.06-2.6.26-.4.5-.72.53-.79.4-.45.83-.87 1.3-1.24l.4-.18.33.06h.01l.16.31c-.06.53.03.28-.54 1.57-.3.52-.61 1.03-.97 1.51 1.09 2.7 1.27 2.35 2.46 6.04v.46l-.22.3h-.4z" fill="#fff"/>
  <path fill-rule="evenodd" clip-rule="evenodd" d="M177.56 115.9l.21.32c0 .65-.4.59-3.58 1.5 0 .2-2.03.2-13.02 3.52.02.77.14 3.4.14 7.2 0 3.12.1 2.43-.12 3.03l-.35.19-.38-.14-.2-.37c0-.38-.63-4.33-.78-9.2-.05-1.5-.08-1.4.04-1.72.26-.43.05-.31 3.94-1.46 10.05-2.91 10.4-2.5 10.4-2.62.1-.01 2.63-.36 3.3-.36l.4.11z" fill="#000"/>
  <path fill-rule="evenodd" clip-rule="evenodd" d="M168.85 130.93c4.61.06 3.78.1 8.54.1l.4.15.18.36-.14.38-.38.19c0 .08-4.72.44-8.83.53-14.5.07-15.12.88-20.09.4-1-.1-2.08-.3-2.17-.31l-.35-.2-.13-.37.2-.34c.24-.14.52-.19.8-.14 3.55-.02 13.19-.88 21.97-.75z" fill="#000"/>
  <path fill-rule="evenodd" clip-rule="evenodd" d="M172.72 139.77c.1-2.7.37-5.4.51-8.1-4.89.05-9.77.24-14.66.28-2.52-.05-5.03.05-7.54.28.84 4.05 1.8 8.02 2.78 12.03 1.64.27 3.2.9 4.89.87 3.56-.09 7.5-1.57 10.58-3.23a18.3 18.3 0 003.58-2.07" fill="#000"/>
  <path fill-rule="evenodd" clip-rule="evenodd" d="M173.97 131.31c.1.28.1.26 0 1.41-.71 7.49-.81 6.43-.58 7.14-.18.39-.14.34-.33.5-.91.71-1.9 1.31-2.94 1.8a36.52 36.52 0 01-4.1 2.03c-1.32.56-2.7 1-4.1 1.33-2.27.63-4.69.58-6.94-.14-1.57-.37-1.46-.22-1.8-.54-.17-.22-.06.34-1.47-5.63a291 291 0 01-1.28-5.66c-.26-1.2-.38-1.37-.1-1.82.3-.35.5-.34.96-.4 1.48-.15 2.7-.2 4.2-.22 19.15-.3 18.08-.5 18.48.2zm-21.9 1.68c.49 2.41 1.85 8.08 2.45 10.53 2.47.48 2.92 1 5.76.67 4.41-.54 8.19-2.62 10.35-3.63.55-.25 1.07-.55 1.57-.89 0-3.24.13-5.02.19-7.16-3.02.12-18.14.28-20.32.48zM89.12 103.33c.13.02.24.08.31.17.08.1.13.22.13.34.36 35.1.4 33.62 0 34.02a.82.82 0 01-.53.2c-1.9 0-35.7.07-36.1-.03a.87.87 0 01-.44-.37c-.17-.38-.11 2.04-.11-33.82a.84.84 0 01.7-.82c2.92-.27 35.96.3 36.04.3zm-35.06 1.36v31.7c18.6 0-27.93.03 34.16.03.08.04-.07 1.32.29-32.05-19.6.36-18.89.32-34.45.32zM99.79 159.22c.75.25.24-.02.95.38l.16.32-.18.31-.41.21c-2.08.42-.37.25-3.97.35a2.2 2.2 0 01-1.22-.13c-.49-.23-.24-.04-.91-.68.63-.66.41-.48.87-.71.38-.18.8-.25 1.21-.2 2.71-.06 2.43-.09 3.5.15zM91.44 170.75c.29-.03.58 0 .85.1a45.32 45.32 0 015.79 3.5c1.61 1.09 2 1.17 1.89 1.94a.84.84 0 01-.3.48c-.26.17-.3.17-.8.23-3.15.41-6.24-.22-9.44-.54-6.58-.64-10.71-1.87-16.06-2.64-1.7-.25-1.72-.3-2.53-.46l-.33-.23-.08-.4.23-.33.36-.07.01-.01c2.9-.6 5.85-.99 8.8-1.19 2.97-.22 8.92-.38 11.61-.38zm-.3 1.72c-4.86 0-9.87.3-12.5.4-2.6.1-2.37.05-1.42.2 1.7.25 5.27.8 7.42 1.09 0 .08 9.9 1.24 11.97 1.26-1.53-1.04-3.11-2-4.74-2.86-.22-.1-.1-.1-.72-.1zm.23-.17h.01l-.01-.01zM85.44 161.3c1.83-.03 3.66.07 5.47.29 1.01.1.72.03 1.22.26l.16.35-.16.36-.4.18c-.35 0-1.62.2-4.39.27-1.66.04-1-.12-7.07.1-1.56.16-3.13.02-4.64-.43l-.34-.23-.12-.35.2-.31c1.14-.44 8.91-.5 10.07-.5zM57.57 167.78c.5.02.92.11 2.64.16 2.55.05 3.26-.11 4.73-.05 2.38.11 2 .08 2.5.27l.2.33v.01l-.15.35-.39.22c-2.21.52-4.48.72-6.75.59-3.07-.07-3.5-.3-4.51-.74-.11-.05-.04 0-.41-.31l-.1-.34c.01 0 .2-.28.22-.28l.4-.14c.1 0 1.42-.08 1.62-.07zM239.72 179.15l.2.37-.2.38-.47.16-4.85.36-21.2.3-11.08.16-10.63.12-13.5.13-15.9.15-35.57.33-34.72.32-14.86.14-12.02.12-5.49.03-5.94.02H41.56l-14.7-.02h-.33l-.37-.15-.16-.37.15-.37.37-.16.34-.01 14.7-.3 11.92-.22 5.94-.1 5.5-.07 12.01-.11 14.86-.14 34.71-.33 35.57-.33 15.91-.15 13.5-.13 10.63-.07 11.08-.06 21.2-.1 4.85-.06.48.16z" fill="#000"/>
  <path fill-rule="evenodd" clip-rule="evenodd" d="M36.21 159.47c5.23.1 5.53.1 7.58.53.25.03.5.12.7.28l.14.35-.19.33c-.22.13-.47.2-.72.2-1.4.17-2.82.2-4.23.1-1.33.03-2.67-.02-4-.15-1.19-.27-1.1-.28-1.5-.51l-.14-.31.16-.31.38-.21c.59-.18 1.2-.28 1.82-.3zM49.43 168.42c1.7.12 1.26.02 1.85.26l.18.34-.16.36-.4.2c-4.16.58-3.22.4-10.97.63-1.22.1-2.45.02-3.66-.2l-.38-.18-.17-.32v-.01l.14-.33.37-.21c.3-.05.32-.1 1.37-.28.75-.14 1.52-.2 2.28-.18 7.8-.22 6.86-.2 9.55-.08zM49.8 176.93c.45.32.34.18.5.58-.73.6-.46.44-1.02.6-.63.18-1.18.15-3.16.19-.17.02-.34 0-.5-.06-.6-.24-.54-.25-1.08-.8.57-.56.48-.53 1.07-.8.25-.07.1-.05.76-.07 2.08-.04 2.23-.13 3.43.36z" fill="#fff"/>
  <path fill-rule="evenodd" clip-rule="evenodd" d="M195.77 128.3c.7.45.5.24 1.05 3.09.93 4.99 1.47 7.19 1.9 10 .55 3.48.59 3.12.06 3.53l-.39-.08-.26-.34c0-.08-.01.03-.66-2.1-1.15-3.95-1-3.89-2.43-11.17-.37-2.01-.13-1.35-.91-2.17l-.56-.55a4.21 4.21 0 00-.84-.68l-.27-.31-.02-.37.27-.26.4-.04a9.1 9.1 0 012.66 1.44z" fill="#000"/>
  <path fill-rule="evenodd" clip-rule="evenodd" d="M112.94 105.51c2.29.3 1.41.11 2.64.45.83.3.46.08 1 .44l.14.31-.17.3-.37.19c-.7.18-1.44.22-2.16.14-1.14-.13-5.28-.68-6.4-.93-2.04-.45-1.58-.29-2.1-.58l-.13-.34.17-.34c.27-.15.58-.22.89-.2 2.3-.15 2.84.06 6.49.56z" fill="#fff"/>
  <path fill-rule="evenodd" clip-rule="evenodd" d="M140.57 136.14l.33.16.18.36c.39 3 .28.64.34 10.48.03 2.1-.07 4.21-.28 6.3l-.18.4-.35.18-.35-.17c-.19-.43-.18-.14-.35-2.5-.17-2.3-.2-2.05-.2-11.02 0-1.23.1-2.47.34-3.68l.19-.36.33-.15z" fill="#000"/>
  <path d="M71.58 107.87a4.08 4.08 0 100-8.15 4.08 4.08 0 000 8.15z" fill="#FF7979"/>
  <path fill-rule="evenodd" clip-rule="evenodd" d="M72.06 99.18a4.64 4.64 0 013.77 7.13 4.94 4.94 0 01-9.14-1.95 4.72 4.72 0 013.73-5.08c.54-.1 1.09-.13 1.64-.1zm-.47 1.07a3.46 3.46 0 00-3.24 3.21c0 3.83 4.35 4.73 6.05 1.9.1-.18.18-.37.25-.57a3.62 3.62 0 00-3.06-4.54zm.04-1.06h.01-.01zM83.71 131.48c3.5.12 5-.1 8.11.13 1.84.14 1.47.1 1.91.3l.16.34-.15.34c-.47.23-.1.15-1.9.35-2.52.25-5.05.33-7.59.24-1.07 5.78-2.18 9.88-5.43 14.95-.18.28-.08.18-.48.47l-.39-.05-.23-.31c.05-.5.01-.36.16-.64a43.9 43.9 0 001.92-4.48c3.37-9.18 2.4-10.8 3.24-11.5.2-.13.44-.18.67-.14zM85.42 153.6a7.67 7.67 0 016.73 4.1c1.12 2.27.88 2.98.88 10.04-.02 4.51.02 4.1-.12 4.42a.83.83 0 01-.97.4c-.33-.14-.18-.12-.39-.13-3.09-.02-9.19.12-15.07.53 3.52.64 6 1.1 8.95 1.56 6.56.98 7.21.55 7.28 1.4h-.01c.07 5.94.1 5.35.04 5.57a.6.6 0 01-.25.32c-.09.04 1.32.32-40.46.32a.84.84 0 01-.83-.7c0-.14-.03-20.17.01-20.8a7.67 7.67 0 016.7-6.98c.78-.08 27.42-.05 27.5-.05zm-4.7 1.68c-22.63 0-22.47-.22-24.12.45a6 6 0 00-3.4 3.58c-.45 1.17-.32.98-.32 21.14 21.28 0 17.82-.04 38.7.23v.01-4.31c-4.63-.53-3.7-.19-14.59-1.99-2.65-.43-5.4-.63-6.3-.9a.7.7 0 01.23-1.35c.09 0 7.49-1.3 20.38-1.35.09 0 .03.72.03-9.64a6 6 0 00-4.51-5.68c-.96-.26-1.53-.19-6.1-.19zm10.68 17v-.01z" fill="#000"/>
  <path fill-rule="evenodd" clip-rule="evenodd" d="M164 28.96c.52.02 1.03.13 1.52.3.32.12.2.06.57.36l.1.33-.21.29c-.63.22-.26.08-1.1.22a8.59 8.59 0 00-3.64 1.07c-.68.39-1.31.88-1.86 1.45a16.3 16.3 0 00-2.34 2.9l-.32.27h-.37l-.26-.27c-.05-.33 0-.67.17-.96a8.33 8.33 0 011.92-3.12c.66-.68 1.4-1.26 2.22-1.73a7.77 7.77 0 013.6-1.1zM155.2 41.54c-.06-.08-.1-.17-.14-.26-.16-.59-.24-1.2-.24-1.81.04-.1.08-.18.14-.25l.17-.2c1.27.07.96 0 1.2.23l.09.12.04.07c.05.48.12.96.23 1.43.02.54-.14 1.08-.44 1.53-.72-.42-.66-.33-1.06-.86zM157.65 99.33l.28.27-.02.39-.28.3c-.98.47-2.54 1.29-3.38 1.74-2.69 1.52-3.1 1.48-6.95 3.87-3.22 2-4.19 2.99-7.16 4.7l-.4.09-.33-.17-.09-.35.17-.37c0-.09 1.64-1.62 1.97-1.9a61.25 61.25 0 0112.07-7.24c3.32-1.35 3.7-1.27 3.7-1.35l.42.02z" fill="#fff"/>
</svg>
