<svg fill="none" xmlns="http://www.w3.org/2000/svg" viewBox="0 0 265 190">
  <path fill-rule="evenodd" clip-rule="evenodd" d="M228.38 83.92c-4.22 22.25-29.14 23.57-39.45 21.55-.99 4.32-9.85 45.16-10.84 48.6-3.68 2.7-48.62 20.47-52.22 21.53-6.22-2.05-73.37-34.66-81.99-40.6-1.5-7.34-4.28-36.11-4.58-46.07-.06-2.24-.26-1.84 2.23-3.23a56.46 56.46 0 015.96-2.6c.64-.25 1.13.64.5.97a65.4 65.4 0 00-4.4 2.5c-2.11 1.3-2.37 1.89-.1 2.82 20.34 8.38 83.46 33.68 84.97 33.44 1.64-.28 55.35-17.13 58.85-18.68 1.78-1.98 18.23-45.46 21.32-66.72 9.08 4.58 24.69 20.43 19.75 46.49zM109.2 98.15a.57.57 0 00-.76-.42c-.1.04-.2.1-.26.2-.43.66-1.17 4-1.43 4.99-.42 1.63-.16 2.95.07 4.67.1.99.28 1.96.56 2.91a.61.61 0 00.64.38.6.6 0 00.53-.52c-.1-.97-.25-1.93-.46-2.88a10.82 10.82 0 010-4.2c.26-1.04 1.17-4.29 1.11-5.13zm-1-2.6c-1.26-1.16-3.76-2.66-5.3-3.83a.57.57 0 00-.77.83c1.14 1.1 4 3.44 5.4 3.96a.6.6 0 00.68-.96zm-8-5.18c-1.72 2.13-3.47 4.24-5.08 6.44a.59.59 0 00.92.73c1.94-2.14 3.74-4.4 5.58-6.63.28-.32 8.5-2.34 9.17-2.52a69.87 69.87 0 016.89 4.43c-2.23 1.22-5.05 2.02-7.39 3.05a.6.6 0 00-.26.74.6.6 0 00.69.38c.35-.1 7.92-2.68 8.04-2.8a39.41 39.41 0 012.8 5.47 122.94 122.94 0 01-12.02 4.54c-.73.24-.28 1.27.43 1.1 3.82-.98 7.58-2.21 11.23-3.7-1.3 2.9-3.05 5.43-4.38 8.25a.57.57 0 00.97.57c1.63-2.05 2.95-4.74 4.25-7.05.93-1.65 1.79-2.83 1.03-4.63a26.11 26.11 0 00-2.27-4.3 9.07 9.07 0 00-2.5-2.74 49.7 49.7 0 00-6.39-4.1 2.82 2.82 0 00-2.26-.22c-2.76.57-5.48 1.3-8.16 2.17-.76.26-.78.19-1.3.82zm3.96 12.57c-2.54-1.5-5.44-2.97-8.07-4.44-.61-.34-1.2.29-.84 1.08.55 1.21 3.2 7.25 4.35 8.2.49.4 1.3-.14.99-.65a68.22 68.22 0 01-3.53-6.62 45.72 45.72 0 006.5 3.5c.62.25 1.23-.7.6-1.07zm40.76-4.66c-.1 1.2 1.28 1.64 1.36.18.23-3.9-1.64-8.52-1.38-12.08a27.18 27.18 0 012.93-10.56c.45 2.1 2.06 3.7 3.64 5.05a23.94 23.94 0 0017.1 5.65c.7-.04.66-1.27-.06-1.24-6.44.23-13.38-2.23-17.7-7.14-2.93-3.3-1.96-6.25 2.64-6.47 6.71-.3 13.08 2.98 17.2 8.19.5.63 1.4-.14.96-.79-4.04-5.88-11.33-9.23-18.41-8.87-4.23.22-5.72 2.42-7.3 6.18a36.92 36.92 0 00-2.32 8.53c-.54 4.13 1.67 9.08 1.34 13.37zM170.3 86.4c-1.98 4.55-5.04 7.27-9.83 9.63-2.5 1.23-5.11 1.88-7.53 3.38a9.61 9.61 0 00-4.17 5.52.58.58 0 00.8.7.58.58 0 00.3-.3c.9-2.44 3.3-4.56 5.6-5.76 2.55-1.32 4.04-1.48 6.61-2.68a18.16 18.16 0 009.33-10.1.59.59 0 00-1.11-.4zM60.18 69.44a52.62 52.62 0 014.66 6.53c1.41 2.24 2.6 4.61 3.58 7.08.32.88 1.15.29 1.02-.38-.45-2.3-2.56-6.2-3.34-7.46A35.85 35.85 0 0061 68.65c-.45-.46-1.24.28-.83.79zm6.73.69c5.28 2 6.5-1.02 6.1-5.7a19.12 19.12 0 00-1.5-6.5c-.3-.63-1.21-.16-1.08.46.5 1.86.9 3.74 1.19 5.64.39 3.7.46 6.71-4.56 4.74a14.41 14.41 0 01-4.44-2.8.58.58 0 00-.82.83 14.1 14.1 0 005.1 3.33zm6.37-13.06c.44 2.35 1.32 4.6 2.59 6.62 2.96 4.79 6.2 6.6 10.32 1.58a11.6 11.6 0 002.58-6.1c.08-.77-1-.82-1.16-.11a12.88 12.88 0 01-2.29 5.05c-3.76 4.94-6.33 2.27-8.64-1.7a21.33 21.33 0 01-2.2-5.53c-.2-.74-1.34-.58-1.2.2zm17.36 2.3c-1.68 5.41-2.47 12.99-1.41 18.56a.57.57 0 001.13-.14c-.27-6.85-.18-11.34 1.38-18.1.14-.62-.9-.94-1.1-.31zm1.87-7.03c-.77-.92-2.25-1.45-3.31-.7a.6.6 0 00.41 1.06 1.68 1.68 0 012.02.69c1.06 1.65-.2 4.3-2.44 2.62a1.48 1.48 0 01-.53-1.9.56.56 0 00-.96-.58 2.45 2.45 0 00.26 3.1c3.2 3.52 7.26-1.1 4.55-4.3zm-19.34 2.84a3.11 3.11 0 00.43-3.04 3 3 0 00-2.37-1.95c-1.1-.16-2.61.44-2.97 1.57a.6.6 0 001.02.6 2 2 0 012.26-.68c1.47.57 1.2 2.34.2 3.12-1.21.95-2.64.35-2.68-.56-.04-.84-.98-1.1-1.1-.4-.38 2.1 3.06 3.96 5.21 1.34zm-17.54 9.23c.61-.68 1.32-1.3 2.3-1a1.73 1.73 0 01.74 2.89 1.36 1.36 0 01-1.86-.03c-1.07-1.11-1.72.04-.82.9a2.61 2.61 0 004.28-1 3.15 3.15 0 00-2-4.08c-1.44-.48-3.47.33-3.74 1.92a.6.6 0 001.1.4zM90 93c1.58.04 3.11.5 4.45 1.33.66.37 1.08-.65.6-1.1-1.42-1.26-3.75-1.72-5.59-1.7-3.2.02-8.94 2.35-7.93 6.3.47 1.8 2.3 2.63 3.91 3.17a.62.62 0 00.44-1.16c-1.15-.42-2.8-1.04-3.04-2.42-.52-3.02 4.79-4.54 7.16-4.42zm12.1-6.15a2.28 2.28 0 00.92-3.41c-1.6-2.51-7.24-3.22-9.78-2.03a4.75 4.75 0 00-2.77 3.8 3.56 3.56 0 002.75 3.8.61.61 0 00.28-1.2 2.38 2.38 0 01-1.53-3.12 4 4 0 013.57-2.45c2.78-.22 5.67.56 6.36 2.15a1.17 1.17 0 01-.28 1.4c-.52.35-.17 1.3.47 1.06zm-4.84-8.1a.57.57 0 00.05-1.13c-1.89-.28-1.8-2.49-.68-3.58 2.2-2.16 7.4-1.33 9.8.14 1.07.65 2.4 2.44.94 3.3-.56.33-.43 1.26.26 1.15 1.65-.25 2.28-2.18 1.61-3.58-1.55-3.29-7.62-4.2-10.8-3.44-5.44 1.3-4.75 7.22-1.18 7.14zm16.52 2.64a2.78 2.78 0 01.56-3.58 4.87 4.87 0 014.07-.94c2.73.46 6.4 2.23 6.57 5.38a.58.58 0 00.56.57.58.58 0 00.6-.53c.28-1.98-1.04-3.72-2.6-4.78a11.98 11.98 0 00-5.74-2.08 5.72 5.72 0 00-4.85 1.92 3.84 3.84 0 00-.02 4.83c.5.6 1.28-.2.85-.8zm9.63 9.43a4.83 4.83 0 004.3 4.38.64.64 0 00.16-1.27 3.53 3.53 0 01-2.9-4.43c1.05-3.63 8.7-4.16 11.5-2.31a4.2 4.2 0 011.6 5.4c-.3.58.62 1.05.99.55a4.74 4.74 0 00-.17-5.68c-3.6-4.85-15.89-3.29-15.48 3.36zm6.2 27.59c-.66.3-.34 1.33.37 1.09 2.32-.78 4.9-2.03 5.65-4.56 1.7-5.77-6.38-7.6-10.85-6.42-2.27.6-4.96 1.95-6.05 4.15-1.37 2.76 1.06 4.78 3.36 5.77.73.32 1.28-.78.55-1.12-2.45-1.13-4.24-2.88-1.72-5.24 3.24-3.03 12.06-4.07 13.37.92.77 2.95-2.57 4.42-4.68 5.4zm9.73-7.44c-.68.17-.46 1.28.24 1.2a7.85 7.85 0 005.33-2.76c4.66-5.93-2.6-10.96-9.3-10.1-2.24.3-4.47 1.37-5.02 3.74-.18.77 1 1 1.2.25.6-2.28 3.44-2.66 5.4-2.72 3.88-.1 9.26 2.4 7.26 6.89-.92 2.06-3.04 3-5.11 3.5zm25.32-4.25c-1.95.46-3.97.5-5.93.08-1.62-.33-3.7-.95-4.52-2.54-.34-.66-1.4-.29-1.1.43.66 1.62 2.18 2.52 3.78 3.05 1.93.64 3.96.89 5.97.72 3.5-.29 8.06-2.35 5.42-6.5-1.03-1.63-3.44-2.4-5.3-2.15a.61.61 0 00-.53.6c0 .14.04.29.13.4.1.12.22.2.37.22 1.6.28 3.48.58 4.17 2.28.81 2.05-.7 2.98-2.46 3.4zm-86.2-25.68c1.7-.67 3.52-.94 5.33-.78 2.19.26 2.58 1.09 3.82 2.58a.6.6 0 001.03-.4c-.11-1.6-1.8-2.76-3.16-3.26-2.62-.96-8.15-.13-9.9 2.22a4.53 4.53 0 00-.48 4.55 4.38 4.38 0 004.3 2.44c.77-.07.82-1.24.03-1.21a3.2 3.2 0 01-3.25-2.49c-.32-1.7.75-3.05 2.28-3.65zM70.9 96.8a.57.57 0 00-.2 1.12c5.28 1.22 9.18-2.13 5.98-6.44-2.38-3.21-8.7-5-12-2.17-1.73 1.48-2.48 4.2-.95 6.1a.6.6 0 00.99-.7c-1.05-1.84 0-4.03 1.8-4.88 2.71-1.29 7.26.17 9.08 2.54 2.9 3.8-1.53 4.9-4.7 4.43zM59.2 89.56c.72-.15.61-1.38-.12-1.17-2.02.6-6.07.83-6.28-2.04-.2-2.86 4.6-4.65 6.86-4.68 1.58-.02 4.27.6 3.8 2.75a.58.58 0 001.1.34c.72-1.84-.7-3.48-2.4-4.03-5.6-1.8-13.85 3.81-9.56 8.19 1.46 1.5 4.45 1.1 6.6.64zm-15.33-19a.63.63 0 10-.25-1.24c-2.28.2-4.98.28-7.2.68a.58.58 0 00.08 1.14c2.3.01 5.03-.38 7.37-.59zm-1.32-16.61a132.2 132.2 0 006.88 3.28c.7.3 1.13-.75.46-1.09a133.63 133.63 0 00-6.88-3.26c-.7-.3-1.11.73-.46 1.07zm22.05-8.63a.55.55 0 00.91-.6 42.08 42.08 0 00-2.6-4.6.57.57 0 00-1.02.5 42.8 42.8 0 002.71 4.7zm19.34-.07c-.06-2.2-.08-4.41-.24-6.61a.57.57 0 10-1.13.11c-.02 2.2.1 4.42.18 6.62.02.77 1.22.65 1.2-.12zm11.42.85c.76-2.13 1.66-4.4 2.28-6.55a.56.56 0 10-1.07-.3c-.86 2.06-1.57 4.4-2.3 6.54-.25.7.84 1 1.1.3zM72.51 163.62c-.78-.18-1.16.72-.37 1.05 1.44.6 4.35 1.72 3.3 3.85-1.09 2.24-6 2.57-8.25 2.33-2.38-.26-6.2-1.76-3.82-4.74 1.5-1.88 4.34-1.8 6.5-1.76.75.01.87-1.11.11-1.17-2.56-.19-5.47-.23-7.39 1.78-3.33 3.45.1 6.86 3.97 7.36 3 .4 8.49-.2 10.06-3.08 1.55-2.85-1.64-5.04-4.1-5.62zm-8.93-9.56c-2.5-1.5-5.8-1.12-8.4-.02-.84.36-.31 1.52.53 1.3 2.03-.55 4.07-1.22 6.16-.53 3.98 1.3 4.13 5.62-1.4 6.54-1.92.34-3.9.3-5.8-.15-2.54-.8-2.38-2.94-.94-4.67.48-.57-.36-1.13-.85-.58-1.49 1.65-2.2 4.3-.27 5.92 1.71 1.43 5.08 1.38 7.18 1.16 6.48-.67 8.85-5.95 3.79-8.97zM43.45 164.3a.6.6 0 00.2 1.18c1.9.03 4.48-.68 5.73 1.26 1.13 1.75-.17 3.84-1.6 4.91-2.49 1.88-9.24 2.81-10.11-.73-.58-2.33 1.95-3.92 3.63-4.9.7-.4.04-1.43-.65-1.05-2.1 1.16-4.35 2.75-4.37 5.41-.04 5.17 8.53 5.05 12.06 2.56 1.92-1.36 3.46-3.74 2.6-6.16-1.05-2.95-4.91-3.33-7.5-2.48z" fill="#F97D7D"/>
  <path fill-rule="evenodd" clip-rule="evenodd" d="M77.61 112.6c.29-3.12 3.98-3.49 4.92-.2.4 1.4-.14 3.35-1.52 4.03.08.96 0 1.93-.21 2.86a1.03 1.03 0 01-.97.46 1.02 1.02 0 01-.85-.66 8.92 8.92 0 01.04-2.75c-1.11-.62-1.58-1.9-1.4-3.75zm50.8 14.82c-1.08 14.92-1.72 29.9-2.38 44.84-.03.75 1.14.92 1.19.13 1-14.9 1.88-29.92 2.38-44.85.03-.75-1.13-.9-1.18-.12zM46.5 97.8c7.82 4.13 14.58 6.46 23.1 9.98.73.3 1.23-.82.5-1.12-8.85-3.66-15.71-6.03-23.93-10.31a.62.62 0 00-.92.5c-.18 5.75 0 11.51.52 17.24.34 5.14.97 10.27 1.88 15.34.11.7 1.17.44 1.07-.25-.86-6.2-1.28-9.18-1.74-15.42-.43-5.88-.35-10.23-.48-15.96zm75.34 29.75a692.04 692.04 0 01-33.72-12.7.83.83 0 00-.82.08.85.85 0 00-.36.75c-.09 3.22-.5 8.53-.71 10.4-4.48-1.6-8.86-3.48-13.1-5.63-.15-4.1-.17-7.2-.1-11.3.01-.9-1.07-1.1-1.15-.13-.36 4.6-.18 7.62-.19 10.63 0 .87-.02 1.6.76 2.03a79.72 79.72 0 0014 5.92c.37.12.9.07.98-.4.42-2.69.38-7.35.7-11.13a511.63 511.63 0 0032.97 12.5c-.27 6.47-.8 12.95-1.17 19.25-.36 6.22-.75 10.75-1.09 16.82a886.51 886.51 0 01-41.86-19.31c-9.08-4.48-17.92-9.2-26.89-13.9-.63-.34-1.23.58-.6.94a531.8 531.8 0 0025.6 13.37 865.8 865.8 0 0044.07 20.34.55.55 0 00.82-.44c.42-6.55.78-11.27 1.17-17.83.36-6.03.8-12.25 1.08-18.3.02-.6.27-1.74-.39-1.97zm58.23-15.08c-13.73 5.6-29.31 10.77-43.48 15.11-.48.15-.41.82-.46 1.23-1.23 12.45-2.32 23.38-3.46 35.9-.04.42.28.8.73.63 6.83-2.31 13.53-5.1 20.27-7.67 6.74-2.57 12.68-4.73 19.37-7.45a.59.59 0 00.33-.74.58.58 0 00-.72-.35c-6.8 2.41-12.63 4.86-19.38 7.42-6.43 2.45-12.96 4.72-19.3 7.35 1.17-12.33 2.28-22.96 3.36-35.36 13.86-3.75 28.89-9.25 42.25-14.59-1.85 11.88-3.04 21.2-6.02 32.98-.17.7.84.83 1.03.13 3.26-12.15 4.4-21.6 6.33-34.03.07-.5-.47-.71-.85-.56zm32.33-63.65c-.57-.57-1.34.43-.77 1 8.6 8.6 13.21 21.01 9.28 32.85-3.5 10.5-13.5 17.94-24.73 16.18 5.81-14.84 10.78-30 14.87-45.4a.58.58 0 00-.83-.67.58.58 0 00-.28.33c-4.35 15.46-9.08 30.76-14.97 45.7-.15.38-.26.93.29 1.04 9.02 1.8 18.48-2.62 23.54-10.17 8.97-13.35 4.24-30.14-6.4-40.86zm-5.55-11.95c-2.26 14.57-19.4 64.73-21.43 65.45-2.02.71-15.37-4.22-18.6-5.8 5.89-5.4 13.88-17.94.03-25.44-13.55-7.35-24.06-3.56-25.3 12.48-3.71-4.74-9.4-3.5-12.03-2.58-.32-7-12.02-10.09-17.05-6.91-4.87-6.68-14.62-6.39-18.8-3.28 1.86-7.64 16.42-55.04 17.65-55.78 1.22-.74 92.87 20.59 95.53 21.86zM105.16 62.6c-.6-1.7-1.27-3.36-2.04-4.98a.59.59 0 00-1.06.43c.6 1.7 1.28 3.36 2.05 4.98.25.59 1.29.18 1.05-.43zm7.84-6.07c.12-.62-.9-.85-1.1-.25-.6 1.94-1.07 4.22-1.52 6.21-.14.62.92.86 1.1.25a79.41 79.41 0 001.52-6.2zm6.43 5.63a10.84 10.84 0 01-3.28 3.04c-.62.38-.12 1.36.5 1a9.64 9.64 0 003.71-3.4.58.58 0 00.09-.43.56.56 0 00-.44-.44.56.56 0 00-.58.23zm15.01-22.78a32.79 32.79 0 00-18.55-20.64.59.59 0 00-.46 1.08A32.64 32.64 0 01133.63 43c1.87 9.44-.43 21.13-8.96 26.72-.57.37 0 1.38.6 1.06 10.6-5.69 12.4-20.85 9.17-31.4zm7 30.1a44.92 44.92 0 00-4-4.06c-.49-.42-1.2.31-.79.8a44.72 44.72 0 004 4.08c.46.43 1.23-.31.8-.81zm8.75-5.73c-.55-1.74-1.26-4.59-2-6.21a.56.56 0 00-1.09.24c.55 2.15 1.2 4.28 1.97 6.37.23.73 1.35.33 1.12-.4zm13.97-7c.1-.64-.93-.8-1.11-.2a69.74 69.74 0 00-1.65 7.36c-.1.63.94.8 1.1.2a70.01 70.01 0 001.66-7.35zm13.6 7.23c.39-.46-.36-1.21-.86-.74-1.42 1.32-2.98 3.1-4.27 4.57a.58.58 0 00.77.86 69.62 69.62 0 004.36-4.69zm5.47 27.52a34.13 34.13 0 01-5.16-1.45c-.74-.27-1.21.64-.48.94 1.75.7 3.56 1.24 5.4 1.62a.57.57 0 00.62-.87.58.58 0 00-.39-.24zm1.62-14.75c-1.87.09-3.73.3-5.57.63a.62.62 0 00-.6.64.63.63 0 00.63.61c1.92-.1 3.83-.34 5.72-.7a.6.6 0 00.4-.67.6.6 0 00-.58-.5z" fill="#000"/>
</svg>
